<?xml version="1.0" encoding="utf-8"?>
<!-- Generator: Adobe Illustrator 19.0.0, SVG Export Plug-In . SVG Version: 6.00 Build 0)  -->
<svg version="1.1" id="Layer_1" xmlns="http://www.w3.org/2000/svg" xmlns:xlink="http://www.w3.org/1999/xlink" x="0px" y="0px"
	 viewBox="1 27.6 1025 715.4" style="enable-background:new 1 27.6 1025 715.4;" xml:space="preserve">
<style type="text/css">
	.st0{clip-path:url(#SVGID_2_);fill:#FFFFFF;}
	.st1{fill:#939598;}
	.st2{fill:#58595B;}
	.st3{fill:#CBFF69;}
	.st4{fill:#FFAD9F;}
	.st5{fill:#FFF9A1;}
	.st6{fill:#80E3FF;}
	.st7{fill:#E6E7E8;}
	.st8{fill:#FFFFFF;}
</style>
<g>
	<g>
		<defs>
			<rect id="SVGID_1_" x="1.1" y="27.7" width="1024.9" height="717.4"/>
		</defs>
		<clipPath id="SVGID_2_">
			<use xlink:href="#SVGID_1_"  style="overflow:visible;"/>
		</clipPath>
		<polygon class="st0" points="1026,745.1 1,745.1 1,27.6 1026,27.6 1026,745.1 		"/>
	</g>
	<path class="st1" d="M781.1,360.7c-6.4-3.9-13.8-4.3-20.3-1.8c-2.8,0.3-12.1,1.1-25.3-2.1c-2.3-0.6-4.8-1.2-7.3-2
		c-2.6-0.8-4.9-1.7-7.1-2.6c-12.6-5.2-19.7-11.2-21.7-13.1c-3.8-5.8-10.1-9.9-17.5-10.4c-12.7-1-23.7,8.5-24.7,21.1l-2.2,28.7
		c-1,12.7,8.5,23.7,21.1,24.7c8.4,0.6,16.1-3.3,20.6-9.7c0.6-0.8,1.1-1.7,1.6-2.6c4.6-6.1,12.7-9,20.4-6.5
		c7.7,2.5,12.6,9.6,12.7,17.2c-0.1,1-0.2,2-0.2,3c-0.1,7.9,3.8,15.6,11,20c10.8,6.6,25,3.2,31.6-7.6l15-24.6
		C795.4,381.5,792,367.4,781.1,360.7L781.1,360.7z"/>
	<path d="M713,381.9c2.1,0,4.1,0.3,6.1,1c8.2,2.6,13.7,10.2,13.8,18.7c-0.2,1.2-0.2,2.1-0.2,3.1c-0.1,7.5,3.8,14.6,10.2,18.6
		c3.4,2.1,7.2,3.1,11.1,3.1c7.5,0,14.3-3.8,18.3-10.2l15-24.6c3-4.9,3.9-10.6,2.5-16.2c-1.3-5.6-4.8-10.3-9.6-13.2
		c-5.6-3.4-12.7-4.1-18.9-1.7c-0.1,0-0.2,0.1-0.4,0.1c-1.3,0.2-3.4,0.3-6.3,0.3c-4.3,0-11.2-0.4-19.6-2.5c-2.6-0.6-5-1.3-7.4-2.1
		c-2.5-0.8-4.9-1.7-7.3-2.7c-13-5.3-20.3-11.6-22.2-13.4c-0.1-0.1-0.2-0.2-0.3-0.3c-3.7-5.7-9.6-9.2-16.3-9.7
		c-11.8-0.9-22.1,8-23,19.7l-2.2,28.7c-0.9,11.8,7.9,22.1,19.7,23c7.5,0.6,14.8-2.9,19.1-9.1c0.6-0.9,1.1-1.7,1.5-2.4
		C700.8,384.9,706.8,381.9,713,381.9L713,381.9z M754.1,429.6L754.1,429.6c-4.5,0-8.9-1.2-12.8-3.6c-7.4-4.5-11.9-12.7-11.7-21.4
		c0-1.1,0.1-2.2,0.2-3.3c-0.1-6.9-4.8-13.2-11.6-15.4c-6.7-2.2-14.4,0.3-18.6,5.9c-0.3,0.7-0.9,1.6-1.6,2.6
		c-5,7.1-13.3,11.1-22,10.4c-13.5-1.1-23.7-12.9-22.6-26.4l2.2-28.7c1-13.4,12.8-23.7,26.4-22.6c7.6,0.6,14.4,4.6,18.6,11
		c2,1.9,8.9,7.7,21.1,12.7c2.3,1,4.6,1.8,7,2.6c2.3,0.8,4.7,1.4,7.2,2c8.2,2,14.8,2.4,18.9,2.4c2.7,0,4.6-0.2,5.7-0.3
		c7-2.7,15.1-1.9,21.5,2c5.6,3.4,9.5,8.8,11.1,15.2c1.5,6.4,0.5,13-2.9,18.6l-15,24.6C770.6,425.2,762.7,429.6,754.1,429.6
		L754.1,429.6z"/>
	<path class="st1" d="M911.4,325c-6.9,2.8-11.6,8.6-13.5,15.3c-1.3,2.4-6.3,10.4-16.7,19.1c-1.8,1.6-3.8,3.1-6,4.7
		c-2.2,1.6-4.3,3-6.3,4.2c-11.6,7.1-20.7,9.2-23.4,9.7c-6.9-0.4-13.9,2.3-18.8,7.9c-8.3,9.6-7.2,24.1,2.4,32.4l21.8,18.8
		c9.6,8.3,24.1,7.2,32.4-2.4c5.5-6.4,6.9-14.9,4.3-22.3c-0.3-1-0.7-1.9-1.1-2.9c-2.2-7.3,0.3-15.5,6.8-20.3c6.6-4.7,15.2-4.5,21.4,0
		c0.7,0.7,1.5,1.4,2.3,2c6.3,4.7,14.8,6.2,22.6,3c11.7-4.8,17.4-18.2,12.6-30l-10.9-26.7C936.6,325.8,923.2,320.2,911.4,325
		L911.4,325z"/>
	<path d="M844.2,379.6c-6.2,0-12.1,2.7-16.2,7.4c-7.7,8.9-6.7,22.5,2.2,30.1l21.8,18.8c3.9,3.3,8.8,5.2,13.9,5.2
		c6.2,0,12.1-2.7,16.2-7.4c5-5.8,6.5-13.5,4-20.8c-0.3-0.9-0.6-1.8-1.1-2.7c-2.6-8.4,0.4-17.3,7.3-22.3c6.8-4.9,16.5-4.9,23.3,0
		c0.9,0.8,1.6,1.4,2.4,2c3.7,2.8,8.3,4.4,12.9,4.4l0,0c2.8,0,5.5-0.5,8.1-1.6c5.3-2.2,9.4-6.3,11.6-11.5c2.2-5.3,2.2-11.1,0.1-16.4
		l-10.9-26.7c-3.3-8.1-11.1-13.3-19.8-13.3c-2.8,0-5.5,0.5-8.1,1.6c-6.2,2.5-10.8,7.7-12.5,14.2c0,0.1-0.1,0.2-0.1,0.4
		c-1.3,2.3-6.4,10.6-17,19.6c-1.9,1.6-3.9,3.2-6.1,4.8c-2.1,1.5-4.2,2.9-6.4,4.3c-11.9,7.3-21.4,9.4-24,9.9c-0.1,0-0.3,0-0.4,0
		C845,379.6,844.6,379.6,844.2,379.6L844.2,379.6z M866,444.3c-5.9,0-11.6-2.1-16-6l-21.8-18.8c-10.3-8.8-11.4-24.4-2.6-34.7
		c4.9-5.7,12.3-8.9,19.9-8.5c2.7-0.5,11.5-2.7,22.7-9.5c2.2-1.3,4.2-2.7,6.2-4.1c2.1-1.5,4.1-3,5.9-4.6c10-8.4,14.8-16.1,16.2-18.5
		c2.1-7.4,7.3-13.3,14.4-16.2c3-1.2,6.1-1.8,9.3-1.8c10,0,19,6,22.8,15.3l10.9,26.7c2.5,6.1,2.5,12.8-0.1,18.8
		c-2.5,6.1-7.3,10.8-13.4,13.3c-3,1.2-6.1,1.8-9.3,1.8l0,0c-5.3,0-10.6-1.8-14.9-5c-1-0.7-1.8-1.4-2.5-2.1c-2.7-1.9-6-3-9.6-3
		c-3.5,0-6.9,1.1-9.7,3.1c-5.8,4.2-8.3,11.6-6.2,18.5c0.4,0.8,0.8,1.8,1.1,2.8c2.8,8.2,1,17.4-4.6,23.9
		C880,441.2,873.2,444.3,866,444.3L866,444.3z"/>
	<path class="st1" d="M533.4,343.5c-12-2.9-24.1,0.3-33.1,7.6c-4.2,2-18.5,7.9-41.1,9.7c-4,0.3-8.2,0.5-12.6,0.5
		c-4.5,0-8.7-0.2-12.6-0.5c-22.6-1.7-36.9-7.7-41.1-9.7c-8.9-7.3-21-10.5-33.1-7.6c-20.6,4.9-33.2,25.6-28.3,46.1l11.2,46.7
		c4.9,20.5,25.6,33.2,46.1,28.3c13.6-3.3,23.7-13.5,27.6-26c0.5-1.6,0.9-3.3,1.2-5c4.1-12.1,15.5-20.7,28.9-20.7
		c13.4,0,24.8,8.7,28.9,20.8c0.3,1.7,0.7,3.3,1.2,4.9c3.8,12.5,14,22.7,27.6,26c20.6,4.9,41.2-7.7,46.2-28.3l11.2-46.7
		C566.6,369.1,554,348.4,533.4,343.5L533.4,343.5z"/>
	<path d="M446.6,411.3c13.8,0,26,8.8,30.5,21.9c0.3,1.7,0.7,3.2,1.2,5c3.8,12.3,13.9,21.9,26.4,24.9c2.8,0.7,5.7,1,8.6,1
		c17,0,31.6-11.6,35.6-28.1l11.2-46.7c2.3-9.5,0.7-19.4-4.4-27.7c-5.1-8.3-13.2-14.2-22.7-16.5c-11-2.6-22.9,0.1-31.7,7.2
		c-0.1,0.1-0.2,0.2-0.3,0.2c-3.9,1.9-18.6,8-41.7,9.8c-8.7,0.7-16.9,0.7-25.5,0c-23-1.8-37.7-8-41.7-9.8c-0.1-0.1-0.2-0.1-0.3-0.2
		c-8.8-7.2-20.7-9.9-31.7-7.2c-19.6,4.7-31.8,24.5-27.1,44.2l11.2,46.7c4,16.5,18.6,28.1,35.6,28.1c2.9,0,5.8-0.3,8.6-1
		c12.5-3,22.6-12.5,26.4-24.9c0.6-1.8,0.9-3.3,1.2-4.8C420.6,420,432.8,411.3,446.6,411.3L446.6,411.3z M513.3,467.2
		C513.3,467.2,513.3,467.2,513.3,467.2c-3.1,0-6.3-0.4-9.3-1.1c-13.6-3.3-24.6-13.6-28.8-27.1c-0.6-1.9-1-3.6-1.3-5.1
		c-3.9-11.5-14.9-19.4-27.3-19.4c-12.4,0-23.4,7.9-27.4,19.6c-0.2,1.3-0.6,3-1.2,4.9c-4.2,13.4-15.2,23.8-28.8,27.1
		c-3.1,0.7-6.2,1.1-9.3,1.1c-18.5,0-34.4-12.6-38.8-30.6L329.9,390c-5.1-21.4,8.1-43,29.5-48.1c11.9-2.9,24.7,0.1,34.3,7.8
		c4.1,1.9,18.2,7.7,40.4,9.4c8.5,0.7,16.5,0.7,25,0c22.2-1.7,36.3-7.5,40.4-9.4c9.6-7.7,22.4-10.6,34.3-7.7
		c10.4,2.5,19.1,8.9,24.7,17.9c5.6,9.1,7.3,19.8,4.8,30.1l-11.2,46.7C547.7,454.7,531.8,467.2,513.3,467.2L513.3,467.2z"/>
	<polygon class="st2" points="400.7,388.6 383.7,388.6 383.7,371.6 370,371.6 370,388.6 353,388.6 353,402.2 370,402.2 370,419.3 
		383.7,419.3 383.7,402.2 400.7,402.2 400.7,388.6 	"/>
	<path d="M371.6,417.6H382v-15.4c0-0.9,0.7-1.6,1.6-1.6h15.4v-10.4h-15.4c-0.9,0-1.6-0.7-1.6-1.6v-15.4h-10.4v15.4
		c0,0.9-0.7,1.6-1.6,1.6h-15.4v10.4H370c0.9,0,1.6,0.7,1.6,1.6V417.6L371.6,417.6z M383.7,420.9H370c-0.9,0-1.6-0.7-1.6-1.6v-15.4
		H353c-0.9,0-1.6-0.7-1.6-1.6v-13.6c0-0.9,0.7-1.6,1.6-1.6h15.4v-15.4c0-0.9,0.7-1.6,1.6-1.6h13.6c0.9,0,1.6,0.7,1.6,1.6V387h15.4
		c0.9,0,1.6,0.7,1.6,1.6v13.6c0,0.9-0.7,1.6-1.6,1.6h-15.4v15.4C385.3,420.2,384.5,420.9,383.7,420.9L383.7,420.9z"/>
	<path class="st3" d="M507.6,379c0,5.7-4.6,10.4-10.4,10.4c-5.7,0-10.4-4.6-10.4-10.4c0-5.7,4.6-10.4,10.4-10.4
		C503,368.7,507.6,373.3,507.6,379L507.6,379z"/>
	<path d="M497.2,370.3c-4.8,0-8.8,3.9-8.8,8.8c0,4.8,3.9,8.8,8.8,8.8c4.8,0,8.8-3.9,8.8-8.8C506,374.2,502.1,370.3,497.2,370.3
		L497.2,370.3z M497.2,391c-6.6,0-12-5.4-12-12c0-6.6,5.4-12,12-12c6.6,0,12,5.4,12,12C509.2,385.7,503.9,391,497.2,391L497.2,391z"
		/>
	<path class="st4" d="M541.4,379c0,5.7-4.6,10.4-10.4,10.4c-5.7,0-10.4-4.6-10.4-10.4c0-5.7,4.7-10.4,10.4-10.4
		C536.7,368.7,541.4,373.3,541.4,379L541.4,379z"/>
	<path d="M531,370.3c-4.8,0-8.8,3.9-8.8,8.8c0,4.8,3.9,8.8,8.8,8.8c4.8,0,8.8-3.9,8.8-8.8C539.8,374.2,535.8,370.3,531,370.3
		L531,370.3z M531,391c-6.6,0-12-5.4-12-12c0-6.6,5.4-12,12-12c6.6,0,12,5.4,12,12C543,385.7,537.6,391,531,391L531,391z"/>
	<path class="st5" d="M507.6,412.9c0,5.7-4.6,10.4-10.4,10.4c-5.7,0-10.4-4.6-10.4-10.4c0-5.7,4.6-10.4,10.4-10.4
		C503,402.6,507.6,407.2,507.6,412.9L507.6,412.9z"/>
	<path d="M497.2,404.2c-4.8,0-8.8,3.9-8.8,8.8c0,4.8,3.9,8.8,8.8,8.8c4.8,0,8.8-3.9,8.8-8.8C506,408.1,502.1,404.2,497.2,404.2
		L497.2,404.2z M497.2,424.9c-6.6,0-12-5.4-12-12c0-6.6,5.4-12,12-12c6.6,0,12,5.4,12,12C509.2,419.6,503.9,424.9,497.2,424.9
		L497.2,424.9z"/>
	<path class="st6" d="M541.4,412.9c0,5.7-4.6,10.4-10.4,10.4c-5.7,0-10.4-4.6-10.4-10.4c0-5.7,4.7-10.4,10.4-10.4
		C536.7,402.6,541.4,407.2,541.4,412.9L541.4,412.9z"/>
	<path d="M531,404.2c-4.8,0-8.8,3.9-8.8,8.8c0,4.8,3.9,8.8,8.8,8.8c4.8,0,8.8-3.9,8.8-8.8C539.8,408.1,535.8,404.2,531,404.2
		L531,404.2z M531,424.9c-6.6,0-12-5.4-12-12c0-6.6,5.4-12,12-12c6.6,0,12,5.4,12,12C543,419.6,537.6,424.9,531,424.9L531,424.9z"/>
	<path d="M438.6,382h-19.9c-0.9,0-1.6-0.7-1.6-1.6s0.7-1.6,1.6-1.6h19.9c0.9,0,1.6,0.7,1.6,1.6S439.5,382,438.6,382L438.6,382z"/>
	<path d="M474.6,382h-19.9c-0.9,0-1.6-0.7-1.6-1.6s0.7-1.6,1.6-1.6h19.9c0.9,0,1.6,0.7,1.6,1.6S475.5,382,474.6,382L474.6,382z"/>
	<path class="st2" d="M459.2,360.7v-8.8c0-5.2-4.2-9.5-9.5-9.5h-6.3c-5.2,0-9.5,4.2-9.5,9.5v8.8c4,0.3,8.2,0.5,12.6,0.5
		C451.1,361.2,455.3,361,459.2,360.7L459.2,360.7z"/>
	<path d="M435.6,359.2c7.5,0.5,14.6,0.5,22.1,0v-7.3c0-4.3-3.5-7.9-7.9-7.9h-6.3c-4.3,0-7.9,3.5-7.9,7.9V359.2L435.6,359.2z
		 M446.6,362.8c-4.3,0-8.4-0.2-12.8-0.5c-0.8-0.1-1.5-0.8-1.5-1.6v-8.8c0-6.1,5-11.1,11.1-11.1h6.3c6.1,0,11.1,5,11.1,11.1v8.8
		c0,0.8-0.6,1.5-1.5,1.6C455,362.6,450.8,362.8,446.6,362.8L446.6,362.8z"/>
	<path d="M729.3,507h-88.8c-20.2,0-36.6-16.4-36.6-36.6V311.5c0-18.4-15-33.4-33.4-33.4h-88.8c-18.4,0-33.4,14.1-33.4,31.4v33
		c0,0.9-0.7,1.6-1.6,1.6c-0.9,0-1.6-0.7-1.6-1.6v-33c0-19.1,16.4-34.6,36.6-34.6h88.8c20.2,0,36.6,16.4,36.6,36.6v158.8
		c0,18.4,15,33.4,33.4,33.4h88.8c0.9,0,1.6,0.7,1.6,1.6C730.9,506.3,730.2,507,729.3,507L729.3,507z"/>
	<path class="st6" d="M635.4,487.9c0,35.5-28.7,64.2-64.2,64.2c-35.5,0-64.2-28.7-64.2-64.2c0-35.5,28.8-64.2,64.2-64.2
		C606.7,423.6,635.4,452.4,635.4,487.9L635.4,487.9z"/>
	<path d="M571.2,425.3c-34.5,0-62.6,28.1-62.6,62.6c0,34.5,28.1,62.6,62.6,62.6c34.5,0,62.6-28.1,62.6-62.6
		C633.8,453.3,605.7,425.3,571.2,425.3L571.2,425.3z M571.2,553.7c-36.3,0-65.8-29.5-65.8-65.8s29.5-65.8,65.8-65.8
		c36.3,0,65.8,29.5,65.8,65.8S607.5,553.7,571.2,553.7L571.2,553.7z"/>
	<path class="st7" d="M621.3,487.9c0,27.7-22.4,50.1-50.1,50.1c-27.7,0-50.1-22.4-50.1-50.1c0-27.7,22.4-50.1,50.1-50.1
		C598.9,437.7,621.3,460.2,621.3,487.9L621.3,487.9z"/>
	<path d="M571.2,439.4c-26.7,0-48.5,21.8-48.5,48.5c0,26.7,21.8,48.5,48.5,48.5s48.5-21.8,48.5-48.5
		C619.7,461.1,597.9,439.4,571.2,439.4L571.2,439.4z M571.2,539.6c-28.5,0-51.7-23.2-51.7-51.7c0-28.5,23.2-51.7,51.7-51.7
		c28.5,0,51.7,23.2,51.7,51.7C622.9,516.4,599.7,539.6,571.2,539.6L571.2,539.6z"/>
	<polygon class="st8" points="561.6,525.9 531.1,495.4 542.5,484 561.6,503.1 599.9,464.8 611.3,476.2 561.6,525.9 	"/>
	<path d="M533.4,495.4l28.2,28.2l47.4-47.4l-9.1-9.1l-37.1,37.1c-0.6,0.6-1.7,0.6-2.3,0l-18-18L533.4,495.4L533.4,495.4z
		 M561.6,527.5c-0.4,0-0.8-0.2-1.1-0.5L530,496.5c-0.6-0.6-0.6-1.7,0-2.3l11.4-11.4c0.6-0.6,1.7-0.6,2.3,0l18,18l37.1-37.1
		c0.6-0.6,1.7-0.6,2.3,0l11.4,11.4c0.6,0.6,0.6,1.7,0,2.3L562.8,527C562.5,527.3,562.1,527.5,561.6,527.5L561.6,527.5z"/>
	<polygon class="st7" points="696.9,362 687.2,358.8 690.3,349.1 682.6,346.6 679.4,356.3 669.7,353.2 667.2,361 676.9,364.1 
		673.7,373.8 681.5,376.4 684.7,366.6 694.4,369.8 696.9,362 	"/>
	<path d="M675.8,372.8l4.7,1.5l2.7-8.2c0.3-0.8,1.2-1.3,2-1l8.2,2.6l1.5-4.7l-8.2-2.7c-0.8-0.3-1.3-1.2-1-2l2.6-8.2l-4.7-1.5
		l-2.6,8.2c-0.3,0.8-1.2,1.3-2,1l-8.2-2.6l-1.5,4.7l8.2,2.7c0.8,0.3,1.3,1.2,1,2L675.8,372.8L675.8,372.8z M681.5,378
		c-0.2,0-0.3,0-0.5-0.1l-7.8-2.5c-0.4-0.1-0.7-0.4-0.9-0.8c-0.2-0.4-0.2-0.8-0.1-1.2l2.7-8.2l-8.2-2.7c-0.8-0.3-1.3-1.2-1-2l2.5-7.8
		c0.3-0.8,1.2-1.3,2-1l8.2,2.6l2.6-8.2c0.1-0.4,0.4-0.7,0.8-0.9c0.4-0.2,0.8-0.2,1.2-0.1l7.8,2.5c0.8,0.3,1.3,1.2,1,2l-2.7,8.2
		l8.2,2.7c0.8,0.3,1.3,1.2,1,2l-2.5,7.8c-0.3,0.9-1.2,1.3-2,1l-8.2-2.6l-2.7,8.2C682.8,377.5,682.2,378,681.5,378L681.5,378z"/>
	<path class="st7" d="M759.8,376.3c-1.1,3.3-4.6,5.1-7.8,4c-3.3-1.1-5.1-4.6-4-7.8c1.1-3.3,4.6-5.1,7.8-4
		C759.1,369.5,760.9,373,759.8,376.3L759.8,376.3z"/>
	<path d="M753.9,369.8c-2,0-3.8,1.3-4.4,3.2c-0.4,1.2-0.3,2.4,0.3,3.5c0.6,1.1,1.5,1.9,2.7,2.3c2.4,0.8,5-0.6,5.8-3
		c0.4-1.2,0.3-2.4-0.3-3.5c-0.6-1.1-1.5-1.9-2.7-2.3C754.9,369.8,754.4,369.8,753.9,369.8L753.9,369.8z M753.9,382.2
		c-0.8,0-1.6-0.1-2.4-0.4c-2-0.6-3.6-2-4.6-3.9c-1-1.9-1.1-4-0.5-6c1.3-4,5.8-6.4,9.9-5c2,0.6,3.6,2,4.6,3.9c1,1.9,1.1,4,0.5,6
		C760.3,380.1,757.3,382.2,753.9,382.2L753.9,382.2z"/>
	<path class="st7" d="M779.1,382.6c-1.1,3.3-4.6,5.1-7.8,4c-3.3-1.1-5.1-4.6-4-7.9c1.1-3.3,4.6-5.1,7.9-4
		C778.4,375.8,780.2,379.3,779.1,382.6L779.1,382.6z"/>
	<path d="M773.2,376c-2,0-3.8,1.3-4.4,3.2c-0.8,2.4,0.5,5,3,5.8c2.4,0.8,5-0.6,5.8-3c0.8-2.4-0.5-5-3-5.8
		C774.2,376.1,773.7,376,773.2,376L773.2,376z M773.2,388.5c-0.8,0-1.6-0.1-2.4-0.4c-4.1-1.3-6.4-5.8-5.1-9.9c1.3-4,5.8-6.4,9.9-5.1
		c4.1,1.3,6.4,5.8,5.1,9.9C779.6,386.3,776.6,388.5,773.2,388.5L773.2,388.5z"/>
	<path class="st7" d="M753.6,395.7c-1.1,3.3-4.6,5.1-7.9,4c-3.3-1.1-5.1-4.6-4-7.8c1.1-3.3,4.6-5.1,7.8-4
		C752.8,388.9,754.6,392.4,753.6,395.7L753.6,395.7z"/>
	<path d="M747.6,389.1c-2,0-3.8,1.3-4.4,3.2c-0.4,1.2-0.3,2.4,0.3,3.5c0.6,1.1,1.5,1.9,2.7,2.3c2.4,0.8,5.1-0.6,5.8-3
		c0.4-1.2,0.3-2.4-0.3-3.5c-0.6-1.1-1.5-1.9-2.7-2.3C748.6,389.2,748.1,389.1,747.6,389.1L747.6,389.1z M747.6,401.6
		c-0.8,0-1.6-0.1-2.4-0.4c-2-0.6-3.6-2-4.6-3.9c-1-1.9-1.1-4-0.5-6c1.3-4,5.8-6.4,9.9-5c2,0.6,3.6,2,4.6,3.9c1,1.9,1.1,4,0.5,6
		C754,399.4,751,401.6,747.6,401.6L747.6,401.6z"/>
	<path class="st7" d="M772.8,401.9c-1.1,3.3-4.6,5.1-7.8,4c-3.3-1.1-5.1-4.6-4-7.8c1.1-3.3,4.6-5.1,7.8-4
		C772.1,395.1,773.9,398.6,772.8,401.9L772.8,401.9z"/>
	<path d="M766.9,395.4c-2,0-3.8,1.3-4.4,3.2c-0.4,1.2-0.3,2.4,0.3,3.5c0.6,1.1,1.5,1.9,2.7,2.3c2.4,0.8,5.1-0.6,5.8-3
		c0.4-1.2,0.3-2.4-0.3-3.5c-0.6-1.1-1.5-1.9-2.7-2.3C767.9,395.5,767.4,395.4,766.9,395.4L766.9,395.4z M766.9,407.8
		c-0.8,0-1.6-0.1-2.4-0.4c-2-0.6-3.6-2-4.6-3.9c-1-1.9-1.1-4-0.5-6c1.3-4,5.8-6.4,9.9-5.1c2,0.6,3.6,2,4.6,3.9c1,1.9,1.1,4,0.5,6
		C773.3,405.7,770.3,407.8,766.9,407.8L766.9,407.8z"/>
	<path d="M720.1,365.9c-0.2,0-0.3,0-0.5-0.1l-11.4-3.7c-0.8-0.3-1.3-1.2-1-2c0.3-0.8,1.2-1.3,2-1l11.4,3.7c0.8,0.3,1.3,1.2,1,2
		C721.4,365.5,720.8,365.9,720.1,365.9L720.1,365.9z"/>
	<path d="M740.7,372.6c-0.2,0-0.3,0-0.5-0.1l-11.4-3.7c-0.8-0.3-1.3-1.2-1-2c0.3-0.8,1.2-1.3,2-1l11.4,3.7c0.8,0.3,1.3,1.2,1,2
		C742,372.1,741.4,372.6,740.7,372.6L740.7,372.6z"/>
	<polygon class="st7" points="862.5,393.6 854.2,399.5 848.3,391.2 841.6,396 847.6,404.3 839.3,410.3 844.1,416.9 852.4,411 
		858.4,419.3 865,414.5 859,406.2 867.3,400.2 862.5,393.6 	"/>
	<path d="M852.4,409.3c0.5,0,1,0.2,1.3,0.7l5,7l4-2.9l-5-7c-0.5-0.7-0.4-1.7,0.4-2.3l7-5l-2.9-4l-7,5c-0.7,0.5-1.7,0.4-2.3-0.4l-5-7
		l-4,2.9l5,7c0.2,0.3,0.4,0.8,0.3,1.2c-0.1,0.4-0.3,0.8-0.7,1l-7,5l2.9,4l7-5C851.7,409.4,852.1,409.3,852.4,409.3L852.4,409.3z
		 M858.4,420.9c-0.5,0-1-0.2-1.3-0.7l-5-7l-7,5c-0.3,0.3-0.8,0.4-1.2,0.3c-0.4-0.1-0.8-0.3-1.1-0.7l-4.8-6.6
		c-0.5-0.7-0.4-1.7,0.4-2.3l7-5l-5-7c-0.5-0.7-0.4-1.7,0.4-2.3l6.6-4.8c0.7-0.5,1.7-0.4,2.3,0.4l5,7l7-5c0.7-0.5,1.7-0.4,2.2,0.4
		l4.8,6.6c0.5,0.7,0.4,1.7-0.4,2.3l-7,5l5,7c0.5,0.7,0.4,1.7-0.4,2.3l-6.6,4.8C859,420.8,858.7,420.9,858.4,420.9L858.4,420.9z"/>
	<path class="st7" d="M911.3,351.4c2,2.8,1.4,6.7-1.4,8.7c-2.8,2-6.7,1.4-8.7-1.4c-2-2.8-1.4-6.7,1.4-8.7
		C905.4,347.9,909.3,348.6,911.3,351.4L911.3,351.4z"/>
	<path d="M906.3,350.4c-1,0-1.9,0.3-2.7,0.9c-2.1,1.5-2.5,4.4-1,6.4c1.4,2,4.4,2.5,6.5,1c2.1-1.5,2.5-4.4,1.1-6.4
		C909.1,351.1,907.7,350.4,906.3,350.4L906.3,350.4z M906.3,362.8c-2.5,0-4.9-1.2-6.4-3.3c-2.5-3.5-1.7-8.4,1.8-11
		c3.4-2.4,8.5-1.6,11,1.8c2.5,3.5,1.7,8.4-1.8,11C909.5,362.3,907.9,362.8,906.3,362.8L906.3,362.8z"/>
	<path class="st7" d="M927.8,339.5c2,2.8,1.4,6.7-1.4,8.7c-2.8,2-6.7,1.4-8.7-1.4c-2-2.8-1.4-6.7,1.4-8.7
		C921.9,336.1,925.8,336.7,927.8,339.5L927.8,339.5z"/>
	<path d="M922.7,338.5c-1,0-1.9,0.3-2.7,0.9c-1,0.7-1.7,1.8-1.9,3c-0.2,1.2,0.1,2.4,0.8,3.4c1.4,2,4.4,2.5,6.5,1
		c2.1-1.5,2.5-4.4,1-6.5C925.6,339.2,924.2,338.5,922.7,338.5L922.7,338.5z M922.7,351c-2.5,0-4.9-1.2-6.4-3.3
		c-1.2-1.7-1.7-3.8-1.4-5.8c0.3-2.1,1.5-3.9,3.2-5.1c3.4-2.4,8.5-1.6,10.9,1.8c2.5,3.5,1.7,8.4-1.8,11
		C926,350.5,924.4,351,922.7,351L922.7,351z"/>
	<path class="st7" d="M923.2,367.9c2,2.8,1.4,6.7-1.4,8.7c-2.8,2-6.7,1.4-8.7-1.4c-2-2.8-1.4-6.7,1.4-8.7
		C917.3,364.5,921.2,365.1,923.2,367.9L923.2,367.9z"/>
	<path d="M918.2,366.9c-1,0-1.9,0.3-2.7,0.9c-1,0.7-1.7,1.8-1.9,3c-0.2,1.2,0.1,2.4,0.8,3.4c1.4,2,4.4,2.5,6.5,1
		c2.1-1.5,2.5-4.4,1-6.4C921,367.6,919.6,366.9,918.2,366.9L918.2,366.9z M918.2,379.4c-2.5,0-4.9-1.2-6.4-3.3
		c-1.2-1.7-1.7-3.8-1.4-5.8c0.3-2.1,1.5-3.9,3.2-5.1c3.4-2.4,8.5-1.6,11,1.8c2.5,3.5,1.7,8.4-1.8,11
		C921.4,378.9,919.8,379.4,918.2,379.4L918.2,379.4z"/>
	<path class="st7" d="M939.7,356c2,2.8,1.4,6.7-1.4,8.7c-2.8,2-6.7,1.4-8.7-1.4c-2-2.8-1.4-6.7,1.4-8.7
		C933.8,352.6,937.7,353.2,939.7,356L939.7,356z"/>
	<path d="M934.6,355c-1,0-1.9,0.3-2.7,0.9c-1,0.7-1.7,1.8-1.9,3c-0.2,1.2,0.1,2.4,0.8,3.4c1.4,2,4.4,2.5,6.5,1.1
		c2.1-1.5,2.5-4.4,1-6.4C937.5,355.8,936.1,355,934.6,355L934.6,355z M934.6,367.5c-2.5,0-4.9-1.2-6.4-3.3c-1.2-1.7-1.7-3.8-1.4-5.8
		c0.3-2.1,1.5-3.9,3.2-5.1c3.4-2.4,8.5-1.6,11,1.8c2.5,3.5,1.7,8.4-1.8,11C937.9,367,936.3,367.5,934.6,367.5L934.6,367.5z"/>
	<path d="M868.4,384.8c-0.5,0-1-0.2-1.3-0.7c-0.5-0.7-0.4-1.7,0.4-2.3l9.7-7c0.7-0.5,1.7-0.4,2.2,0.4c0.5,0.7,0.4,1.7-0.4,2.3
		l-9.7,7C869,384.7,868.7,384.8,868.4,384.8L868.4,384.8z"/>
	<path d="M885.9,372.2c-0.5,0-1-0.2-1.3-0.7c-0.5-0.7-0.4-1.7,0.4-2.3l9.7-7c0.7-0.5,1.7-0.4,2.3,0.4c0.5,0.7,0.4,1.7-0.4,2.3
		l-9.7,7C886.6,372.1,886.3,372.2,885.9,372.2L885.9,372.2z"/>
	<polygon class="st7" points="668,282.4 668,302.1 939.7,302.1 939.7,282.4 668,282.4 	"/>
	<path d="M669.6,300.4h268.5V284H669.6V300.4L669.6,300.4z M939.7,303.7H668c-0.9,0-1.6-0.7-1.6-1.6v-19.6c0-0.9,0.7-1.6,1.6-1.6
		h271.8c0.9,0,1.6,0.7,1.6,1.6v19.6C941.4,302.9,940.6,303.7,939.7,303.7L939.7,303.7z"/>
	<path d="M669.6,280.8h268.5V120.1H669.6V280.8L669.6,280.8z M939.7,284H668c-0.9,0-1.6-0.7-1.6-1.6V118.5c0-0.9,0.7-1.6,1.6-1.6
		h271.8c0.9,0,1.6,0.7,1.6,1.6v163.9C941.4,283.3,940.6,284,939.7,284L939.7,284z"/>
	<path d="M821.6,293.9h-35.4c-0.9,0-1.6-0.7-1.6-1.6s0.7-1.6,1.6-1.6h35.4c0.9,0,1.6,0.7,1.6,1.6S822.5,293.9,821.6,293.9
		L821.6,293.9z"/>
	<path class="st1" d="M876.8,323.6c0,4.3-3.4,7.7-7.7,7.7H738.7c-4.3,0-7.7-3.4-7.7-7.7l0,0c0-4.2,3.4-7.7,7.7-7.7h130.4
		C873.3,315.9,876.8,319.4,876.8,323.6L876.8,323.6L876.8,323.6z"/>
	<path d="M738.7,317.6c-3.4,0-6.1,2.7-6.1,6.1c0,3.4,2.7,6.1,6.1,6.1h130.4c3.4,0,6.1-2.7,6.1-6.1c0-3.4-2.7-6.1-6.1-6.1H738.7
		L738.7,317.6z M869.1,332.9H738.7c-5.1,0-9.3-4.2-9.3-9.3c0-5.1,4.2-9.3,9.3-9.3h130.4c5.1,0,9.3,4.2,9.3,9.3
		C878.4,328.8,874.2,332.9,869.1,332.9L869.1,332.9z"/>
	<path d="M803.9,317.6c-0.9,0-1.6-0.7-1.6-1.6v-13.9c0-0.9,0.7-1.6,1.6-1.6s1.6,0.7,1.6,1.6v13.9
		C805.5,316.8,804.8,317.6,803.9,317.6L803.9,317.6z"/>
	<path d="M755.8,250.2c-0.4,0-0.8-0.2-1.1-0.5c-0.6-0.6-0.6-1.7,0-2.3l96.2-96.2c0.6-0.6,1.7-0.6,2.3,0c0.6,0.6,0.6,1.7,0,2.3
		l-96.2,96.2C756.6,250,756.2,250.2,755.8,250.2L755.8,250.2z"/>
	<path d="M847.7,229.9c-0.4,0-0.8-0.2-1.1-0.5c-0.6-0.6-0.6-1.7,0-2.3l55.6-55.6c0.6-0.6,1.6-0.6,2.3,0c0.6,0.6,0.6,1.7,0,2.3
		l-55.6,55.6C848.5,229.7,848.1,229.9,847.7,229.9L847.7,229.9z"/>
	<path d="M704.5,229.9c-0.4,0-0.8-0.2-1.1-0.5c-0.6-0.6-0.6-1.7,0-2.3l55.6-55.6c0.6-0.6,1.6-0.6,2.3,0c0.6,0.6,0.6,1.7,0,2.3
		l-55.6,55.6C705.3,229.7,704.9,229.9,704.5,229.9L704.5,229.9z"/>
	<path class="st1" d="M944.9,544.3c0,6.7-5.5,12.2-12.2,12.2H756.9c-6.7,0-12.2-5.5-12.2-12.2V500c0-6.7,5.5-12.2,12.2-12.2h175.8
		c6.7,0,12.2,5.5,12.2,12.2V544.3L944.9,544.3z"/>
	<path d="M756.9,489.5c-5.8,0-10.6,4.7-10.6,10.5v44.3c0,5.8,4.7,10.6,10.6,10.6h175.8c5.8,0,10.6-4.7,10.6-10.6V500
		c0-5.8-4.7-10.5-10.6-10.5H756.9L756.9,489.5z M932.7,558.1H756.9c-7.6,0-13.8-6.2-13.8-13.8V500c0-7.6,6.2-13.8,13.8-13.8h175.8
		c7.6,0,13.8,6.2,13.8,13.8v44.3C946.5,551.9,940.3,558.1,932.7,558.1L932.7,558.1z"/>
	<path class="st3" d="M781,522.2c0,5.9-4.8,10.7-10.7,10.7c-5.9,0-10.7-4.8-10.7-10.7c0-5.9,4.8-10.7,10.7-10.7
		C776.2,511.5,781,516.3,781,522.2L781,522.2z"/>
	<path d="M770.3,513.1c-5,0-9,4.1-9,9c0,5,4.1,9,9,9c5,0,9-4.1,9-9C779.3,517.2,775.3,513.1,770.3,513.1L770.3,513.1z M770.3,534.4
		c-6.8,0-12.3-5.5-12.3-12.3c0-6.8,5.5-12.3,12.3-12.3c6.8,0,12.3,5.5,12.3,12.3C782.6,528.9,777.1,534.4,770.3,534.4L770.3,534.4z"
		/>
	<path d="M925.5,523.8H802.8c-0.9,0-1.6-0.7-1.6-1.6c0-0.9,0.7-1.6,1.6-1.6h122.7c0.9,0,1.6,0.7,1.6,1.6
		C927.1,523.1,926.4,523.8,925.5,523.8L925.5,523.8z"/>
	<path d="M256.4,401.5c-0.9,0-1.6-0.7-1.6-1.6v-22.8c0-36.8-29.9-66.7-66.7-66.7h-9.7c-36.8,0-66.7,29.9-66.7,66.7v22.8
		c0,0.9-0.7,1.6-1.6,1.6c-0.9,0-1.6-0.7-1.6-1.6v-22.8c0-38.6,31.4-70,70-70h9.7c38.6,0,70,31.4,70,70v22.8
		C258,400.8,257.3,401.5,256.4,401.5L256.4,401.5z"/>
	<polygon class="st1" points="87.2,461.9 110,461.9 110,399.9 87.2,399.9 87.2,461.9 	"/>
	<path d="M88.9,460.2h19.6v-58.7H88.9V460.2L88.9,460.2z M110,463.5H87.2c-0.9,0-1.6-0.7-1.6-1.6v-61.9c0-0.9,0.7-1.6,1.6-1.6H110
		c0.9,0,1.6,0.7,1.6,1.6v61.9C111.6,462.7,110.9,463.5,110,463.5L110,463.5z"/>
	<path class="st6" d="M87.2,406.4c-9.2,0.3-16.6,7.8-16.6,17.1v14.8c0,9.3,7.4,16.8,16.6,17.1V406.4L87.2,406.4z"/>
	<path d="M85.6,408.1c-7.6,1-13.4,7.5-13.4,15.4v14.8c0,7.9,5.8,14.3,13.4,15.4V408.1L85.6,408.1z M87.2,457
		C87.2,457,87.2,457,87.2,457C77,456.7,69,448.5,69,438.3v-14.8c0-10.2,8-18.4,18.2-18.7c0.4,0,0.9,0.2,1.2,0.5
		c0.3,0.3,0.5,0.7,0.5,1.2v49.1c0,0.4-0.2,0.9-0.5,1.2C88.1,456.9,87.7,457,87.2,457L87.2,457z"/>
	<polygon class="st1" points="279.2,461.9 256.4,461.9 256.4,399.9 279.2,399.9 279.2,461.9 	"/>
	<path d="M258,460.2h19.5v-58.7H258V460.2L258,460.2z M279.2,463.5h-22.8c-0.9,0-1.6-0.7-1.6-1.6v-61.9c0-0.9,0.7-1.6,1.6-1.6h22.8
		c0.9,0,1.6,0.7,1.6,1.6v61.9C280.8,462.7,280.1,463.5,279.2,463.5L279.2,463.5z"/>
	<path class="st6" d="M279.2,406.4c9.2,0.3,16.6,7.8,16.6,17.1v14.8c0,9.3-7.4,16.8-16.6,17.1V406.4L279.2,406.4z"/>
	<path d="M280.8,408.1v45.6c7.6-1,13.4-7.5,13.4-15.4v-14.8C294.2,415.6,288.4,409.1,280.8,408.1L280.8,408.1z M279.2,457
		c-0.4,0-0.8-0.2-1.1-0.5c-0.3-0.3-0.5-0.7-0.5-1.2v-49.1c0-0.4,0.2-0.9,0.5-1.2c0.3-0.3,0.7-0.5,1.2-0.5
		c10.2,0.3,18.2,8.5,18.2,18.7v14.8C297.4,448.5,289.4,456.7,279.2,457C279.2,457,279.2,457,279.2,457L279.2,457z"/>
	<path d="M242.1,491.2H220c-0.9,0-1.6-0.7-1.6-1.6c0-0.9,0.7-1.6,1.6-1.6h21.1l13.8-26.9c0.4-0.8,1.4-1.1,2.2-0.7
		c0.8,0.4,1.1,1.4,0.7,2.2l-14.3,27.8C243.3,490.9,242.7,491.2,242.1,491.2L242.1,491.2z"/>
	<path class="st2" d="M220,489.6c0,7.8-6.3,14.1-14.1,14.1h-24.2c-7.8,0-14.1-6.3-14.1-14.1l0,0c0-7.8,6.3-14.1,14.1-14.1H206
		C213.7,475.6,220,481.9,220,489.6L220,489.6L220,489.6z"/>
	<path d="M181.8,477.2c-6.9,0-12.4,5.6-12.4,12.4c0,6.9,5.6,12.4,12.4,12.4H206c6.9,0,12.4-5.6,12.4-12.4c0-6.9-5.6-12.4-12.4-12.4
		H181.8L181.8,477.2z M206,505.3h-24.2c-8.6,0-15.7-7-15.7-15.7c0-8.6,7-15.7,15.7-15.7H206c8.6,0,15.7,7,15.7,15.7
		C221.7,498.3,214.6,505.3,206,505.3L206,505.3z"/>
	<path class="st7" d="M491,653.9c0-6.7-5.5-12.2-12.2-12.2H282.7c-6.7,0-12.2,5.5-12.2,12.2v16.2c0,6.7,5.5,12.2,12.2,12.2h196.1
		c6.7,0,12.2-5.5,12.2-12.2V653.9L491,653.9z"/>
	<path d="M282.7,643.3c-5.8,0-10.5,4.7-10.5,10.5v16.2c0,5.8,4.7,10.5,10.5,10.5h196.1c5.8,0,10.6-4.7,10.6-10.5v-16.2
		c0-5.8-4.7-10.5-10.6-10.5H282.7L282.7,643.3z M478.8,683.9H282.7c-7.6,0-13.8-6.2-13.8-13.8v-16.2c0-7.6,6.2-13.8,13.8-13.8h196.1
		c7.6,0,13.8,6.2,13.8,13.8v16.2C492.6,677.7,486.4,683.9,478.8,683.9L478.8,683.9z"/>
	<polygon class="st1" points="464.2,614 297.3,614 297.3,641.7 464.2,641.7 464.2,614 	"/>
	<path d="M298.9,640.1h163.7v-24.5H298.9V640.1L298.9,640.1z M464.2,643.3H297.3c-0.9,0-1.6-0.7-1.6-1.6V614c0-0.9,0.7-1.6,1.6-1.6
		h166.9c0.9,0,1.6,0.7,1.6,1.6v27.7C465.8,642.6,465.1,643.3,464.2,643.3L464.2,643.3z"/>
	<path d="M380.6,615.6c-0.3,0-0.6-0.1-0.9-0.3c-0.7-0.5-1-1.5-0.5-2.2l47.8-73.7c0.5-0.7,1.5-1,2.2-0.5c0.7,0.5,1,1.5,0.5,2.2
		l-47.8,73.7C381.6,615.3,381.1,615.6,380.6,615.6L380.6,615.6z"/>
	<path class="st5" d="M475.1,515.6c0,16.8-13.6,30.4-30.4,30.4c-16.8,0-30.4-13.6-30.4-30.4c0-16.8,13.6-30.4,30.4-30.4
		C461.5,485.2,475.1,498.8,475.1,515.6L475.1,515.6z"/>
	<path d="M444.7,486.8c-15.9,0-28.8,12.9-28.8,28.8c0,15.9,12.9,28.8,28.8,28.8c15.9,0,28.8-12.9,28.8-28.8
		C473.5,499.8,460.6,486.8,444.7,486.8L444.7,486.8z M444.7,547.7c-17.7,0-32-14.4-32-32c0-17.7,14.4-32,32-32c17.7,0,32,14.4,32,32
		C476.8,533.3,462.4,547.7,444.7,547.7L444.7,547.7z"/>
	<path class="st1" d="M282.8,273.5c-6.3,1.7-12.9,2.6-19.8,2.6c-6.8,0-13.5-0.9-19.8-2.6c-18.9-5.1-34.9-17.4-44.9-33.7
		c-7-11.5-11-24.9-11-39.3c0-1.5,0.1-3,0.1-4.5c2.3-39.7,35.2-71.1,75.5-71.1c40.3,0,73.1,31.5,75.5,71.1c0.1,1.5,0.1,3,0.1,4.5
		c0,14.4-4,27.9-11,39.3C317.7,256.1,301.7,268.4,282.8,273.5L282.8,273.5z M263.1,109.3c-50.3,0-91.2,40.8-91.2,91.1
		c0,50.3,40.8,91.2,91.2,91.2c50.3,0,91.1-40.8,91.1-91.2C354.2,150.1,313.4,109.3,263.1,109.3L263.1,109.3z"/>
	<path d="M263.1,126.5c-39.1,0-71.6,30.6-73.9,69.6c-0.1,1.5-0.1,2.9-0.1,4.4c0,13.6,3.7,26.9,10.8,38.5c9.9,16.3,25.5,28,43.9,33
		c12.6,3.4,26,3.4,38.7,0c18.4-5,34-16.7,43.9-33c7-11.6,10.8-24.9,10.8-38.5c0-1.5-0.1-2.9-0.1-4.4
		C334.6,157,302.2,126.5,263.1,126.5L263.1,126.5z M263.1,277.7c-6.8,0-13.6-0.9-20.2-2.7c-19.2-5.2-35.4-17.4-45.8-34.4
		c-7.4-12.1-11.2-26-11.2-40.2c0-1.5,0.1-3.1,0.1-4.6c2.4-40.7,36.3-72.6,77.1-72.6c40.8,0,74.7,31.9,77.1,72.6
		c0.1,1.5,0.1,3.1,0.1,4.6c0,14.2-3.9,28.1-11.2,40.1c-10.4,17-26.6,29.2-45.8,34.4C276.7,276.8,269.9,277.7,263.1,277.7
		L263.1,277.7z M263.1,110.9c-49.4,0-89.5,40.2-89.5,89.5c0,49.4,40.2,89.5,89.5,89.5c49.4,0,89.5-40.2,89.5-89.5
		C352.6,151.1,312.4,110.9,263.1,110.9L263.1,110.9z M263.1,293.2c-51.2,0-92.8-41.6-92.8-92.8c0-51.1,41.6-92.8,92.8-92.8
		c51.2,0,92.8,41.6,92.8,92.8C355.8,251.6,314.2,293.2,263.1,293.2L263.1,293.2z"/>
	<path class="st2" d="M338.5,196l-45.2-0.2c0.2,1.5,0.4,3.1,0.4,4.7c0,5.8-1.6,11.1-4.4,15.7l38.3,23.6c7-11.5,11-24.9,11-39.3
		C338.7,199,338.6,197.5,338.5,196L338.5,196z"/>
	<path d="M291.5,215.6l35.6,21.9c6.5-11.2,9.9-24,9.9-37.1c0-1,0-1.9-0.1-2.9l-41.8-0.2c0.1,1.1,0.2,2.1,0.2,3.1
		C295.3,205.8,294,211,291.5,215.6L291.5,215.6z M327.7,241.4c-0.3,0-0.6-0.1-0.8-0.2l-38.3-23.6c-0.8-0.5-1-1.4-0.5-2.2
		c2.7-4.5,4.1-9.7,4.1-14.9c0-1.4-0.1-2.8-0.4-4.4c-0.1-0.5,0.1-0.9,0.4-1.3c0.3-0.4,0.8-0.6,1.2-0.6c0,0,0,0,0,0l45.2,0.2
		c0.9,0,1.6,0.7,1.6,1.5c0.1,1.5,0.1,3.1,0.1,4.6c0,14.2-3.9,28.1-11.2,40.1c-0.2,0.4-0.6,0.6-1,0.7
		C327.9,241.4,327.8,241.4,327.7,241.4L327.7,241.4z"/>
	<path class="st2" d="M232.4,200.5c0-1.6,0.2-3.2,0.4-4.7l-45.2,0.2c-0.1,1.5-0.1,3-0.1,4.5c0,14.4,4,27.9,11,39.3l38.3-23.6
		C234,211.6,232.4,206.2,232.4,200.5L232.4,200.5z"/>
	<path d="M189.1,197.6c0,1-0.1,1.9-0.1,2.9c0,13.1,3.4,25.8,9.9,37.1l35.6-21.9c-2.5-4.7-3.8-9.9-3.8-15.2c0-1,0.1-2,0.2-3.1
		L189.1,197.6L189.1,197.6z M198.5,241.4c-0.1,0-0.3,0-0.4,0c-0.4-0.1-0.8-0.4-1-0.7c-7.4-12.1-11.2-26-11.2-40.2
		c0-1.5,0.1-3.1,0.1-4.6c0.1-0.9,0.8-1.5,1.6-1.5l45.2-0.2c0,0,0,0,0,0c0.5,0,0.9,0.2,1.2,0.6c0.3,0.4,0.4,0.8,0.4,1.3
		c-0.3,1.7-0.4,3.1-0.4,4.4c0,5.2,1.4,10.4,4.1,14.9c0.5,0.8,0.2,1.7-0.5,2.2l-38.3,23.6C199,241.3,198.7,241.4,198.5,241.4
		L198.5,241.4z"/>
	<path class="st7" d="M263.1,188.2c-6.8,0-12.3,5.5-12.3,12.3c0,6.8,5.5,12.3,12.3,12.3c6.8,0,12.3-5.5,12.3-12.3
		C275.3,193.7,269.8,188.2,263.1,188.2L263.1,188.2z"/>
	<path d="M263.1,189.8c-5.9,0-10.7,4.8-10.7,10.7c0,5.9,4.8,10.7,10.7,10.7c5.9,0,10.7-4.8,10.7-10.7
		C273.7,194.6,268.9,189.8,263.1,189.8L263.1,189.8z M263.1,214.4c-7.7,0-13.9-6.2-13.9-13.9c0-7.7,6.2-13.9,13.9-13.9
		c7.7,0,13.9,6.2,13.9,13.9C277,208.1,270.7,214.4,263.1,214.4L263.1,214.4z"/>
	<path class="st2" d="M263.1,231.1c-3.1,0-6.1-0.5-8.9-1.3l-10.9,43.7c6.3,1.7,12.9,2.6,19.8,2.6c6.8,0,13.5-0.9,19.8-2.6
		l-10.9-43.7C269.1,230.7,266.2,231.1,263.1,231.1L263.1,231.1z"/>
	<path d="M245.3,272.3c11.7,2.9,23.9,2.9,35.6,0l-10.1-40.5c-5.1,1.2-10.4,1.2-15.4,0L245.3,272.3L245.3,272.3z M263.1,277.7
		c-6.8,0-13.6-0.9-20.2-2.7c-0.8-0.2-1.4-1.1-1.1-1.9l10.9-43.7c0.1-0.4,0.4-0.8,0.8-1c0.4-0.2,0.8-0.3,1.3-0.1
		c5.5,1.7,11.4,1.7,16.8,0c0.4-0.1,0.9-0.1,1.3,0.1c0.4,0.2,0.7,0.6,0.8,1l10.9,43.7c0.2,0.9-0.3,1.7-1.1,1.9
		C276.7,276.8,269.9,277.7,263.1,277.7L263.1,277.7z"/>
	<path class="st1" d="M263.1,212.8c-6.8,0-12.3-5.5-12.3-12.3c0-6.8,5.5-12.3,12.3-12.3c6.8,0,12.3,5.5,12.3,12.3
		C275.3,207.3,269.8,212.8,263.1,212.8L263.1,212.8z M263.1,169.8c-15.3,0-28,11.3-30.3,26c-0.2,1.5-0.4,3.1-0.4,4.7
		c0,5.8,1.6,11.1,4.4,15.7c3.9,6.5,10,11.4,17.4,13.6c2.8,0.9,5.8,1.3,8.9,1.3c3.1,0,6.1-0.5,8.9-1.3c7.4-2.2,13.5-7.2,17.4-13.6
		c2.8-4.6,4.4-10,4.4-15.7c0-1.6-0.2-3.2-0.4-4.7C291.1,181.1,278.4,169.8,263.1,169.8L263.1,169.8z"/>
	<path d="M263.1,189.8c-5.9,0-10.7,4.8-10.7,10.7c0,5.9,4.8,10.7,10.7,10.7c5.9,0,10.7-4.8,10.7-10.7
		C273.7,194.6,268.9,189.8,263.1,189.8L263.1,189.8z M263.1,214.4c-7.7,0-13.9-6.2-13.9-13.9c0-7.7,6.2-13.9,13.9-13.9
		c7.7,0,13.9,6.2,13.9,13.9C277,208.1,270.7,214.4,263.1,214.4L263.1,214.4z M263.1,171.4c-14.4,0-26.5,10.3-28.7,24.6
		c-0.3,1.7-0.4,3.1-0.4,4.4c0,5.2,1.4,10.4,4.1,14.9c3.7,6.2,9.6,10.8,16.5,12.9c5.5,1.7,11.4,1.7,16.8,0
		c6.9-2.1,12.7-6.7,16.5-12.9c2.7-4.5,4.1-9.7,4.1-14.9c0-1.4-0.1-2.8-0.4-4.4C289.5,181.8,277.5,171.4,263.1,171.4L263.1,171.4z
		 M263.1,232.8c-3.2,0-6.3-0.5-9.4-1.4c-7.7-2.3-14.2-7.4-18.3-14.3c-3-5-4.6-10.7-4.6-16.6c0-1.5,0.1-3.1,0.4-4.9
		c2.4-15.8,15.8-27.4,31.9-27.4c16,0,29.4,11.5,31.9,27.3c0.3,1.8,0.4,3.4,0.4,4.9c0,5.8-1.6,11.5-4.6,16.6
		c-4.2,6.9-10.7,12-18.3,14.3C269.4,232.3,266.2,232.8,263.1,232.8L263.1,232.8z"/>
	<path class="st1" d="M623.3,122.5h-68.1c-10.5-15-27.8-24.9-47.5-24.9c-19.7,0-37.1,9.8-47.6,24.9h-68.1c-5.3,0-9.7,4.4-9.7,9.7
		V179c0,5.3,4.4,9.7,9.7,9.7h68.1c10.5,15,27.9,24.9,47.6,24.9c19.7,0,37.1-9.8,47.5-24.9h68.1c5.3,0,9.7-4.4,9.7-9.7v-46.8
		C633,126.9,628.6,122.5,623.3,122.5L623.3,122.5z"/>
	<path d="M391.9,124.2c-4.4,0-8.1,3.6-8.1,8.1V179c0,4.4,3.6,8.1,8.1,8.1h68.1c0.5,0,1,0.3,1.3,0.7c10.6,15.1,27.8,24.2,46.2,24.2
		c18.4,0,35.7-9,46.2-24.2c0.3-0.4,0.8-0.7,1.3-0.7h68.1c4.4,0,8.1-3.6,8.1-8.1v-46.8c0-4.4-3.6-8.1-8.1-8.1h-68.1
		c-0.5,0-1-0.3-1.3-0.7c-10.6-15.1-27.8-24.2-46.2-24.2c-18.4,0-35.7,9-46.2,24.2c-0.3,0.4-0.8,0.7-1.3,0.7H391.9L391.9,124.2z
		 M507.6,215.2c-19.2,0-37.2-9.3-48.4-24.9h-67.3c-6.2,0-11.3-5.1-11.3-11.3v-46.8c0-6.2,5.1-11.3,11.3-11.3h67.3
		c11.2-15.6,29.2-24.9,48.4-24.9c19.2,0,37.2,9.3,48.4,24.9h67.3c6.2,0,11.3,5.1,11.3,11.3V179c0,6.2-5.1,11.3-11.3,11.3H556
		C544.8,205.9,526.8,215.2,507.6,215.2L507.6,215.2z"/>
	<path class="st7" d="M552.8,155.6c0,25-20.2,45.2-45.2,45.2c-25,0-45.2-20.2-45.2-45.2c0-25,20.2-45.2,45.2-45.2
		C532.6,110.4,552.8,130.7,552.8,155.6L552.8,155.6z"/>
	<path d="M507.6,112c-24,0-43.6,19.6-43.6,43.6c0,24,19.6,43.6,43.6,43.6c24,0,43.6-19.6,43.6-43.6C551.2,131.6,531.7,112,507.6,112
		L507.6,112z M507.6,202.4c-25.8,0-46.8-21-46.8-46.8s21-46.8,46.8-46.8s46.8,21,46.8,46.8S533.4,202.4,507.6,202.4L507.6,202.4z"/>
	<path class="st2" d="M534.2,155.6c0,14.7-11.9,26.5-26.5,26.5c-14.7,0-26.5-11.9-26.5-26.5c0-14.7,11.9-26.5,26.5-26.5
		C522.3,129.1,534.2,141,534.2,155.6L534.2,155.6z"/>
	<path d="M507.6,130.7c-13.7,0-24.9,11.2-24.9,24.9c0,13.7,11.2,24.9,24.9,24.9c13.7,0,24.9-11.2,24.9-24.9
		C532.5,141.9,521.4,130.7,507.6,130.7L507.6,130.7z M507.6,183.8c-15.5,0-28.1-12.6-28.1-28.1s12.6-28.1,28.1-28.1
		c15.5,0,28.1,12.6,28.1,28.1S523.1,183.8,507.6,183.8L507.6,183.8z"/>
	<path d="M440.8,228.5c-0.9,0-1.6-0.7-1.6-1.6v-38.2c0-0.9,0.7-1.6,1.6-1.6c0.9,0,1.6,0.7,1.6,1.6v38.2
		C442.5,227.8,441.7,228.5,440.8,228.5L440.8,228.5z"/>
	<line class="st2" x1="574.4" y1="188.7" x2="574.4" y2="226.9"/>
	<path d="M574.4,228.5c-0.9,0-1.6-0.7-1.6-1.6v-38.2c0-0.9,0.7-1.6,1.6-1.6c0.9,0,1.6,0.7,1.6,1.6v38.2
		C576,227.8,575.3,228.5,574.4,228.5L574.4,228.5z"/>
	<polygon class="st7" points="598.3,242 417,242 417,226.9 598.3,226.9 598.3,242 	"/>
	<path d="M418.6,240.4h178v-11.8h-178V240.4L418.6,240.4z M598.3,243.6H417c-0.9,0-1.6-0.7-1.6-1.6v-15.1c0-0.9,0.7-1.6,1.6-1.6
		h181.3c0.9,0,1.6,0.7,1.6,1.6V242C599.9,242.9,599.1,243.6,598.3,243.6L598.3,243.6z"/>
	<polygon class="st7" points="99.7,574.8 99.7,602.3 99.7,629.9 157.8,667 157.8,537.7 99.7,574.8 	"/>
	<path d="M101.3,629l54.9,35.1V540.6l-54.9,35.1V629L101.3,629z M157.8,668.6c-0.3,0-0.6-0.1-0.9-0.3l-58.1-37.1
		c-0.5-0.3-0.7-0.8-0.7-1.4v-55.1c0-0.6,0.3-1.1,0.7-1.4l58.1-37.1c0.5-0.3,1.1-0.3,1.6-0.1c0.5,0.3,0.8,0.8,0.8,1.4V667
		c0,0.6-0.3,1.1-0.8,1.4C158.3,668.6,158,668.6,157.8,668.6L157.8,668.6z"/>
	<path class="st4" d="M168.8,522.2c-6.1,0-11,4.9-11,11v4.5V667v4.5c0,6.1,4.9,11,11,11c6.1,0,11-4.9,11-11V533.1
		C179.7,527.1,174.8,522.2,168.8,522.2L168.8,522.2z"/>
	<path d="M168.8,523.8c-5.2,0-9.4,4.2-9.4,9.4v138.4c0,5.2,4.2,9.4,9.4,9.4c5.2,0,9.4-4.2,9.4-9.4V533.1
		C178.1,528,173.9,523.8,168.8,523.8L168.8,523.8z M168.8,684.1c-6.9,0-12.6-5.7-12.6-12.6V533.1c0-6.9,5.7-12.6,12.6-12.6
		c6.9,0,12.6,5.7,12.6,12.6v138.4C181.4,678.5,175.7,684.1,168.8,684.1L168.8,684.1z"/>
	<path class="st2" d="M179.7,584.8v35.1c9.5-0.3,17.1-8,17.1-17.6C196.8,592.8,189.2,585.1,179.7,584.8L179.7,584.8z"/>
	<path d="M181.4,586.5v31.6c7.9-1,13.8-7.7,13.8-15.8C195.2,594.2,189.2,587.6,181.4,586.5L181.4,586.5z M179.7,621.5
		c-0.4,0-0.8-0.2-1.1-0.5c-0.3-0.3-0.5-0.7-0.5-1.2v-35.1c0-0.4,0.2-0.9,0.5-1.2c0.3-0.3,0.7-0.5,1.2-0.5
		c10.4,0.3,18.6,8.7,18.6,19.2C198.4,612.8,190.2,621.2,179.7,621.5C179.8,621.5,179.8,621.5,179.7,621.5L179.7,621.5z"/>
	<path d="M205,629.2c-0.4,0-0.8-0.2-1.1-0.5c-0.6-0.6-0.6-1.7,0-2.3c13.3-13.3,13.3-34.9,0-48.2c-0.6-0.6-0.6-1.7,0-2.3
		c0.6-0.6,1.7-0.6,2.3,0c14.6,14.6,14.6,38.2,0,52.8C205.8,629.1,205.4,629.2,205,629.2L205,629.2z"/>
	<path d="M219.3,643.5c-0.4,0-0.8-0.2-1.1-0.5c-0.6-0.6-0.6-1.7,0-2.3c10.3-10.3,15.9-23.9,15.9-38.5c0-14.5-5.7-28.2-15.9-38.5
		c-0.6-0.6-0.6-1.7,0-2.3c0.6-0.6,1.7-0.6,2.3,0c10.9,10.9,16.9,25.3,16.9,40.7c0,15.4-6,29.9-16.9,40.7
		C220.2,643.4,219.8,643.5,219.3,643.5L219.3,643.5z"/>
	<path d="M656.2,655.5H491c-0.9,0-1.6-0.7-1.6-1.6c0-0.9,0.7-1.6,1.6-1.6h165.3c13.4,0,24.2-10.9,24.2-24.2v-69.4
		c0-15.1,11.3-27.4,25.2-27.4h23.6c0.9,0,1.6,0.7,1.6,1.6c0,0.9-0.7,1.6-1.6,1.6h-23.6c-12.1,0-22,10.9-22,24.2V628
		C683.7,643.2,671.4,655.5,656.2,655.5L656.2,655.5z"/>
	<polygon class="st4" points="900.5,631.1 937.1,631.1 937.1,594.5 900.5,594.5 900.5,631.1 	"/>
	<path d="M902.2,629.5h33.3v-33.3h-33.3V629.5L902.2,629.5z M937.1,632.7h-36.6c-0.9,0-1.6-0.7-1.6-1.6v-36.6c0-0.9,0.7-1.6,1.6-1.6
		h36.6c0.9,0,1.6,0.7,1.6,1.6v36.6C938.7,632,938,632.7,937.1,632.7L937.1,632.7z"/>
	<polygon class="st5" points="829.4,631.1 865.9,631.1 865.9,594.5 829.4,594.5 829.4,631.1 	"/>
	<path d="M831,629.5h33.3v-33.3H831V629.5L831,629.5z M865.9,632.7h-36.5c-0.9,0-1.6-0.7-1.6-1.6v-36.6c0-0.9,0.7-1.6,1.6-1.6h36.5
		c0.9,0,1.6,0.7,1.6,1.6v36.6C867.6,632,866.8,632.7,865.9,632.7L865.9,632.7z"/>
	<polygon class="st6" points="758.2,631.1 794.8,631.1 794.8,594.5 758.2,594.5 758.2,631.1 	"/>
	<path d="M759.9,629.5h33.3v-33.3h-33.3V629.5L759.9,629.5z M794.8,632.7h-36.5c-0.9,0-1.6-0.7-1.6-1.6v-36.6c0-0.9,0.7-1.6,1.6-1.6
		h36.5c0.9,0,1.6,0.7,1.6,1.6v36.6C796.4,632,795.7,632.7,794.8,632.7L794.8,632.7z"/>
	<polygon class="st4" points="141.2,132.1 110,186.1 78.8,132.1 141.2,132.1 	"/>
	<path d="M81.6,133.7l28.4,49.2l28.4-49.2H81.6L81.6,133.7z M110,187.7L110,187.7c-0.6,0-1.1-0.3-1.4-0.8l-31.2-54
		c-0.3-0.5-0.3-1.1,0-1.6c0.3-0.5,0.8-0.8,1.4-0.8h62.4c0.6,0,1.1,0.3,1.4,0.8c0.3,0.5,0.3,1.1,0,1.6l-31.2,54
		C111.1,187.4,110.6,187.7,110,187.7L110,187.7z"/>
	<polygon class="st4" points="141.2,214.9 110,268.9 78.8,214.9 141.2,214.9 	"/>
	<path d="M81.6,216.5l28.4,49.2l28.4-49.2H81.6L81.6,216.5z M110,270.5L110,270.5c-0.6,0-1.1-0.3-1.4-0.8l-31.2-54
		c-0.3-0.5-0.3-1.1,0-1.6c0.3-0.5,0.8-0.8,1.4-0.8h62.4c0.6,0,1.1,0.3,1.4,0.8c0.3,0.5,0.3,1.1,0,1.6l-31.2,54
		C111.1,270.2,110.6,270.5,110,270.5L110,270.5z"/>
</g>
</svg>
