<?xml version="1.0" encoding="utf-8"?>
<!-- Generator: Adobe Illustrator 19.0.0, SVG Export Plug-In . SVG Version: 6.00 Build 0)  -->
<svg version="1.1" id="Layer_1" xmlns="http://www.w3.org/2000/svg" xmlns:xlink="http://www.w3.org/1999/xlink" x="0px" y="0px"
	 viewBox="1 27.6 1025 715.4" style="enable-background:new 1 27.6 1025 715.4;" xml:space="preserve">
<style type="text/css">
	.st0{clip-path:url(#SVGID_2_);}
	.st1{clip-path:url(#SVGID_4_);}
	.st2{opacity:0.85;clip-path:url(#SVGID_6_);}
	.st3{clip-path:url(#SVGID_8_);}
	.st4{clip-path:url(#SVGID_10_);fill:url(#SVGID_11_);}
	.st5{clip-path:url(#SVGID_13_);fill-rule:evenodd;clip-rule:evenodd;}
</style>
<g>
	<g>
		<defs>
			<rect id="SVGID_1_" x="2" y="-22.6" width="1024.3" height="765.6"/>
		</defs>
		<clipPath id="SVGID_2_">
			<use xlink:href="#SVGID_1_"  style="overflow:visible;"/>
		</clipPath>
		<g class="st0">
			<defs>
				<rect id="SVGID_3_" x="2" y="-22.6" width="1024.3" height="765.6"/>
			</defs>
			<clipPath id="SVGID_4_">
				<use xlink:href="#SVGID_3_"  style="overflow:visible;"/>
			</clipPath>
			<g class="st1">
				<defs>
					<rect id="SVGID_5_" x="2" y="-22.6" width="1024.3" height="765.6"/>
				</defs>
				<clipPath id="SVGID_6_">
					<use xlink:href="#SVGID_5_"  style="overflow:visible;"/>
				</clipPath>
				<g class="st2">
					<g>
						<defs>
							<rect id="SVGID_7_" x="2" y="-22.6" width="1024.3" height="765.6"/>
						</defs>
						<clipPath id="SVGID_8_">
							<use xlink:href="#SVGID_7_"  style="overflow:visible;"/>
						</clipPath>
						<g class="st3">
							<defs>
								<rect id="SVGID_9_" x="2" y="-22.6" width="1024.3" height="765.6"/>
							</defs>
							<clipPath id="SVGID_10_">
								<use xlink:href="#SVGID_9_"  style="overflow:visible;"/>
							</clipPath>
							
								<linearGradient id="SVGID_11_" gradientUnits="userSpaceOnUse" x1="0.4216" y1="743.389" x2="2" y2="743.389" gradientTransform="matrix(-2.120000e-005 485.0356 485.0356 2.120000e-005 -360056 -227.0865)">
								<stop  offset="0" style="stop-color:#7DFF00"/>
								<stop  offset="1" style="stop-color:#00A23D"/>
							</linearGradient>
							<rect x="2" y="-22.6" class="st4" width="1024.3" height="765.6"/>
						</g>
					</g>
				</g>
			</g>
			<g class="st1">
				<defs>
					<rect id="SVGID_12_" x="2" y="-22.6" width="1024.3" height="765.6"/>
				</defs>
				<clipPath id="SVGID_13_">
					<use xlink:href="#SVGID_12_"  style="overflow:visible;"/>
				</clipPath>
				<path class="st5" d="M960.5,357.9c-0.1-1.8,0.6-2.8,1.5-3C966.6,353.8,964.1,362.6,960.5,357.9 M961.3,356.1
					c-0.1,1.1,0.1,1.9,0.6,2.4C965.3,359,963.9,354.4,961.3,356.1"/>
				<path class="st5" d="M963.4,321.5c-2,0.2-2.7-0.2-3-1.2C959.4,316.8,966.2,317.7,963.4,321.5 M961.3,318.8
					c-0.1,0.2,0,0.6-0.3,0.6c-0.1,1.3,0.8,1.6,2.1,1.5C963.9,319.8,963.1,318.2,961.3,318.8"/>
				<path class="st5" d="M964.1,396.1c-2,0.2-3.3-0.3-3-2.4C962.4,391.2,966.1,393.7,964.1,396.1 M961.9,393.4
					c-0.1,0.2,0,0.6-0.3,0.6c-0.1,1.3,0.8,1.6,2.1,1.5C964.6,394.4,963.7,392.9,961.9,393.4"/>
				<path class="st5" d="M961,246.6c-0.8-0.5-0.9-2.5,0.3-2.7C963.6,243.7,963.6,247.1,961,246.6 M962.5,245.6c0-0.3,0-0.6,0-0.9
					C960.3,243.2,960.4,247.2,962.5,245.6"/>
				<path class="st5" d="M961,283.9c-0.3-0.6-0.8-1-0.6-2.1C962.3,278.8,965.6,284.5,961,283.9 M961,281.8c-0.1,1.1,0.3,1.8,1.2,1.8
					c0.1-0.2,0.2-0.3,0.6-0.3c0-0.5,0-1,0-1.5C961.9,281.5,961.9,281.5,961,281.8"/>
				<path class="st5" d="M962.6,432.8c-0.4-0.4-0.4-1.7,0-2.1C964.8,430.3,964.8,433.3,962.6,432.8 M963.4,431c-1-0.2-1.1,1-0.6,1.5
					C963.9,432.7,963.9,431.5,963.4,431"/>
				<path class="st5" d="M930,356.1c2.3,8.9-10,7.4-9.8,1C920.3,352.2,928.5,350.1,930,356.1 M921.9,357.3c0,4.4,8.4,4.3,6.3-1.2
					C927,352.9,921.9,353.8,921.9,357.3"/>
				<path class="st5" d="M929.4,318.8c2.1,8-9.7,7.4-9.3,0.7C920.5,314.3,928,313.7,929.4,318.8 M921.9,321.2c0.9,3,6.7,2.5,6-1.5
					C927,315,920.8,317.2,921.9,321.2"/>
				<path class="st5" d="M930,393.1c2.7,8.5-9.7,7.7-9.2,1C921,390.3,928.3,387.6,930,393.1 M922.6,395.8c0.9,3,6.7,2.5,6-1.5
					C927.6,389.6,921.4,391.9,922.6,395.8"/>
				<path class="st5" d="M928.8,282c1.1,5.8-7.2,6.5-8.3,2.2C919,278.7,927.5,275.6,928.8,282 M924.9,285.7c3.5-0.2,3.8-6.5-1.5-5.7
					C920.6,281.9,922.1,285.8,924.9,285.7"/>
				<path class="st5" d="M929.7,431.3c0.7,3.2-0.8,4.5-2.9,4.8c-6,0.8-7.3-9.7,0.2-8.1C928,428.3,929.3,429.2,929.7,431.3
					 M928.5,433.1c0.7-2.2-1.5-4.6-4.5-3.3C920.7,433.3,927.4,436.8,928.5,433.1"/>
				<path class="st5" d="M927.6,244.4c1.7,5.9-6.6,5.3-6.9,1.3C920.4,241.5,926.4,240.4,927.6,244.4 M925.5,247.7
					c2.2-0.9,1.8-5.4-2.4-4.5C920.6,244.8,922.8,248.9,925.5,247.7"/>
				<path class="st5" d="M926.7,208c0.2,1.6-0.4,3.2-3,3C916.8,210.4,925.6,200.3,926.7,208 M922.2,208.4c0.1,1.1,0.9,1.6,2.4,1.8
					C928.7,207.4,921.9,204.2,922.2,208.4"/>
				<path class="st5" d="M921.6,134.6c0-0.7,0-1.4,0-2.1C926.1,128.7,926.2,138.4,921.6,134.6 M922.8,132.2c-0.4,0.5-0.8,1-0.6,2.1
					c0.6,0.2,0.9,0.7,1.8,0.6C925,134.2,924.8,131.7,922.8,132.2"/>
				<path class="st5" d="M921.6,171.7c-0.1-1.8,0.6-2.8,1.5-3C927.7,167.5,925.3,176.3,921.6,171.7 M922.5,169.9
					c-0.1,1.2,0.1,1.9,0.6,2.4C926.4,172.7,925,168.2,922.5,169.9"/>
				<path class="st5" d="M924.4,470.5c-0.2-2,0.2-2.7,1.2-3C929.6,466.2,928.2,474.1,924.4,470.5 M925.5,468.1
					c-0.4,0.5-0.8,1-0.6,2.1c0.6,0.2,0.9,0.7,1.8,0.6C927.8,470,927.5,467.5,925.5,468.1"/>
				<path class="st5" d="M922.2,97.6c-0.3-0.6-0.8-1-0.6-2.1C923.5,92.5,926.7,98.3,922.2,97.6 M922.2,95.5
					c-0.1,1.1,0.3,1.7,1.2,1.8c0.1-0.2,0.2-0.3,0.6-0.3c0-0.5,0-1,0-1.5C923.1,95.3,923,95.3,922.2,95.5"/>
				<path class="st5" d="M896.3,318.7c2.4,11.6-13.2,13.3-16.7,5.2c-3.9-8.9,6.8-15.5,13.3-10.9
					C894.3,314.1,895.7,316.2,896.3,318.7 M881.9,321.2c0.9,6.5,12.6,6.5,11.3-1.6C892.2,312.6,880.8,313.2,881.9,321.2"/>
				<path class="st5" d="M895.7,282.3c0.8,6.6-4.1,10.3-10.4,8.7c-7.6-1.9-8.5-13.6-1-16.1C890.6,272.8,895,277.2,895.7,282.3
					 M888.7,277.6c-9.6-2-8.2,11.4-0.8,11.1c3.2-0.2,5.4-2.3,4.7-6.3C892.2,279.5,890.3,277.9,888.7,277.6"/>
				<path class="st5" d="M896,356.1c1.1,5.1-1.4,9.5-6.8,9.9c-4.9,0.4-8.6-2.9-9.3-6.5C877.5,347.6,893.9,346.4,896,356.1
					 M882.8,359.4c1.4,4.4,8.7,4.5,10.2,0.8c0.4-1,0.4-2.6,0-4.2C891.1,349.4,880.7,352.9,882.8,359.4"/>
				<path class="st5" d="M896,394.3c1.4,10.7-15.2,11.1-15.5,0.7c-0.2-5.1,4.1-8.3,8.6-7.8C893,387.5,895.4,390.2,896,394.3
					 M883.1,394.7c-0.2,7.4,12.5,7,9.8-1.3C891.1,387.4,883.3,390.5,883.1,394.7"/>
				<path class="st5" d="M896,431.9c0.4,4.4-1.9,6.7-4.1,7.5c-10.6,3.8-15.4-13.3-4.6-14.6C892.5,424.2,895.5,427.3,896,431.9
					 M887.3,427.5c-7.4,1.4-1.4,14.3,4.8,8.6c1.1-1,1.5-2.5,1.2-4.5C892.7,428.3,890.9,426.8,887.3,427.5"/>
				<path class="st5" d="M894.2,245.3c1,9.8-14.7,10-14.3-0.2C880.1,236.8,893.2,236.2,894.2,245.3 M885.2,250.2
					c7.8,3,9.1-11.1-0.1-9C881.1,243.1,882.2,249,885.2,250.2"/>
				<path class="st5" d="M896,468.3c2.5,12.6-18,9.9-14-1.7C884,460.6,894.5,460.8,896,468.3 M884.1,469.6c0.1,5.9,11.9,6.9,9.2-1.6
					C891.5,462.2,884,465.4,884.1,469.6"/>
				<path class="st5" d="M890.9,501.2c5.7,1.7,5.2,10.8-0.5,11.6C882.1,514,880.2,499.9,890.9,501.2 M890.6,503.3
					c-6.4-1.8-7.1,8.9-0.2,7.5c2.2-0.5,3-2.4,2.4-4.8C892.2,504.2,890.9,503.4,890.6,503.3"/>
				<path class="st5" d="M891.4,207.1c2.3,8.8-10,7.4-9.8,1C881.7,203,890,201.5,891.4,207.1 M883.4,208.4c0,4.4,8.4,4.3,6.3-1.3
					C888.4,204,883.4,204.9,883.4,208.4"/>
				<path class="st5" d="M888.8,174.6c-7.1,2.7-8.2-7.2-2.8-7.4C889.6,167,891.9,171.7,888.8,174.6 M886.7,173.7
					c4.6-0.3,1.2-8.1-2.7-3.9C883.7,172.6,884.8,173.9,886.7,173.7"/>
				<path class="st5" d="M889.3,133.1c0.5,1.8-0.3,3.9-2.4,4.2c-4.4,0.8-5.7-5.9-2.1-6.9C888,129.7,888.8,131.1,889.3,133.1
					 M886.7,136.1c3-0.5,1.9-6-2.1-4.2C882.9,134.3,884.8,136.5,886.7,136.1"/>
				<path class="st5" d="M888.4,96.1c0.4,1.9-0.5,3.5-3,3.3C878.8,98.8,886.9,89.2,888.4,96.1 M884,96.7c0.1,1.1,0.9,1.6,2.4,1.8
					C890.4,95.8,883.6,92.6,884,96.7"/>
				<path class="st5" d="M883.4,60c-0.1-1.8,0.6-2.8,1.5-3C889.5,55.9,887,64.7,883.4,60 M884.3,58.2c-0.1,1.1,0.1,1.9,0.6,2.4
					C888.2,61.1,886.8,56.5,884.3,58.2"/>
				<path class="st5" d="M890.9,545.7c-1.7,0.7-3,0.2-3.3-0.9C886.8,541.8,892.6,541.6,890.9,545.7 M888.5,543.3
					c-0.1,0.2,0,0.6-0.3,0.6c-0.1,1.3,0.8,1.6,2.1,1.5C891.2,544.3,890.3,542.7,888.5,543.3"/>
				<path class="st5" d="M884.6,23c-0.4-0.4-0.4-1.7,0-2.1C886.8,20.4,886.8,23.4,884.6,23 M885.4,21.2c-1-0.2-1.1,1.1-0.6,1.5
					C885.9,22.9,885.9,21.6,885.4,21.2"/>
				<path class="st5" d="M862.2,281.7c1.4,8.8-6.8,17.5-16.9,13c-9.2-4.1-10.6-19.1-0.2-23C853.7,268.5,861,274.5,862.2,281.7
					 M849,275.2c-5.4,0.5-8.1,5.9-6.5,10.8c2.7,8.1,16.1,6.4,15.5-2.8C857.7,278.2,854.6,274.8,849,275.2"/>
				<path class="st5" d="M862.5,319c1.5,9.1-6.9,17.4-16.9,13c-9.3-4.2-10.7-19.1-0.2-23C854,305.8,861.3,311.8,862.5,319
					 M842.9,323.4c2.7,8.3,17.8,6.5,15.2-4.6C855.7,308.8,839.3,312.5,842.9,323.4"/>
				<path class="st5" d="M861.9,356.6c1.2,7.8-5.7,15.4-15.1,12.1c-7.3-2.6-10.3-14.6-3.4-20C850.6,343.1,860.7,348.5,861.9,356.6
					 M850.8,350.5c-10.7-0.3-9.3,16.2,1.3,14.9c3.5-0.4,6.2-3,5.9-7.5C857.8,353.4,855.2,350.6,850.8,350.5"/>
				<path class="st5" d="M860.7,243.8c1.7,7.9-3.7,13.2-9.7,13.5c-8.2,0.4-13.5-6.9-12.3-13.9c0.8-5.3,7.3-11.2,15.4-7.9
					C856.2,236.4,859.7,239,860.7,243.8 M842.5,244.8c-1.1,11,16.9,11.2,14.3-0.4C855.3,237.6,843.4,236.4,842.5,244.8"/>
				<path class="st5" d="M862.9,505.9c0.8,5.4-2.4,10.6-6.8,12c-13.8,4.2-20.1-14.6-10-20.5C853.9,492.8,861.8,499.2,862.9,505.9
					 M850,500c-3.4,0.7-5.3,4.1-5.3,6.9c0,9,16.3,10.5,14.3-0.7C858.3,502.2,855.5,498.9,850,500"/>
				<path class="st5" d="M862.3,467.7c1.6,7.6-3.7,13.6-10.9,13.2c-8.8-0.5-14.3-11.2-8.2-18.4C849,455.5,860.5,459.3,862.3,467.7
					 M851.5,462.7c-9.2,0.1-8.7,13.5-0.5,14.3c5.4,0.5,8-3.1,7.7-7.2C858.3,464.8,855.3,462.7,851.5,462.7"/>
				<path class="st5" d="M861.1,394.3c2.1,14.2-20.2,14.4-20.3,0.8c0-5,3.6-9.2,7.7-9.9C855.2,383.9,860.1,388,861.1,394.3
					 M844.3,395c-0.1,8.3,14.5,9.2,13.1-0.4C856.3,386.5,844.4,386.9,844.3,395"/>
				<path class="st5" d="M861.4,431.6c1.8,13.8-19.5,14.9-20.3,1.4C840.3,419.8,859.7,419.2,861.4,431.6 M852.1,426
					c-10.3-1.1-9.5,15.9,1.6,13.1c2.9-0.7,4.6-3.7,4.1-7.2C857.2,427.7,854.7,426.3,852.1,426"/>
				<path class="st5" d="M858.3,207.7c2.1,13.2-18.9,12.7-17.9-0.1c0.6-7.4,10-9.9,14.9-5.8C856.8,203,857.9,205.3,858.3,207.7
					 M843.7,210.2c1.4,6.1,13.3,5.8,11.3-2.8C853.3,200,842,202.7,843.7,210.2"/>
				<path class="st5" d="M855.9,171c1.1,11.2-16.8,8.1-13.4-2.3C844.5,162.4,855.2,163.5,855.9,171 M849,166.9c-5.3,0-6,7.9-1.1,9
					c3,0.7,6.8-1,5.3-6C852.2,168.1,851.2,166.9,849,166.9"/>
				<path class="st5" d="M859,544.1c1,10.2-13.8,8.6-13.7,0.1C845.3,536.3,858.1,535.4,859,544.1 M852.1,540c-5.3,0-6,7.9-1.1,9
					c3,0.7,6.8-1,5.3-6C855.3,541.2,854.3,540,852.1,540"/>
				<path class="st5" d="M854.1,132.5c2.6,9.2-11.2,9.2-11,1.3C843.2,127.5,852.5,126.7,854.1,132.5 M849.3,130.5
					c-5.4-0.6-5.6,7.7-0.2,7.5c2.7-0.1,3.8-2.1,3.2-4.5C851.8,131,850.5,130.6,849.3,130.5"/>
				<path class="st5" d="M852.6,95.5c2.4,8-9.1,6.8-8.6,0.7C844.2,92.5,851.1,90.3,852.6,95.5 M848.2,99.7c2.4,0.2,4-1.1,3-3.9
					C848.9,89.7,841.7,99.1,848.2,99.7"/>
				<path class="st5" d="M851.1,58.5c1.8,5.5-6.3,5.1-6.3,0.9C844.9,55.8,850,55,851.1,58.5 M848.5,61.8c1.1-0.1,2.6-1.1,1.5-3.3
					C847.6,54,843.3,62.4,848.5,61.8"/>
				<path class="st5" d="M854.8,581.5c0.5,2.1-0.6,2.8-1.8,3c-3.5,0.6-4.3-4.4-1.2-5.1C853.9,579,854.4,579.9,854.8,581.5
					 M851.5,580.3C848.9,586.8,858.6,581,851.5,580.3"/>
				<path class="st5" d="M849.1,23.9c-2,0.2-2.7-0.2-3-1.2C845,19.3,851.8,20.1,849.1,23.9 M846.9,21.2c-0.1,0.2,0,0.6-0.3,0.6
					c-0.1,1.3,0.8,1.6,2.1,1.5C849.5,22.2,848.7,20.7,846.9,21.2"/>
				<path class="st5" d="M851.9,620.6c-0.2-0.6-0.8-1-0.6-2.1C853.1,615.5,856.4,621.3,851.9,620.6 M851.8,618.5
					c-0.1,1.1,0.3,1.7,1.2,1.8c0-0.2,0.2-0.4,0.6-0.3c0-0.5,0-1,0-1.5C852.8,618.2,852.7,618.2,851.8,618.5"/>
				<path class="st5" d="M827.9,282.6c1.4,12.1-12.1,20.8-22.9,13.9c-10.8-6.8-9.8-26.8,5.8-28.1
					C820.7,267.5,826.9,274.1,827.9,282.6 M810.8,273.8c-3.1,0.5-7,3.4-7.7,7.2c-2.8,15.4,21.9,16.7,19.4,1.3
					C821.6,276.8,817.1,272.8,810.8,273.8"/>
				<path class="st5" d="M827.9,318.7c1.7,10.2-5.6,18.8-16.9,17.2c-14.2-2-17-22.1-5.6-28.3C815.2,302.2,826.3,309.2,827.9,318.7
					 M812.3,311.1c-12.5,0.6-10.9,20.8,2.2,19.7c5.3-0.5,8.6-5,8.3-9.9C822.5,314.8,818.6,310.8,812.3,311.1"/>
				<path class="st5" d="M827,245.6c0.7,7.1-4.1,14.6-12.4,15.3c-11.6,1-17.4-8.5-16.6-16.9c1-9.6,12.1-15.7,21.4-10.6
					C822.2,234.9,826.3,239,827,245.6 M807.8,237.7c-8,4.1-5.1,17.8,4.6,18.2c5.6,0.2,9.9-3.5,9.5-9.6
					C821.5,239.6,814.9,234,807.8,237.7"/>
				<path class="st5" d="M828.2,468.3c1.6,10.1-6.1,17.9-16.6,15.7c-5.4-1.1-11.3-6.5-11.5-13.9c-0.1-8,6.3-15.9,17.2-13.6
					C823.2,457.7,827.2,462,828.2,468.3 M814.1,460.9c-12.8,0-10.6,18.9,1,18.5c5.2-0.2,8.6-4.4,8.3-9.3
					C823.1,464.6,819.4,460.9,814.1,460.9"/>
				<path class="st5" d="M828.5,507.1c0.6,8.2-5,14.8-13.9,14.4c-16.5-0.6-19.2-27.2-1.1-28.1C821.5,493.1,827.9,498.7,828.5,507.1
					 M805.5,506.7c-0.5,13.2,20.9,13,17.9-1C821.2,495.2,805.9,497.3,805.5,506.7"/>
				<path class="st5" d="M827,356.3c3.3,19.7-27.1,20.9-27.4,1.7c-0.2-9.6,10.3-17.4,20.2-12.1C823.1,347.7,826.2,351.8,827,356.3
					 M816.2,349.5c-13-3.8-15.7,15.8-4.3,17.6c7.2,1.2,11.1-4.6,10.4-9.9C821.6,352.7,818.6,350.3,816.2,349.5"/>
				<path class="st5" d="M827,433c0.3,6.8-4.9,13.4-13.3,12.9c-16.5-0.9-17-26.7,0.4-26.3C820.9,419.9,826.7,424.9,827,433
					 M808.5,426c-6.6,5.3-1,15.8,6.4,15.5c5.2-0.3,8.5-4.7,7.4-10.2C821,424.9,812.9,422.4,808.5,426"/>
				<path class="st5" d="M824.6,207.7c0.8,6.2-2.8,12-7.9,13.5c-17.7,5-23-22-7.4-24.7C817,195.1,823.6,200.3,824.6,207.7
					 M804,209.3c0.7,10.9,18.6,9.9,16.1-1.9C818.1,197.9,803.4,199.4,804,209.3"/>
				<path class="st5" d="M826.1,394.2c0.8,6.2-2.7,11.5-7.1,13.2c-9.7,3.7-17.9-4.4-18-12.1C800.8,379.2,824.1,379.4,826.1,394.2
					 M805.5,396.2c1,10.7,18.5,9.4,16.1-2.2C819.7,384.3,804.6,386.1,805.5,396.2"/>
				<path class="st5" d="M825.3,543.5c0.8,5.4-2.6,10.8-7.4,11.7c-14.6,2.8-17.9-18.9-5.2-20.9C819.5,533.3,824.3,537.3,825.3,543.5
					 M814.2,537.9c-8.8,0.6-7.3,15.3,2.5,13.7c4-0.7,5.2-4.3,5-6.9C821.3,539.6,818.7,537.6,814.2,537.9"/>
				<path class="st5" d="M821.3,170.7c1.8,13.4-18.4,13.6-19.1,1.4c-0.6-9.3,10.5-12.4,16.1-7.6
					C819.8,165.8,820.9,168.1,821.3,170.7 M805.8,173.5c1.2,4.7,10,6.2,12,1.1c0.5-1.2,0.4-2.9,0-4.5
					C815.9,163,803.6,164.4,805.8,173.5"/>
				<path class="st5" d="M819.2,133.7c1.4,10.7-15.2,11.1-15.5,0.7c-0.1-5.2,4.1-8.3,8.6-7.8C816.2,126.9,818.7,129.6,819.2,133.7
					 M806.4,134.1c-0.2,7.4,12.4,7,9.8-1.3C814.3,126.8,806.5,129.9,806.4,134.1"/>
				<path class="st5" d="M817.1,96.1c1.8,9.8-13.8,9.1-11.9-0.8C806.1,90.3,815.8,89,817.1,96.1 M811.7,93.2
					c-5.9-0.6-5.9,8.3-0.2,8.1c2.8-0.1,4.1-2.3,3.5-4.8C814.5,93.8,813,93.3,811.7,93.2"/>
				<path class="st5" d="M820.8,580.6c2.5,9.3-11.4,10.1-11.6,1.6C809,575.8,818.8,573.4,820.8,580.6 M811.3,582.1
					c0,4.7,9.8,5.8,7.4-1.3C817.1,576,811.2,578.9,811.3,582.1"/>
				<path class="st5" d="M814.7,58.5c0.8,2.5-0.1,4.8-2.1,5.4c-5.7,1.7-9-8-2.2-8.3C812.8,55.4,814,56.4,814.7,58.5 M808.1,59.5
					c-0.2,2.8,3.5,4.3,5.4,1.7C814.4,56,808.4,56.2,808.1,59.5"/>
				<path class="st5" d="M819.3,618.8c0.7,3.2-0.8,4.5-3,4.8c-6,0.8-7.3-9.7,0.2-8.1C817.6,615.7,818.9,616.7,819.3,618.8
					 M818.1,620.6c0.7-2.2-1-4.5-4.5-3.2C810.3,620.3,816.9,624.5,818.1,620.6"/>
				<path class="st5" d="M812.3,24.5c-4.3,2.1-5.5-3.8-2.4-4.5C811.9,19.6,814,22.1,812.3,24.5 M810.2,20.9c-2.3,0.7-0.7,4.4,1.5,3
					C812.4,22.6,811.9,20.8,810.2,20.9"/>
				<path class="st5" d="M817.5,658.8c-4.3,2.1-5.5-3.8-2.4-4.5C817.1,653.9,819.3,656.4,817.5,658.8 M815.4,655.2
					c-2.3,0.7-0.7,4.4,1.5,3C817.6,656.9,817.1,655.1,815.4,655.2"/>
				<path class="st5" d="M815.5,695.2c-0.4-0.4-0.4-1.7,0-2.1C817.6,692.7,817.7,695.7,815.5,695.2 M816.3,693.4
					c-1-0.2-1.1,1.1-0.6,1.5C816.8,695.1,816.8,693.9,816.3,693.4"/>
				<path class="st5" d="M792.4,282.3c2.3,16.2-17.4,24.9-28.8,13.4c-11.3-11.4-2.1-32.5,15.6-28.5
					C785.3,268.6,791.2,274.1,792.4,282.3 M773.2,272.9c-11.6,1.8-10,17.7-1.9,21.2c8.6,3.8,16.3-3.3,15.1-11.5
					C785.5,276.4,780.8,271.7,773.2,272.9"/>
				<path class="st5" d="M791.8,245c1.3,9.8-5.4,17.6-14.5,18.3c-15.3,1.2-23.3-15.1-16.3-26.1c9.2-14.5,29-5.6,30.8,7.2
					C791.8,244.6,791.7,244.8,791.8,245 M764.6,249.1c3.2,12.3,23.9,10.1,21.2-4.4C783,230.2,761.1,235.3,764.6,249.1"/>
				<path class="st5" d="M792.4,319c1.8,11.4-6.3,20.2-18.1,19c-20.6-2.1-19.2-33.4,0.6-33.7c6.8-0.1,10.9,3,13.5,5.9
					C790.1,312,791.7,314.8,792.4,319 M775.3,310.2c-5.9,0.1-10.1,5.1-10.4,9.9c-0.8,15.6,22.6,15.6,21.8,1
					C786.4,314.3,781.8,310,775.3,310.2"/>
				<path class="st5" d="M791.5,357.2c1.2,9.7-6.3,17.3-15.7,16.8c-6.9-0.3-13.9-5.9-15-13.6c-1.1-7.6,3.6-13.6,7.9-15.9
					c9-4.7,18,1.2,20.9,6.4C790.7,352.8,791.1,354,791.5,357.2 M776.5,348.4c-14.8-0.8-12.8,20.7,0.5,20.3c5.9-0.2,9.5-5,9.2-10.2
					C785.7,352.5,782.3,348.7,776.5,348.4"/>
				<path class="st5" d="M792.1,469.7c0.7,8-4.9,15-12.4,15.9c-20.6,2.4-24.2-28.7-4.7-30.4C784.6,454.4,791.3,460.9,792.1,469.7
					 M775,460.6c-3.2,0.5-7,3.6-7.7,7.2c-2.8,15.5,21.8,16.5,19.4,1.3C785.9,463.6,781.5,459.6,775,460.6"/>
				<path class="st5" d="M789.7,208.6c0.8,8.8-5.6,15.5-13.9,15.6c-18.2,0.3-22-28.6-2.3-29.8C782.5,193.8,788.9,200.1,789.7,208.6
					 M771.1,200.1c-9.9,3.5-6.5,21.6,6.7,18.8c4-0.9,7.8-4.7,6.5-11.4C783.2,202.1,777.8,197.7,771.1,200.1"/>
				<path class="st5" d="M790.9,395.1c0.8,6.7-4,14.6-12.4,15.3c-10,0.8-17.5-6.9-16.6-16.9c0.7-6.7,6.3-11.8,12.4-12.3
					C782.7,380.4,789.9,386,790.9,395.1 M776.2,386.3c-4.3,0-7.7,3.2-8.6,5.5c-4.2,10.2,10.8,18.4,16.8,10c1-1.4,1.5-4.2,1.4-6
					C785.5,390,782.1,386.3,776.2,386.3"/>
				<path class="st5" d="M791.2,431.2c1.1,7.2-2.8,12.8-6.7,15c-16.9,9.3-29.6-15.6-17.2-24.9C776.6,414.3,789.5,420.7,791.2,431.2
					 M783.7,426.5c-4.4-4.6-15-3.5-16.4,4c-2.8,15.3,21.2,15.7,18.8,1.3C785.8,429.8,785.1,428,783.7,426.5"/>
				<path class="st5" d="M791.2,505.9c0.8,4.9-0.9,9.6-3.2,12c-9.6,10.2-29.5-0.7-24-15.6c1.8-5,8.6-10.3,16.9-8.2
					C785.7,495.2,790.2,500,791.2,505.9 M777.1,498.5c-12.8,0.1-10.6,19,1,18.5c5.1-0.2,8.6-4.4,8.3-9.3
					C786.1,502.2,782.4,498.5,777.1,498.5"/>
				<path class="st5" d="M789.4,543.8c0.2,1.6,0.2,4.8-0.5,6.6c-3.7,8.8-18.6,8.8-22.4-0.7c-2.2-5.5,0.1-12.8,5-15.3
					C780.2,529.9,788.4,536.4,789.4,543.8 M769.7,544.6c-0.3,10.4,17.3,11.2,15.5-0.4C783.8,534.8,770,535.7,769.7,544.6"/>
				<path class="st5" d="M786.1,170.4c1.2,7.1-3.9,14.9-13.6,13.2c-6.1-1.1-9.6-7.3-9.7-11.9c-0.1-8.7,8.9-14.4,16.9-10.3
					C781.9,162.6,785.3,165.9,786.1,170.4 M777.5,179.4c7.8-2.4,5.5-17.2-5.5-14.9C762,168.6,769,182.1,777.5,179.4"/>
				<path class="st5" d="M783.1,133.4c1,5.6-2.9,11.7-10.7,10.2c-4.4-0.8-7.4-5.6-7.2-9.5C765.5,123.1,781.3,123.4,783.1,133.4
					 M775.9,129c-6.5-1.5-8.1,3.9-7.4,7.2c1.5,6.5,13.3,5.6,11.3-2.8C779.2,130.8,777.3,129.3,775.9,129"/>
				<path class="st5" d="M786.8,581.4c0.9,6.1-3.4,11.3-10.7,9.9c-4.7-0.9-7.4-5.9-7.2-9.5c0.2-8.2,10.2-10.3,14.9-6.4
					C785.4,576.9,786.4,578.9,786.8,581.4 M779.6,576.7c-10.5-2.4-9.1,12.4-0.8,11.6c3.4-0.3,5.8-2.6,4.7-7.2
					C782.9,578.6,781,577,779.6,576.7"/>
				<path class="st5" d="M780.4,96.1c1,4.5-1.4,7.7-5.3,8.1c-10.7,1.1-10.2-15.6,0.5-13.4C777.3,91.1,779.7,92.8,780.4,96.1
					 M775.3,93.2c-6.8-1.7-7.7,8.5-1.4,8.7c3.4,0.1,4.9-2.2,4.1-5.4C777.5,94.2,776,93.3,775.3,93.2"/>
				<path class="st5" d="M783.8,618.2c2.6,9.3-11.4,9.9-11.6,1.6C772,613.5,781.8,610.9,783.8,618.2 M774.2,620
					c0.3,4.4,9.7,5.4,7.5-1.5C780.1,613.5,774,616.5,774.2,620"/>
				<path class="st5" d="M777.4,58.8c2,6.5-7.7,7.2-8,1.6C769.1,56.3,775.8,53.8,777.4,58.8 M770.8,59.8c-0.4,4.1,6.9,4.1,5.1-0.6
					C774.9,56.5,771.1,57.1,770.8,59.8"/>
				<path class="st5" d="M781.7,656.4c0.4,1.8-0.3,3.9-2.4,4.2c-4.4,0.8-5.7-5.9-2.1-6.8C780.4,653,781.2,654.4,781.7,656.4
					 M779,659.4c3-0.5,1.9-6-2.1-4.2C775.3,657.6,777.1,659.8,779,659.4"/>
				<path class="st5" d="M771.7,20.9c4-1.8,5.1,3.6,2.1,4.2C771.9,25.4,770.1,23.3,771.7,20.9 M772.3,21.5c-1.1,1.2-0.4,3.2,1.8,2.7
					C775.4,23.2,774.6,20.8,772.3,21.5"/>
				<path class="st5" d="M776.7,695.3c-0.1-1.8,0.6-2.8,1.5-3C782.8,691.1,780.3,699.9,776.7,695.3 M777.5,693.5
					c-0.1,1.1,0.1,1.9,0.6,2.4C781.5,696.3,780.1,691.8,777.5,693.5"/>
				<path class="st5" d="M755.3,244.4c2.1,13.4-9.9,24.7-23.7,19c-16.3-6.7-14.6-33.9,5.4-34.4C747,228.8,754,235.9,755.3,244.4
					 M737.1,235.3c-14.5,0.7-13.5,23,1.1,23.3c6.5,0.1,11.8-5.1,11.2-12C748.9,239.5,743.9,234.9,737.1,235.3"/>
				<path class="st5" d="M755.6,282.6c1.5,10.8-6.5,19.5-17.2,19.2c-15.6-0.4-23.8-19.4-13.1-30.3
					C735.6,261.1,753.7,268.2,755.6,282.6 M727,286.4c2.4,12.8,25.7,12,22.4-4.4C746.6,268.6,724,270.3,727,286.4"/>
				<path class="st5" d="M755.7,321.7c0.4,9.4-7.8,19.6-20.8,16.6c-6.9-1.6-13.4-8.8-13.6-16.9C720.7,298.7,754.8,299.4,755.7,321.7
					 M727.9,317.4c-5.2,18.1,24.9,20.5,21.5,2.2C747.4,308.9,730.8,307.3,727.9,317.4"/>
				<path class="st5" d="M753.3,208.6c1,8.9-5.3,16.1-13.3,16.8c-18.8,1.6-23.8-23.2-10.1-30.1C741,189.7,752.1,198.3,753.3,208.6
					 M741.5,200c-14.5-5.6-18.8,14.9-7.6,19.2c8.6,3.3,15.1-3.8,13.6-11.5C746.7,203.1,743.5,200.8,741.5,200"/>
				<path class="st5" d="M754.5,357.8c1.3,11.6-10.6,21.2-22.6,15.1c-10-5.1-12.6-22.4-0.8-28.4
					C742.8,338.7,753.4,347.8,754.5,357.8 M742.8,349.3c-9.2-3.6-16.4,5.1-13.6,12.9c3.9,10.9,22.3,7.9,19.7-5.2
					C748,352.8,745,350.1,742.8,349.3"/>
				<path class="st5" d="M755.1,469.5c1.2,9.7-6.3,17.3-15.7,16.9c-6.9-0.3-13.9-5.8-15-13.6c-1.5-10.2,6.2-18.3,16.6-17.4
					C748.7,455.9,754.1,461.6,755.1,469.5 M740.1,460.6c-14.8-0.8-12.7,20.7,0.5,20.3c5.9-0.2,9.5-5,9.2-10.2
					C749.3,464.7,745.9,460.9,740.1,460.6"/>
				<path class="st5" d="M754.5,432.7c1.1,10.8-11.1,21.1-22.9,13.6c-11.4-7.3-9.5-26.8,5.7-28.1
					C747.4,417.4,753.6,424.1,754.5,432.7 M737.4,423.6c-3.2,0.5-7,3.6-7.7,7.2c-2.8,15.5,21.9,16.4,19.4,1.3
					C748.2,426.6,744,422.6,737.4,423.6"/>
				<path class="st5" d="M753.9,395.4c0.8,8.8-5.6,15.5-13.9,15.6c-18.2,0.3-22-28.6-2.3-29.8C746.7,380.7,753.1,387,753.9,395.4
					 M735.3,386.9c-9.8,3.5-6.5,21.6,6.7,18.8c4-0.9,7.8-4.7,6.5-11.4C747.4,388.9,742.1,384.5,735.3,386.9"/>
				<path class="st5" d="M754.8,507.4c0.8,8.8-5.6,15.5-13.9,15.6c-18.2,0.3-22-28.6-2.3-29.8C747.6,492.6,754.1,499,754.8,507.4
					 M730.3,507.3c-0.6,13.6,22.1,13.7,19.1-1C747.2,495.1,730.8,496.2,730.3,507.3"/>
				<path class="st5" d="M753.6,543.5c1.9,10.7-6.9,17.5-16.6,15.1c-4.4-1.1-8.9-5.7-9.9-10.7c-1.8-8.5,4.1-18.1,16-15.7
					C748.3,533.3,752.5,537.1,753.6,543.5 M731.5,545.2c0.1,11.4,20.1,12.4,17.3-1.3C746.9,533.9,731.5,534.6,731.5,545.2"/>
				<path class="st5" d="M749.4,172.5c0.3,5.9-4,11.4-10.4,12c-11.7,1.1-18.3-14-10.3-21.4C736.3,156,748.9,161.9,749.4,172.5
					 M729.6,169.3c-4,13,17.6,14.6,15.5,1.7c-0.6-4.1-3.6-6.9-10.5-6.5C732.4,165.9,730.3,167,729.6,169.3"/>
				<path class="st5" d="M750.9,580.8c1.5,7.7-3.2,13-10.6,12.6c-7.6-0.4-12.4-8-9.7-15.1C734.3,568.6,749.1,571,750.9,580.8
					 M733.6,582.8c0.3,8.8,15.5,9.3,13.7-1C745.9,573.4,733.4,574.4,733.6,582.8"/>
				<path class="st5" d="M746.1,133.4c2.3,12.8-15.2,14.1-18.2,4.6C724,125.5,743.7,120.3,746.1,133.4 M738.9,129.3
					c-9.5-2.8-11.1,12.7-1.1,12c3.7-0.3,6-3.3,5-7.5C742.1,130.7,740.3,129.7,738.9,129.3"/>
				<path class="st5" d="M748,619.7c1,9.8-14.7,9.9-14.3-0.2C733.9,611.1,747,610.6,748,619.7 M736.3,621.6
					c1.2,4.7,10.5,4.3,8.9-2.5C743.8,612.9,734.8,615.5,736.3,621.6"/>
				<path class="st5" d="M743.1,97.9c0.4,11.7-18.6,5-12-4.4C734.4,88.8,742.8,91.2,743.1,97.9 M732.3,98.6c0.8,4.7,9.6,4.6,8.3-1.6
					C739.5,91.1,731.4,93.5,732.3,98.6"/>
				<path class="st5" d="M745.3,656.7c0.6,2.9-0.6,5-3.8,5.1c-6.7,0.2-5.7-10.4,1.1-8.7C743.3,653.3,744.8,654.3,745.3,656.7
					 M741.4,660.3c3.6-0.2,3.7-6.5-1.5-5.7C737.1,656.6,738.7,660.5,741.4,660.3"/>
				<path class="st5" d="M739.2,59.4c1.8,5.5-6.3,5.1-6.3,0.9C732.9,56.7,738.1,55.9,739.2,59.4 M736.5,62.7
					c1.2-0.2,2.6-1.1,1.5-3.3C735.7,54.9,731.4,63.3,736.5,62.7"/>
				<path class="st5" d="M742.9,697.3c-3,0.5-4.4-1-4.2-3C739.2,689.6,747.3,693.3,742.9,697.3 M742.9,696.1
					C743.6,688.7,735.5,697.6,742.9,696.1"/>
				<path class="st5" d="M735.3,24.8c-1-0.4-1.3-2.6-0.3-3.3C738.2,20.7,738.6,25.4,735.3,24.8 M735.3,22.1c-0.6,0.8-0.6,1.3,0,2.1
					C737.5,24.7,737.6,21.6,735.3,22.1"/>
				<path class="st5" d="M742.6,732c-0.3-0.1-0.5-0.3-0.6-0.6c-0.5,0-0.8,0.2-0.9,0.6C739.9,731.2,743.1,730.4,742.6,732"/>
				<path class="st5" d="M718.9,245c1,6.6-1.8,12.6-4.6,15.6c-2.4,2.5-8.4,5.3-13.4,5.2c-8.3-0.2-14.6-5.7-17.1-11.2
					c-6.3-13.7,5-27.1,18.3-25.8c3.8,0.4,5.5,1.6,6.9,2.3C713.5,233.4,717.8,237.6,718.9,245 M691.4,238.9
					c-9,10.4,3.7,23.6,14.2,19.6c5.2-2,8-7.1,6.8-13.5C710.4,235.1,697.4,232,691.4,238.9"/>
				<path class="st5" d="M718.9,282.9c2,16-16.2,25.6-28.8,16.1c-13.7-10.4-7-34.3,12.3-32.6C711.8,267.1,717.8,273.7,718.9,282.9
					 M700.3,272.6c-13.4,0.3-14,19.2-3.4,23c9,3.2,16.1-3.4,15.7-11.2C712.3,276.7,706.7,272.5,700.3,272.6"/>
				<path class="st5" d="M718.6,320.2c1.4,10.9-6.5,19.5-17.2,19.2c-15.6-0.4-23.8-19.4-13.1-30.3
					C699.4,297.9,716.9,306.7,718.6,320.2 M708.7,313.1c-5.6-4.8-17.4-2.6-18.8,5.8c-0.6,3.5-0.1,7.3,2.8,10.4
					c7.8,8.7,22,1.9,19.6-9.7C711.8,316.7,710,314.2,708.7,313.1"/>
				<path class="st5" d="M718.6,356.6c0.6,3.8,0.2,7.7-0.8,10.2c-3.9,9.3-18.9,13.5-28,5c-10.2-9.5-5.3-29.9,10.8-30.2
					C709.9,341.4,717.2,347.8,718.6,356.6 M696.2,348.7c-10.6,5.1-6.4,22.6,6.8,21.7c6.4-0.4,10.7-6,9.8-12.6
					C711.6,350.3,703.4,345.2,696.2,348.7"/>
				<path class="st5" d="M717.1,208.3c2.2,16-16.9,24.9-28.5,13.7c-11.6-11.2-2.7-32.9,15.3-28.8C710.1,194.6,716,200.1,717.1,208.3
					 M698.2,198.9c-6.6,0.9-10.7,8.6-8.2,15c3.9,10.2,23.2,8.9,21.2-5.2C710.1,201.3,704.9,198,698.2,198.9"/>
				<path class="st5" d="M718.4,394.2c1.9,12.4-10.1,23.8-23.4,17.5c-14.4-6.8-12.7-32.2,6.3-32.3c7.1,0,10.5,2.9,13.2,5.9
					C716.1,387.2,717.7,390.2,718.4,394.2 M712.1,392.2c-3.9-9.3-21.4-8.7-21.2,4.1c0.2,14.5,22.9,14.1,21.8-0.2
					C712.5,394.1,712.6,393.4,712.1,392.2"/>
				<path class="st5" d="M718.1,432.7c0.9,9.3-5.5,16.8-14.5,17.1c-11.5,0.4-21.5-11-16.3-23.1c2.7-6.4,11.6-11.7,20.8-7.9
					C712.7,420.7,717.4,425.8,718.1,432.7 M703.1,423.3c-9.5-0.9-14.4,9.6-9.4,16.5c6.7,9.4,20.3,2.9,18.8-7.3
					C711.6,427.2,708.4,423.8,703.1,423.3"/>
				<path class="st5" d="M718.4,468.9c1.8,11.1-6.4,19.6-17.5,18.4c-16-1.7-20.4-25.1-5.3-31.3C706.7,451.3,716.9,459.7,718.4,468.9
					 M699.5,460.7c-11,2.3-8.8,19.2,1.1,20.9c7.6,1.3,13.6-4.7,12.1-12.3C711.7,463.8,707.2,459,699.5,460.7"/>
				<path class="st5" d="M718.1,506.2c1.9,11.7-8.9,22.6-22,16.3c-3-1.4-5.9-4.5-7.2-7.1c-5.1-9.8,1.5-24.6,16.2-22.5
					C711.5,493.8,717,499.6,718.1,506.2 M700.7,498.3c-13.4,2-8.1,25.5,6.4,19.7c3.7-1.5,6.3-5.7,5.6-10.8
					C711.8,501.1,707.4,497.3,700.7,498.3"/>
				<path class="st5" d="M717.2,544.1c1.4,10.2-6.6,17.3-16.3,16c-13.5-1.9-17.2-23.1-3.5-28C707.1,528.5,715.9,535,717.2,544.1
					 M700.4,536.5c-9.2,1.9-8.3,15.9-0.1,18.2c7.7,2.2,13.2-3.3,11.9-10.5C711.1,538.5,706.7,535.2,700.4,536.5"/>
				<path class="st5" d="M713.5,171.9c0.9,8.3-7.9,18.2-19,13.3c-11.3-5.1-10.5-25.3,4-26.3C706.6,158.3,712.7,164.1,713.5,171.9
					 M699.4,163.6c-12.9,0.2-9.3,18.9,2,17.9c4.7-0.4,7.7-4.5,7.4-9C708.4,167.1,704.5,163.5,699.4,163.6"/>
				<path class="st5" d="M714.8,580.8c1.5,7.6-3.4,13.6-9.7,14.1c-8.8,0.8-16.1-7.8-13-16.6C696.2,567,712.8,570.3,714.8,580.8
					 M695.7,584.9c1.9,9,15.8,6.7,15.2-1.9C710.2,571.9,693.4,573.6,695.7,584.9"/>
				<path class="st5" d="M709.9,133.4c1.5,7.7-3.2,13-10.7,12.6c-7.5-0.4-12.4-8-9.7-15.1C693.4,121.1,708.1,123.6,709.9,133.4
					 M692.6,135.6c0.5,8.6,15.5,8.7,13.7-1.3C704.9,125.8,692.1,127.1,692.6,135.6"/>
				<path class="st5" d="M711.5,618.8c2.4,11.5-14.2,12.9-16.1,3.4C693.3,611.3,709.4,608.5,711.5,618.8 M704,615
					c-5.6-0.4-6.5,4.5-5.6,7.2c1.4,4.4,8.7,4.5,10.2,0.8c0.4-1,0.4-2.5,0-4.2C707.8,616.2,706,615.1,704,615"/>
				<path class="st5" d="M706.1,96.7c2.1,9.7-11.2,10.3-13.4,3.7C689.5,90.9,704,87.2,706.1,96.7 M697.7,93.5
					c-4.8,1.2-3.6,9.7,2.2,9.2c2.4-0.2,4.5-1.9,3.8-5.4C703.2,94.7,701.4,92.6,697.7,93.5"/>
				<path class="st5" d="M709.2,656.1c2.7,9.8-11.3,8.7-11,1.3C698.3,651.7,707.4,650,709.2,656.1 M704.4,654.1
					c-5.4-0.6-5.6,7.7-0.2,7.5c2.7-0.1,3.8-2.1,3.2-4.5C706.9,654.6,705.5,654.2,704.4,654.1"/>
				<path class="st5" d="M702.2,59.7c1.7,5.9-6.6,5.3-6.9,1.2C695,56.8,701,55.7,702.2,59.7 M700.1,63c2.2-0.9,1.8-5.4-2.4-4.5
					C695.2,60.1,697.3,64.2,700.1,63"/>
				<path class="st5" d="M706.5,697.3c-5.3,3.3-7.4-5-2.7-5.4C706.1,691.8,708.1,694.5,706.5,697.3 M703.5,693.2
					c-5.2,1.6,4.1,6.5,2.4,1.5C705.5,693.5,705.1,692.7,703.5,693.2"/>
				<path class="st5" d="M696.5,24.2c-0.6-5.3,6.8-1.9,3.3,1.2C698.1,25.6,697,25.2,696.5,24.2 M697.4,22.4
					c-0.1,1.1,0.1,1.9,0.6,2.4C701.3,25.3,699.9,20.8,697.4,22.4"/>
				<path class="st5" d="M705.3,732.3c-0.3-0.1-0.5-0.3-0.6-0.6c-0.5,0-0.8,0.2-0.9,0.6C702.6,731.5,705.7,730.7,705.3,732.3"/>
				<path class="st5" d="M681.6,245.3c2.4,14-13.3,26.8-27.3,18.1c-6.3-3.9-10-10.4-9.4-18.1c1.3-17.2,22.5-20.2,31.9-10.4
					C678.9,237.2,680.7,240,681.6,245.3 M655.3,238c-10.8,9.1,1.7,25,13,20.8c5.1-1.9,8-7.3,6.8-13.5
					C673.3,236.4,661.9,232.4,655.3,238"/>
				<path class="st5" d="M681,208.6c1.4,11.2-7,20.1-17.7,19.8c-6.9-0.2-13.7-4.7-16.5-10.3c-5.2-10.3,0.7-21.7,8.4-24.8
					C668.6,187.7,679.6,197.5,681,208.6 M662.1,198.3c-17.8,0.8-11.3,30,6.2,22.9c3.6-1.4,7-6.3,6.5-11.7
					C674.1,202.7,669.2,198,662.1,198.3"/>
				<path class="st5" d="M681.6,283.2c1.5,11.1-6.8,20.1-17.7,19.9c-19.1-0.5-24.4-26.6-9.2-34.6
					C667.4,261.8,680.1,271.7,681.6,283.2 M663,272.9c-14.7,0.4-13.2,20.1-2.8,23.3c9.9,3.1,15.9-5.4,15.1-12.1
					C674.5,276.9,669.3,272.7,663,272.9"/>
				<path class="st5" d="M681.9,322.9c0.2,11-12.1,22.3-25.8,15.4c-15.3-7.6-13-34.8,7.8-34.4C674.1,304.1,681.8,312.5,681.9,322.9
					 M675.4,319.7c-2.3-13.8-25.9-11.2-22.9,4.7c0.7,3.8,4.9,8.8,10.2,9.5c8.6,1,14.1-5.7,12.7-13.5
					C675.3,320.1,675.4,319.8,675.4,319.7"/>
				<path class="st5" d="M682.2,357.8c1.4,11.1-6.5,20.3-18,19.9c-19-0.8-24.7-26.3-8.9-34.6c9.4-4.9,20.2,0.3,24.2,6.4
					C681,351.8,681.7,353.3,682.2,357.8 M674.7,353.7c-5-8.7-22.1-7.9-22.4,5c-0.1,7.4,6.9,15.9,17.1,11.8c3.6-1.5,7-6.4,6.5-11.7
					C675.7,356.3,675.5,355,674.7,353.7"/>
				<path class="st5" d="M682.3,395.1c1.9,14.4-13.5,24.8-26.7,16.9c-5.4-3.2-9.4-9.8-8.8-17.5c1.5-20.4,33.5-20.4,35.5,0
					C682.3,394.7,682.2,394.9,682.3,395.1 M653.6,400.7c4.7,12.7,24.6,8.2,22.4-5.6C673.4,379.1,647.5,384.3,653.6,400.7"/>
				<path class="st5" d="M682.2,432.4c1.9,13.5-12.3,24-25.2,17.2c-13.5-7.1-12.6-30.9,4.8-33.2
					C672.5,415.1,680.9,422.7,682.2,432.4 M669,423.3c-12.3-4.5-20.2,9.9-12.7,18.3c7.8,8.7,22,1.9,19.6-9.7
					C675.1,427.6,671.8,424.3,669,423.3"/>
				<path class="st5" d="M682.3,468.9c1.8,11.6-6.1,21.6-19.2,19.9c-8.1-1-15.3-9.5-15.4-17.8c-0.1-9.6,7.4-17,16.6-17.2
					c5.6-0.1,10.1,2.4,12.6,4.7C679.2,460.6,681.5,463.9,682.3,468.9 M659.8,461c-10.9,5.2-5.6,22.6,6.7,21.7
					c6.5-0.4,10.8-5.4,9.7-12.6C675.2,462.6,667.7,457.2,659.8,461"/>
				<path class="st5" d="M682,506.5c1.4,9.1-3.8,16.7-11.2,18.6c-24.9,6.3-30.4-33-6.3-33.4C673.6,491.6,680.7,498.1,682,506.5
					 M660.4,498.6c-2.3,1-4.3,3.4-5,5.1c-7.2,16.1,21.9,23,20.9,4.9C675.9,501,668.6,494.8,660.4,498.6"/>
				<path class="st5" d="M681.1,544.7c2.6,20.3-28,22.1-30.7,3.2c-1.5-10.6,6.2-18.3,16.6-17.4C675,531.2,680.1,536.9,681.1,544.7
					 M666.1,535.9c-7-0.3-11.1,5.8-10.3,11.4c1.7,12.4,21,10.7,20-1.7C675.3,540.3,672,536.1,666.1,535.9"/>
				<path class="st5" d="M677.7,172.2c1.1,11.9-12.1,20.5-22.9,13.6c-10.7-6.8-9.8-26.7,5.7-28.1
					C670.6,156.8,676.9,163.5,677.7,172.2 M660.6,163.1c-3.1,0.5-7,3.4-7.7,7.2c-2.8,15.4,21.9,16.6,19.4,1.3
					C671.4,166.1,667,162.1,660.6,163.1"/>
				<path class="st5" d="M678.7,583.5c0.3,5.9-3.5,11.8-10.3,12.6c-17,2.2-21-25.3-2.9-25.6C673.5,570.3,678.4,576,678.7,583.5
					 M665.8,575c-4.8,0-9.2,4.3-8,10.2c1.4,7.2,12.8,8.6,15.8,2.3c0.5-1.1,0.6-2.7,0.6-4.2C673.9,578,670.7,574.9,665.8,575"/>
				<path class="st5" d="M673.5,134.3c1.3,8.2-6,15.3-15.1,12.1c-3.4-1.2-7.4-5.9-7.5-10.7c-0.5-12.5,15.1-14.2,20.5-7
					C672.7,130.3,673.1,131.6,673.5,134.3 M662.4,128.1c-10.7-0.4-9.3,16.2,1.3,14.9c3.5-0.4,6.2-3,5.9-7.5
					C669.4,131,666.8,128.3,662.4,128.1"/>
				<path class="st5" d="M675.4,620c0.4,3.8-1.6,7.9-4.7,9.3c-13.2,5.8-19-16-6.4-17.9C670.4,610.5,674.8,614.1,675.4,620
					 M660.2,619.8c-0.7,8.5,13.7,9.3,11.9-0.1C671,613.6,660.8,612.6,660.2,619.8"/>
				<path class="st5" d="M669.6,97c2.2,11.3-13.8,11.5-15.5,3.1C652,89.3,667.7,86.8,669.6,97 M656.8,98.3
					c0.1,6.4,11.4,6.9,10.1-0.7C665.9,91.3,656.7,92,656.8,98.3"/>
				<path class="st5" d="M672.5,656.7c1.1,4.9-2.8,9-8,7.2c-6.3-2.1-5.4-14,3.8-12C669.7,652.3,671.8,654.1,672.5,656.7 M667,654.1
					c-5.9-0.6-5.9,8.3-0.2,8.1c2.8-0.1,4.1-2.3,3.5-4.8C669.8,654.8,668.4,654.2,667,654.1"/>
				<path class="st5" d="M666.3,60c0.7,3.2-0.8,5.6-3.5,6c-7.2,1.1-8.9-11.1-0.4-9.9C664.1,56.4,665.8,57.5,666.3,60 M661.6,57.7
					c-5,0-3.5,9.1,2.4,5.9C666.1,61,664,57.7,661.6,57.7"/>
				<path class="st5" d="M669.8,694.9c0.3,1.8-0.1,3.2-2.1,3.6c-5.7,1.1-4.7-7.7,0.2-6.3C668.5,692.4,669.4,693.1,669.8,694.9
					 M665.6,693.5c-1.7,1.4-0.6,4.6,2.4,3.9C669.7,695.9,668.8,692.5,665.6,693.5"/>
				<path class="st5" d="M664,23.3c0.4,1.9-0.5,3.5-3,3.3C654.3,26,662.5,16.5,664,23.3 M659.5,24c0.1,1.1,0.9,1.6,2.4,1.8
					C665.9,23,659.1,19.8,659.5,24"/>
				<path class="st5" d="M662.2-13.7c-0.1,0.5-0.4,0.8-0.6,1.2c-1,0.1-1.7-0.1-1.5-1.2h0.3c-0.2,1.2,1.4,1.1,1.2,0
					C661.8-13.7,662-13.7,662.2-13.7"/>
				<path class="st5" d="M668,732.6c-0.3-0.1-0.5-0.3-0.6-0.6c-0.5,0-0.8,0.2-0.9,0.6C665.3,731.8,668.4,731,668,732.6"/>
				<path class="st5" d="M644,210.7c0.6,9.5-6.9,19.3-19.8,18.1c-10-1-16.8-10.2-16.9-19c0-8.5,6.5-17.6,17.5-17.8
					C636.3,191.9,643.4,200.3,644,210.7 M615,204.6c-4,8,1.6,17.4,10.9,17.8c7.1,0.3,12.5-5.8,11.5-13.2
					C635.9,198.3,620.2,194.1,615,204.6"/>
				<path class="st5" d="M644.3,248c0.6,9.6-7,19.3-19.8,18.1c-11.8-1.2-20.1-14.2-15.7-25.5c2.3-6,9.1-11.1,16.3-11.2
					C636.3,229.2,643.7,237.6,644.3,248 M635.9,241.2c-4.1-6.1-16.4-7.8-20.6,0.8c-3.8,7.7,1.3,17.4,10.3,17.8
					c8.2,0.4,13.3-6.2,12.1-13.5C637.3,243.4,636.7,242.4,635.9,241.2"/>
				<path class="st5" d="M644.6,323.2c0.1,9.2-6.7,16.1-13.9,17.1c-26.2,3.9-30.1-36.3-4.5-36.1c7.4,0.1,12.5,4.3,15.3,8.2
					C643.2,314.8,644.6,318.6,644.6,323.2 M638.3,320.9c-0.9-6.7-6.2-10.7-15-10c-4.1,1.5-6.8,4.4-8.3,8.4
					C611.9,338.4,640.8,338.3,638.3,320.9"/>
				<path class="st5" d="M644.9,358.1c1.5,11.4-7.3,20.1-17.7,19.9c-12.1-0.3-24.3-14.7-16.1-28.2c2.7-4.4,9.7-8.9,17.3-8.2
					C637.5,342.3,643.8,349.6,644.9,358.1 M637.4,354c-4.8-8.5-22.3-8.5-22.3,5.3c0,5.7,4.5,10.7,8.5,11.9
					c8.4,2.6,15.9-4.2,15.1-12.1C638.4,356.2,638.3,355.6,637.4,354"/>
				<path class="st5" d="M644,283.5c1.4,10.9-6.5,19-15.9,19.5c-14.1,0.8-24.1-14.4-17.8-26.7C618.2,260.7,641.8,266.6,644,283.5
					 M630.2,274.1c-8.5-3.1-14.8,3.2-15.4,9.1c-1.9,17.8,25.8,17.6,23,0.4C636.8,278,633.1,275.1,630.2,274.1"/>
				<path class="st5" d="M644.6,397.2c0.4,9.3-6.9,18.8-19.6,17.2c-8.5-1.1-15.4-10-15.4-18.1c0.1-8.7,7.1-16.7,16.6-16.8
					c4.7-0.1,10.3,2.7,12.6,4.7C641.8,386.7,644.4,390.8,644.6,397.2 M621.9,386.7c-10.5,5-6.1,23.3,7.4,21.7
					c6-0.7,10.2-5.6,9.1-12.6C637.4,388.9,629.9,382.8,621.9,386.7"/>
				<path class="st5" d="M644.9,470.1c1.4,10.1-5.8,19.3-17.2,18.9c-18.3-0.6-22.8-25.3-8.6-32.8
					C631.4,449.8,643.5,459.3,644.9,470.1 M616.6,471.2c-0.1,8.3,8.5,13.6,15.6,11.2c5.1-1.8,7.4-7.2,6.8-11.7
					C637.2,457.4,616.7,456.9,616.6,471.2"/>
				<path class="st5" d="M645.3,509.2c0.4,9.8-8.1,19.5-20.8,16.6c-17.7-4.1-18.2-33.9,3-34.1C637.5,491.6,644.9,499.3,645.3,509.2
					 M635.9,500.9c-4.9-4.6-16.3-3.5-18.5,4c-5.3,18.3,25,20.7,21.5,2.2C638.5,504.4,637.6,502.5,635.9,500.9"/>
				<path class="st5" d="M644.3,432.8c2.2,15.7-16.8,25-28.5,13.7c-13.2-12.7,1-37.2,19.8-27C639.3,421.4,643.4,426.3,644.3,432.8
					 M635.9,427.2c-7.4-8.7-23.5-0.8-18.7,11.2c4.1,10.3,23.3,8.7,21.1-5.2C637.9,429.9,637.2,428.7,635.9,427.2"/>
				<path class="st5" d="M641,170.7c2,11.4-6.4,19.7-17.5,18.3c-19-2.4-18.9-34.6,3.9-31.7c1.2,0.2,3.7,0.9,4.8,1.5
					C634.7,160,639.7,163.7,641,170.7 M617.4,166.1c-7.3,8.6,3,21.2,13,16.6c2.5-1.1,5.6-5.3,5.3-9.6
					C635.1,164,623.4,159,617.4,166.1"/>
				<path class="st5" d="M644.1,545.3c0.9,8.9-5.3,16.1-13.3,16.8c-19,1.6-23.7-23.2-10.1-30.1C632.4,526.1,643,535.2,644.1,545.3
					 M632.4,536.7c-14.1-5.5-18.9,13.9-8.2,18.9c8.2,3.9,15.8-3.1,14.2-11.2C637.5,539.9,634.4,537.5,632.4,536.7"/>
				<path class="st5" d="M641.1,582.3c0.8,6.2-2.6,11.5-7.1,13.2c-10.8,4.2-17.9-5.3-18-12.1c-0.1-6.5,4.7-11.4,9.8-12.3
					C633.5,569.8,640.1,574.8,641.1,582.3 M620.8,580.7c-4,13.1,18.7,15.5,15.8,1.4C635,574.3,623.1,573.1,620.8,580.7"/>
				<path class="st5" d="M637.1,134.3c1.5,9.1-6.9,17.4-16.9,13c-9.3-4.2-10.7-19.1-0.2-23C629,120.9,636,127.5,637.1,134.3
					 M623.6,127.8c-5.7,0.7-7.6,6.4-6.2,10.8c3.1,9.3,16,5.2,15.5-2.8C632.6,130.8,629.4,127.1,623.6,127.8"/>
				<path class="st5" d="M638.1,620.3c0.4,3.6-1.5,7.9-4.7,9.3c-13.1,5.7-19-16-6.4-17.9C633,610.8,637.5,614.5,638.1,620.3
					 M623.8,617.4c-5.9,9,12.8,14.3,11.1,2.9C634,614.8,626.7,613,623.8,617.4"/>
				<path class="st5" d="M633.5,97.6c0.9,6.1-3.4,11.3-10.7,9.9c-8.3-1.5-9.8-14-2.2-17.3C626.9,87.6,632.6,91.9,633.5,97.6
					 M626.3,92.9c-9.5-2.1-9.9,13.3-0.2,11.6c3.2-0.5,5-3.4,4.1-7.2C629.6,94.5,627.6,93.2,626.3,92.9"/>
				<path class="st5" d="M635.1,657.3c0.9,4.5-2.8,8.6-8,6.9c-6.3-2.1-5.4-14,3.8-12C632.6,652.6,634.6,654.4,635.1,657.3
					 M629.7,654.4c-6.9-0.7-5.1,8.2-0.2,8.1c2.6-0.1,4.2-1.6,3.5-4.8C632.6,655.3,631.2,654.5,629.7,654.4"/>
				<path class="st5" d="M629.9,60.3c0.7,3.7-1.1,6.5-4.4,6.9c-9.6,1.3-8.9-13.8,0.5-11.6C627.4,55.9,629.4,57.2,629.9,60.3
					 M625.7,57.7c-6.1-1.8-7.2,8.9-0.2,7.5c2.2-0.4,3-2.4,2.4-4.8C627.4,58.7,626.2,57.8,625.7,57.7"/>
				<path class="st5" d="M626.9,23.6c0.4,2.3-0.3,3.3-2.1,3.6c-4.9,0.9-5.8-7.9,0.2-6.3C625.9,21.1,626.7,22,626.9,23.6 M622.8,22.2
					c-2,1.6,0,5.1,2.7,3.6C626.8,24,625.7,21.3,622.8,22.2"/>
				<path class="st5" d="M631.9,697.9c-5.3,3.3-7.4-5-2.7-5.3C631.5,692.4,633.5,695.1,631.9,697.9 M628.9,693.8
					c-5.3,1.7,4.1,6.5,2.4,1.5C630.9,694.1,630.7,693.2,628.9,693.8"/>
				<path class="st5" d="M624.8-13.4c-0.2,0.5-0.4,0.7-0.6,1.2c-1,0.1-1.7-0.1-1.5-1.2h0.3c-0.2,1.2,1.4,1.1,1.2,0H624.8z"/>
				<path class="st5" d="M606.7,211c0.6,10-8.8,21.8-23.1,17.5c-7.8-2.3-13.5-10.6-13.6-18.1c-0.1-8.5,6.1-17.9,17.5-18.1
					C599,192.2,606.1,200.6,606.7,211 M578,204.3c-4.9,8.1,2,18.4,10.9,18.4c7.2,0,12.4-6.2,11.2-13.5
					C598.5,199.1,584,194.4,578,204.3"/>
				<path class="st5" d="M607,245.9c1,6.3-1.6,12.4-4.4,15.3c-2.5,2.7-8.3,5.6-13.7,5.5c-12.3-0.3-19.6-11.2-18.7-21
					c1.9-21.4,34.2-20.2,36.7-0.3C607,245.5,607,245.7,607,245.9 M577.5,252.4c5,13,25.8,8.2,22.9-6.5
					C597.3,229.8,571,235.5,577.5,252.4"/>
				<path class="st5" d="M607.3,285.6c0.6,9.8-7.2,19.4-19.9,18.1c-11.6-1.2-20.2-13.9-15.7-25.5c3-7.7,12.4-13.4,22.6-10.3
					C601.4,269.9,606.8,276.6,607.3,285.6 M586.9,273.5c-13.6,1.7-12.1,23.6,2.3,23.9c7,0.2,12.8-5.8,11.5-13.5
					C599.6,277.1,594.3,272.6,586.9,273.5"/>
				<path class="st5" d="M607.3,323.5c0.1,8.4-5.6,15.9-14.2,17.1c-25.2,3.5-30.3-35.6-4.5-36.1c2.1,0,7.5,1.2,10.2,2.9
					C602.2,309.6,607.2,315.3,607.3,323.5 M601,321.2c-0.9-6.7-6.2-10.6-15-10c-4.1,1.5-6.8,4.4-8.3,8.4
					C574.7,338.7,603.4,338.6,601,321.2"/>
				<path class="st5" d="M607,360.2c0.3,6.7-3.4,12.9-8.8,15.6c-12.6,6.3-25.9-4.6-26.1-15.9c-0.2-9.1,6.9-17.3,16.6-17.5
					c4.7-0.1,10.4,2.8,12.6,4.7C604.2,349.7,606.8,353.8,607,360.2 M599.5,354.3c-5.9-9.9-23-5.5-21.1,7.3
					c0.6,4.4,4.9,10.5,12.9,9.7c6-0.5,10.4-6.1,9.4-12.6C600.4,356.4,600.2,355.4,599.5,354.3"/>
				<path class="st5" d="M607.6,469.5c1,6.3-0.9,11.8-4.1,15c-5.3,5.4-17.8,7.1-25.1-0.1c-10.7-10.6-4.1-29.8,11.4-29.9
					c5.5,0,9.8,2.5,12.3,4.7C604.5,461.1,606.9,464.6,607.6,469.5 M585.2,461.6c-10.8,5.2-5.8,22.5,6.7,21.7
					c6.5-0.4,10.8-5.5,9.7-12.6C600.5,462.9,592.6,458,585.2,461.6"/>
				<path class="st5" d="M607.9,507.7c1.4,10.4-5.9,19.2-16.9,19c-12.7-0.3-21-12.9-16.3-24.6c6-15,31.5-12,33.2,5.1
					C608,507.3,607.9,507.5,607.9,507.7 M602,507.7c-1.4-12.6-22.2-13-22.4,1.1c-0.1,8.1,8.2,13.8,15.6,11.2c4.9-1.7,7.4-7,6.8-11.7
					C601.9,508.1,602,507.9,602,507.7"/>
				<path class="st5" d="M606.7,432.5c1.4,9.5-4.3,17.7-12.7,18.9c-24.5,3.7-27.7-33.6-4.5-33.7
					C598.3,417.7,605.5,424.1,606.7,432.5 M580.1,429.7c-7.2,16.1,21.9,22.9,20.9,4.9C600.5,422.6,584.3,420.3,580.1,429.7"/>
				<path class="st5" d="M604.3,171.9c1.2,9.4-5.3,17.2-13.9,18c-11.4,1.1-17.6-7.5-18.6-14.5c-2.7-18.7,20.1-22.4,28.6-12.8
					C602.3,164.9,603.7,167.6,604.3,171.9 M587.5,162.8c-4.6,0.1-9.7,3.5-10.1,9.6c-0.8,14.7,22,15.2,21.2,1
					C598.2,167,594.2,162.6,587.5,162.8"/>
				<path class="st5" d="M605.8,396.4c0.9,9.3-5.4,16.6-14.2,17.1c-11.6,0.8-21.8-11-16.6-23.1c1.2-2.9,4.2-5.9,6.5-7.2
					C592.8,376.9,604.7,385.5,605.8,396.4 M590.8,386.9c-14.5-1.4-14.7,19.8-1.6,20.9c6.4,0.6,12-4.6,11-11.7
					C599.3,390.8,596.1,387.4,590.8,386.9"/>
				<path class="st5" d="M606.2,545.9c1.1,12-12.1,20.5-22.9,13.6c-10.7-6.8-9.8-26.8,5.7-28.1C599,530.6,605.4,537.3,606.2,545.9
					 M589.1,536.8c-7.3,1.1-10.2,10.9-5.2,16.5c6.3,7.1,18.5,1.7,17-7.9C599.9,539.6,594.9,535.9,589.1,536.8"/>
				<path class="st5" d="M600.7,136.4c0.3,6.8-4.9,13.4-13.3,12.9c-15.9-0.8-17.7-25.1-0.8-26.3
					C593.2,122.6,600.3,127.1,600.7,136.4 M589.6,127.8c-12.2-2.4-13.2,13.4-4.6,16.5c5.9,2.1,12.5-1.8,11-9.6
					C595.1,130.7,592.4,128.3,589.6,127.8"/>
				<path class="st5" d="M603.5,584.1c0.3,5.9-4,11.4-10.3,12c-8.2,0.8-15.3-6.6-13.9-15.1C581.7,567.4,602.8,569.6,603.5,584.1
					 M583.8,581c-4,12.9,18.1,14.9,15.2,1.4C597.4,574.7,585.9,574.1,583.8,581"/>
				<path class="st5" d="M597.1,97.9c1.9,14.1-19.6,13.6-19.7,0.8c0-6.8,5.6-10.2,11-9.6C593.8,89.6,596.4,93,597.1,97.9
					 M585.1,92.6c-6.6,1.6-5,12.8,2.5,12.8c3.7,0,6.9-3.2,5.9-7.8C592.7,93.7,589.7,91.5,585.1,92.6"/>
				<path class="st5" d="M600.8,620.6c1.5,13.5-19.1,12.5-18.5-0.1C582.8,609.5,599.6,609.3,600.8,620.6 M585.6,620.4
					c-0.7,8.3,13.3,9.5,11.9,0.2C596.6,614.2,586.2,613.1,585.6,620.4"/>
				<path class="st5" d="M593.2,61.8c0.4,9.4-15.2,6.6-12.3-2.6c0.3-0.9,2-3.5,4.7-3.9C590.6,54.6,593,57.6,593.2,61.8 M583.9,58.6
					c-5.7,5.8,9.3,11.3,6.9,2C590,57.5,586.2,56.4,583.9,58.6"/>
				<path class="st5" d="M597.8,657.6c0.9,4.5-2.8,8.6-8,6.9c-6.3-2.1-5.4-14,3.8-12C595.3,653,597.3,654.7,597.8,657.6
					 M592.4,654.7c-5.9-0.6-5.9,8.3-0.2,8.1c2.8-0.1,4.1-2.3,3.6-4.8C595.2,655.4,593.7,654.8,592.4,654.7"/>
				<path class="st5" d="M589.9,23.6c0.5,1.9-0.3,4-2.7,4.2c-4.2,0.4-5.3-6-1.8-6.8C588.6,20.2,589.4,21.6,589.9,23.6 M587.3,26.6
					c3-0.5,1.9-6-2.1-4.2C583.5,24.9,585.4,27,587.3,26.6"/>
				<path class="st5" d="M595.2,695.6c0.3,1.8-0.1,3.2-2.1,3.6c-5.8,1.1-4.7-7.7,0.2-6.3C593.9,693,594.8,693.8,595.2,695.6
					 M591,694.1c-1.7,1.4-0.6,4.6,2.4,3.9C595.1,696.5,594.2,693.1,591,694.1"/>
				<path class="st5" d="M587.5-13.1c-0.2,0.5-0.4,0.7-0.6,1.2c-1,0.1-1.7-0.1-1.5-1.2c0.1,0,0.2,0,0.3,0c-0.2,1.2,1.4,1.1,1.2,0
					C587.1-13.1,587.3-13.1,587.5-13.1"/>
				<path class="st5" d="M593.4,733.2c-0.3-0.1-0.5-0.3-0.6-0.6c-0.5,0-0.8,0.2-0.9,0.6C590.6,732.4,593.8,731.6,593.4,733.2"/>
				<path class="st5" d="M571.2,435.4c0.3,10.4-7.5,19-19.8,17.8c-9.4-0.9-16.9-9.9-16.9-19c0-10.8,11.9-22.3,25.8-16
					C565.3,420.5,571,426.6,571.2,435.4 M554.1,423c-16.3-1.7-16.9,23.3-1,23.9c6.7,0.2,12.8-5.7,11.5-13.5
					C563.7,427.8,560.1,423.7,554.1,423"/>
				<path class="st5" d="M569.1,211.3c0.5,8.1-5.6,16.5-13.9,17.7c-21.2,3.1-30.1-25.7-12.8-34.2c4.4-2.2,11.5-2.6,16.7,0.2
					C563.4,197.2,568.6,202.6,569.1,211.3 M553.5,199.5c-8.7-1.5-13.1,4.1-14,8.5c-3.6,18.9,26.3,19.8,23,1.3
					C561.5,203.9,557.7,200.2,553.5,199.5"/>
				<path class="st5" d="M569.4,248.6c0.3,8.7-5.2,16.4-13.9,17.7c-26.2,4-30-36.3-4.5-36.1c8.3,0.1,13.7,4.7,16.5,10.3
					C568.5,242.4,569.3,245.1,569.4,248.6 M563.1,246.8c-0.9-6.6-6.2-10.7-15-10c-4.1,1.5-6.8,4.3-8.3,8.4
					C536.7,264.4,565.5,264.3,563.1,246.8"/>
				<path class="st5" d="M571.2,470.7c1.5,12.2-8.2,20.1-17.8,19.8c-12.5-0.3-24-15-16.1-28.2c2.9-4.7,9.5-8.9,17.2-8.2
					C564.1,454.9,570,461.5,571.2,470.7 M552.3,460.4c-17.5,0.7-11.4,30.1,6.2,22.9c3.7-1.5,7-7,6.5-11.7
					C564.1,464.8,559.6,460.1,552.3,460.4"/>
				<path class="st5" d="M569.4,284.1c1.9,14.4-13.5,24.8-26.7,16.9c-5.4-3.2-9.4-9.8-8.8-17.5c1.5-20.4,33.5-20.4,35.5,0
					C569.4,283.7,569.4,283.9,569.4,284.1 M555.6,274.7c-10.7-3.8-17.8,7-14.8,15c4.4,11.7,24.7,8.9,22.3-5.6
					C562.2,278.3,558.4,275.7,555.6,274.7"/>
				<path class="st5" d="M569.4,321.4c1.8,13.6-12.4,23.9-25.2,17.2c-14.3-7.5-11.8-31,4.8-33.2C560.4,304,568.1,311.8,569.4,321.4
					 M554.1,311.7c-10.6-1.7-18.1,10.5-10.6,18.9c7.8,8.7,22,1.9,19.6-9.7C562.1,316,558.6,312.4,554.1,311.7"/>
				<path class="st5" d="M570,396c1.9,13.6-12.6,23.8-25.2,17.2c-9.2-4.8-14-18.9-5.3-28C549.6,374.6,568,381.3,570,396
					 M554.1,386.3c-9-1.3-18.1,9.7-10,18.9c6,6.9,16.4,3.4,19.1-2.2c0.9-1.9,1.1-4.6,0.5-7.5C562.7,390.3,559.3,387.1,554.1,386.3"
					/>
				<path class="st5" d="M569.4,358.7c1.5,10.6-6.3,19.3-17.2,19c-20.9-0.7-23-32-3-34.6C559.8,341.7,568.1,349.3,569.4,358.7
					 M552,349c-5.5,0-10.9,4.4-11,10.8c-0.1,15.8,24.4,14.5,22.4-0.5C562.6,353,558.6,349,552,349"/>
				<path class="st5" d="M570,507.4c1.8,11.9-7.3,20.5-18.6,19c-7.7-1-14.8-8.8-14.8-17.2c0.1-9.5,7.3-16.5,16.3-16.5
					C562.4,492.6,568.8,499.4,570,507.4 M543.4,504.6c-7.3,16.2,21.9,23,20.9,4.9C563.7,497.6,547.7,495.2,543.4,504.6"/>
				<path class="st5" d="M566.7,171.6c2,12.2-9.3,22.1-21.3,17.5c-12.5-4.7-15.1-24.8-1.4-30.4C555.2,154,565.2,162.5,566.7,171.6
					 M547.8,163.4c-10.6,2.4-9.5,19,1.1,20.9c8.2,1.4,13.5-4.9,12.1-12.3C559.9,166.3,554.9,161.8,547.8,163.4"/>
				<path class="st5" d="M567.9,545c1.2,7.9-3.7,13.5-7.6,15.3c-18.3,8.2-29.6-20.8-12.2-27.1C558.5,529.5,566.7,537.2,567.9,545
					 M551.2,537.7c-9.6,2-8.1,16.8,0.8,18.5c7.7,1.5,12.2-4,10.9-10.8C561.9,539.7,557.5,536.4,551.2,537.7"/>
				<path class="st5" d="M563.7,136.7c0.2,3.7-1.5,8-4.1,10.2c-7.3,6.2-18.6,1.5-21.5-5.2c-3.9-9,2.6-18,10.9-18.6
					C557.6,122.5,563.2,128.7,563.7,136.7 M551.4,127.8c-6.1-0.6-11.3,4.5-9.2,11.4c2.9,9.6,18.2,6.6,16.7-3.7
					C558.2,130.9,555.7,128.3,551.4,127.8"/>
				<path class="st5" d="M566.2,584.5c0.3,5.9-4,11.4-10.3,12c-8.2,0.8-15.3-6.5-13.9-15.1C544.4,567.7,565.5,569.9,566.2,584.5
					 M546.5,581.3c-3.8,12.3,17.7,15.1,15.5,1.7c-0.7-4.4-4.6-7.2-10.5-6.5C548.7,578.3,547.1,579.1,546.5,581.3"/>
				<path class="st5" d="M560.1,98.2c2.1,14.2-20.2,14.4-20.3,0.8c0-5,3.6-9.2,7.7-9.9C554.3,87.8,559.2,91.9,560.1,98.2
					 M543.4,98.9c-0.1,8.3,14.5,9.2,13.1-0.4C555.4,90.4,543.4,90.9,543.4,98.9"/>
				<path class="st5" d="M563.5,620.9c0.4,3.6-1.6,7.9-4.7,9.3c-13.1,5.7-19-16-6.4-17.9C558.4,611.4,562.8,615.1,563.5,620.9
					 M548.3,620.7c-0.7,8.8,13.6,9,11.9-0.1C559.1,614.6,548.8,613.5,548.3,620.7"/>
				<path class="st5" d="M556.2,61.8c0.2,3-1.3,5.9-4.1,6.6c-12.1,3-11.1-16.5-0.1-12.8C553.7,56.2,555.9,58.4,556.2,61.8
					 M545.5,62.8c0.8,4.7,9.5,4.6,8.3-1.6C552.7,55.3,544.6,57.7,545.5,62.8"/>
				<path class="st5" d="M560.5,657.6c1.2,5-1.6,7.5-5.6,7.5c-8.1,0-9.3-14.7,1.4-12.2C557.8,653.2,559.9,655,560.5,657.6
					 M555.1,655c-5.9-0.6-5.9,8.3-0.2,8.1c2.8-0.1,4.1-2.3,3.5-4.8C557.9,655.7,556.4,655.1,555.1,655"/>
				<path class="st5" d="M552.6,23.9c0.4,1.6,0.1,3.9-2.7,4.2c-4.4,0.5-5-6-1.9-6.9C550.8,20.6,552,21.5,552.6,23.9 M550,26.9
					c2.9-0.5,1.9-6-2.1-4.2C546.2,25.2,548.1,27.3,550,26.9"/>
				<path class="st5" d="M557.8,695.9c0.3,1.8-0.1,3.2-2.1,3.6c-5.7,1.1-4.7-7.7,0.2-6.3C556.6,693.3,557.5,694.1,557.8,695.9
					 M553.6,694.4c-1.7,1.4-0.6,4.6,2.4,3.9C557.7,696.8,556.9,693.4,553.6,694.4"/>
				<path class="st5" d="M556.1,733.5c-0.3-0.1-0.5-0.3-0.6-0.6c-0.5,0-0.8,0.2-0.9,0.6C553.3,732.7,556.5,731.9,556.1,733.5"/>
				<path class="st5" d="M534.2,435.4c0.3,8.6-5.4,16.2-13,18c-19.7,4.8-31-19.4-19.4-31.5C512.7,410.7,533.7,418.5,534.2,435.4
					 M514.4,423.1c-14.7,0.9-13.5,22-1,24.2c9.5,1.7,14.7-5.9,14.2-12.1C527.1,427.3,521.7,422.6,514.4,423.1"/>
				<path class="st5" d="M533.6,398.1c0.6,9.6-6.6,19.4-19.8,18.1c-21.8-2.1-22.4-36.4,0.6-36.7C525.9,379.3,533,387.8,533.6,398.1
					 M509.3,387.3c-10.2,5.3-6.5,22.4,6.2,22.6c7.5,0.2,12.7-6.2,11.5-13.5C525.8,388.8,517.4,383.1,509.3,387.3"/>
				<path class="st5" d="M532.7,359c1.5,11.8-6.9,19-16,19.5c-11.8,0.7-20.5-9.1-19.6-20.4c0.7-8.4,7.9-14.5,14.8-15.3
					c9-1.1,15.2,3.6,18.3,8.5C531.2,352.8,532.2,355.1,532.7,359 M504,356c-6.7,18.4,25.6,22.6,22.4,3.1
					C524.4,346.7,507.6,346.1,504,356"/>
				<path class="st5" d="M533.6,471c2.2,16.8-18.3,25.4-29.7,14.6c-10.5-9.9-5.7-29,9-30.8C523.1,453.5,532.2,460.4,533.6,471
					 M519.8,461.5c-6.8-2.4-14.7,1.6-15.4,9.1c-1.8,17.7,25.8,17.5,23,0.4C526.6,466.4,522.9,462.7,519.8,461.5"/>
				<path class="st5" d="M531.5,320.8c1.9,11.9-7.4,22.3-20.4,19.3c-10.9-2.5-17.3-16.1-11.3-26.2
					C507.9,300.4,529.1,306,531.5,320.8 M504,319.3c-5.2,18.1,24.9,20.6,21.5,2.2C523.5,310.8,506.9,309.1,504,319.3"/>
				<path class="st5" d="M530.6,283.5c1.4,8.4-2.7,15-8.5,17.7c-9.2,4.3-19.2-1.4-22.5-7.9c-5.9-11.6,3.5-26.2,17.4-23.7
					c2,0.4,5.7,2.2,6,2.3C526,273.8,529.7,277.8,530.6,283.5 M518.9,276.2c-11.9-5.4-19.6,10.3-11.8,17.7c7.1,6.7,19.3,1,17.8-9.1
					C524.2,279.9,521.1,277.2,518.9,276.2"/>
				<path class="st5" d="M529.4,173.1c0.9,9.2-5.6,16.8-14.5,17.1c-18.2,0.7-22.9-23.8-9.2-30.7C517,153.9,528.3,162.5,529.4,173.1
					 M514.4,163.7c-17.1-1.7-13,25.4,2.9,20.6c3.9-1.2,7.3-6.1,6.5-11.4C522.9,167.5,519.7,164.2,514.4,163.7"/>
				<path class="st5" d="M529.4,210.4c1.3,11.3-9.7,20.6-21.4,15.7c-12-5-13.4-23.2-2-28.9C517.9,191.2,528.3,200.6,529.4,210.4
					 M509.9,201.6c-5.1,1.6-7.6,8.3-5.9,13.2c3.6,10.3,22.4,8.3,19.7-5.2C522.4,203.1,516.5,199.5,509.9,201.6"/>
				<path class="st5" d="M529.1,246.5c1.7,10.2-5.4,19.1-17.2,17.5c-12.7-1.8-17.1-18.3-8.9-26.5
					C512.5,228.1,527.3,235.5,529.1,246.5 M511.1,238.9c-11.9,2.6-7.4,22.4,5.8,19.7c4.7-1,7.9-6.2,6.8-11.7
					C522.7,241.8,518.2,237.4,511.1,238.9"/>
				<path class="st5" d="M531.2,507.4c1.9,10.2-5.4,19.4-17.2,17.7c-13.2-1.9-16.9-18.6-8.9-26.5
					C514.5,489.5,529.2,496.5,531.2,507.4 M522.8,502.4c-6.8-6-16.6,0.2-16.7,7.3c-0.1,13.1,22.7,13.3,19.7-1.7
					C525.3,505.4,524.3,503.7,522.8,502.4"/>
				<path class="st5" d="M526.4,134.9c1.8,10.2-6.5,17.6-16.6,15.1c-5.4-1.4-10.1-6.9-10.3-13c-0.3-8.9,6.8-15.2,16.3-13.3
					C520.9,124.7,525.2,128.5,526.4,134.9 M504.3,136.3c-0.3,11.8,20,12.8,17.3-1C519.7,125.4,504.5,126.2,504.3,136.3"/>
				<path class="st5" d="M529.4,545.3c2,11-9.3,18.8-19,13.6c-8.9-4.8-9.7-20.3,0.7-24.2C520.4,531.3,528.2,538.1,529.4,545.3
					 M508.2,544c-4.1,13,17.6,16.2,16.7,3.1C524.4,537.7,510.9,535.6,508.2,544"/>
				<path class="st5" d="M527.7,582.4c3,14.8-17.1,17.8-21.4,6.2c-2.7-7.2,3.2-19.2,14.8-14.5C523.2,575,526.7,577.6,527.7,582.4
					 M513.6,577.7c-6.8,2.5-4.6,14.6,3.7,14.3c4.6-0.2,7.8-3.3,6.5-9C522.9,579,518.9,575.8,513.6,577.7"/>
				<path class="st5" d="M522.8,98.5c2.1,14.3-20.2,14.3-20.3,0.8c0-6.7,6.5-12.9,14.6-9.1C519,91.1,522.1,93.6,522.8,98.5
					 M513.5,92.9c-10.3-1.1-9.5,15.9,1.6,13.1c2.9-0.7,4.6-3.7,4.1-7.2C518.6,94.6,516.2,93.2,513.5,92.9"/>
				<path class="st5" d="M526.2,621.2c0.4,3.6-1.6,7.9-4.7,9.3c-13.1,5.7-19-16-6.4-17.9C521.1,611.7,525.5,615.4,526.2,621.2
					 M511,621.9c0.2,8,13.6,7.8,11.9-1C521.7,614.5,510.8,613.9,511,621.9"/>
				<path class="st5" d="M518.9,60.9c2.1,9.8-11.8,9.9-13.1,2.8C504.1,54.8,517.1,52.4,518.9,60.9 M513.8,58
					c-7.2-1.7-7.8,10-0.2,8.7c2.5-0.4,3.6-2.6,2.9-5.4C516,59,514.5,58.2,513.8,58"/>
				<path class="st5" d="M523.2,658.2c0.8,4.4-2.7,8.7-8,6.9c-6.5-2.2-5.4-15,4.4-11.7C520.9,653.9,522.7,655.5,523.2,658.2
					 M517.8,655.3c-5.9-0.6-5.9,8.3-0.2,8.1c2.8-0.1,4.1-2.3,3.5-4.8C520.6,656,519.1,655.4,517.8,655.3"/>
				<path class="st5" d="M515.3,24.2c0.5,1.9-0.3,4-2.7,4.2c-4.2,0.4-5.3-6-1.8-6.9C513.9,20.8,514.8,22.2,515.3,24.2 M512.6,27.2
					c3-0.5,1.9-6-2.1-4.2C508.9,25.5,510.8,27.6,512.6,27.2"/>
				<path class="st5" d="M520.5,696.2c0.7,3.9-5.1,4.6-6,1.5C513.5,693.6,519.6,691.3,520.5,696.2 M516.3,694.7
					c-2,1.6,0,5.1,2.7,3.6C520.4,696.5,519.2,694,516.3,694.7"/>
				<path class="st5" d="M513.2-12.5c0,0.9-0.5,1.4-1.5,1.5c-0.8,0-1.3-0.5-1.2-1.5c0.1,0,0.2,0,0.3,0c0,0.7,0.3,1,0.9,0.9
					c0.6,0,0.9-0.3,0.9-0.9C512.8-12.5,513-12.5,513.2-12.5"/>
				<path class="st5" d="M519.1,733.8c-0.9-0.7-1.5-0.7-2.4,0C516.7,732.3,519,732.3,519.1,733.8"/>
				<path class="st5" d="M494.8,361.1c0.4,9.7-7.6,18.4-19.3,16.9c-10.3-1.4-19.5-15.2-12.8-26.5
					C471.4,337.2,494.1,344.1,494.8,361.1 M467,356.9c-5.5,17.7,25,20.8,21.5,2.2C486.5,348.2,470.1,346.9,467,356.9"/>
				<path class="st5" d="M495.1,396.7c1.5,10.7-6.4,19.2-16.9,18.9c-13.5-0.3-20.9-13.3-16.3-24.6
					C468.2,375.2,492.6,379.1,495.1,396.7 M487.6,392.2c-5-8-20.3-6.5-20.9,5c-0.3,6.5,5.1,12.4,11.4,12.4c7,0.1,11.8-6,11-12.3
					C488.9,395.4,488.4,393.6,487.6,392.2"/>
				<path class="st5" d="M495.4,435.8c0.4,9.5-7.8,19.6-20.8,16.6c-7.3-1.7-13.5-9.2-13.6-17.5c0-11.2,12.5-21.6,25.6-14.2
					C490.3,422.7,495.1,428.2,495.4,435.8 M486.1,427.5c-4.9-4.6-16.3-3.5-18.5,4c-5.2,18,24.9,20.5,21.5,2.2
					C488.6,431,487.8,429.1,486.1,427.5"/>
				<path class="st5" d="M493.9,322c1.8,13.3-12.7,23.8-25.2,15.7c-10.8-6.9-10.9-29,6-30.8C484.5,305.9,492.6,312.6,493.9,322
					 M466.7,326.1c2.9,12.2,24,10.4,21.2-4.3C485.2,307.7,463.4,311.8,466.7,326.1"/>
				<path class="st5" d="M494.5,471.9c0.9,9.3-5.3,16.6-14.2,17.1c-11.2,0.7-21.5-10.4-16.9-22.5c1.3-3.4,4.6-6.7,7.4-8.1
					C482.1,452.7,493.4,461.3,494.5,471.9 M479.5,462.5c-15-1.5-14.2,19.8-1.6,20.9c7.3,0.6,12-5.1,10.9-11.7
					C488,466.3,484.8,463,479.5,462.5"/>
				<path class="st5" d="M492.4,285c1.2,9.5-5.7,17.3-15.7,16.8c-6.9-0.3-13.9-5.9-15-13.6c-1.5-10.6,6.2-18.4,16.6-17.5
					C486.3,271.5,491.4,277.3,492.4,285 M468.2,281.1c-6.6,11.6,10.6,20.2,17.1,11.8c1.1-1.4,1.9-4.7,1.7-6.6
					C486.4,276.2,473.1,272.4,468.2,281.1"/>
				<path class="st5" d="M491.1,172.2c1.7,10.4-5.9,19.1-17.2,17.5c-13.4-1.9-16.8-18.6-8.9-26.5
					C474.5,153.9,489.3,161.1,491.1,172.2 M473.2,164.6c-11.5,2.5-7.7,22.5,5.8,19.7c4.5-0.9,8-5.8,6.8-11.7
					C484.7,167.4,480.2,163.1,473.2,164.6"/>
				<path class="st5" d="M489.3,135.2c1.7,9.8-6.3,17.5-16.3,15.4c-12.1-2.6-14.8-20.5-4.1-25.9
					C478.2,119.9,487.9,126.8,489.3,135.2 M473.5,128.2c-2.7,0.5-5.6,3.3-6.2,5.4c-4.6,14.4,19.4,17.4,17.3,2.5
					C483.9,131,480.2,126.9,473.5,128.2"/>
				<path class="st5" d="M492.4,509.5c1.1,9.2-9,18.3-19.6,13c-10.1-5-10.6-24.7,4.3-26C485.5,495.8,491.5,501.4,492.4,509.5
					 M478.3,501.3c-12.3,0.2-9.9,18.7,1.6,17.9c5.5-0.4,7.9-5,7.7-9C487.2,503.6,483.1,501.2,478.3,501.3"/>
				<path class="st5" d="M490,249.2c0.2,4.4-1.5,7.8-3.8,9.9c-9.1,8.3-27.2-0.7-22.2-15c1.6-4.6,6.3-8.1,11.3-8.5
					C483.7,235,489.7,240.8,490,249.2 M477.7,240.4c-3.6-0.4-8,1.4-9.2,5.2c-3.8,12.1,12.9,16,16.5,7.3c0.6-1.4,0.5-2.9,0.3-4.8
					C484.6,243.9,482,240.8,477.7,240.4"/>
				<path class="st5" d="M488.8,210.4c0.8,6-2.5,11.4-7.1,13.2c-9.2,3.5-18.1-4.3-18-12.4c0-6.2,4.6-11.1,9.8-12
					C481.2,197.9,487.8,203.1,488.8,210.4 M468.2,210.9c-0.6,12.2,18.7,11.5,16.1-0.7C482.4,201.1,468.6,202,468.2,210.9"/>
				<path class="st5" d="M490.3,546.3c1.2,8.1-5.9,15.4-15.1,12.1c-3.4-1.2-7.6-6-7.6-11.3c0-11.9,15.2-13.5,20.6-6.4
					C489.5,542.3,489.9,543.6,490.3,546.3 M479.2,540.1c-10.7-0.4-9.3,16.2,1.3,14.9c3.5-0.4,6.2-3,5.9-7.5
					C486.2,543,483.6,540.2,479.2,540.1"/>
				<path class="st5" d="M485.2,98.8c0.8,5.5-2.3,9.8-6.8,10.8c-15.8,3.4-17-21.3-1.9-19.7C480.7,90.4,484.4,93.4,485.2,98.8
					 M473.2,93.5c-6.6,1.6-5,12.8,2.5,12.8c3.7,0,6.9-3.2,5.9-7.8C480.8,94.6,477.8,92.4,473.2,93.5"/>
				<path class="st5" d="M488.6,583.3c1.1,6.3-2.3,10.6-7.7,11.1c-7.5,0.7-12.7-5.9-10.5-13C472.9,572.8,486.8,573.8,488.6,583.3
					 M481.4,579.2c-9.6-2.8-11.1,12.7-1.1,12c3.7-0.3,6-3.3,5-7.5C484.6,580.6,482.8,579.6,481.4,579.2"/>
				<path class="st5" d="M487.4,621.5c1.4,10.7-15.2,11.1-15.5,0.7c-0.1-5.2,4.1-8.2,8.6-7.8C484.4,614.8,486.8,617.4,487.4,621.5
					 M474.8,620.1c-2.9,8.2,12.6,10.2,9.6,0.5C482.8,615.5,475.8,617.3,474.8,620.1"/>
				<path class="st5" d="M481.3,61.2c2,9.3-10.9,9.7-12.5,3.1C466.6,55.6,479.5,53.1,481.3,61.2 M474.4,58.3
					c-4.6,0.5-5,10.5,2.5,8.3c2-0.6,2.8-3,2-5.4C478.1,58.6,477,58,474.4,58.3"/>
				<path class="st5" d="M485.3,658.5c2.5,11.5-16.8,5.3-9.6-2.9C478.6,652.3,484.3,654.1,485.3,658.5 M479.6,655.9
					c-5.9,0.4-2.6,10.5,3.3,6.2C484.6,658.8,482.5,655.7,479.6,655.9"/>
				<path class="st5" d="M478,24.5c0.4,1.8-0.4,3.9-2.4,4.2c-4.4,0.7-5.7-5.9-2.2-6.8C476.7,21.1,477.5,22.5,478,24.5 M475.3,27.6
					c3-0.5,1.9-6-2.1-4.2C471.6,25.8,473.4,27.9,475.3,27.6"/>
				<path class="st5" d="M483.2,695.9c1.8,5.5-6.3,5.1-6.3,1C476.9,693.2,482.1,692.4,483.2,695.9 M480.5,699.2
					c1.2-0.1,2.6-1.1,1.5-3.3C479.7,691.4,475.4,699.8,480.5,699.2"/>
				<path class="st5" d="M475.9-12.2c0,0.9-0.5,1.4-1.5,1.5c-0.8,0-1.3-0.5-1.2-1.5c0.1,0,0.2,0,0.3,0c-0.1,0.7,0.3,1,0.9,0.9
					c0.7,0,0.9-0.3,0.9-0.9C475.5-12.2,475.7-12.2,475.9-12.2"/>
				<path class="st5" d="M481.4,734.1c-0.3-0.1-0.5-0.3-0.6-0.6c-0.5,0-0.8,0.2-0.9,0.6C478.7,733.3,481.9,732.5,481.4,734.1"/>
				<path class="st5" d="M454.5,284.5c1.7,9.9-5.2,18.8-16.9,17.1c-14.1-2-18.2-25.2-2.6-29.5c3.8-1.1,11.3,0.9,12.5,1.7
					C450.2,275.4,453.6,279.4,454.5,284.5 M438.3,276.8c-12.5,1.2-9.6,20.7,2.9,19.7c5.3-0.4,8.6-5,8.3-9.9
					C449,280.5,444.6,276.2,438.3,276.8"/>
				<path class="st5" d="M454.8,321.8c2.5,14.5-14.6,22.9-25,13c-7.9-7.6-5.4-22.5,5.8-25.4C445.8,306.7,453.4,313.7,454.8,321.8
					 M439.5,314.1c-12.8,0.3-11.3,20.8,2,19.7c5.3-0.4,8.6-5,8.3-9.9C449.3,318,445.6,314,439.5,314.1"/>
				<path class="st5" d="M452.3,137c0.9,11.6-12.7,18.8-22.3,11.5c-11.7-8.8-2.8-31,13.8-24C448,126.3,451.8,130.4,452.3,137
					 M429.4,138.1c1,11.8,20.8,10.7,17.9-2.5C445,125.3,428.3,126.6,429.4,138.1"/>
				<path class="st5" d="M454.2,359.4c1.6,10-7.9,19.7-19,15.1c-3-1.2-6.9-4.9-8.1-8.3c-3.8-10.4,4.9-21.7,16.9-18.6
					C448.3,348.6,453.2,352.9,454.2,359.4 M440.1,352c-12.8,0-10.5,18.9,1.1,18.5c5.2-0.2,8.6-4.5,8.3-9.3
					C449.1,355.7,445.3,352,440.1,352"/>
				<path class="st5" d="M454.5,397.9c1.2,11-12.2,19.4-22.3,11.8c-9.8-7.4-5.8-24.3,7-25.1C448.2,384,453.6,390,454.5,397.9
					 M438,389.7c-4,0.8-6.6,5-6.5,9c0.4,11.1,20.6,12.9,17.9-1.6C448.5,392.2,444.8,388.2,438,389.7"/>
				<path class="st5" d="M453,248.6c0.9,7-4.7,15-13.9,14.4c-16.8-1-17.5-26.3-1.1-27.5C446.3,235.1,452,241.2,453,248.6
					 M438.9,240.4c-12.3,0.3-9.9,18.7,1.7,17.9c5.5-0.4,7.9-5,7.7-9C447.8,242.7,443.6,240.3,438.9,240.4"/>
				<path class="st5" d="M452,172.8c1.8,10-6.1,17.7-16.6,15.1c-15-3.8-12.9-30.3,6.1-26.3C446.6,162.6,450.8,166.1,452,172.8
					 M430,174.2c-0.3,11.8,20.1,12.8,17.3-1C445.3,163.3,430.2,163.9,430,174.2"/>
				<path class="st5" d="M453.9,434c1.9,10.7-9.1,18.9-19,13.6c-7-3.8-9.9-15.1-3.5-21.5C439.8,418,452.2,424.8,453.9,434
					 M439.5,427.3c-10.6,1.1-8.9,18.1,2.5,17.3c3.9-0.3,7.7-3.8,7.4-8.7C449.1,430.4,445.6,426.6,439.5,427.3"/>
				<path class="st5" d="M453.6,473.4c0.3,6.7-4.4,12.5-12.1,12.3c-15-0.3-17.7-24.2-1.4-25.1C446.9,460.3,453.3,465.3,453.6,473.4
					 M438,465.5c-7.1,2.4-6,14.4,1.6,15.8c6,1.1,10.7-3.1,9.5-9.3C448.2,467.3,443.7,463.6,438,465.5"/>
				<path class="st5" d="M450.9,212.5c0.1,5.6-3.9,10.9-10.1,11.4c-8.5,0.7-16.2-7.7-13-16.6C432,195.7,450.6,199,450.9,212.5
					 M431.5,213.9c1.8,9,15.8,6.7,15.2-1.9C446,201,429.2,202.7,431.5,213.9"/>
				<path class="st5" d="M448.1,99.1c2,14.3-20.2,14.3-20.3,0.8c0-6.9,6.9-12.7,14.5-9.1C444.6,91.9,447.5,94.7,448.1,99.1
					 M438.9,93.5c-10.3-1.1-9.5,15.9,1.6,13.1c2.9-0.7,4.6-3.7,4.1-7.2C444,95.3,441.6,93.8,438.9,93.5"/>
				<path class="st5" d="M451.5,508.7c1.2,5.9-1.7,10.2-5.6,11.7c-15.6,6.2-20.5-20-4.9-20.2C446.3,500,450.4,502.9,451.5,508.7
					 M434.8,508.8c-1.8,10.2,15.4,11.6,13.1,0.5C446.5,502.2,435.9,502.4,434.8,508.8"/>
				<path class="st5" d="M450.9,547.2c1.5,13.6-19.2,12.4-18.5-0.1C433,536.2,449.7,535.9,450.9,547.2 M435.7,547.3
					c-0.4,8.1,13.7,9,11.9-0.4C446.5,540.8,436.1,539.8,435.7,547.3"/>
				<path class="st5" d="M450.1,584.8c0.4,4.1-1.8,7.6-5.3,8.4c-7.3,1.7-10.9-4-10.8-8.6C434.2,574.8,449,574.7,450.1,584.8
					 M436.9,583.4c-2,8.3,12.6,9.9,10.2,0.5C445.6,578.1,437.7,580,436.9,583.4"/>
				<path class="st5" d="M444,61.6c2,9.3-10.9,9.7-12.5,3.1C429.3,55.9,442.2,53.4,444,61.6 M437.1,58.6c-4.6,0.5-5,10.5,2.4,8.3
					c2-0.6,2.8-3,2-5.4C440.8,58.9,439.7,58.3,437.1,58.6"/>
				<path class="st5" d="M448,621.5c0.7,3.7-1.1,6.4-4.4,6.9c-9.6,1.3-8.9-13.8,0.5-11.7C445.5,617.1,447.4,618.5,448,621.5
					 M443.8,618.9c-6.3-1.8-7.1,8.9-0.2,7.5c2.2-0.4,3-2.3,2.3-4.8C445.4,619.8,444.1,619,443.8,618.9"/>
				<path class="st5" d="M446.5,659.2c0.7,3.2-0.8,4.5-2.9,4.8c-6,0.8-7.3-9.7,0.2-8.1C444.7,656.1,446.1,657.1,446.5,659.2
					 M445.3,661c0.7-2.2-1.5-4.6-4.5-3.2C437.5,661.2,444.1,664.7,445.3,661"/>
				<path class="st5" d="M440.7,24.9c0.4,1.8-0.3,3.9-2.4,4.2c-4.4,0.7-5.7-5.9-2.1-6.8C439.3,21.4,440.2,22.8,440.7,24.9 M438,27.9
					c3-0.5,1.9-6-2.1-4.2C434.3,26.1,436.1,28.2,438,27.9"/>
				<path class="st5" d="M445.3,696.8c0.3,1.4-0.1,2.7-1.8,3C436.5,701,443.6,689.6,445.3,696.8 M442,695.6
					C439.4,702.1,449.1,696.3,442,695.6"/>
				<path class="st5" d="M438.6-11.9c0,0.9-0.6,1.4-1.5,1.5c-0.8,0-1.3-0.5-1.2-1.5h0.3c0,0.7,0.3,0.9,0.9,0.9c0.7,0,1-0.3,0.9-0.9
					C438.2-11.8,438.4-11.8,438.6-11.9"/>
				<path class="st5" d="M417.1,248.9c1.2,11.7-11.9,20.6-22.9,13.6c-11.9-7.5-8.5-26.9,5.7-28.1C410,233.6,416.3,240.3,417.1,248.9
					 M400.1,239.8c-3.1,0.5-7,3.4-7.7,7.2c-2.8,15.4,21.9,16.6,19.4,1.3C410.9,242.9,406.4,238.9,400.1,239.8"/>
				<path class="st5" d="M417.4,284.8c1.6,10-5.3,19.2-17.2,17.5c-13.4-1.9-16.8-18.7-8.9-26.5C400.8,266.4,415.6,273.6,417.4,284.8
					 M399.5,277.2c-11.5,2.5-8.1,22.5,5.8,19.7c3.9-0.8,8-5.4,6.8-11.7C411,280,407,275.5,399.5,277.2"/>
				<path class="st5" d="M416.5,211.6c0.7,8.4-5,15.4-13.6,15.6c-9.2,0.3-16.9-7.6-16-17.2c0.8-8.5,11-16.6,21.7-10.9
					C411.8,200.8,415.9,204.7,416.5,211.6 M398,203.1c-10.7,3.6-5.5,21.4,6.7,18.7c4.4-1,7.7-5.6,6.5-11.4
					C410.1,205.4,405.1,200.7,398,203.1"/>
				<path class="st5" d="M415.6,173.1c1.6,9.9-5.7,17.8-16.3,16.3c-13-1.9-17.8-22.9-3.5-28C406.2,157.6,414.4,165.3,415.6,173.1
					 M398.8,165.8c-9.1,1.8-8.5,15.6-0.1,18.2c7.3,2.3,13.1-3.7,11.9-10.5C409.7,168.5,405.9,164.4,398.8,165.8"/>
				<path class="st5" d="M415,137.6c0.5,7.7-4.9,14.5-13.9,14.1c-21.6-0.8-15.5-35.7,5.5-26.9C410.6,126.6,414.6,130.8,415,137.6
					 M392.1,138.4c1,11.6,20.8,10.9,17.9-2.5C407.7,125.6,391,126.9,392.1,138.4"/>
				<path class="st5" d="M416.6,322.1c0.9,5-0.9,9.9-3.2,12.3c-9.2,9.7-29.7-0.1-24-15.6c1.9-5.1,8-10.4,16.9-8.2
					C410.8,311.6,415.5,316.3,416.6,322.1 M402.5,315c-12.8,0-10.6,18.9,1.1,18.5c5.1-0.2,8.6-4.4,8.3-9.3
					C411.4,318.7,407.7,315,402.5,315"/>
				<path class="st5" d="M415.1,361.8c0.8,17.1-27.3,14.5-24.2-3.1C393.2,345.4,414.4,347,415.1,361.8 M395.4,358.7
					c-4,12.9,18.1,14.9,15.3,1.4C409,352.4,397.5,351.8,395.4,358.7"/>
				<path class="st5" d="M411.1,98.5c1.4,7.2-3.4,13-10.6,12.6c-13.6-0.7-13.3-21.6,0.1-21.5C406,89.7,409.9,92.3,411.1,98.5
					 M393.8,100.5c0.3,8.8,15.5,9.3,13.7-1C406.1,91.1,393.6,92.1,393.8,100.5"/>
				<path class="st5" d="M412.7,397.9c1.8,13.4-18.3,13.5-19.1,1.4C392.9,387,411.1,386.2,412.7,397.9 M403.4,392.6
					c-4.5-0.2-7.3,3.7-6.2,8.1c1.3,5.2,10.1,6,12,1.1c0.5-1.2,0.4-2.9,0-4.5C408.3,394.1,406.9,392.8,403.4,392.6"/>
				<path class="st5" d="M412.2,547.8c0.2,2.4-0.3,4.4-1.5,5.7c-3.9,4.6-13.3,2.3-14.1-4.4c-0.6-5.4,3.7-9.2,8.6-8.7
					C409.3,540.8,411.7,543.4,412.2,547.8 M399.3,547.9c-0.2,7.4,12.4,7.1,9.8-1.3C407.3,540.6,399.4,543.7,399.3,547.9"/>
				<path class="st5" d="M410.6,435.9c0.3,2.7-0.7,4.8-2,6c-6.5,5.8-16.4-4.1-10.5-10.7C402.1,426.7,409.9,429.5,410.6,435.9
					 M401.7,440.7c7.7,2.9,9.2-11.1-0.1-9C397.5,433.4,399.1,439.7,401.7,440.7"/>
				<path class="st5" d="M407.3,62.7c1.1,10.2-13.8,8.6-13.7,0.1C393.6,54.9,406.4,54,407.3,62.7 M400.4,58.6c-5.3,0-6,7.8-1.1,9
					c3,0.7,6.8-1,5.3-6C403.6,59.8,402.5,58.6,400.4,58.6"/>
				<path class="st5" d="M411.2,584.2c2.1,9.8-11.8,9.9-13.1,2.8C396.4,578.1,409.4,575.7,411.2,584.2 M406.1,581.3
					c-7.1-1.7-7.9,10-0.2,8.7c2.5-0.4,3.6-2.6,2.9-5.4C408.3,582.3,406.8,581.4,406.1,581.3"/>
				<path class="st5" d="M409.7,472c2.9,11.5-15.1,8.9-12-0.8C399.3,466.5,408.2,466,409.7,472 M400.8,470.6
					c-5.8,6.3,9.2,10.8,6.9,2C406.9,469.9,403,468.1,400.8,470.6"/>
				<path class="st5" d="M410,509.9c0.8,4.5-2.8,8.6-8,6.9c-6.3-2.1-5.4-14,3.8-12C407.5,505.2,409.5,507,410,509.9 M404.6,507
					c-5.9-0.6-5.9,8.3-0.2,8.1c2.9-0.1,3.9-2.2,3.5-4.5C407.5,507.7,406,507.1,404.6,507"/>
				<path class="st5" d="M408.9,621.6c2,6.5-7.7,7.2-8,1.6C400.6,619.1,407.3,616.6,408.9,621.6 M402.3,622.5
					c-0.3,2.9,3.5,4.3,5.4,1.7C408.6,619,402.6,619.3,402.3,622.5"/>
				<path class="st5" d="M403.4,24.9c1.7,5.9-6.6,5.2-6.9,1.2C396.2,22,402.2,20.8,403.4,24.9 M401.3,28.2c2.2-0.9,1.8-5.4-2.4-4.5
					C396.4,25.3,398.5,29.3,401.3,28.2"/>
				<path class="st5" d="M403.2,658.9c3.4-3.4,6.4,2.9,2.7,3.6C404.4,662.8,402.7,661.7,403.2,658.9 M404.4,658.9
					c-1.1,1.2-0.4,3.2,1.8,2.7C407.5,660.5,406.7,658.2,404.4,658.9"/>
				<path class="st5" d="M401.3-11.5c0.2,1.7-2.9,2.2-2.7,0h0.3c0,0.7,0.3,1,0.9,0.9c0.7,0,1-0.3,0.9-0.9H401.3z"/>
				<path class="st5" d="M405,698.9c-0.8-0.5-0.9-2.5,0.3-2.7C407.5,696.1,407.6,699.4,405,698.9 M406.5,698c0-0.3,0-0.6,0-0.9
					C404.3,695.6,404.4,699.6,406.5,698"/>
				<path class="st5" d="M379.2,248.1c1.1,6.9-2.3,12.5-6.7,15c-10.8,5.9-22.7-3.1-22.5-13.8C350.2,231.1,376.5,231.2,379.2,248.1
					 M363,240.4c-3.3,0.4-7,3.1-7.7,6.9c-2.8,15.3,21.2,15.8,18.8,1.3C373.3,243.3,369,239.7,363,240.4"/>
				<path class="st5" d="M378.6,211.9c0.8,7.3-4.5,14.3-12.1,15c-13.7,1.3-20.9-15-13-24.1c5.7-6.5,16.5-5.3,21.5,0.1
					C377.1,205.3,378.1,207.7,378.6,211.9 M365.4,203.4c-14.3-1.6-12.7,21.4,1.7,18.5c4.4-0.9,7.2-5,6.5-10.2
					C372.9,206.8,369.6,203.9,365.4,203.4"/>
				<path class="st5" d="M378.7,286.6c1.8,15.4-20.1,19-25.9,6.5c-4.5-9.7,3.9-23.7,17.2-18.7C374.1,276,377.9,280,378.7,286.6
					 M367.5,278.6c-4.7-1.3-7.9,1.1-8.9,2.2c-5.7,5.7-0.6,16.1,7.6,15.5c4.3-0.3,8.1-3.1,7.7-9C373.6,282.3,370.5,279.4,367.5,278.6
					"/>
				<path class="st5" d="M378.1,324.8c0.8,17.1-27.3,16.7-25.4-2.2C354.1,307.9,377.3,308.6,378.1,324.8 M357.2,326.5
					c0.8,4,5.7,7,9.9,6.5c4.1-0.5,6.7-4,6.5-8.4C373,312.8,354.8,314.4,357.2,326.5"/>
				<path class="st5" d="M376.2,172.9c1.8,8.5-4.1,15.3-12.1,15c-16.3-0.6-15.5-24.3-1.1-25.1C370.5,162.4,375.1,167.4,376.2,172.9
					 M361,167.6c-7.1,2.4-6,14.4,1.6,15.8c6,1.1,10.6-3.1,9.5-9.3C371.2,169.4,366.6,165.7,361,167.6"/>
				<path class="st5" d="M375.3,136.4c1.2,7.1-3.9,15-13.6,13.2c-6-1.1-9.6-7.3-9.6-11.9c-0.1-8.6,8.9-14.4,16.9-10.3
					C371.2,128.7,374.6,131.9,375.3,136.4 M356.5,140.5c2.7,8.2,16.5,6.1,14.9-3.7c-0.6-4-3.8-6.7-10.2-6.2
					C357.8,132.1,355,135.6,356.5,140.5"/>
				<path class="st5" d="M374.8,361.2c0.4,3.6-1.6,7.9-4.7,9.3c-13.2,5.8-19-16-6.4-17.9C369.7,351.8,374.1,355.4,374.8,361.2
					 M359.6,362c0.2,7.4,13.7,8.3,11.9-1C370.3,354.6,359.4,353.9,359.6,362"/>
				<path class="st5" d="M372.1,100.1c1.5,12.4-17.3,11.8-17.3,0.4C354.7,89.8,370.7,89.4,372.1,100.1 M358,98.7
					c-2.7,8.8,13.7,11,10.8,0.5C367.3,93.9,359.3,94.4,358,98.7"/>
				<path class="st5" d="M373.9,547.2c1,4.6-1.4,7.9-5.3,8.4c-12.3,1.6-10.1-17.6,1.1-13.7C371.1,542.4,373.3,544,373.9,547.2
					 M369.1,544.3c-7.7-3.1-8.9,9.5-1.4,9c2.3-0.2,4.6-1.5,3.8-5.4C371.2,545.9,370.1,544.7,369.1,544.3"/>
				<path class="st5" d="M369.3,62.2c2,9.3-10.9,9.7-12.5,3.1C354.7,56.5,367.6,54,369.3,62.2 M363,59.2c-7.2,0.1-4,10.1,1.9,8.4
					c1.9-0.6,2.8-2.9,2-5.4C366.3,60,365,59.2,363,59.2"/>
				<path class="st5" d="M371.5,510.2c0.8,3.6-1.1,5.6-3.2,6c-7.3,1.4-9.5-11.1-0.7-9.8C369.3,506.6,370.9,507.7,371.5,510.2
					 M366.7,507.9c-5,0-3.5,9.1,2.4,6C371.3,511.3,369.2,507.9,366.7,507.9"/>
				<path class="st5" d="M372.1,584.8c0.7,3.1-1.1,5-1.7,5.4c-7.5,4.6-12.4-10.7-2.2-9.2C369.9,581.2,371.6,582.3,372.1,584.8
					 M367.3,582.5c-5,0-3.5,9.1,2.4,6C371.9,585.9,369.8,582.5,367.3,582.5"/>
				<path class="st5" d="M370.3,398c2.1,7.9-9.7,7.4-9.2,0.7C361.4,393.6,369,392.9,370.3,398 M362.9,400.4c0.9,3,6.7,2.5,6-1.5
					C367.9,394.2,361.7,396.5,362.9,400.4"/>
				<path class="st5" d="M370.3,472.6c2,6.5-7.7,7.2-8,1.6C362,470.1,368.8,467.6,370.3,472.6 M363.8,473.6
					c-0.3,2.9,3.5,4.3,5.4,1.7C370,470.1,364.1,470.3,363.8,473.6"/>
				<path class="st5" d="M368.6,440.1c-7,2.7-8.2-7.2-2.7-7.4C369.4,432.5,371.7,437.2,368.6,440.1 M366.5,439.2
					c4.6-0.3,1.1-8.1-2.7-3.9C363.5,438,364.6,439.3,366.5,439.2"/>
				<path class="st5" d="M366.1,25.2c1.7,5.9-6.6,5.3-6.9,1.2C358.9,22.3,364.9,21.1,366.1,25.2 M364,28.5c2.2-0.9,1.8-5.4-2.4-4.4
					C359.1,25.6,361.2,29.6,364,28.5"/>
				<path class="st5" d="M365.9,624.3c-0.2-2,0.2-2.7,1.2-3C371.1,620,369.7,628,365.9,624.3 M367.1,621.9c-0.4,0.5-0.8,1-0.6,2.1
					c0.6,0.2,0.9,0.7,1.8,0.6C369.3,623.8,369.1,621.4,367.1,621.9"/>
				<path class="st5" d="M364-11.2c-0.1,0.9-0.5,1.4-1.5,1.5c-0.8,0-1.3-0.5-1.2-1.5h0.3c0,0.7,0.3,1,0.9,0.9c0.7,0,0.9-0.2,0.9-0.9
					C363.6-11.2,363.8-11.2,364-11.2"/>
				<path class="st5" d="M339.5,250.5c0.3,5.9-4,11.5-10.3,12c-8.2,0.7-15.3-6.6-13.9-15.1C317.7,233.7,338.9,236,339.5,250.5
					 M319.5,250c0,11.3,18,10.2,15.5-1.3C333.1,239.8,319.5,240.9,319.5,250"/>
				<path class="st5" d="M338.6,211.4c1.2,7.6-4.6,14.8-13.6,13.3c-7.9-1.4-12.1-11-8.2-17.8C322.4,197.1,337,201.1,338.6,211.4
					 M319.9,215.4c2.4,7.4,17,6.8,14.6-4C332.2,201.5,316.5,205.2,319.9,215.4"/>
				<path class="st5" d="M338.6,285.4c3,14.8-17.2,17.5-21.4,6.1c-2.8-7.5,3.5-19.1,14.8-14.5C334.2,278,337.7,280.6,338.6,285.4
					 M331.1,281c-11.8-5.6-14.8,14.4-2.9,14.1c4.5-0.1,7.6-4,6.5-9C334.2,283.6,332.8,281.8,331.1,281"/>
				<path class="st5" d="M338.4,323.6c2.3,15.1-21.3,15.1-20.9,0.5c0.1-5,4.1-9,8.3-9.6C332.7,313.4,337.4,317.4,338.4,323.6
					 M327.3,318c-8.9,0.6-7.2,15.3,2.5,13.7c4-0.7,5.2-4.3,5-6.9C334.4,319.7,331.8,317.7,327.3,318"/>
				<path class="st5" d="M335.3,174.1c2.9,14.1-20,13.5-17.3-0.7C319.6,164.9,333.4,164.7,335.3,174.1 M321,176.6
					c1,6.5,12.9,6.5,11.3-1.9C330.9,167.3,320,169.6,321,176.6"/>
				<path class="st5" d="M334.1,137.1c2.2,11.3-13.8,11.6-15.5,3.1C316.5,129.3,332.2,126.9,334.1,137.1 M321.3,138.4
					c0.1,6.4,11.4,6.9,10.1-0.7C330.4,131.3,321.2,132.1,321.3,138.4"/>
				<path class="st5" d="M335.7,361.9c0.5,4.7-2.9,9.2-9.2,7.8c-3.8-0.8-5.7-4.8-5.7-7.4C320.5,352.6,334.8,352.5,335.7,361.9
					 M327,357.5c-7.4,1.4-1.4,14.3,4.8,8.6c1.1-1,1.5-2.5,1.2-4.5C332.4,358.3,330.6,356.7,327,357.5"/>
				<path class="st5" d="M336.3,547.5c2.1,9.8-11.8,9.9-13.1,2.8C321.5,541.4,334.5,539,336.3,547.5 M331.2,544.6
					c-6.8-1.6-7.8,8.5-1.4,8.7c3.3,0.1,4.9-2.2,4.1-5.4C333.4,545.6,331.9,544.8,331.2,544.6"/>
				<path class="st5" d="M335.1,510.5c0.7,3.7-1.1,6.4-4.4,6.9c-9.6,1.3-8.9-13.8,0.5-11.6C332.6,506.1,334.5,507.4,335.1,510.5
					 M325.9,513c1.1,3.5,8.6,2.9,7.1-2.4C331.6,505.3,324.4,508.2,325.9,513"/>
				<path class="st5" d="M331.4,100.1c2.5,11.5-16.8,5.3-9.6-2.9C324.8,93.9,330.5,95.6,331.4,100.1 M325.7,97.4
					c-5.5,0.3-3.2,10,3,6.5C331,100.8,328.7,97.3,325.7,97.4"/>
				<path class="st5" d="M330.8,62.2c2.6,8.5-10.6,9.3-10.4,1.3C320.5,57.9,329.1,56.3,330.8,62.2 M325.5,67.3
					c2.8,0.2,4.5-1.2,3.5-4.5C326.7,55.1,317.3,66.6,325.5,67.3"/>
				<path class="st5" d="M333.9,473.2c0.7,3.1-0.8,5.6-3.5,6c-7.9,1.2-8-11-0.4-9.9C331.5,469.6,333.3,470.4,333.9,473.2
					 M329.1,470.9c-5,0-3.5,9.1,2.4,6C333.6,474.3,331.6,470.9,329.1,470.9"/>
				<path class="st5" d="M331.8,398.9c0.5,1.9-0.3,4-2.7,4.2c-4.2,0.4-5.3-6-1.8-6.9C330.5,395.4,331.3,396.8,331.8,398.9
					 M329.1,401.9c3-0.5,1.9-6-2.1-4.2C325.4,400.1,327.2,402.3,329.1,401.9"/>
				<path class="st5" d="M332.1,436.2c0.4,1.6,0.2,3.9-2.7,4.2c-4.5,0.5-5-6-1.8-6.9C330.2,432.9,331.5,433.8,332.1,436.2
					 M328.9,439.2c4.1,0.1,1.8-7.1-2.1-3.6C326.5,438.2,327.3,439.2,328.9,439.2"/>
				<path class="st5" d="M328.4,25.5c1.8,5.5-6.3,5-6.3,0.9C322.2,22.8,327.3,22,328.4,25.5 M325.8,28.8c1.1-0.1,2.6-1.1,1.5-3.3
					C324.9,21,320.7,29.4,325.8,28.8"/>
				<path class="st5" d="M333,585.8c0.3,1.8-0.1,3.2-2.1,3.6c-5.8,1.1-4.7-7.7,0.3-6.3C331.8,583.3,332.7,584,333,585.8
					 M328.9,584.3c-2,1.6,0,5.1,2.7,3.6C332.9,586.2,331.8,583.5,328.9,584.3"/>
				<path class="st5" d="M326.6-10.9c0,0.9-0.5,1.4-1.5,1.5c-0.8,0-1.3-0.5-1.2-1.5c0.1,0,0.2,0,0.3,0c0,0.7,0.2,1,0.9,0.9
					c0.6,0,0.9-0.2,0.9-0.9C326.3-10.9,326.4-10.9,326.6-10.9"/>
				<path class="st5" d="M301.3,249.3c0.9,5.7-2.6,10.6-6.2,12c-9.2,3.7-16.6-3.9-16.5-11.2c0.1-8.9,9.8-13.8,17.2-9.4
					C298.5,242.2,300.7,245,301.3,249.3 M289.9,243.1c-10.4-0.1-8.9,16.2,1.6,14.9c3.4-0.4,6.2-3,5.9-7.5
					C297.1,246,294.5,243.1,289.9,243.1"/>
				<path class="st5" d="M301.6,285.7c2.5,12.7-13.1,18.4-20.2,9.4c-5.5-7-1.6-18.7,8.5-18.9c4.7-0.1,6.7,1.8,7.8,2.6
					C299.3,280.2,301,282.6,301.6,285.7 M282.8,288c0.3,9.1,16.7,10.1,14.9-1C296.3,278.1,282.5,278.6,282.8,288"/>
				<path class="st5" d="M300.4,323.3c3.5,16.8-24.2,14.8-19.4-1.6C283.7,312.6,298.4,313.4,300.4,323.3 M297.2,323.7
					c-1.5-7-14.7-6.8-12.8,3.4C286.9,334.6,299,332.3,297.2,323.7"/>
				<path class="st5" d="M299.2,211.4c1.3,5.9-2.5,11.1-7.7,11.7c-11.6,1.3-14.5-13-7.9-17.8C289.3,201.1,297.7,204.5,299.2,211.4
					 M296.2,212.6c-0.7-6.1-10.5-8.1-12.6-1.7c-1.4,4.5,1.5,9.5,8.4,8.6C294.6,218,296.6,216.3,296.2,212.6"/>
				<path class="st5" d="M297.8,361.3c2.2,10.1-12.1,10.2-13.7,3.1C282,354.9,295.8,352.2,297.8,361.3 M293,358.3
					c-7.7-3.1-8.9,9.5-1.4,9c2.3-0.2,4.6-1.5,3.8-5.4C295,359.9,293.9,358.7,293,358.3"/>
				<path class="st5" d="M299,511.4c1,10.2-13.8,8.6-13.7,0.1C285.3,503.6,298.1,502.7,299,511.4 M292.1,507.3c-5.3,0-6,7.9-1.1,9
					c3,0.7,6.8-1,5.3-6C295.3,508.5,294.3,507.3,292.1,507.3"/>
				<path class="st5" d="M295.9,176.2c0.5,12.2-19.3,4.4-11.7-4.7C288,167.1,295.7,169.7,295.9,176.2 M285.2,176.9
					c0.8,4.7,9.5,4.5,8.3-1.6C292.4,169.4,284.3,171.8,285.2,176.9"/>
				<path class="st5" d="M299,549.3c0.5,12-19.3,4.5-11.7-4.7C291,540.2,298.8,542.8,299,549.3 M288.3,550c0.8,4.7,9.5,4.5,8.3-1.6
					C295.5,542.5,287.4,544.9,288.3,550"/>
				<path class="st5" d="M294.7,137.7c0.8,4.3-1.4,6.5-4.4,6.9c-8.7,1.2-10.1-14,0.5-11.7C292.4,133.3,294.2,134.9,294.7,137.7
					 M290.5,135.1c-6.3-1.8-7.1,8.9-0.2,7.5c2.2-0.4,3-2.3,2.4-4.8C292.1,135.9,290.8,135.1,290.5,135.1"/>
				<path class="st5" d="M296.6,473.2c2.3,8.8-10,7.5-9.8,1C286.9,469,295.1,467.7,296.6,473.2 M288.5,474.5c0,4.4,8.4,4.3,6.3-1.3
					C293.6,470.1,288.5,470.9,288.5,474.5"/>
				<path class="st5" d="M292.6,100.1c2,6.5-7.7,7.2-8,1.6C284.3,97.6,291.1,95.1,292.6,100.1 M286.1,101.1
					c-0.4,4.1,6.9,4.1,5.1-0.6C290.1,97.8,286.3,98.4,286.1,101.1"/>
				<path class="st5" d="M295.4,435.9c2.1,6.5-7.7,7.2-8,1.6C287.1,433.4,293.8,430.9,295.4,435.9 M288.8,436.9
					c-0.3,2.9,3.5,4.3,5.4,1.7C295.2,433.3,289.1,433.6,288.8,436.9"/>
				<path class="st5" d="M290.9,67.6c-6.8,2.7-8.3-6.9-3-7.4C291.6,59.8,294,64.6,290.9,67.6 M288.8,66.7c4.6-0.3,1.2-8.1-2.7-3.9
					C285.8,65.5,286.9,66.8,288.8,66.7"/>
				<path class="st5" d="M293.6,403.4c-7.1,2.7-8.2-7.2-2.7-7.4C294.5,395.8,296.7,400.5,293.6,403.4 M291.5,402.5
					c4.6-0.3,1.2-8.1-2.7-3.9C288.5,401.3,289.7,402.6,291.5,402.5"/>
				<path class="st5" d="M290.6,29.1c-5.3,3.3-7.4-5-2.7-5.3C290.2,23.5,292.2,26.2,290.6,29.1 M287.5,24.9
					c-5.3,1.7,4.1,6.5,2.4,1.5C289.5,25.2,289.4,24.3,287.5,24.9"/>
				<path class="st5" d="M294.6,588.5c-4.3,2.1-5.5-3.8-2.4-4.5C294.1,583.6,296.3,586.1,294.6,588.5 M292.4,584.9
					c-2.3,0.7-0.7,4.4,1.5,3C294.6,586.6,294.1,584.7,292.4,584.9"/>
				<path class="st5" d="M289.3-10.6c0,0.9-0.5,1.4-1.5,1.5c-0.8,0-1.3-0.5-1.2-1.5h0.3c0,0.7,0.3,0.9,0.9,0.9c0.7,0,1-0.2,0.9-0.9
					C288.9-10.6,289.1-10.6,289.3-10.6"/>
				<path class="st5" d="M292.5,624.9c-0.4-0.4-0.4-1.7,0-2.1C294.7,622.3,294.7,625.4,292.5,624.9 M293.3,623.1
					c-1-0.2-1.1,1.1-0.6,1.5C293.8,624.8,293.8,623.6,293.3,623.1"/>
				<path class="st5" d="M265.5,251.1c0.9,19.1-31.2,14.9-24.8-5.2c1.1-3.6,6.2-7.7,11.6-7.9C260.3,237.9,265.2,243.6,265.5,251.1
					 M244.6,252.7c1.8,8.9,18.9,8.7,16.1-3.7C258.5,239.2,242.4,241.4,244.6,252.7"/>
				<path class="st5" d="M264.9,288.7c0.1,5.4-3.2,10.8-10.1,11.4c-8.2,0.7-16.4-7.1-13-16.6C246,272,264.7,275,264.9,288.7
					 M245.5,290.1c1.8,8.9,15.7,6.8,15.2-1.9C260.1,277.2,243.2,278.8,245.5,290.1"/>
				<path class="st5" d="M262.2,211.7c3.6,17.3-24,14.2-19.4-1.6c0.5-1.7,2.2-4.2,4.4-5.4C254,200.9,261,205.7,262.2,211.7
					 M258.9,212c-1.5-7-14.8-6.8-12.8,3.4C248.7,222.9,260.7,220.7,258.9,212"/>
				<path class="st5" d="M261.6,324.8c0.8,6.6-4.1,10.3-10.4,8.8c-7.6-1.9-8.5-13.6-1-16.1C256.6,315.4,261,319.7,261.6,324.8
					 M247.9,325.3c-0.2,7.1,12.1,7.7,10.7-0.4C257.6,318.4,248.1,318.6,247.9,325.3"/>
				<path class="st5" d="M263.2,511.4c1.5,12.4-17.7,11.3-16.7-0.5C247.2,501.7,262,501.3,263.2,511.4 M249.5,511.8
					c-0.2,6.9,12.1,8,10.7-0.4C259.1,504.6,249.6,505.7,249.5,511.8"/>
				<path class="st5" d="M259.9,361.6c2,9.3-10.9,9.7-12.5,3.1C245.2,355.8,258.1,353.6,259.9,361.6 M253,358.7
					c-4.6,0.5-5,10.5,2.4,8.3c2-0.6,2.8-3,2.1-5.4C256.7,358.9,255.6,358.4,253,358.7"/>
				<path class="st5" d="M257.7,175.3c0.7,3.7-1.1,6.4-4.4,6.9c-9.6,1.3-8.9-13.8,0.5-11.7C255.2,170.9,257.2,172.2,257.7,175.3
					 M253.5,172.7c-6.3-1.8-7.1,8.9-0.2,7.5c2.2-0.4,3-2.3,2.3-4.8C255.1,173.6,253.8,172.8,253.5,172.7"/>
				<path class="st5" d="M260.8,548.4c0.7,3.7-1.1,6.4-4.4,6.9c-9.9,1.4-8.6-14.2,0.8-11.3C258.5,544.4,260.2,545.4,260.8,548.4
					 M256.6,545.8c-6.3-1.8-7.1,8.9-0.2,7.5c2.2-0.5,3-2.3,2.4-4.8C258.2,546.7,256.9,545.9,256.6,545.8"/>
				<path class="st5" d="M259.3,473.8c0.8,3.6-1.1,5.6-3.2,6c-7.3,1.4-9.6-11.1-0.7-9.8C257,470.2,258.7,471.3,259.3,473.8
					 M254.5,471.5c-5,0-3.5,9.1,2.4,6C259,474.9,257,471.5,254.5,471.5"/>
				<path class="st5" d="M256.2,138c1.5,6.6-7.7,7.2-8.9,2.5C245.8,134.5,254.8,132,256.2,138 M251.7,136c-5.6,0-1.9,9.5,2.7,5
					C255.4,138.2,253.9,136,251.7,136"/>
				<path class="st5" d="M258.1,399.5c1.1,5.8-7.3,6.4-8.3,2.2C248.3,396,256.8,393.2,258.1,399.5 M254.5,403.1
					c3.3-0.5,3.3-6.6-1.8-5.7C249.8,399.5,251.6,403.5,254.5,403.1"/>
				<path class="st5" d="M256.6,441c-7,2.7-8.2-7.2-2.7-7.4C257.5,433.4,259.7,438.1,256.6,441 M254.5,440.1
					c4.6-0.3,1.2-8.1-2.7-3.9C251.5,439,252.7,440.2,254.5,440.1"/>
				<path class="st5" d="M254.7,100.7c1.7,5.9-6.6,5.2-6.9,1.2C247.6,97.8,253.5,96.7,254.7,100.7 M252.7,104
					c2.2-0.9,1.8-5.4-2.4-4.5C247.7,101.1,249.9,105.2,252.7,104"/>
				<path class="st5" d="M258.1,586.4c0.4,1.9-0.5,3.1-2.1,3.3c-3.1,0.3-5.1-4.5-1.8-5.6C255.9,583.5,257.6,583.9,258.1,586.4
					 M253.7,587c0.1,1.1,0.9,1.6,2.4,1.8C260.1,586.1,253.3,582.8,253.7,587"/>
				<path class="st5" d="M252.9,66.7c-2.6,1-4.5-0.4-4.5-2.4C248.5,59.6,256.6,62.1,252.9,66.7 M252.7,65.8
					C253.3,58.5,245.3,67.4,252.7,65.8"/>
				<path class="st5" d="M252.6,29.1c-4.3,2.1-5.5-3.8-2.4-4.5C252.2,24.2,254.3,26.7,252.6,29.1 M250.5,25.5
					c-2.3,0.7-0.7,4.4,1.5,3C252.7,27.2,252.2,25.4,250.5,25.5"/>
				<path class="st5" d="M257,625.8c-1.9,0.2-2.7-0.2-3-1.2C252.9,621.2,259.7,622,257,625.8 M254.8,623.1c-0.1,0.2,0,0.6-0.3,0.6
					c-0.1,1.3,0.8,1.6,2.1,1.5C257.4,624.1,256.6,622.6,254.8,623.1"/>
				<path class="st5" d="M255.5,662.8c-0.8-0.5-0.9-2.5,0.3-2.7C258,660,258,663.3,255.5,662.8 M257,661.9c0-0.3,0-0.6,0-0.9
					C254.8,659.5,254.8,663.5,257,661.9"/>
				<path class="st5" d="M228.2,249.6c1.3,8.9-5.6,15.9-14.8,14.4c-14.6-2.3-14.7-28.7,4.3-25.7
					C223.2,239.2,227.4,244.3,228.2,249.6 M217.1,242.8c-12.6-2.1-12.1,15.2-3.1,16.7c6.6,1.1,10.6-3.8,9.8-9.3
					C223.1,246.2,220.6,243.4,217.1,242.8"/>
				<path class="st5" d="M225.8,211.7c1.6,7.7-3.7,13.6-10.9,13.2c-9-0.5-14.3-11.3-8.2-18.4C212.6,199.5,224,203.3,225.8,211.7
					 M215.9,206.7c-10.5-1-9.5,13.5-1.4,14.3c5.6,0.6,8-3.3,7.7-7.2C221.9,209.6,219.8,207.1,215.9,206.7"/>
				<path class="st5" d="M226.1,287.2c0.8,5.4-2.6,10.8-7.4,11.7c-14.7,2.8-17.9-18.9-5.3-20.9C220.4,277,225.2,281,226.1,287.2
					 M215,281.6c-8.7,0.6-7.7,15,2.2,13.7c3.7-0.5,5.6-3.4,5.3-6.9C222.2,283.5,219.2,281.4,215,281.6"/>
				<path class="st5" d="M224,324.3c1.1,5.1-1.4,9.5-6.8,9.9c-4.9,0.4-8.6-2.9-9.3-6.5C205.6,315.8,222,314.6,224,324.3
					 M210.9,327.7c1.4,4.4,8.7,4.5,10.2,0.8c0.4-1,0.4-2.6,0-4.2C219.1,317.6,208.8,321.1,210.9,327.7"/>
				<path class="st5" d="M225.6,510.8c2.4,11.3-14.2,13-16.1,3.4C207.2,502.5,223.5,501.1,225.6,510.8 M212.4,514.2
					c1.4,4.4,8.7,4.5,10.2,0.8c0.4-1,0.4-2.6,0-4.2C220.7,504.1,210.3,507.6,212.4,514.2"/>
				<path class="st5" d="M221.3,176.8c0.1,2.9-1.5,5.7-4.1,6.3c-11.9,2.9-11.2-16.6-0.1-12.8C219.1,171,221.2,173.6,221.3,176.8
					 M210.6,177.5c0.8,4.7,9.5,4.5,8.3-1.6C217.8,170,209.7,172.4,210.6,177.5"/>
				<path class="st5" d="M223.2,474.1c0.8,4.6-2.8,8.7-8,6.9c-6.3-2.1-5.4-14,3.8-12C220.6,469.5,222.6,471.2,223.2,474.1
					 M217.8,471.2c-5.9-0.6-5.9,8.3-0.2,8.1c2.8-0.1,4.1-2.3,3.5-4.8C220.6,471.9,219.1,471.3,217.8,471.2"/>
				<path class="st5" d="M221.9,362.2c0.7,3.7-1.1,6.4-4.4,6.9c-9.6,1.3-8.9-13.8,0.5-11.6C219.5,357.8,221.4,359.1,221.9,362.2
					 M217.8,359.5c-6.2-1.8-7.2,8.9-0.2,7.5c2.2-0.4,3-2.4,2.4-4.8C219.4,360.6,218.3,359.7,217.8,359.5"/>
				<path class="st5" d="M223.2,548.8c2.5,11.5-16.8,5.3-9.6-2.9C216.5,542.5,222.2,544.3,223.2,548.8 M217.5,546.1
					c-5.9,0.4-2.6,10.5,3.3,6.2C222.5,549,220.4,545.9,217.5,546.1"/>
				<path class="st5" d="M221.4,437.1c0.4,2.2,0,3.3-0.9,4.2c-1.6,1.7-7.1,1.7-8.1-2C211,433.5,220.1,430.4,221.4,437.1
					 M216.3,434.8c-4.5,0.6-1.9,8.6,3,5.4C221.1,437.2,218.7,434.4,216.3,434.8"/>
				<path class="st5" d="M218.6,138c2.3,7.9-8.3,6.7-8.6,1.6C209.7,135,217,132.6,218.6,138 M214.2,142.2c2.4,0.2,4-1.1,3-3.9
					C214.8,132.2,207.7,141.6,214.2,142.2"/>
				<path class="st5" d="M219,404c-7.1,2.7-8.2-7.2-2.8-7.4C219.9,396.4,222.1,401.1,219,404 M216.9,403.1c4.6-0.3,1.2-8.1-2.7-3.9
					C213.9,401.9,215.1,403.2,216.9,403.1"/>
				<path class="st5" d="M217.1,101c1.8,5.5-6.3,5-6.3,1C210.9,98.3,216,97.5,217.1,101 M214.5,104.3c1.2-0.1,2.6-1.1,1.5-3.3
					C213.6,96.5,209.3,105,214.5,104.3"/>
				<path class="st5" d="M221.1,586.1c1.8,5.5-6.3,5-6.3,0.9C214.8,583.4,220,582.6,221.1,586.1 M218.4,589.4
					c1.1-0.1,2.6-1.1,1.5-3.3C217.6,581.6,213.3,590,218.4,589.4"/>
				<path class="st5" d="M216.5,64.3c0.4,1.9-0.5,3.5-3,3.3C206.9,67,215,57.4,216.5,64.3 M212,64.9c0.1,1.1,0.9,1.6,2.4,1.8
					C218.5,64,211.7,60.8,212,64.9"/>
				<path class="st5" d="M220.8,624c0.5,2-0.6,2.8-1.8,3c-3.5,0.6-4.3-4.4-1.2-5.1C219.9,621.5,220.4,622.4,220.8,624 M217.5,622.8
					C214.9,629.4,224.6,623.5,217.5,622.8"/>
				<path class="st5" d="M214.7,29.4c-2,0.1-2.9-0.2-3.3-1.2C209.8,23.8,218.7,25.3,214.7,29.4 M212.3,26.4
					c-0.1,1.1,0.1,1.9,0.6,2.4C216.3,29.3,214.8,24.8,212.3,26.4"/>
				<path class="st5" d="M218.2,663.1c-0.8-0.5-0.9-2.5,0.3-2.7C220.7,660.3,220.7,663.6,218.2,663.1 M219.6,662.2
					c0-0.3,0-0.6,0-0.9C217.5,659.8,217.5,663.8,219.6,662.2"/>
				<path class="st5" d="M189.1,249.9c2.9,16-22.5,16.4-22.1,0.8c0.2-7.4,7.9-12.9,15.7-9.4C184.9,242.3,188.3,245.6,189.1,249.9
					 M176.2,244.3c-3.4,0.7-5.3,4.1-5.3,6.9c0,9,16.3,10.5,14.3-0.7C184.5,246.5,181.8,243.3,176.2,244.3"/>
				<path class="st5" d="M188.5,286.9c1.2,5.9-1.7,10.2-5.6,11.7c-15.6,6.2-20.5-20-4.9-20.3C183.2,278.3,187.3,281.2,188.5,286.9
					 M171.8,290.4c1.4,7.2,15.6,7.1,13.1-3.1C182.9,279.1,170.1,281.7,171.8,290.4"/>
				<path class="st5" d="M187.6,213.2c0.8,5.5-2.3,9.8-6.8,10.8c-15.8,3.4-17-21.3-2-19.7C183.1,204.8,186.8,207.8,187.6,213.2
					 M175.6,207.9c-6.6,1.6-5,12.8,2.5,12.8c3.7,0,6.9-3.2,5.9-7.8C183.2,209,180.2,206.8,175.6,207.9"/>
				<path class="st5" d="M186.1,324.9c2.1,10.9-13.2,11.4-14.9,3.1c-1-5,2.6-11.7,10.4-9C183.3,319.5,185.5,321.7,186.1,324.9
					 M178.4,331.2c5.9,0.5,7.1-7.8,2-9.9C171.6,320,172.7,330.7,178.4,331.2"/>
				<path class="st5" d="M184.3,176.5c1,10.2-13.8,8.6-13.7,0.1C170.6,168.7,183.4,167.8,184.3,176.5 M177.4,172.4
					c-5.2,0-6,7.8-1.1,9c3,0.7,6.8-1,5.3-6C180.6,173.6,179.6,172.4,177.4,172.4"/>
				<path class="st5" d="M186.5,511.4c2,9.3-10.9,9.7-12.5,3.1C171.8,505.8,184.7,503.3,186.5,511.4 M179.6,508.5
					c-4.6,0.5-4.9,10.5,2.4,8.3c2-0.6,2.8-3,2.1-5.4C183.2,508.8,182.2,508.2,179.6,508.5"/>
				<path class="st5" d="M178.1,481.7c-6-1.8-5.6-11.7,0.5-12.5C187.7,467.8,189.6,483.1,178.1,481.7 M176.9,472.4
					c-5.8,6.4,9.1,10.7,6.9,2C183,471.7,179.1,470,176.9,472.4"/>
				<path class="st5" d="M182.2,138.6c1.9,8.7-12.2,7.7-10.1-0.8C173.1,133.3,181,133.3,182.2,138.6 M173.8,139.3
					c-0.3,4.7,7.8,4.9,6.6-0.4C179.5,135,174.1,135.5,173.8,139.3"/>
				<path class="st5" d="M185.6,548.5c2.6,8.5-10.6,9.3-10.4,1.3C175.3,544.2,183.8,542.6,185.6,548.5 M177.2,548.5
					c-1.8,5.7,8.6,7.3,6.6,0.5C182.8,545.9,177.9,546.2,177.2,548.5"/>
				<path class="st5" d="M184.3,437.1c0.8,3.6-1.1,5.6-3.2,6c-7.3,1.4-9.6-11.1-0.7-9.8C182.1,433.5,183.8,434.6,184.3,437.1
					 M179.6,434.8c-5,0-3.5,9.1,2.4,5.9C184.1,438.2,182,434.8,179.6,434.8"/>
				<path class="st5" d="M183.4,362.5c0.9,3.9-1.2,6-4.7,5.7c-5.5-0.4-6.5-11.3,1.7-9.3C181.4,359.2,183,360.4,183.4,362.5
					 M178.6,360.5c-5.3,0.4-1.4,9.4,3,5C182.7,362.5,181,360.3,178.6,360.5"/>
				<path class="st5" d="M180.7,101.6c0.7,3.2-0.9,4.5-2.9,4.8c-5.6,0.8-7.5-8.8-0.4-8.1C179,98.5,180.2,99.3,180.7,101.6
					 M179.5,103.4c0.7-2.2-1.5-4.6-4.5-3.2C171.7,103.6,178.3,107.1,179.5,103.4"/>
				<path class="st5" d="M184.7,586.7c0.7,3.2-0.8,4.5-2.9,4.8c-6,0.8-7.3-9.7,0.2-8.1C182.9,583.6,184.2,584.6,184.7,586.7
					 M183.5,588.5c0.7-2.2-1.5-4.6-4.5-3.2C175.7,588.7,182.3,592.2,183.5,588.5"/>
				<path class="st5" d="M182.3,399.8c1.8,5.5-6.3,5-6.3,0.9C176,397.1,181.1,396.4,182.3,399.8 M179.6,403.1
					c1.1-0.1,2.6-1.1,1.5-3.3C178.7,395.4,174.5,403.8,179.6,403.1"/>
				<path class="st5" d="M178.9,67.3c-5.3,3.3-7.4-5-2.7-5.4C178.6,61.8,180.5,64.4,178.9,67.3 M175.9,63.2
					c-5.3,1.7,4.1,6.5,2.4,1.5C177.9,63.5,177.7,62.6,175.9,63.2"/>
				<path class="st5" d="M182.6,627.3c-2.9,0.3-4.2-0.7-4.2-2.7C178.5,619.6,187,623,182.6,627.3 M182.6,626.1
					C183.3,618.8,175.2,627.7,182.6,626.1"/>
				<path class="st5" d="M177.4,29.4c-2,0.2-2.7-0.2-3-1.2C173.4,24.8,180.2,25.6,177.4,29.4 M175.3,26.7c-0.1,0.2,0,0.6-0.3,0.6
					c-0.1,1.3,0.8,1.6,2.1,1.5C177.9,27.7,177.1,26.2,175.3,26.7"/>
				<path class="st5" d="M180.8,663.4c-0.8-0.5-0.9-2.5,0.3-2.7C183.4,660.6,183.4,663.9,180.8,663.4 M182.3,662.5
					c0-0.3,0-0.6,0-0.9C180.1,660.1,180.2,664.1,182.3,662.5"/>
				<path class="st5" d="M149.1,251.1c1.5,12.5-17,11.1-16.7,0.1c0.1-2.7,2.1-6.5,5.3-7.5C144,241.7,148.5,246,149.1,251.1
					 M135.4,251.6c-0.2,6.9,12.1,8,10.7-0.4C145,244.3,135.5,245.5,135.4,251.6"/>
				<path class="st5" d="M149.4,287.6c1.2,5.9-2.2,9.9-7.4,10.2c-7.1,0.4-10.4-5.8-9.3-11C134.5,277.6,147.8,279.6,149.4,287.6
					 M142.8,283.7c-8.1-2.2-9.9,10.8-1.7,11.1c4,0.1,6.3-2.8,5.3-6.9C145.8,285.2,143.9,284,142.8,283.7"/>
				<path class="st5" d="M147.9,214.1c0.5,4.7-2.9,9.1-9.2,7.8c-7.9-1.7-7.2-14,0.5-14.9C144.2,206.4,147.4,209.5,147.9,214.1
					 M139.2,209.7c-6.9,1.3-2.3,13.9,4.5,8.9c1-0.7,1.7-2.4,1.5-4.5C144.7,210.5,143,209,139.2,209.7"/>
				<path class="st5" d="M146.4,177.4c0.4,9.4-15.2,6.6-12.3-2.6c0.3-0.9,2-3.5,4.7-3.9C143.7,170.2,146.2,173.2,146.4,177.4
					 M136.3,178.7c1.1,4,9.3,3.5,7.7-2.5C142.6,170.7,134.8,173.3,136.3,178.7"/>
				<path class="st5" d="M147,324.9c2.6,9.3-11.4,9.9-11.6,1.6C135.2,320.3,145,317.7,147,324.9 M137.5,326.5
					c0.1,4.9,9.6,5.3,7.5-1.3C143.6,321.2,137.4,322.2,137.5,326.5"/>
				<path class="st5" d="M147.7,474.8c1.9,8.7-12.2,7.7-10.2-0.8C138.6,469.4,146.5,469.4,147.7,474.8 M139.3,475.4
					c-0.3,4.7,7.8,4.9,6.6-0.4C144.9,471.1,139.5,471.6,139.3,475.4"/>
				<path class="st5" d="M144.6,138.6c2.3,8.9-10,7.4-9.8,1C134.8,134.7,143,132.7,144.6,138.6 M136.5,139.9c0,4.4,8.4,4.3,6.3-1.2
					C141.5,135.5,136.5,136.4,136.5,139.9"/>
				<path class="st5" d="M146.7,437.1c2.1,7.9-9.8,7.7-9.3,0.7C137.9,432.8,145.4,432.2,146.7,437.1 M139.3,439.6
					c0.9,3.1,6.7,2.5,5.9-1.5C144.4,433.4,138.1,435.6,139.3,439.6"/>
				<path class="st5" d="M147.1,512.4c0.6,2.9-0.6,5-3.8,5.1c-6.8,0.2-5.7-10.4,1.1-8.7C145.1,509,146.6,510,147.1,512.4
					 M141.7,510.3c-2.8,1-1.9,6.2,1.8,5.7c1.8-0.2,2.4-1.6,2.1-3.3C145.1,510.4,143.7,509.6,141.7,510.3"/>
				<path class="st5" d="M146.8,549.7c1.1,4.9-6.1,5.7-7.1,2.1C138.1,547,145.6,544.2,146.8,549.7 M140.8,549.4
					c-0.8,2.5,2.4,4.7,4.5,2.7C147.2,548,141.7,546.7,140.8,549.4"/>
				<path class="st5" d="M142.8,101.6c1.7,5.9-6.6,5.3-6.9,1.3C135.7,98.7,141.6,97.6,142.8,101.6 M140.7,104.9
					c2.2-0.9,1.8-5.4-2.4-4.5C135.8,102,138,106.1,140.7,104.9"/>
				<path class="st5" d="M144.9,363.1c0.5,2-0.4,4.1-2.9,4.2c-3.9,0.1-4.9-6-1.5-6.9C143.6,359.7,144.4,361.1,144.9,363.1
					 M142.3,366.1c3-0.5,1.9-6-2.1-4.2C138.5,364.3,140.4,366.5,142.3,366.1"/>
				<path class="st5" d="M144.9,400.1c1.8,5.5-6.2,5.1-6.3,0.9C138.7,397.4,143.8,396.7,144.9,400.1 M142.3,403.4
					c1.2-0.1,2.6-1.1,1.5-3.3C141.4,395.7,137.2,404.1,142.3,403.4"/>
				<path class="st5" d="M145.9,590c-5.3,3.3-7.4-5-2.7-5.4C145.5,584.4,147.5,587.1,145.9,590 M142.9,585.8
					c-5.3,1.6,4.1,6.5,2.4,1.5C144.9,586.1,144.7,585.3,142.9,585.8"/>
				<path class="st5" d="M141,67.3c-4.3,2.1-5.5-3.8-2.4-4.5C140.5,62.5,142.7,64.9,141,67.3 M138.9,63.8c-2.3,0.7-0.7,4.4,1.5,3
					C141,65.4,140.6,63.6,138.9,63.8"/>
				<path class="st5" d="M142,626.1c-0.2-2,0.2-2.7,1.2-3C147.2,621.9,145.8,629.8,142,626.1 M143.2,623.8c-0.4,0.5-0.8,1-0.6,2.1
					c0.6,0.2,0.9,0.7,1.8,0.6C145.4,625.7,145.2,623.2,143.2,623.8"/>
				<path class="st5" d="M143.5,663.4c-0.4-0.4-0.4-1.7,0-2.1C145.7,660.9,145.7,663.9,143.5,663.4 M144.4,661.6
					c-1-0.2-1.1,1.1-0.6,1.5C144.9,663.3,144.9,662.1,144.4,661.6"/>
				<path class="st5" d="M108.2,250.9c2.3,8.9-10,7.4-9.8,1C98.5,247.2,106.6,244.7,108.2,250.9 M100.1,252.1c0,4.4,8.4,4.3,6.3-1.3
					C105.2,247.7,100.1,248.6,100.1,252.1"/>
				<path class="st5" d="M108.5,288.5c0.8,3.6-1.1,5.6-3.2,6c-7.3,1.4-9.6-11.1-0.7-9.8C106.2,284.9,107.9,286,108.5,288.5
					 M103.7,286.2c-5,0-3.5,9.1,2.4,6C108.2,289.5,106.2,286.1,103.7,286.2"/>
				<path class="st5" d="M107.6,213.9c1.5,6.7-7.7,7.5-8.9,2.5C97.2,210.6,106.1,207.5,107.6,213.9 M102.8,211.8
					c-5.3,0.4-1.3,9.5,3,5.1C107,213.8,105,211.7,102.8,211.8"/>
				<path class="st5" d="M106.7,176.9c0.7,3.2-0.9,4.5-2.9,4.8c-5.6,0.8-7.5-8.8-0.4-8.1C105,173.8,106.2,174.5,106.7,176.9
					 M105.5,178.7c0.7-2.2-1.5-4.6-4.5-3.2C97.7,178.8,104.3,182.4,105.5,178.7"/>
				<path class="st5" d="M106.5,330.3c-7.1,2.7-8.2-7.2-2.8-7.4C107.3,322.7,109.5,327.4,106.5,330.3 M104.4,329.4
					c4.6-0.3,1.2-8.1-2.7-3.9C101.4,328.2,102.5,329.5,104.4,329.4"/>
				<path class="st5" d="M105.8,139.6c0.5,1.9-0.3,4-2.7,4.2c-4.2,0.4-5.3-6-1.8-6.9C104.4,136.1,105.3,137.5,105.8,139.6
					 M103.1,142.6c3-0.5,1.9-6-2.1-4.2C99.4,140.8,101.2,142.9,103.1,142.6"/>
				<path class="st5" d="M108.2,438.7c0.5,4.6-6.6,3.9-6.6,0.1C101.7,434.9,107.7,434.1,108.2,438.7 M105.3,441.1
					c1.2-0.1,2.6-1.1,1.5-3.3C104.4,433.3,100.2,441.7,105.3,441.1"/>
				<path class="st5" d="M107.6,401c0.3,1.7-0.1,3.2-2.1,3.6c-5.7,1.1-4.7-7.7,0.2-6.3C106.4,398.5,107.3,399.2,107.6,401
					 M103.4,399.6c-1.7,1.4-0.6,4.6,2.4,3.9C107.5,402,106.7,398.6,103.4,399.6"/>
				<path class="st5" d="M106.8,366.4c-5.3,3.3-7.4-5-2.7-5.3C106.4,360.9,108.4,363.6,106.8,366.4 M103.7,362.3
					c-5.3,1.6,4.1,6.5,2.4,1.5C105.7,362.6,105.6,361.7,103.7,362.3"/>
				<path class="st5" d="M104.6,102.6c0.5,2-0.6,2.8-1.8,3c-3.5,0.6-4.3-4.4-1.2-5.1C103.7,100,104.2,101,104.6,102.6 M102.8,104.7
					c1.4-0.3,1.4-2.2,0.3-3.3C99.1,101,100.6,105.1,102.8,104.7"/>
				<path class="st5" d="M107.1,478.4c-2.7,1-4.5-0.4-4.5-2.3C102.6,471.3,110.7,473.8,107.1,478.4 M106.8,477.5
					C107.5,470.1,99.4,479.1,106.8,477.5"/>
				<path class="st5" d="M108,513c0.5,2-0.6,2.8-1.8,3c-3.5,0.6-4.3-4.4-1.2-5.1C107.1,510.5,107.6,511.4,108,513 M104.7,511.8
					C102.1,518.3,111.8,512.5,104.7,511.8"/>
				<path class="st5" d="M103.8,549.4c3.3-3.4,6.4,2.9,2.7,3.6C105,553.3,103.3,552.3,103.8,549.4 M105,549.4
					c-1.1,1.2-0.4,3.2,1.8,2.7C108,551.1,107.3,548.7,105,549.4"/>
				<path class="st5" d="M107.4,589.7c-2,0.2-2.7-0.2-3-1.2C103.4,585.1,110.2,585.9,107.4,589.7 M105.3,587c-0.1,0.2,0,0.6-0.3,0.6
					c-0.1,1.3,0.8,1.6,2.1,1.5C107.9,588,107.1,586.5,105.3,587"/>
				<path class="st5" d="M101,67.1c-0.3-0.7-0.8-1-0.6-2.1C102.3,62,105.5,67.7,101,67.1 M101,65c-0.1,1.1,0.2,1.7,1.2,1.8
					c0.1-0.2,0.2-0.4,0.6-0.3c0-0.5,0-1,0-1.5C101.9,64.7,101.9,64.7,101,65"/>
				<path class="st5" d="M64,251.2c3.3-3.4,6.4,2.9,2.7,3.6C65.2,255.1,63.5,254.1,64,251.2 M65.2,251.2c-1.1,1.2-0.4,3.2,1.8,2.7
					C68.3,252.8,67.5,250.5,65.2,251.2"/>
				<path class="st5" d="M63.7,179c-0.2-2,0.2-2.7,1.2-3C68.9,174.7,67.5,182.7,63.7,179 M64.9,176.6c-0.4,0.5-0.8,1-0.6,2.1
					c0.6,0.2,0.9,0.7,1.8,0.6C67.1,178.5,66.9,176.1,64.9,176.6"/>
				<path class="st5" d="M63.7,216c-0.1-1.8,0.6-2.8,1.5-3C69.8,211.9,67.4,220.7,63.7,216 M64.6,214.2c-0.1,1.1,0.1,1.9,0.6,2.4
					C68.6,217.1,67.1,212.5,64.6,214.2"/>
				<path class="st5" d="M64.3,290.7c-0.1-1.8,0.6-2.8,1.5-3C70.5,286.5,68,295.3,64.3,290.7 M65.2,288.9c-0.1,1.1,0.1,1.9,0.6,2.4
					C69.2,291.7,67.7,287.2,65.2,288.9"/>
				<path class="st5" d="M64.6,142.3c-1-0.4-1.3-2.6-0.3-3.3C67.5,138.2,67.9,142.8,64.6,142.3 M64.6,139.6c-0.6,0.8-0.6,1.3,0,2.1
					C66.9,142.2,66.9,139,64.6,139.6"/>
				<path class="st5" d="M67.9,328.8c-2,0.2-2.7-0.2-3-1.2C63.9,324.2,70.7,325,67.9,328.8 M65.8,326.2c-0.1,0.2,0,0.6-0.3,0.6
					c-0.1,1.3,0.8,1.6,2.1,1.5C68.4,327.1,67.6,325.6,65.8,326.2"/>
				<path class="st5" d="M66.1,365.9c-0.2-0.6-0.8-1-0.6-2.1C67.4,360.8,70.7,366.5,66.1,365.9 M66.1,363.8
					c-0.1,1.1,0.3,1.8,1.2,1.8c0.1-0.2,0.2-0.4,0.6-0.3c0-0.5,0-1,0-1.5C67.1,363.5,67,363.5,66.1,363.8"/>
				<path class="st5" d="M64.3,104.4c-0.4-0.4-0.4-1.7,0-2.1C66.5,101.8,66.5,104.8,64.3,104.4 M65.2,104.1
					C66.6,101.6,62.6,103.4,65.2,104.1"/>
				<path class="st5" d="M67.1,440.2c-0.4-0.4-0.4-1.7,0-2.1C69.3,437.6,69.3,440.6,67.1,440.2 M67.9,438.4c-1-0.2-1.1,1-0.6,1.5
					C68.4,440.1,68.4,438.8,67.9,438.4"/>
				<path class="st5" d="M251.4-10.3h0.3c0.5,1.9-2.7,1.4-2.4,0h0.3c0.2,0.6,0.5,1.1,1.5,0.9C251-9.9,251.4-9.9,251.4-10.3"/>
				<path class="st5" d="M549.9-12.8h0.3c0.5,1.9-2.7,1.4-2.4,0h0.3c0.2,0.6,0.5,1.1,1.5,0.9C549.6-12.3,549.9-12.4,549.9-12.8"/>
				<path class="st5" d="M960.1,207.2c0.8-0.7,1.6-0.7,2.4,0c0,0.5,0,1,0,1.5C961.5,209.4,959.7,208.9,960.1,207.2 M962.2,208.3
					c-0.1-0.9-0.4-1.4-1.5-1.2c-0.2,0.9-0.2,0.6,0,1.5C961.4,208.7,961.9,208.6,962.2,208.3"/>
				<path class="st5" d="M961.9,170.1c0,0.3,0,0.6,0,0.9c-0.4,0.4-1.4,0.4-1.8,0C960,169.6,961.4,169.3,961.9,170.1 M960.4,171
					c0.4,0,0.8,0,1.2,0c0-0.3,0-0.6,0-0.9C960.8,170.1,960.1,170,960.4,171"/>
				<path class="st5" d="M923.7,59.4c-0.4,0.4-1.4,0.4-1.8,0c-0.3-1,0.5-0.9,0.6-1.5C923.3,58,923.7,58.4,923.7,59.4 M922.2,59.4
					c0.4,0,0.8,0,1.2,0c0-0.3,0-0.6,0-0.9C922.6,58.4,921.9,58.4,922.2,59.4"/>
				<path class="st5" d="M854,657c-0.4,0.4-1.4,0.4-1.8,0c-0.3-0.9,0.5-0.9,0.6-1.5C853.6,655.6,854,656,854,657 M852.5,657
					c0.4,0,0.8,0,1.2,0c0-0.3,0-0.6,0-0.9C852.9,656,852.1,656,852.5,657"/>
				<path class="st5" d="M368.9,660.1v0.9c-0.4,0.4-1.4,0.4-1.8,0C367,659.6,368.3,659.3,368.9,660.1 M367.4,661c0.4,0,0.8,0,1.2,0
					c0-0.3,0-0.6,0-0.9C367.8,660,367.1,660,367.4,661"/>
				<path class="st5" d="M329.8,624c0.1-0.3,0.3-0.2,0.3,0c0.5,0.1,0.5-0.3,0.9-0.3c0.1-0.4-0.9-1-0.9-0.3c-1-0.3,0.3-0.9,0.9-0.6
					C331.6,623.7,330.7,624.8,329.8,624"/>
				<path class="st5" d="M137.7,27.3c0.8-0.6,1.6-0.6,2.4,0c0,0.5,0,1,0,1.5C139.1,29.6,137.3,29,137.7,27.3 M139.8,28.5
					c-0.1-0.9-0.4-1.4-1.5-1.2c-0.2,0.9-0.2,0.6,0,1.5C139,28.9,139.5,28.8,139.8,28.5"/>
				<path class="st5" d="M105.3,624.7c0.8-0.6,1.6-0.7,2.4,0c0,0.5,0,1,0,1.5C106.7,626.9,104.9,626.3,105.3,624.7 M107.4,625.8
					c0-0.9-0.4-1.4-1.5-1.2c-0.2,0.9-0.2,0.6,0,1.5C106.6,626.2,107,626.1,107.4,625.8"/>
				<path class="st5" d="M106.2,663.2c0-0.3,0.3-0.2,0.3,0c0.5,0.1,0.5-0.3,0.9-0.3c0.1-0.4-0.9-1-0.9-0.3c-1-0.3,0.3-0.9,0.9-0.6
					C108,662.8,107.2,664,106.2,663.2"/>
				<path class="st5" d="M66.2,401.1c0.8-0.6,1.6-0.7,2.4,0c0,0.5,0,1,0,1.5C67.5,403.3,65.7,402.8,66.2,401.1 M68.2,402.3
					c0-0.9-0.4-1.4-1.5-1.2c-0.2,0.9-0.2,0.6,0,1.5C67.4,402.7,67.9,402.5,68.2,402.3"/>
				<path class="st5" d="M67.4,477.5c-0.4-0.4-0.4-1.7,0-2.1C69.4,475.1,69.7,477.9,67.4,477.5 M67.6,475.7c-0.4,0.4-0.4,1.1,0,1.5
					c0.2,0,0.4,0,0.6,0c0.4-0.4,0.4-1.1,0-1.5C68.1,475.7,67.9,475.7,67.6,475.7"/>
				<path class="st5" d="M69.2,514.2c-0.4,0.4-1.4,0.4-1.8,0c-0.3-1,0.5-0.9,0.6-1.5C68.8,512.8,69.2,513.2,69.2,514.2 M67.7,514.2
					c0.4,0,0.8,0,1.2,0c0-0.3,0-0.6,0-0.9C68.1,513.2,67.4,513.2,67.7,514.2"/>
				<path class="st5" d="M69.5,551.5c-0.4,0.4-1.4,0.4-1.8,0c-0.3-1,0.5-0.9,0.6-1.5C69.1,550.1,69.5,550.5,69.5,551.5 M68,551.5
					c0.4,0,0.8,0,1.2,0c0-0.3,0-0.6,0-0.9C68.4,550.5,67.7,550.5,68,551.5"/>
			</g>
		</g>
	</g>
</g>
</svg>
