<?xml version="1.0" encoding="utf-8"?>
<!-- Generator: Adobe Illustrator 19.0.0, SVG Export Plug-In . SVG Version: 6.00 Build 0)  -->
<svg version="1.1" id="Layer_1" xmlns="http://www.w3.org/2000/svg" xmlns:xlink="http://www.w3.org/1999/xlink" x="0px" y="0px"
	 viewBox="1 27.6 1025 715.4" style="enable-background:new 1 27.6 1025 715.4;" xml:space="preserve">
<style type="text/css">
	.st0{fill:#AD9B8A;}
	.st1{fill:#8F8175;}
	.st2{fill:#FFFFFF;}
	.st3{fill:#323232;}
	.st4{fill:#942A8D;}
	.st5{fill:#F15B25;}
	.st6{fill:#8EC441;}
	.st7{fill:#FAAC1A;}
	.st8{fill:#D6D6D6;}
	.st9{fill:#EB197B;}
	.st10{fill:#42A5DC;}
	.st11{fill:#EABC8E;}
	.st12{fill:#F15C25;}
	.st13{fill:#759F40;}
	.st14{fill:#C5C3C3;}
	.st15{fill:#786D64;}
	.st16{fill:#CECECE;}
	.st17{fill:#F8F2E8;}
	.st18{fill:#A5714A;}
	.st19{fill:#FFE1B0;}
	.st20{fill:#D3C8BD;}
	.st21{fill:#FFEFD5;}
	.st22{fill:#D1D1D2;}
	.st23{fill:#A8A7A8;}
	.st24{fill:#CFDE5D;}
	.st25{clip-path:url(#SVGID_2_);fill:#FFFFFF;}
</style>
<g id="Layer_2">
</g>
<g>
	<polyline class="st0" points="1048.8,764.6 -19.6,764.6 -19.6,4.6 1048.8,4.6 1048.8,764.6 	"/>
	<path class="st1" d="M232.2,530c-3.2,0-6.3-1.2-8.7-3.6L32.8,335.7c-4.8-4.8-4.8-12.6,0-17.5l262-262c2.4-2.4,5.6-3.6,8.7-3.6
		c3.2,0,6.3,1.2,8.7,3.6L503,246.9c4.8,4.8,4.8,12.6,0,17.5l-262,262C238.6,528.8,235.4,530,232.2,530"/>
	<path class="st2" d="M233.6,519.1c-4.8,4.8-12.6,4.8-17.5,0L25.5,328.4c-4.8-4.8-4.8-12.6,0-17.5l262-262c4.8-4.8,12.6-4.8,17.5,0
		l190.7,190.7c4.8,4.8,4.8,12.6,0,17.5L233.6,519.1L233.6,519.1z"/>
	<polygon class="st3" points="247.6,486.3 58.2,296.9 273.5,81.7 462.9,271.1 247.6,486.3 	"/>
	<path class="st3" d="M146.5,415.9c-4.9,4.9-12.9,4.9-17.8,0c-4.9-4.9-4.9-12.9,0-17.8c4.9-4.9,12.9-4.9,17.8,0
		C151.4,403,151.4,411,146.5,415.9L146.5,415.9z"/>
	<path class="st3" d="M386.5,162.5c-1.2,1.2-3.2,1.2-4.4,0c-1.2-1.2-1.2-3.2,0-4.4c1.2-1.2,3.2-1.2,4.4,0
		C387.7,159.3,387.7,161.2,386.5,162.5L386.5,162.5z"/>
	<path class="st4" d="M301.1,177.3l-37-6.9l30.7-21.7c-12-16.9-35.3-21-52.3-9.1c-17,11.9-21.2,35.4-9.2,52.4
		c11.9,17,35.4,21.1,52.4,9.2C294.1,195.3,299.3,186.6,301.1,177.3L301.1,177.3z"/>
	<path class="st5" d="M301.9,147.2l-30.7,21.7l37,6.9c1.8-9.6-0.1-19.9-6.2-28.5L301.9,147.2L301.9,147.2z"/>
	<path class="st6" d="M271.8,427.9l-22.4-30.2l37.3,5c2.7-20.5-11.6-39.4-32.1-42.3c-20.6-2.9-39.6,11.5-42.5,32.1
		c-2.9,20.6,11.5,39.6,32.1,42.4C254.3,436.4,264.1,433.6,271.8,427.9L271.8,427.9z"/>
	<path class="st7" d="M292.9,406.4l-37.3-5l22.4,30.2c7.8-5.8,13.4-14.6,14.9-25.1L292.9,406.4L292.9,406.4z"/>
	<polygon class="st8" points="421.1,290.5 319.9,189.3 325.4,183.9 426.6,285 421.1,290.5 	"/>
	<polygon class="st8" points="409.3,302.3 308.1,201.2 313.6,195.7 414.7,296.9 409.3,302.3 	"/>
	<polygon class="st8" points="397.4,314.2 296.3,213 301.7,207.5 402.9,308.7 397.4,314.2 	"/>
	<polygon class="st8" points="385.6,326 284.4,224.8 289.9,219.3 391.1,320.5 385.6,326 	"/>
	<polygon class="st8" points="373.8,337.8 272.6,236.6 278.1,231.2 379.2,332.3 373.8,337.8 	"/>
	<polygon class="st8" points="237,342.9 135.8,241.7 141.2,236.3 242.4,337.4 237,342.9 	"/>
	<polygon class="st8" points="314.7,396.9 147.6,229.9 153.1,224.4 320.1,391.5 314.7,396.9 	"/>
	<polygon class="st8" points="326.5,385.1 159.4,218.1 164.9,212.6 331.9,379.7 326.5,385.1 	"/>
	<polygon class="st8" points="338.3,373.3 171.3,206.2 176.7,200.8 343.8,367.8 338.3,373.3 	"/>
	<polygon class="st8" points="350.1,361.5 183.1,194.4 188.6,189 355.6,356 350.1,361.5 	"/>
	<polygon class="st8" points="362,349.6 194.9,182.6 200.4,177.1 367.4,344.2 362,349.6 	"/>
	<polygon class="st8" points="225.1,354.7 124,253.6 129.4,248.1 230.6,349.3 225.1,354.7 	"/>
	<polygon class="st8" points="213.3,366.6 112.1,265.4 117.6,259.9 218.8,361.1 213.3,366.6 	"/>
	<polygon class="st8" points="201.5,378.4 100.3,277.2 105.8,271.8 206.9,372.9 201.5,378.4 	"/>
	<polygon class="st8" points="123.2,323.7 88.5,289 93.9,283.6 128.6,318.3 123.2,323.7 	"/>
	<path class="st1" d="M691.1,366.4c-2.3,0-4.5-0.9-6.2-2.6L498,176.9c-3.4-3.4-3.4-9,0-12.5l96.6-96.6c1.7-1.7,4-2.6,6.2-2.6
		c2.3,0,4.5,0.9,6.2,2.6l186.9,186.9c3.4,3.4,3.4,9,0,12.5l-96.6,96.6C695.6,365.6,693.4,366.4,691.1,366.4"/>
	<path class="st2" d="M786.6,247.5c3.4,3.4,3.4,9,0,12.5L690,356.5c-3.4,3.4-9,3.4-12.5,0L490.6,169.6c-3.4-3.4-3.4-9,0-12.5
		l96.6-96.6c3.4-3.4,9-3.4,12.5,0L786.6,247.5L786.6,247.5z"/>
	<polygon class="st3" points="759.7,232.3 662.3,329.6 517.5,184.8 614.8,87.4 759.7,232.3 	"/>
	<path class="st3" d="M733,286.1c4.7,4.7,4.7,12.2,0,16.9c-4.7,4.7-12.2,4.7-16.9,0c-4.7-4.7-4.7-12.2,0-16.9
		C720.8,281.4,728.4,281.4,733,286.1L733,286.1z"/>
	<path class="st3" d="M554.9,120.1c1.3,1.3,1.3,3.5,0,4.8c-1.3,1.3-3.5,1.3-4.8,0c-1.3-1.3-1.3-3.5,0-4.8
		C551.5,118.8,553.6,118.8,554.9,120.1L554.9,120.1z"/>
	<polygon class="st9" points="632.7,127.1 557.2,202.6 534.6,180.1 610.1,104.5 632.7,127.1 	"/>
	<polygon class="st4" points="687.6,182 612.1,257.6 589.5,235 665.1,159.5 687.6,182 	"/>
	<polygon class="st6" points="660.2,154.6 642,172.7 619.4,150.2 637.6,132 660.2,154.6 	"/>
	<polygon class="st7" points="637.3,177.4 584.6,230.1 562.1,207.5 614.8,154.8 637.3,177.4 	"/>
	<polygon class="st9" points="667.1,312.5 685.2,294.4 662.6,271.8 644.5,290 667.1,312.5 	"/>
	<polygon class="st10" points="689.9,289.7 742.6,237 720,214.4 667.3,267.1 689.9,289.7 	"/>
	<polygon class="st5" points="715.1,209.5 639.6,285.1 617,262.5 692.5,186.9 715.1,209.5 	"/>
	<path class="st1" d="M146.7,714.8c-51.9,0-94-42.1-94-94c0-51.9,42.1-94,94-94c15.4,0,30,3.7,42.8,10.3c-2.7,3.1-4.4,7.2-4.4,11.7
		c0,7.1,4.2,13.3,10.2,16.1c-0.9,2.5-1.4,5.1-1.4,7.9c0,12.8,10.4,23.3,23.3,23.3c3.8,0,7.5-0.9,10.6-2.6c-0.1,0.5-0.1,1.1-0.1,1.6
		c0,6.5,5.3,11.8,11.7,11.8l0.2,0c0.7,4.6,1,9.2,1,14C240.7,672.7,198.6,714.8,146.7,714.8 M146.7,581.2
		c-21.9,0-39.6,17.8-39.6,39.6c0,21.9,17.7,39.6,39.6,39.6c21.9,0,39.6-17.7,39.6-39.6C186.4,598.9,168.6,581.2,146.7,581.2"/>
	<path class="st11" d="M139.4,653.1c-21.9,0-39.6-17.7-39.6-39.6c0-21.9,17.8-39.6,39.6-39.6c21.9,0,39.6,17.8,39.6,39.6
		C179,635.4,161.3,653.1,139.4,653.1L139.4,653.1z M232.2,599.5c-6.5,0-11.7-5.3-11.7-11.7c0-0.5,0.1-1.1,0.1-1.6
		c-3.2,1.6-6.8,2.6-10.6,2.6c-12.8,0-23.3-10.4-23.3-23.3c0-2.8,0.5-5.4,1.4-7.9c-6-2.9-10.2-9-10.2-16.1c0-4.5,1.7-8.6,4.4-11.7
		c-12.8-6.6-27.4-10.3-42.8-10.3c-51.9,0-94,42.1-94,94c0,51.9,42.1,94,94,94c51.9,0,94-42.1,94-94c0-4.7-0.4-9.4-1-14L232.2,599.5
		L232.2,599.5z"/>
	<path class="st12" d="M183.8,616c-1.5,6.2-0.4,8.8-1.8,15.4c-1.5,6.6-14.3,12.1-15.1,17.6c-0.7,5.5-6.2,11-12.8,9.9
		s-10.3-2.2-15.4,0.4c-5.1,2.6-6.6,4.4-11.4,1.1c-4.8-3.3-9.9-4.4-13.2-4.8c-3.3-0.4-4.8,0-6.6-2.6c0,0-1.8-2.6-4.4-8.4
		c-2.6-5.9-5.5-11.7-8.1-13.2c-2.6-1.5-1.8-6.2-1.1-9.9c0.7-3.7,2.2-11.4,1.1-14.7c-1.1-3.3,0.4-11.4,4-14.7
		c3.7-3.3,6.6-5.9,9.2-9.5c2.6-3.7,2.2-7.7,15.8-9.5c13.6-1.8,22-7,27.2-7.3c5.1-0.4,14,4.4,18,11.4c4,7,5.5,10.3,11,12.5
		C185.6,591.8,185.3,609.8,183.8,616L183.8,616z M220.4,587.9c-0.2-0.4-0.4-0.9-0.6-1.4c-3,1.4-6.4,2.3-10,2.3
		c-12.8,0-23.3-10.4-23.3-23.3c0-2.8,0.5-5.4,1.4-7.9c-6-2.9-10.2-9-10.2-16.1c0-1.4,0.2-2.7,0.4-3.9c-7.4-3.2-15.6-5.2-20.4-4.6
		c-8.7,0.9-23.3,1.9-34.5,1.9s-23.3,3.8-31.1,8.5s-14.6,14.2-26.2,22.2c-11.6,8-6.8,20.8-6.3,32.1c0.5,11.3-2.9,15.1-6.3,23.2
		c-3.4,8,5.3,18.9,12.1,26c6.8,7.1,10.7,24.1,10.7,24.1c1.5,4.3,4.4,5.2,8.3,6.6c3.9,1.4,9.2,0.9,14.1,6.1
		c4.9,5.2,17.5,11.3,23.8,11.3c6.3,0,26.2,0.9,33.5,0c7.3-0.9,14.6-3.8,17-9c2.4-5.2,16.5-5.2,22.3-9.9c5.8-4.7,13.1-18,14.6-25.5
		c1.5-7.6,14.1-14.2,14.6-21.7c0.5-7.4,1.9-25.8-0.8-33.1C221.6,593.6,220.4,590.9,220.4,587.9L220.4,587.9z"/>
	<path class="st7" d="M81.4,572c0,2.1-1.7,3.8-3.8,3.8c-2.1,0-3.8-1.7-3.8-3.8c0-2.1,1.7-3.8,3.8-3.8
		C79.7,568.2,81.4,569.9,81.4,572L81.4,572z"/>
	<path class="st7" d="M91.7,614.3c0,2.1-1.7,3.8-3.8,3.8c-2.1,0-3.8-1.7-3.8-3.8c0-2.1,1.7-3.8,3.8-3.8
		C90,610.5,91.7,612.2,91.7,614.3L91.7,614.3z"/>
	<path class="st7" d="M80.9,640c0,2.1-1.7,3.8-3.8,3.8c-2.1,0-3.8-1.7-3.8-3.8s1.7-3.8,3.8-3.8C79.2,636.2,80.9,637.9,80.9,640
		L80.9,640z"/>
	<path class="st7" d="M107.6,674c0,2.1-1.7,3.8-3.8,3.8c-2.1,0-3.8-1.7-3.8-3.8c0-2.1,1.7-3.8,3.8-3.8
		C105.9,670.3,107.6,671.9,107.6,674L107.6,674z"/>
	<path class="st7" d="M133.5,684.1c0,2.1-1.7,3.8-3.8,3.8c-2.1,0-3.8-1.7-3.8-3.8s1.7-3.8,3.8-3.8
		C131.8,680.3,133.5,682,133.5,684.1L133.5,684.1z"/>
	<path class="st7" d="M176.6,653.5c0,2.1-1.7,3.8-3.8,3.8c-2.1,0-3.8-1.7-3.8-3.8c0-2.1,1.7-3.8,3.8-3.8
		C174.9,649.7,176.6,651.4,176.6,653.5L176.6,653.5z"/>
	<path class="st7" d="M205.5,641.5c0,2.1-1.7,3.8-3.8,3.8c-2.1,0-3.8-1.7-3.8-3.8c0-2.1,1.7-3.8,3.8-3.8
		C203.8,637.7,205.5,639.4,205.5,641.5L205.5,641.5z"/>
	<path class="st7" d="M199.8,606c0,2.1-1.7,3.8-3.8,3.8c-2.1,0-3.8-1.7-3.8-3.8c0-2.1,1.7-3.8,3.8-3.8
		C198.1,602.2,199.8,603.9,199.8,606L199.8,606z"/>
	<path class="st7" d="M181.2,576.4c0,2.1-1.7,3.8-3.8,3.8c-2.1,0-3.8-1.7-3.8-3.8c0-2.1,1.7-3.8,3.8-3.8
		C179.5,572.6,181.2,574.3,181.2,576.4L181.2,576.4z"/>
	<path class="st7" d="M124.5,544.6c0,2.1-1.7,3.8-3.8,3.8c-2.1,0-3.8-1.7-3.8-3.8c0-2.1,1.7-3.8,3.8-3.8
		C122.8,540.8,124.5,542.5,124.5,544.6L124.5,544.6z"/>
	<path class="st7" d="M103.2,579.6c0,2.1-1.7,3.8-3.8,3.8c-2.1,0-3.8-1.7-3.8-3.8c0-2.1,1.7-3.8,3.8-3.8
		C101.5,575.8,103.2,577.5,103.2,579.6L103.2,579.6z"/>
	<path class="st7" d="M97,570.6c0,1.1-0.9,2-2,2c-1.1,0-2-0.9-2-2c0-1.1,0.9-2,2-2C96.2,568.7,97,569.6,97,570.6L97,570.6z"/>
	<path class="st7" d="M68.9,605.1c0,1.1-0.9,2-2,2c-1.1,0-2-0.9-2-2c0-1.1,0.9-2,2-2C68,603.2,68.9,604.1,68.9,605.1L68.9,605.1z"/>
	<path class="st7" d="M73.3,634.3c0,1.1-0.9,2-2,2c-1.1,0-2-0.9-2-2c0-1.1,0.9-2,2-2C72.4,632.3,73.3,633.2,73.3,634.3L73.3,634.3z"
		/>
	<path class="st7" d="M93.4,663.9c0,1.1-0.9,2-2,2c-1.1,0-2-0.9-2-2c0-1.1,0.9-2,2-2C92.5,661.9,93.4,662.8,93.4,663.9L93.4,663.9z"
		/>
	<path class="st7" d="M150.4,661.2c0,1.1-0.9,2-2,2c-1.1,0-2-0.9-2-2c0-1.1,0.9-2,2-2C149.5,659.2,150.4,660.1,150.4,661.2
		L150.4,661.2z"/>
	<path class="st7" d="M160.8,683.6c0,1.1-0.9,2-2,2c-1.1,0-2-0.9-2-2c0-1.1,0.9-2,2-2C159.9,681.6,160.8,682.5,160.8,683.6
		L160.8,683.6z"/>
	<path class="st7" d="M146.5,669.8c0,1.1-0.9,2-2,2c-1.1,0-2-0.9-2-2s0.9-2,2-2C145.6,667.8,146.5,668.7,146.5,669.8L146.5,669.8z"
		/>
	<path class="st7" d="M188.1,638.9c0,1.1-0.9,2-2,2c-1.1,0-2-0.9-2-2c0-1.1,0.9-2,2-2C187.2,637,188.1,637.8,188.1,638.9
		L188.1,638.9z"/>
	<path class="st7" d="M219.2,612.5c0,1.1-0.9,2-2,2c-1.1,0-2-0.9-2-2c0-1.1,0.9-2,2-2C218.3,610.5,219.2,611.4,219.2,612.5
		L219.2,612.5z"/>
	<path class="st7" d="M159.7,553.5c0,1.1-0.9,2-2,2c-1.1,0-2-0.9-2-2c0-1.1,0.9-2,2-2C158.8,551.5,159.7,552.4,159.7,553.5
		L159.7,553.5z"/>
	<path class="st7" d="M127.9,564.5c0,1.1-0.9,2-2,2c-1.1,0-2-0.9-2-2c0-1.1,0.9-2,2-2C127,562.6,127.9,563.4,127.9,564.5
		L127.9,564.5z"/>
	<polyline class="st1" points="77.6,225.6 75.4,223.4 172,126.8 187,116.1 77.6,225.6 	"/>
	<polyline class="st6" points="188.2,110.6 75.4,223.4 21.6,169.6 134.4,56.8 188.2,110.6 	"/>
	<path class="st2" d="M125.3,119.7c11.2,11.2,11.2,29.5,0,40.7c-11.3,11.3-29.5,11.3-40.7,0c-11.2-11.2-11.2-29.5,0-40.7
		C95.8,108.5,114,108.5,125.3,119.7"/>
	<path class="st6" d="M112.9,146c0.6-0.8,0.8-1.8,0.7-2.7c-0.1-1-0.5-1.8-1.2-2.5c-0.6-0.6-1.4-1-2.2-1.1c-0.8-0.1-1.8,0.2-2.9,0.8
		L112.9,146 M95.7,132.9c-0.4,0.8-0.5,1.5-0.4,2.3c0.1,0.8,0.5,1.5,1,2c0.5,0.5,1.1,0.8,1.9,0.9c0.7,0.1,1.5,0,2.4-0.3L95.7,132.9
		 M110.6,147.8l-6-6c-2.4,1.3-4.6,1.9-6.5,1.7c-1.9-0.2-3.7-1.1-5.2-2.6c-1.6-1.6-2.4-3.4-2.4-5.4c-0.1-2,0.6-4,2.1-5.7l-1.4-1.4
		l2.1-2.1l1.4,1.4c1.7-1.3,3.4-2,5.1-2.1c1.7,0,3.4,0.5,5.1,1.7l-3.1,4.1c-1.3-0.9-2.7-1.1-4-0.6l5.6,5.6c2.9-1.7,5.2-2.4,7.1-2.3
		c1.8,0.2,3.5,1,5,2.5c1.7,1.7,2.6,3.7,2.8,5.9c0.1,2.2-0.6,4.4-2.2,6.5l2.7,2.7l-2.1,2.1l-2.6-2.6c-1.8,1.4-3.8,2.2-5.8,2.2
		c-2,0-4.1-0.8-6.3-2.4l3.3-4.1c0.9,0.6,1.9,1,2.8,1.1C109,148.2,109.9,148.1,110.6,147.8"/>
	<polyline class="st2" points="182.9,110.3 182.4,109.7 75,217.1 27.9,170 134.7,63.2 182.4,110.8 182.9,110.3 182.4,109.7 
		182.9,110.3 183.4,109.7 134.7,61.1 25.9,170 75,219.2 183.9,110.3 183.4,109.7 182.9,110.3 	"/>
	<path class="st13" d="M70.4,198.7L40.9,157l93.8-93.8l47.1,47.1l-32.7,32.7l-22.3,15.8c9.6-11.3,9-28.3-1.6-39
		c-5.6-5.6-13-8.4-20.4-8.4s-14.7,2.8-20.4,8.4c-11.2,11.2-11.2,29.5,0,40.7c5.6,5.6,13,8.4,20.4,8.4c3.5,0,6.9-0.6,10.2-1.9
		L70.4,198.7"/>
	<path class="st14" d="M104.9,168.9c-7.4,0-14.7-2.8-20.4-8.4c-11.2-11.2-11.2-29.5,0-40.7c5.6-5.6,13-8.4,20.4-8.4
		s14.7,2.8,20.4,8.4c10.7,10.7,11.2,27.7,1.6,39l-11.8,8.3C111.8,168.3,108.4,168.9,104.9,168.9 M114,151.3l2.6,2.6l2.1-2.1
		l-2.7-2.7c1.6-2.1,2.3-4.3,2.2-6.5c-0.1-2.2-1.1-4.2-2.8-5.9c-1.5-1.5-3.2-2.4-5-2.5c-0.2,0-0.3,0-0.5,0c-1.7,0-3.9,0.8-6.6,2.3
		l-5.6-5.6c0.5-0.2,1-0.3,1.5-0.3c0.8,0,1.7,0.3,2.5,0.9l3.1-4.1c-1.6-1.1-3.2-1.7-4.9-1.7c-0.1,0-0.1,0-0.2,0
		c-1.7,0-3.5,0.7-5.1,2.1l-1.4-1.4l-2.1,2.1l1.4,1.4c-1.5,1.8-2.2,3.7-2.1,5.7c0.1,2,0.9,3.8,2.4,5.4c1.5,1.5,3.3,2.4,5.2,2.6
		c0.3,0,0.5,0,0.8,0c1.7,0,3.6-0.6,5.7-1.7l6,6c-0.5,0.2-1.1,0.3-1.7,0.3c-0.3,0-0.6,0-0.9-0.1c-1-0.1-1.9-0.5-2.8-1.1l-3.3,4.1
		c2.2,1.6,4.3,2.4,6.3,2.4C110.3,153.4,112.2,152.7,114,151.3 M112.9,146l-5.6-5.6c1-0.5,1.8-0.8,2.6-0.8c0.1,0,0.2,0,0.3,0
		c0.8,0.1,1.6,0.4,2.2,1.1c0.7,0.7,1.1,1.6,1.2,2.5C113.7,144.2,113.5,145.1,112.9,146 M98.8,138.2c-0.2,0-0.4,0-0.6-0.1
		c-0.7-0.1-1.4-0.4-1.9-0.9c-0.5-0.5-0.9-1.2-1-2c-0.1-0.8,0-1.6,0.4-2.3l4.9,4.9C100,138.1,99.4,138.2,98.8,138.2"/>
	<path class="st13" d="M116.6,153.8l-2.6-2.6c-1.8,1.4-3.8,2.2-5.8,2.2c-2,0-4.1-0.8-6.3-2.4l3.3-4.1c0.9,0.6,1.9,1,2.8,1.1
		c0.3,0,0.6,0.1,0.9,0.1c0.6,0,1.1-0.1,1.7-0.3l-6-6c-2.1,1.2-4,1.7-5.7,1.7c-0.3,0-0.5,0-0.8,0c-1.9-0.2-3.7-1.1-5.2-2.6
		c-1.6-1.6-2.4-3.4-2.4-5.4c-0.1-2,0.6-4,2.1-5.7l-1.4-1.4l2.1-2.1l1.4,1.4c1.7-1.3,3.4-2,5.1-2.1c0.1,0,0.1,0,0.2,0
		c1.7,0,3.3,0.6,4.9,1.7l-3.1,4.1c-0.8-0.6-1.7-0.9-2.5-0.9c-0.5,0-1,0.1-1.5,0.3l5.6,5.6c2.6-1.5,4.8-2.3,6.6-2.3
		c0.2,0,0.3,0,0.5,0c1.8,0.2,3.5,1,5,2.5c1.7,1.7,2.6,3.7,2.8,5.9c0.1,2.2-0.6,4.4-2.2,6.5l2.7,2.7L116.6,153.8 M109.9,139.6
		c-0.8,0-1.6,0.3-2.6,0.8l5.6,5.6c0.6-0.8,0.8-1.8,0.7-2.7c-0.1-1-0.5-1.8-1.2-2.5c-0.6-0.6-1.4-1-2.2-1.1
		C110.1,139.6,110,139.6,109.9,139.6 M95.7,132.9c-0.4,0.8-0.5,1.5-0.4,2.3c0.1,0.8,0.5,1.5,1,2c0.5,0.5,1.1,0.8,1.9,0.9
		c0.2,0,0.4,0.1,0.6,0.1c0.6,0,1.2-0.1,1.8-0.4L95.7,132.9"/>
	<path class="st1" d="M38.2,153.1l-11.6-16.5l96.3-68.2L38.2,153.1 M187,116.1l3.3-3.3L136.6,59l-0.2-0.2l20.3-14.4l43.9,62
		L187,116.1"/>
	<polyline class="st15" points="172,126.8 188.2,110.6 136.6,59 190.4,112.8 187,116.1 172,126.8 	"/>
	<polyline class="st13" points="40.1,155.8 38.2,153.1 122.8,68.5 136.4,58.8 136.6,59 188.2,110.6 172,126.8 156.3,137.9 
		183.9,110.3 183.4,109.7 182.9,110.3 183.4,109.7 134.7,61.1 40.1,155.8 	"/>
	<polyline class="st14" points="40.9,157 40.1,155.8 134.7,61.1 183.4,109.7 182.9,110.3 183.4,109.7 183.9,110.3 156.3,137.9 
		149.2,142.9 181.9,110.3 134.7,63.2 40.9,157 	"/>
	<polygon class="st6" points="198.4,104.3 68.2,196.5 24.3,134.4 154.5,42.2 198.4,104.3 	"/>
	<path class="st2" d="M134.9,102.7c9.2,13,6.1,31-6.9,40.2c-13,9.2-31,6.1-40.2-6.9c-9.2-13-6.1-31,6.9-40.2
		C107.7,86.7,125.7,89.7,134.9,102.7L134.9,102.7z"/>
	<path class="st6" d="M118.3,126.5c0.7-0.7,1.1-1.6,1.2-2.6c0.1-1-0.2-1.9-0.7-2.7c-0.5-0.7-1.2-1.2-2-1.4c-0.8-0.2-1.8-0.1-3,0.3
		L118.3,126.5L118.3,126.5z M103.5,110.7c-0.5,0.7-0.7,1.4-0.8,2.2c0,0.8,0.2,1.5,0.7,2.1c0.4,0.6,1,1,1.7,1.2
		c0.7,0.3,1.5,0.3,2.4,0.1L103.5,110.7L103.5,110.7z M115.7,127.9l-4.9-6.9c-2.6,0.9-4.8,1.1-6.7,0.6c-1.9-0.5-3.5-1.7-4.7-3.5
		c-1.3-1.8-1.8-3.7-1.5-5.7c0.3-2,1.3-3.8,3-5.3l-1.2-1.6l2.4-1.7l1.2,1.6c1.9-1,3.7-1.4,5.4-1.2c1.7,0.3,3.3,1.1,4.8,2.5l-3.8,3.5
		c-1.2-1.1-2.4-1.5-3.8-1.2l4.5,6.4c3.1-1.1,5.6-1.5,7.3-1c1.8,0.5,3.3,1.6,4.5,3.3c1.4,2,2,4.1,1.7,6.3c-0.2,2.2-1.3,4.2-3.2,6
		l2.2,3.1l-2.4,1.7l-2.1-3c-2.1,1.1-4.1,1.5-6.1,1.1c-2-0.3-4-1.5-5.8-3.4l4-3.5c0.8,0.8,1.7,1.3,2.6,1.6
		C114.1,128,114.9,128.1,115.7,127.9L115.7,127.9z"/>
	<polygon class="st2" points="193.3,103.1 192.9,102.5 69,190.2 30.5,135.8 153.8,48.5 192.7,103.5 193.3,103.1 192.9,102.5 
		193.3,103.1 193.9,102.6 154.1,46.5 28.4,135.5 68.6,192.2 194.3,103.2 193.9,102.6 193.3,103.1 	"/>
	<polyline class="st1" points="113.5,475.3 75.4,437.2 80.3,432.3 118.4,470.4 113.5,475.3 	"/>
	<path class="st1" d="M96.1,496.1c-1.8,0-3.6-0.7-4.9-2l-14.8-14.8l13.7-13.7l-4.9-4.9l-13.7,13.7l-14.8-14.8
		c-2.7-2.7-2.7-7.1,0-9.9l15.6-15.6l3.1,3.1l38.1,38.1l3.1,3.1L101,494.1C99.7,495.4,97.9,496.1,96.1,496.1"/>
	<polyline class="st1" points="-11.8,567.5 -16.8,562.5 71.4,474.3 85.2,460.6 90.1,465.6 76.4,479.3 -11.8,567.5 	"/>
	<polygon class="st16" points="101.2,480.2 63.1,442.1 76.6,428.6 114.7,466.7 101.2,480.2 	"/>
	<path class="st2" d="M113,474.8l-15.6,15.6c-2.7,2.7-7.1,2.7-9.9,0L53,455.9c-2.7-2.7-2.7-7.1,0-9.9l15.6-15.6L113,474.8L113,474.8
		z"/>
	<polygon class="st2" points="-15.5,563.8 -20.4,558.9 81.5,456.9 86.4,461.9 -15.5,563.8 	"/>
	<polyline class="st1" points="758.8,361.8 753.9,356.9 791.9,318.8 796.8,323.7 758.8,361.8 	"/>
	<path class="st1" d="M776.2,382.6c-1.8,0-3.6-0.7-4.9-2l-15.6-15.6l3.1-3.1l38.1-38.1l3.1-3.1l15.6,15.6c2.7,2.7,2.7,7.1,0,9.9
		l-14.8,14.8l-13.7-13.7l-4.9,4.9l13.7,13.7l-14.8,14.8C779.7,381.9,777.9,382.6,776.2,382.6"/>
	<polyline class="st14" points="1097.9,667.7 1048.8,618.6 1048.8,608.8 1102.8,662.8 1097.9,667.7 	"/>
	<polyline class="st1" points="1048.8,618.6 795.9,365.8 782.2,352 787.1,347.1 800.8,360.8 1048.8,608.8 1048.8,618.6 	"/>
	<polygon class="st16" points="760,363 798.1,325 784.6,311.5 746.5,349.6 760,363 	"/>
	<path class="st2" d="M748.3,357.6l15.6,15.6c2.7,2.7,7.1,2.7,9.9,0l34.5-34.5c2.7-2.7,2.7-7.1,0-9.9l-15.6-15.6L748.3,357.6
		L748.3,357.6z"/>
	<polygon class="st2" points="1090.5,660.4 1095.4,655.5 779.8,339.8 774.8,344.7 1090.5,660.4 	"/>
	<polyline class="st1" points="419,87.6 408.8,77.4 422,64.2 432.2,74.5 419,87.6 	"/>
	<polyline class="st1" points="466.9,137.9 465.4,136.4 480.8,121.1 482.3,122.6 466.9,137.9 	"/>
	<polyline class="st1" points="463.5,138.4 416,90.7 419,87.6 432.2,74.5 435.3,71.4 482.8,119.2 480.8,121.1 465.4,136.4 
		463.5,138.4 	"/>
	<polygon class="st2" points="429.7,73.5 416.5,86.6 403,73 416.2,59.9 429.7,73.5 	"/>
	<polygon class="st4" points="474.4,116.2 459,131.5 461.1,133.6 476.5,118.3 474.4,116.2 	"/>
	<polygon class="st4" points="476.9,114.8 457.6,134 410.1,86.3 429.4,67.1 476.9,114.8 	"/>
	<polygon class="st3" points="414.2,74.8 411.6,77.4 409,74.8 411.6,72.1 414.2,74.8 	"/>
	<polygon class="st3" points="420.5,68.5 417.9,71.1 415.3,68.5 417.9,65.9 420.5,68.5 	"/>
	<path class="st1" d="M990.7,205.5c-0.9,0-1.8-0.1-2.7-0.4l-19.4-5.4l14.9-53l19.4,5.4c5.2,1.5,8.2,6.9,6.8,12.1l-9.6,34.2
		C998.9,202.7,995,205.5,990.7,205.5"/>
	<path class="st1" d="M769.5,144.4l-0.4-0.3l0.5,0.1L769.5,144.4 M768.9,144l-54.6-44.2l11.6,9.4l3.2-11.4l54.8-7.3l-4,14.3l0,0
		l-1.7,6.2L768.9,144 M784.5,90.6l-0.5-0.1l0.5-0.1L784.5,90.6"/>
	<path class="st1" d="M937.4,191.3l-167.9-47.1l-0.5-0.1l-0.1,0l0-0.1l9.2-33l-5.2,18.6l168.5,47.2L937.4,191.3 M948.4,152.1
		l-168.5-47.2l4-14.3l0-0.1l0.1,0l0.5,0.1l167.9,47.1L948.4,152.1"/>
	<polyline class="st1" points="941.5,176.9 773,129.6 778.2,111 779.9,104.8 948.4,152.1 941.5,176.9 	"/>
	<polyline class="st1" points="725.9,109.2 714.3,99.8 729.1,97.8 729.1,97.8 725.9,109.2 	"/>
	<polyline class="st1" points="967.7,203.1 936.6,194.4 937.4,191.3 941.5,176.9 948.4,152.1 952.4,137.7 953.3,134.6 984.5,143.3 
		983.6,146.7 968.7,199.7 967.7,203.1 	"/>
	<path class="st17" d="M989.7,138.9c5.2,1.5,8.2,6.9,6.8,12.1l-9.6,34.2c-1.5,5.2-6.9,8.2-12.1,6.8l-63.6-17.8
		c-5.2-1.5-8.2-6.9-6.8-12.1l9.6-34.2c1.5-5.2,6.9-8.2,12.1-6.8L989.7,138.9L989.7,138.9z"/>
	<polygon class="st11" points="756.2,131.2 701.1,86.6 771.4,77.2 756.2,131.2 	"/>
	<polygon class="st7" points="940.8,124.9 925.7,178.5 755.7,130.8 770.7,77.2 940.8,124.9 	"/>
	<polygon class="st5" points="936.7,139.3 929.8,164.1 759.7,116.4 766.7,91.6 936.7,139.3 	"/>
	<polygon class="st3" points="701.1,86.6 712.7,96 715.9,84.6 701.1,86.6 	"/>
	<polygon class="st18" points="971.3,130.1 954.5,189.9 923.3,181.2 940.1,121.4 971.3,130.1 	"/>
	<polyline class="st1" points="852,704.7 720.5,573.2 822.3,471.3 953.9,602.8 852,704.7 	"/>
	<polygon class="st3" points="946.5,595.5 844.7,697.4 713.1,565.8 815,463.9 946.5,595.5 	"/>
	<polygon class="st2" points="839.6,508 757.2,590.4 732.8,566 815.2,483.6 839.6,508 	"/>
	<polygon class="st7" points="804,590.4 780.7,613.8 765.4,598.5 788.8,575.2 804,590.4 	"/>
	<polygon class="st7" points="833.5,561 810.1,584.3 794.9,569.1 818.3,545.7 833.5,561 	"/>
	<polygon class="st7" points="863,531.5 839.6,554.8 824.4,539.6 847.7,516.3 863,531.5 	"/>
	<polygon class="st7" points="825.3,611.7 802,635.1 786.7,619.8 810.1,596.5 825.3,611.7 	"/>
	<polygon class="st7" points="854.8,582.2 831.4,605.6 816.2,590.4 839.5,567 854.8,582.2 	"/>
	<polygon class="st7" points="884.2,552.8 860.9,576.1 845.7,560.9 869,537.6 884.2,552.8 	"/>
	<polygon class="st7" points="846.6,633 823.2,656.4 808,641.1 831.4,617.8 846.6,633 	"/>
	<polygon class="st7" points="876.1,603.5 852.7,626.9 837.5,611.7 860.8,588.3 876.1,603.5 	"/>
	<polygon class="st7" points="905.5,574.1 882.2,597.4 867,582.2 890.3,558.8 905.5,574.1 	"/>
	<polygon class="st7" points="867.9,654.3 844.5,677.6 829.3,662.4 852.6,639.1 867.9,654.3 	"/>
	<polygon class="st12" points="913.2,609 874,648.2 858.8,632.9 898,593.8 913.2,609 	"/>
	<polygon class="st12" points="926.8,595.4 903.5,618.7 888.2,603.5 911.6,580.1 926.8,595.4 	"/>
	<polyline class="st1" points="891.8,392.8 890.1,389.2 1003.1,336 950.9,225.3 952.2,224.7 1006,338.9 891.8,392.8 	"/>
	<polyline class="st19" points="1003.1,336 888.8,389.8 835,275.6 949.2,221.7 1003.1,336 	"/>
	<path class="st20" d="M844.2,307.7l-10.8-3.9l6.4-17.9l6.9,14.7L844.2,307.7 M845.3,270.7l6.4-17.9l10.8,3.9l-2.5,7.1L845.3,270.7"
		/>
	<polyline class="st21" points="846.8,300.6 839.9,285.9 845.3,270.7 860,263.8 846.8,300.6 	"/>
	<path class="st1" d="M474.2,710.9l-0.1-3l224.3-11.3l-14.3-284.8l2.7-0.1l14.5,287.8L474.2,710.9 M646.4,430.9c-2-1-3.4-3-3.6-5.4
		c-0.2-3,1.9-5.7,4.7-6.5l-0.3-5.3l2.8-0.1l0.4,8.4c-2.8,0.8-4.8,3.4-4.7,6.5C645.8,429.3,646,430.1,646.4,430.9 M665.9,429.9
		c-2-1-3.4-3-3.5-5.4c-0.2-3,1.9-5.7,4.7-6.5l-0.3-5.3l2.7-0.1l0.4,8.3c-2.8,0.8-4.8,3.4-4.7,6.5
		C665.3,428.3,665.6,429.1,665.9,429.9 M628.7,424l-1-3.9c0.1,0,0.2-0.1,0.3-0.1l-0.3-5.3l2.7-0.1l0.4,8.3
		C630.1,423.1,629.4,423.5,628.7,424 M635.5,423.3c-0.6-0.3-1.1-0.5-1.8-0.6l-0.1-1.7C634.4,421.7,635,422.4,635.5,423.3 M655,422.3
		c-0.5-0.3-1.1-0.5-1.8-0.6l-0.1-1.7C653.9,420.7,654.6,421.4,655,422.3 M674.5,421.3c-0.5-0.3-1.1-0.5-1.8-0.6l-0.1-1.7
		C673.4,419.7,674.1,420.5,674.5,421.3"/>
	<path class="st2" d="M669.4,409.5l0.4,8.3c2.9,0.5,5.2,2.9,5.3,6c0.2,3.5-2.5,6.5-6.1,6.7c-3.5,0.2-6.5-2.5-6.7-6.1
		c-0.2-3,1.9-5.7,4.7-6.5l-0.4-8.3l-16.8,0.8l0.4,8.4c2.9,0.5,5.2,2.9,5.3,6c0.2,3.5-2.5,6.5-6.1,6.7c-3.5,0.2-6.5-2.5-6.7-6.1
		c-0.2-3,1.9-5.7,4.7-6.5l-0.4-8.3l-16.8,0.8l0.4,8.4c2.9,0.5,5.2,2.9,5.3,6c0.2,3.5-2.5,6.5-6.1,6.7c-3.5,0.2-6.5-2.5-6.7-6.1
		c-0.2-3.1,1.9-5.7,4.7-6.5l-0.4-8.4l-16.8,0.8l0.4,8.3c2.9,0.5,5.2,2.9,5.3,6c0.2,3.5-2.5,6.5-6.1,6.7c-3.5,0.2-6.5-2.5-6.7-6.1
		c-0.2-3.1,1.9-5.7,4.7-6.5l-0.4-8.3l-16.8,0.8l0.4,8.4c2.9,0.5,5.2,2.9,5.3,6c0.2,3.5-2.5,6.5-6.1,6.7c-3.5,0.2-6.5-2.5-6.7-6.1
		c-0.2-3.1,1.9-5.7,4.7-6.5l-0.4-8.4l-16.8,0.9l0.4,8.3c2.9,0.5,5.2,2.9,5.3,6c0.2,3.5-2.5,6.5-6.1,6.7c-3.5,0.2-6.5-2.5-6.7-6.1
		c-0.1-3.1,1.9-5.7,4.7-6.5l-0.4-8.3l-16.8,0.8l0.4,8.3c2.9,0.5,5.2,2.9,5.3,6c0.2,3.5-2.5,6.5-6.1,6.7c-3.5,0.2-6.5-2.5-6.7-6.1
		c-0.2-3.1,1.9-5.7,4.7-6.5l-0.4-8.3l-16.8,0.8l0.4,8.4c2.9,0.5,5.2,2.9,5.3,6c0.2,3.5-2.5,6.5-6.1,6.7c-3.5,0.2-6.5-2.5-6.7-6.1
		c-0.2-3,1.9-5.7,4.7-6.5l-0.4-8.3l-16.8,0.8l0.4,8.4c2.9,0.5,5.2,2.9,5.3,6c0.2,3.5-2.5,6.5-6.1,6.7c-3.5,0.2-6.5-2.5-6.7-6.1
		c-0.2-3.1,1.9-5.7,4.7-6.5l-0.4-8.4l-16.8,0.8l0.4,8.4c2.9,0.5,5.2,2.9,5.3,6c0.2,3.5-2.5,6.5-6.1,6.7c-3.5,0.2-6.5-2.5-6.7-6.1
		c-0.2-3,1.9-5.7,4.7-6.5l-0.4-8.4l-16.8,0.8l0.4,8.4c2.9,0.5,5.2,2.9,5.3,6c0.2,3.5-2.5,6.5-6.1,6.7c-3.5,0.2-6.5-2.5-6.7-6.1
		c-0.1-3.1,1.9-5.7,4.7-6.5l-0.4-8.4l-14.5,0.7L471.3,708l227.1-11.4l-14.5-287.8L669.4,409.5"/>
	<polyline class="st22" points="672.3,451.7 472.7,461.7 472.6,459.8 672.2,449.7 672.3,451.7 	"/>
	<polyline class="st22" points="673.3,470.8 473.7,480.8 473.6,478.9 673.2,468.8 673.3,470.8 	"/>
	<polyline class="st22" points="674.2,489.9 474.6,499.9 474.5,498 674.1,488 674.2,489.9 	"/>
	<polyline class="st22" points="675.2,509 475.6,519 475.5,517.1 675.1,507.1 675.2,509 	"/>
	<polyline class="st22" points="676.2,528.1 476.6,538.1 476.4,536.2 676.1,526.2 676.2,528.1 	"/>
	<polyline class="st22" points="677.1,547.2 477.5,557.2 477.4,555.3 677,545.3 677.1,547.2 	"/>
	<polyline class="st22" points="678.1,566.3 478.5,576.3 478.4,574.4 678,564.4 678.1,566.3 	"/>
	<polyline class="st22" points="679,585.4 479.4,595.4 479.3,593.5 678.9,583.5 679,585.4 	"/>
	<polyline class="st22" points="680,604.5 480.4,614.5 480.3,612.6 679.9,602.6 680,604.5 	"/>
	<polyline class="st22" points="681,623.6 481.3,633.6 481.3,631.7 680.9,621.7 681,623.6 	"/>
	<polyline class="st22" points="681.9,642.7 482.3,652.7 482.2,650.8 681.8,640.8 681.9,642.7 	"/>
	<polyline class="st22" points="682.9,661.8 483.3,671.8 483.2,669.9 682.8,659.9 682.9,661.8 	"/>
	<polygon class="st22" points="683.8,680.9 484.2,691 484.1,689 683.7,679 683.8,680.9 	"/>
	<path class="st1" d="M463.8,687.1l-74.5-278.4l14-3.8l2.2,8.1c-2.6,1.4-4,4.4-3.2,7.3c0.8,2.9,3.3,4.7,6.2,4.7
		c0.5,0,1.1-0.1,1.7-0.2c3.4-0.9,5.4-4.4,4.5-7.8c-0.8-2.9-3.4-4.7-6.2-4.7c-0.1,0-0.2,0-0.3,0l-2.2-8.1l16.2-4.3l2.2,8.1
		c-2.6,1.4-4,4.4-3.2,7.3c0.8,2.9,3.3,4.7,6.2,4.7c0.6,0,1.1-0.1,1.7-0.2c3.4-0.9,5.4-4.4,4.5-7.8c-0.8-2.9-3.3-4.7-6.2-4.7
		c-0.1,0-0.2,0-0.3,0l-2.2-8.1l16.2-4.3l2.2,8.1c-2.6,1.4-4,4.4-3.2,7.3c0.8,2.9,3.3,4.7,6.2,4.7c0.5,0,1.1-0.1,1.7-0.2
		c3.4-0.9,5.4-4.4,4.5-7.8c-0.8-2.9-3.3-4.7-6.2-4.7c-0.1,0-0.2,0-0.3,0l-2.2-8.1l16.2-4.3l2.2,8.1c-2.6,1.4-4,4.4-3.2,7.3
		c0.8,2.9,3.4,4.7,6.2,4.7c0.5,0,1.1-0.1,1.7-0.2c3.4-0.9,5.4-4.4,4.5-7.8c-0.8-2.9-3.3-4.7-6.2-4.7c-0.1,0-0.2,0-0.3,0l-2.2-8.1
		l16.2-4.3l2.2,8.1c-2.6,1.4-4,4.4-3.2,7.3c0.8,2.9,3.4,4.7,6.2,4.7c0.6,0,1.1-0.1,1.7-0.2c3.4-0.9,5.4-4.4,4.5-7.8
		c-0.8-2.9-3.4-4.7-6.2-4.7c-0.1,0-0.2,0-0.3,0l-2.2-8.1l16.2-4.3l2.2,8.1c-2.6,1.4-4,4.4-3.2,7.3c0.8,2.9,3.4,4.7,6.2,4.7
		c0.6,0,1.1-0.1,1.7-0.2c3.4-0.9,5.4-4.4,4.5-7.8c-0.8-2.9-3.3-4.7-6.2-4.7c-0.1,0-0.2,0-0.3,0l-2.2-8.1l16.2-4.3l2.2,8.1
		c-2.6,1.4-4,4.4-3.2,7.3c0.8,2.9,3.3,4.7,6.2,4.7c0.5,0,1.1-0.1,1.7-0.2c3.4-0.9,5.4-4.4,4.5-7.8c-0.8-2.9-3.3-4.7-6.2-4.7
		c-0.1,0-0.2,0-0.3,0l-2.2-8.1l16.2-4.3l2.2,8.1c-2.6,1.4-4,4.4-3.2,7.3c0.8,2.9,3.3,4.7,6.2,4.7c0.6,0,1.1-0.1,1.7-0.2
		c3.4-0.9,5.4-4.4,4.5-7.8c-0.8-2.9-3.3-4.7-6.2-4.7c-0.1,0-0.2,0-0.3,0l-2.2-8.1l16.2-4.3l2.2,8.1c-2.6,1.4-4,4.4-3.2,7.3
		c0.8,2.9,3.4,4.7,6.2,4.7c0.5,0,1.1-0.1,1.7-0.2c3.4-0.9,5.4-4.4,4.5-7.8c-0.8-2.9-3.4-4.7-6.2-4.7c-0.1,0-0.2,0-0.3,0l-2.2-8.1
		l16.2-4.3l2.2,8.1c-2.6,1.4-4,4.4-3.2,7.3c0.8,2.9,3.3,4.7,6.2,4.7c0.6,0,1.1-0.1,1.7-0.2c3.4-0.9,5.4-4.4,4.5-7.8
		c-0.8-2.9-3.3-4.7-6.2-4.7c-0.1,0-0.2,0-0.3,0l-2.2-8.1l16.2-4.3l2.2,8.1c-2.6,1.4-4,4.4-3.2,7.3c0.8,2.9,3.4,4.7,6.2,4.7
		c0.6,0,1.1-0.1,1.7-0.2c3.4-0.9,5.4-4.4,4.5-7.8c-0.8-2.9-3.4-4.7-6.2-4.7c-0.1,0-0.2,0-0.3,0l-2.2-8.1l14-3.8l16.6,61.8l-14.6,0.7
		l0.4,8.3c1,0.2,2,0.6,2.8,1.2l0.1,1.7c0.6,0.1,1.2,0.3,1.8,0.6c0.4,0.8,0.6,1.6,0.7,2.5c0.2,3.5-2.5,6.5-6.1,6.7
		c-0.1,0-0.2,0-0.3,0c-1,0-2-0.2-2.8-0.7c-0.4-0.8-0.6-1.6-0.7-2.5c-0.1-3.1,1.9-5.7,4.7-6.5l-0.4-8.4l-2.7,0.1l-0.1-3l-16.8,0.8
		l0.4,8.4c1,0.2,2,0.6,2.8,1.2l0.1,1.7c0.6,0.1,1.2,0.3,1.8,0.6c0.4,0.8,0.6,1.6,0.6,2.5c0.2,3.5-2.5,6.5-6.1,6.7
		c-0.1,0-0.2,0-0.3,0c-1,0-2-0.2-2.8-0.7c-0.4-0.8-0.6-1.6-0.7-2.5c-0.2-3.1,1.9-5.7,4.7-6.5l-0.4-8.3l-2.7,0.1l-0.2-3l-16.8,0.9
		l0.4,8.3c1,0.2,2,0.6,2.8,1.2l0.1,1.7c0.6,0.1,1.2,0.3,1.8,0.6c0.4,0.8,0.6,1.6,0.7,2.5c0.2,3.5-2.5,6.5-6.1,6.7
		c-0.1,0-0.2,0-0.3,0c-1,0-2-0.2-2.8-0.7c-0.4-0.8-0.6-1.6-0.7-2.5c-0.2-3.1,1.9-5.7,4.7-6.5l-0.4-8.3l-2.7,0.1l-0.2-3l-16.8,0.8
		l0.4,8.3c1,0.2,2,0.6,2.8,1.2l0.1,1.7c0.6,0.1,1.2,0.3,1.8,0.6c0.4,0.8,0.6,1.6,0.7,2.5c0.2,3.5-2.5,6.5-6.1,6.7
		c-0.1,0-0.2,0-0.3,0c-1,0-2-0.2-2.8-0.7c-0.4-0.8-0.6-1.6-0.7-2.5c-0.2-3,1.9-5.7,4.7-6.5l-0.4-8.3l-2.8,0.1l-0.2-3l-16.8,0.8
		l0.4,8.4c1,0.2,2,0.6,2.8,1.2l0.1,1.7c0.6,0.1,1.2,0.3,1.8,0.6c0.4,0.8,0.6,1.6,0.6,2.5c0.2,3.5-2.5,6.5-6.1,6.7
		c-0.1,0-0.2,0-0.3,0c-1,0-2-0.2-2.8-0.7c-0.4-0.8-0.6-1.6-0.7-2.5c-0.2-3.1,1.9-5.7,4.7-6.5l-0.4-8.4l-2.7,0.1l-0.2-3l-16.8,0.8
		l0.4,8.4c1,0.2,2,0.6,2.8,1.2l0.1,1.7c0.6,0.1,1.2,0.3,1.8,0.6c0.4,0.8,0.6,1.6,0.7,2.5c0.2,3.5-2.5,6.5-6.1,6.7
		c-0.1,0-0.2,0-0.3,0c-1,0-2-0.2-2.8-0.7c-0.4-0.8-0.6-1.6-0.7-2.5c-0.1-3.1,1.9-5.7,4.7-6.5l-0.4-8.4l-2.7,0.1l-0.1-3l-16.8,0.8
		l0.4,8.4c1,0.2,2,0.6,2.8,1.2l0.1,1.7c0.6,0.1,1.2,0.3,1.8,0.6c0.4,0.8,0.6,1.6,0.6,2.5c0.2,3.5-2.5,6.5-6.1,6.7
		c-0.1,0-0.2,0-0.3,0c-1,0-2-0.2-2.8-0.7c-0.4-0.8-0.6-1.6-0.7-2.5c-0.2-3.1,1.9-5.7,4.7-6.5l-0.4-8.3l-2.7,0.1l-0.2-3l-16.8,0.8
		l0.4,8.4c1,0.2,2,0.6,2.8,1.2l0.1,1.7c0.6,0.1,1.2,0.3,1.8,0.6c0.4,0.8,0.6,1.6,0.7,2.5c0.2,3.5-2.5,6.5-6.1,6.7
		c-0.1,0-0.2,0-0.3,0c-1,0-2-0.2-2.8-0.7c-0.4-0.8-0.6-1.6-0.7-2.5c-0.2-3.1,1.9-5.7,4.7-6.5l-0.4-8.4l-2.7,0.1l-0.2-3l-14.5,0.7
		l13.3,265.2L463.8,687.1"/>
	<path class="st15" d="M470.6,439.7c-2-1-3.4-3-3.6-5.4c-0.1-3.1,1.9-5.7,4.7-6.5l-0.3-5.3l2.7-0.1l0.4,8.4
		c-2.8,0.8-4.8,3.4-4.7,6.5C470,438.1,470.3,439,470.6,439.7 M490.2,438.7c-2-1-3.4-3-3.5-5.4c-0.2-3,1.9-5.7,4.7-6.5l-0.3-5.3
		l2.7-0.1l0.4,8.3c-2.8,0.8-4.8,3.4-4.7,6.5C489.5,437.1,489.8,438,490.2,438.7 M509.7,437.8c-2-1-3.4-3-3.5-5.4
		c-0.2-3.1,1.9-5.7,4.7-6.5l-0.3-5.3l2.7-0.1l0.4,8.4c-2.8,0.8-4.8,3.4-4.7,6.5C509.1,436.1,509.3,437,509.7,437.8 M529.2,436.8
		c-2-1-3.4-3-3.5-5.4c-0.2-3,1.9-5.7,4.7-6.5l-0.3-5.3l2.7-0.1l0.4,8.4c-2.8,0.8-4.8,3.4-4.7,6.5C528.6,435.2,528.8,436,529.2,436.8
		 M548.8,435.8c-2-1-3.4-3-3.6-5.4c-0.2-3.1,1.9-5.7,4.7-6.5l-0.3-5.3l2.8-0.1l0.4,8.3c-2.8,0.8-4.8,3.4-4.7,6.5
		C548.1,434.2,548.4,435,548.8,435.8 M568.3,434.8c-2-1-3.4-3-3.6-5.4c-0.1-3.1,1.9-5.7,4.7-6.5l-0.3-5.3l2.7-0.1l0.4,8.3
		c-2.8,0.8-4.8,3.4-4.7,6.5C567.7,433.2,567.9,434.1,568.3,434.8 M587.8,433.8c-2-1-3.4-3-3.5-5.4c-0.2-3.1,1.9-5.7,4.7-6.5
		l-0.3-5.3l2.7-0.1l0.4,8.3c-2.8,0.8-4.8,3.4-4.7,6.5C587.2,432.2,587.4,433.1,587.8,433.8 M607.4,432.9c-2-1-3.4-3-3.6-5.4
		c-0.2-3.1,1.9-5.7,4.7-6.5l-0.3-5.3l2.7-0.1l0.4,8.4c-2.8,0.8-4.8,3.4-4.7,6.5C606.7,431.2,607,432.1,607.4,432.9 M479.2,431.2
		c-0.6-0.3-1.1-0.5-1.8-0.6l-0.1-1.7C478.1,429.5,478.8,430.3,479.2,431.2 M498.7,430.2c-0.6-0.3-1.1-0.5-1.8-0.6l-0.1-1.7
		C497.7,428.5,498.3,429.3,498.7,430.2 M518.3,429.2c-0.6-0.3-1.1-0.5-1.8-0.6l-0.1-1.7C517.2,427.5,517.8,428.3,518.3,429.2
		 M537.8,428.2c-0.6-0.3-1.1-0.5-1.8-0.6l-0.1-1.7C536.7,426.6,537.4,427.3,537.8,428.2 M557.3,427.2c-0.6-0.3-1.1-0.5-1.8-0.6
		l-0.1-1.7C556.3,425.6,556.9,426.3,557.3,427.2 M576.9,426.3c-0.5-0.3-1.1-0.5-1.8-0.6L575,424
		C575.8,424.6,576.4,425.4,576.9,426.3 M596.4,425.3c-0.6-0.3-1.1-0.5-1.8-0.6l-0.1-1.7C595.3,423.6,596,424.4,596.4,425.3
		 M615.9,424.3c-0.6-0.3-1.1-0.5-1.8-0.6l-0.1-1.7C614.9,422.6,615.5,423.4,615.9,424.3"/>
	<path class="st1" d="M629.7,432.5c-1,0-2-0.2-2.8-0.7c-0.4-0.8-0.6-1.6-0.7-2.5c-0.1-2.2,0.9-4.2,2.5-5.4l2.3,8.4
		c-0.3,0.1-0.6,0.1-0.9,0.1C629.9,432.5,629.8,432.5,629.7,432.5"/>
	<path class="st15" d="M626.9,431.9c-2-1-3.4-3-3.5-5.4c-0.2-2.9,1.7-5.5,4.3-6.4l1,3.9c-1.6,1.2-2.6,3.2-2.5,5.4
		C626.3,430.3,626.5,431.1,626.9,431.9"/>
	<path class="st14" d="M470.2,685.4l-13.3-265.2l14.5-0.7l0.2,3l0.3,5.3c-2.8,0.8-4.8,3.4-4.7,6.5c0.1,2.4,1.5,4.4,3.6,5.4
		c0.9,0.4,1.8,0.7,2.8,0.7c0.1,0,0.2,0,0.3,0c3.5-0.2,6.2-3.2,6.1-6.7c0-0.9-0.3-1.7-0.7-2.5c-0.4-0.9-1.1-1.6-1.9-2.2
		c-0.8-0.6-1.8-1-2.8-1.2l-0.4-8.4l16.8-0.8l0.2,3l0.3,5.3c-2.8,0.8-4.8,3.4-4.7,6.5c0.1,2.4,1.5,4.4,3.5,5.4
		c0.9,0.4,1.8,0.7,2.8,0.7c0.1,0,0.2,0,0.3,0c3.5-0.2,6.2-3.2,6.1-6.7c0-0.9-0.3-1.7-0.6-2.5c-0.4-0.9-1.1-1.7-1.9-2.2
		c-0.8-0.6-1.8-1.1-2.8-1.2l-0.4-8.4l16.8-0.8l0.1,3l0.3,5.3c-2.8,0.8-4.8,3.4-4.7,6.5c0.1,2.4,1.5,4.4,3.5,5.4
		c0.9,0.4,1.8,0.7,2.8,0.7c0.1,0,0.2,0,0.3,0c3.5-0.2,6.2-3.2,6.1-6.7c0-0.9-0.3-1.7-0.7-2.5c-0.4-0.9-1.1-1.7-1.9-2.2
		c-0.8-0.6-1.8-1-2.8-1.2l-0.4-8.4l16.8-0.8l0.2,3l0.3,5.3c-2.8,0.8-4.8,3.4-4.7,6.5c0.1,2.4,1.5,4.4,3.5,5.4
		c0.9,0.4,1.8,0.7,2.8,0.7c0.1,0,0.2,0,0.3,0c3.5-0.2,6.2-3.2,6.1-6.7c0-0.9-0.3-1.7-0.6-2.5c-0.4-0.9-1.1-1.7-1.9-2.2
		c-0.8-0.6-1.8-1-2.8-1.2l-0.4-8.4l16.8-0.8l0.2,3l0.3,5.3c-2.8,0.8-4.8,3.4-4.7,6.5c0.1,2.4,1.5,4.4,3.6,5.4
		c0.9,0.4,1.8,0.7,2.8,0.7c0.1,0,0.2,0,0.3,0c3.5-0.2,6.2-3.2,6.1-6.7c-0.1-0.9-0.3-1.8-0.7-2.5c-0.4-0.9-1.1-1.7-1.9-2.2
		c-0.8-0.6-1.8-1.1-2.8-1.2l-0.4-8.3l16.8-0.8l0.2,3l0.3,5.3c-2.8,0.8-4.8,3.4-4.7,6.5c0.1,2.4,1.5,4.4,3.6,5.4
		c0.9,0.4,1.8,0.7,2.8,0.7c0.1,0,0.2,0,0.3,0c3.5-0.2,6.2-3.2,6.1-6.7c0-0.9-0.3-1.8-0.7-2.5c-0.4-0.9-1.1-1.7-1.9-2.3
		c-0.8-0.6-1.8-1-2.8-1.2l-0.4-8.3l16.8-0.9l0.2,3l0.3,5.3c-2.8,0.8-4.8,3.4-4.7,6.5c0.1,2.4,1.5,4.4,3.5,5.4
		c0.9,0.4,1.8,0.7,2.8,0.7c0.1,0,0.2,0,0.3,0c3.5-0.2,6.2-3.2,6.1-6.7c0-0.9-0.3-1.8-0.6-2.5c-0.4-0.9-1.1-1.7-1.9-2.2
		c-0.8-0.6-1.8-1-2.8-1.2l-0.4-8.4l16.8-0.8l0.1,3l0.3,5.3c-2.8,0.8-4.8,3.4-4.7,6.5c0.1,2.4,1.5,4.4,3.6,5.4
		c0.9,0.4,1.8,0.7,2.8,0.7c0.1,0,0.2,0,0.3,0c3.5-0.2,6.2-3.2,6.1-6.7c0-0.9-0.3-1.7-0.7-2.5c-0.4-0.9-1.1-1.7-1.9-2.2
		c-0.8-0.6-1.8-1.1-2.8-1.2l-0.4-8.3l14.6-0.7l2.2,8.3c-2.6,0.9-4.5,3.5-4.3,6.4c0.1,2.4,1.5,4.4,3.5,5.4c0.9,0.4,1.8,0.7,2.8,0.7
		c0.1,0,0.2,0,0.3,0c0.3,0,0.6-0.1,0.9-0.1l5.1,19.1l-163.5,8.2l0.1,1.9l163.9-8.2l4.6,17l-167.6,8.4l0.1,1.9l168-8.4l4.6,17
		L474.5,498l0.1,1.9l172.1-8.6l4.6,17l-175.8,8.8l0.1,1.9l176.2-8.8l4.5,17l-179.9,9l0.1,1.9l180.3-9.1l4.5,17l-184,9.2l0.1,1.9
		l184.4-9.3l4.6,17l-188.1,9.4l0.1,1.9l188.5-9.5l4.6,17l-192.2,9.7l0.1,1.9l192.6-9.7l4.5,17l-196.3,9.9l0.1,1.9l196.7-9.9
		l6.3,23.6l-57,15.3l-144.2,7.2l0.1,1.9l135.2-6.8l-79.1,21.2l-55.2,2.8l0.1,1.9l46.2-2.3L470.2,685.4 M680.9,621.7l-199.6,10
		l0.1,1.9l199.6-10L680.9,621.7"/>
	<polyline class="st23" points="472.7,461.7 472.6,459.8 636.1,451.6 636.6,453.5 472.7,461.7 	"/>
	<polyline class="st23" points="473.7,480.8 473.6,478.9 641.2,470.5 641.7,472.4 473.7,480.8 	"/>
	<polyline class="st23" points="474.6,499.9 474.5,498 646.2,489.4 646.7,491.3 474.6,499.9 	"/>
	<polyline class="st23" points="475.6,519 475.5,517.1 651.3,508.3 651.8,510.2 475.6,519 	"/>
	<polyline class="st23" points="476.6,538.1 476.4,536.2 656.4,527.2 656.9,529.1 476.6,538.1 	"/>
	<polyline class="st23" points="477.5,557.2 477.4,555.3 661.4,546 661.9,548 477.5,557.2 	"/>
	<polyline class="st23" points="478.5,576.3 478.4,574.4 666.5,564.9 667,566.9 478.5,576.3 	"/>
	<polyline class="st23" points="479.4,595.4 479.3,593.5 671.5,583.8 672.1,585.8 479.4,595.4 	"/>
	<polyline class="st23" points="480.4,614.5 480.3,612.6 676.6,602.7 677.1,604.7 480.4,614.5 	"/>
	<polyline class="st23" points="481.3,633.6 481.3,631.7 680.9,621.7 681,623.6 481.3,633.6 	"/>
	<polyline class="st23" points="482.3,652.7 482.2,650.8 626.4,643.6 617.5,646 482.3,652.7 	"/>
	<polyline class="st23" points="483.3,671.8 483.2,669.9 538.4,667.1 529.5,669.5 483.3,671.8 	"/>
	<path class="st2" d="M592,350.8l2.2,8.1c2.9-0.1,5.7,1.8,6.4,4.7c0.9,3.4-1.1,6.9-4.5,7.8c-3.4,0.9-6.9-1.1-7.8-4.5
		c-0.8-3,0.6-6,3.2-7.3l-2.2-8.1l-16.2,4.3l2.2,8.1c2.9-0.1,5.7,1.8,6.4,4.7c0.9,3.4-1.1,6.9-4.5,7.8c-3.4,0.9-6.9-1.1-7.8-4.5
		c-0.8-3,0.6-6,3.2-7.3l-2.2-8.1l-16.2,4.3l2.2,8.1c2.9-0.1,5.7,1.8,6.5,4.7c0.9,3.4-1.1,6.9-4.5,7.8c-3.4,0.9-6.9-1.1-7.8-4.5
		c-0.8-3,0.6-6,3.2-7.3l-2.2-8.1l-16.2,4.3l2.2,8.1c2.9-0.1,5.7,1.8,6.5,4.7c0.9,3.4-1.1,6.9-4.5,7.8c-3.4,0.9-6.9-1.1-7.8-4.5
		c-0.8-3,0.6-6,3.2-7.3l-2.2-8.1l-16.2,4.3l2.2,8.1c2.9-0.1,5.7,1.8,6.5,4.7c0.9,3.4-1.1,6.9-4.5,7.8c-3.4,0.9-6.9-1.1-7.8-4.5
		c-0.8-3,0.6-6,3.2-7.3l-2.2-8.1l-16.2,4.3l2.2,8.1c2.9-0.1,5.7,1.8,6.5,4.7c0.9,3.4-1.1,6.9-4.5,7.8c-3.4,0.9-6.9-1.1-7.8-4.5
		c-0.8-3,0.6-6,3.2-7.3l-2.2-8.1l-16.2,4.3l2.2,8.1c2.9-0.1,5.7,1.8,6.5,4.7c0.9,3.4-1.1,6.9-4.5,7.8c-3.4,0.9-6.9-1.1-7.8-4.5
		c-0.8-3,0.6-6,3.2-7.3l-2.2-8.1l-16.2,4.3l2.2,8.1c2.9-0.1,5.7,1.8,6.5,4.7c0.9,3.4-1.1,6.9-4.5,7.8c-3.4,0.9-6.9-1.1-7.8-4.5
		c-0.8-3,0.6-6,3.2-7.3l-2.2-8.1l-16.2,4.3l2.2,8.1c2.9-0.1,5.7,1.8,6.5,4.7c0.9,3.4-1.1,6.9-4.5,7.8c-3.4,0.9-6.9-1.1-7.8-4.5
		c-0.8-3,0.6-6,3.2-7.3l-2.2-8.1l-16.2,4.3l2.2,8.1c2.9-0.1,5.7,1.8,6.4,4.7c0.9,3.4-1.1,6.9-4.5,7.8c-3.4,0.9-6.9-1.1-7.8-4.5
		c-0.8-3,0.6-6,3.2-7.3l-2.2-8.1l-16.2,4.3l2.2,8.1c2.9-0.1,5.7,1.8,6.4,4.7c0.9,3.4-1.1,6.9-4.5,7.8c-3.4,0.9-6.9-1.1-7.8-4.5
		c-0.8-3,0.6-6,3.2-7.3l-2.2-8.1l-14,3.8l74.5,278.4l219.6-58.8L606,347L592,350.8L592,350.8z"/>
	<polygon class="st22" points="603.6,391.4 410.6,443.1 410.1,441.2 603.1,389.5 603.6,391.4 	"/>
	<polygon class="st22" points="608.6,409.8 415.5,461.5 415,459.7 608.1,408 608.6,409.8 	"/>
	<polygon class="st22" points="613.5,428.3 420.5,480 420,478.2 613,426.5 613.5,428.3 	"/>
	<polygon class="st22" points="618.5,446.8 425.4,498.5 424.9,496.6 618,444.9 618.5,446.8 	"/>
	<polygon class="st22" points="623.4,465.3 430.4,517 429.9,515.1 622.9,463.4 623.4,465.3 	"/>
	<polygon class="st22" points="628.4,483.8 435.3,535.5 434.8,533.6 627.9,481.9 628.4,483.8 	"/>
	<polygon class="st22" points="633.3,502.2 440.3,553.9 439.8,552.1 632.8,500.4 633.3,502.2 	"/>
	<polygon class="st22" points="638.3,520.7 445.2,572.4 444.7,570.5 637.8,518.9 638.3,520.7 	"/>
	<polygon class="st22" points="643.2,539.2 450.2,590.9 449.7,589 642.7,537.3 643.2,539.2 	"/>
	<polygon class="st22" points="648.2,557.7 455.1,609.4 454.6,607.5 647.7,555.8 648.2,557.7 	"/>
	<polygon class="st22" points="653.1,576.2 460.1,627.8 459.6,626 652.6,574.3 653.1,576.2 	"/>
	<polygon class="st22" points="658.1,594.6 465,646.3 464.5,644.5 657.6,592.8 658.1,594.6 	"/>
	<polygon class="st22" points="663,613.1 470,664.8 469.5,662.9 662.5,611.2 663,613.1 	"/>
	<path class="st1" d="M355.8,676.6c-1.8,0-3.5-0.8-4.7-2.3L264.4,567c-2.1-2.6-1.7-6.4,0.9-8.5l60.8-49.1c1.1-0.9,2.5-1.4,3.8-1.4
		c1.8,0,3.5,0.8,4.7,2.3l86.7,107.4c2.1,2.6,1.7,6.4-0.9,8.5l-60.8,49.1C358.5,676.2,357.1,676.6,355.8,676.6"/>
	<path class="st24" d="M356,671.6c-2.6,2.1-6.4,1.7-8.5-0.9l-86.7-107.4c-2.1-2.6-1.7-6.4,0.9-8.5l60.8-49.1
		c2.6-2.1,6.4-1.7,8.5,0.9L417.7,614c2.1,2.6,1.7,6.4-0.9,8.5L356,671.6L356,671.6z"/>
	<polygon class="st3" points="303.1,521.3 397.4,638.1 409.6,628.3 315.3,511.5 303.1,521.3 	"/>
	<g>
		<defs>
			<rect id="SVGID_1_" x="-535" y="-354.8" width="2099.1" height="1478.8"/>
		</defs>
		<clipPath id="SVGID_2_">
			<use xlink:href="#SVGID_1_"  style="overflow:visible;"/>
		</clipPath>
		<polygon class="st25" points="347.2,607.3 291.2,537.9 301.9,529.3 357.9,598.6 347.2,607.3 		"/>
		<polygon class="st25" points="1028.5,1096.8 1028.5,-327.6 1564.2,-327.6 1564.2,1096.8 1028.5,1096.8 		"/>
		<polygon class="st25" points="-535,1096.8 -535,-327.6 0.7,-327.6 0.7,1096.8 -535,1096.8 		"/>
		<polygon class="st25" points="1226.8,24.9 -197.6,24.9 -197.6,-354.8 1226.8,-354.8 1226.8,24.9 		"/>
	</g>
	<polygon class="st2" points="1226.8,1124 -197.6,1124 -197.6,744.4 1226.8,744.4 1226.8,1124 	"/>
</g>
</svg>
