<?xml version="1.0" encoding="utf-8"?>
<!-- Generator: Adobe Illustrator 19.0.0, SVG Export Plug-In . SVG Version: 6.00 Build 0)  -->
<svg version="1.1" id="Layer_1" xmlns="http://www.w3.org/2000/svg" xmlns:xlink="http://www.w3.org/1999/xlink" x="0px" y="0px"
	 viewBox="1 27.6 1025 715.4" style="enable-background:new 1 27.6 1025 715.4;" xml:space="preserve">
<style type="text/css">
	.st0{clip-path:url(#SVGID_2_);}
	.st1{clip-path:url(#SVGID_2_);fill:#8EA3AE;}
	.st2{clip-path:url(#SVGID_2_);fill:none;stroke:#190D3A;stroke-width:5;stroke-linecap:round;stroke-miterlimit:10;}
	.st3{clip-path:url(#SVGID_6_);fill:#6B8D9D;}
	.st4{clip-path:url(#SVGID_8_);fill:#577483;}
	.st5{clip-path:url(#SVGID_8_);fill:#FFCF01;}
	.st6{clip-path:url(#SVGID_8_);fill:#8EA3AE;}
	.st7{clip-path:url(#SVGID_2_);fill:#FFFFFF;}
	.st8{clip-path:url(#SVGID_2_);fill:#3E5561;}
	.st9{clip-path:url(#SVGID_2_);fill:#577483;}
	.st10{clip-path:url(#SVGID_10_);fill:#FFFFFF;}
	.st11{clip-path:url(#SVGID_10_);fill:#577483;}
	.st12{clip-path:url(#SVGID_10_);fill:#8EA3AE;}
	.st13{clip-path:url(#SVGID_10_);fill:#3E5561;}
	.st14{clip-path:url(#SVGID_10_);fill:#FFCF01;}
	.st15{clip-path:url(#SVGID_12_);fill:#190D3A;}
</style>
<g id="Layer_2">
</g>
<g>
	<g>
		<defs>
			<rect id="SVGID_1_" x="4" y="27.6" width="1022" height="715.4"/>
		</defs>
		<clipPath id="SVGID_2_">
			<use xlink:href="#SVGID_1_"  style="overflow:visible;"/>
		</clipPath>
		<g class="st0">
			<defs>
				<rect id="SVGID_3_" x="4" y="27.6" width="1022" height="715.4"/>
			</defs>
			<clipPath id="SVGID_4_">
				<use xlink:href="#SVGID_3_"  style="overflow:visible;"/>
			</clipPath>
		</g>
		<rect x="4" y="27.6" class="st1" width="1022" height="715.4"/>
		<line class="st2" x1="533.8" y1="141.2" x2="604.9" y2="141.2"/>
		<line class="st2" x1="622.4" y1="141.2" x2="637.7" y2="141.2"/>
		<line class="st2" x1="499.3" y1="165.1" x2="489.3" y2="165.1"/>
		<line class="st2" x1="338.8" y1="204.6" x2="290.2" y2="204.6"/>
		<line class="st2" x1="254.3" y1="206.4" x2="244.6" y2="206.4"/>
		<line class="st2" x1="145" y1="456" x2="192.4" y2="456"/>
		<line class="st2" x1="556.7" y1="187.3" x2="556.7" y2="230.5"/>
		<line class="st2" x1="556.9" y1="243.5" x2="556.9" y2="251.7"/>
		<line class="st2" x1="763.6" y1="171.3" x2="847.3" y2="171.3"/>
		<line class="st2" x1="867.6" y1="171.3" x2="877.5" y2="171.3"/>
		<line class="st2" x1="810.4" y1="222.2" x2="821.4" y2="222.2"/>
		<line class="st2" x1="767.2" y1="413.6" x2="787.5" y2="413.6"/>
		<line class="st2" x1="829.3" y1="391.6" x2="867.6" y2="391.6"/>
		<line class="st2" x1="818.9" y1="417.4" x2="818.9" y2="457.9"/>
		<line class="st2" x1="842.5" y1="564.6" x2="842.5" y2="627.9"/>
		<line class="st2" x1="842.5" y1="648.9" x2="842.5" y2="656.9"/>
		<line class="st2" x1="799.5" y1="625.2" x2="799.5" y2="632.2"/>
		<line class="st2" x1="667.8" y1="632.2" x2="654.2" y2="632.2"/>
		<line class="st2" x1="636.6" y1="626.6" x2="569.3" y2="626.6"/>
		<line class="st2" x1="542.5" y1="627.9" x2="536.8" y2="627.9"/>
		<line class="st2" x1="407.7" y1="648.9" x2="431.6" y2="648.9"/>
		<line class="st2" x1="451.4" y1="628.7" x2="474.6" y2="628.7"/>
		<line class="st2" x1="351.9" y1="593.9" x2="343.2" y2="593.9"/>
		<line class="st2" x1="183.2" y1="483.3" x2="218.4" y2="483.3"/>
		<line class="st2" x1="149.4" y1="527.6" x2="180" y2="527.6"/>
		<line class="st2" x1="195.6" y1="527.6" x2="203.5" y2="527.6"/>
		<line class="st2" x1="149.4" y1="223.3" x2="195.6" y2="223.3"/>
		<line class="st2" x1="297.3" y1="146.7" x2="314.5" y2="146.7"/>
		<g class="st0">
			<defs>
				<rect id="SVGID_5_" x="4" y="27.6" width="1022" height="715.4"/>
			</defs>
			<clipPath id="SVGID_6_">
				<use xlink:href="#SVGID_5_"  style="overflow:visible;"/>
			</clipPath>
			<path class="st3" d="M278.9,131.6c0,2.3-1.9,4.1-4.1,4.1h-54.6c-2.3,0-4.1-1.9-4.1-4.1v-0.5c0-2.3,1.9-4.1,4.1-4.1h54.6
				c2.3,0,4.1,1.9,4.1,4.1V131.6z"/>
			<path class="st3" d="M402.3,175c0,2.1-1.7,3.7-3.7,3.7h-80.4c-2.1,0-3.7-1.7-3.7-3.7c0-2.1,1.7-3.7,3.7-3.7h80.4
				C400.6,171.3,402.3,173,402.3,175"/>
			<path class="st3" d="M630,252.9c0,2.3-1.9,4.1-4.1,4.1h-88c-2.3,0-4.1-1.9-4.1-4.1v-25.4c0-2.3,1.9-4.1,4.1-4.1h88
				c2.3,0,4.1,1.9,4.1,4.1V252.9z"/>
			<path class="st3" d="M691.2,334.2c0,2.3-1.9,4.1-4.1,4.1h-23.9c-2.3,0-4.1-1.9-4.1-4.1V303c0-2.3,1.9-4.1,4.1-4.1h23.9
				c2.3,0,4.1,1.9,4.1,4.1V334.2z"/>
			<path class="st3" d="M790.7,399.5c0,2.3-1.9,4.1-4.1,4.1h-79.5c-2.3,0-4.1-1.9-4.1-4.1v-37.9c0-2.3,1.9-4.1,4.1-4.1h79.5
				c2.3,0,4.1,1.9,4.1,4.1V399.5z"/>
			<path class="st3" d="M746.8,500.3c0,2.3-1.9,4.1-4.1,4.1h-48.9c-2.3,0-4.1-1.9-4.1-4.1v-22.7c0-2.3,1.9-4.1,4.1-4.1h48.9
				c2.3,0,4.1,1.9,4.1,4.1V500.3z"/>
			<path class="st3" d="M636.6,432c0,2.3-1.9,4.1-4.1,4.1h-73.7c-2.3,0-4.1-1.9-4.1-4.1V389c0-2.3,1.9-4.1,4.1-4.1h73.7
				c2.3,0,4.1,1.9,4.1,4.1V432z"/>
			<path class="st3" d="M415.7,453.8c0,2.3-1.9,4.1-4.1,4.1h-64.2c-2.3,0-4.1-1.9-4.1-4.1v-32.2c0-2.3,1.9-4.1,4.1-4.1h64.2
				c2.3,0,4.1,1.9,4.1,4.1V453.8z"/>
			<path class="st3" d="M327.7,516.6c0,2.3-1.9,4.1-4.1,4.1h-50.2c-2.3,0-4.1-1.9-4.1-4.1v-11.8c0-2.3,1.9-4.1,4.1-4.1h50.2
				c2.3,0,4.1,1.9,4.1,4.1V516.6z"/>
			<path class="st3" d="M214.2,436.4c0,2.3-1.9,4.1-4.1,4.1h-66.4c-2.3,0-4.1-1.9-4.1-4.1v-25.6c0-2.3,1.9-4.1,4.1-4.1h66.4
				c2.3,0,4.1,1.9,4.1,4.1V436.4z"/>
			<path class="st3" d="M399,662.9c0,2.3-1.9,4.1-4.1,4.1h-32c-2.3,0-4.1-1.9-4.1-4.1v-48.5c0-2.3,1.9-4.1,4.1-4.1h32
				c2.3,0,4.1,1.9,4.1,4.1V662.9z"/>
			<path class="st3" d="M517.6,575.8c0,2.3-1.9,4.1-4.1,4.1h-46.3c-2.3,0-4.1-1.9-4.1-4.1V553c0-2.3,1.9-4.1,4.1-4.1h46.3
				c2.3,0,4.1,1.9,4.1,4.1V575.8z"/>
			<path class="st3" d="M617.3,560.4c0,2.3-1.9,4.1-4.1,4.1h-31.5c-2.3,0-4.1-1.9-4.1-4.1v-12.3c0-2.3,1.9-4.1,4.1-4.1h31.5
				c2.3,0,4.1,1.9,4.1,4.1V560.4z"/>
		</g>
		<g class="st0">
			<defs>
				<rect id="SVGID_7_" x="4" y="27.6" width="1022" height="715.4"/>
			</defs>
			<clipPath id="SVGID_8_">
				<use xlink:href="#SVGID_7_"  style="overflow:visible;"/>
			</clipPath>
			<path class="st4" d="M229.4,537.1l-11.2,9.6v75.8l11.2,9.6h73.4l11.2-9.6v-75.8l-11.2-9.6H229.4z M302.1,611.5
				c0,0.5-0.2,0.9-0.6,1.2l-8.5,7.3c-0.3,0.3-0.7,0.4-1,0.4h-51.9c-0.4,0-0.8-0.1-1-0.4l-8.5-7.3c-0.4-0.3-0.6-0.7-0.6-1.2v-53.8
				c0-0.5,0.2-0.9,0.6-1.2l8.5-7.3c0.3-0.3,0.7-0.4,1-0.4H292c0.4,0,0.8,0.1,1,0.4l8.5,7.3c0.4,0.3,0.6,0.7,0.6,1.2V611.5z"/>
			<path class="st5" d="M797.1,252.1c0-0.9-0.7-1.6-1.6-1.6c-0.9,0-1.6,0.7-1.6,1.6v3.3h3.2V252.1z"/>
			<path class="st5" d="M229.3,333.8c0,1,0.8,1.7,1.7,1.7c1,0,1.7-0.8,1.7-1.7v-3.3h-3.5V333.8z"/>
			<path class="st6" d="M240.8,552.1l-7.5,6.4v52.3l7.5,6.4h50.7l7.5-6.4v-52.3l-7.5-6.4H240.8z M242.7,610.3
				c-1.5,0-2.8-1.3-2.8-2.8c0-1.5,1.3-2.8,2.8-2.8s2.8,1.3,2.8,2.8C245.6,609,244.3,610.3,242.7,610.3 M242.7,564.6
				c-1.5,0-2.8-1.3-2.8-2.8c0-1.5,1.3-2.8,2.8-2.8s2.8,1.3,2.8,2.8C245.6,563.3,244.3,564.6,242.7,564.6 M289.9,610.3
				c-1.5,0-2.8-1.3-2.8-2.8c0-1.5,1.3-2.8,2.8-2.8c1.5,0,2.8,1.3,2.8,2.8C292.7,609,291.5,610.3,289.9,610.3 M292.7,561.8
				c0,1.5-1.3,2.8-2.8,2.8c-1.5,0-2.8-1.3-2.8-2.8c0-1.5,1.3-2.8,2.8-2.8C291.5,559,292.7,560.2,292.7,561.8"/>
			<path class="st5" d="M802.8,360.8c0,1,0.8,1.7,1.7,1.7c1,0,1.7-0.8,1.7-1.7v-3.3h-3.5V360.8z"/>
			<path class="st5" d="M262.9,333.8c0,1,0.8,1.7,1.7,1.7c1,0,1.7-0.8,1.7-1.7v-3.3h-3.5V333.8z"/>
			<path class="st5" d="M246.1,333.8c0,1,0.8,1.7,1.7,1.7c1,0,1.7-0.8,1.7-1.7v-3.3h-3.5V333.8z"/>
			<path class="st5" d="M697.3,413.6c0-2.1-1.7-3.8-3.8-3.8c-2.1,0-3.8,1.7-3.8,3.8s1.7,3.8,3.8,3.8
				C695.6,417.4,697.3,415.7,697.3,413.6"/>
			<path class="st5" d="M611.1,397.3c3.4,0,6.2-2.8,6.2-6.2c0-3.4-2.8-6.2-6.2-6.2c-3.4,0-6.2,2.8-6.2,6.2
				C604.9,394.5,607.7,397.3,611.1,397.3"/>
			<path class="st5" d="M601.4,500.7c0,2.1,1.7,3.8,3.8,3.8c2.1,0,3.8-1.7,3.8-3.8c0-2.1-1.7-3.8-3.8-3.8
				C603.1,496.9,601.4,498.6,601.4,500.7"/>
			<path class="st4" d="M275.9,279.2h-89.8c-1.6,0-2.9,1.3-2.9,2.9v42.2c0,1.6,1.3,2.9,2.9,2.9h89.8c1.6,0,2.9-1.3,2.9-2.9v-42.2
				C278.9,280.5,277.5,279.2,275.9,279.2 M194.8,321H190c-0.9,0-1.6-0.7-1.6-1.6c0-0.9,0.7-1.6,1.6-1.6h4.8c0.9,0,1.6,0.7,1.6,1.6
				C196.4,320.3,195.7,321,194.8,321 M215.4,321h-10.3c-0.9,0-1.6-0.7-1.6-1.6c0-0.9,0.7-1.6,1.6-1.6h10.3c0.9,0,1.6,0.7,1.6,1.6
				C217,320.3,216.3,321,215.4,321 M236,321h-10.3c-0.9,0-1.6-0.7-1.6-1.6c0-0.9,0.7-1.6,1.6-1.6H236c0.9,0,1.6,0.7,1.6,1.6
				C237.6,320.3,236.9,321,236,321 M256.6,321h-10.3c-0.9,0-1.6-0.7-1.6-1.6c0-0.9,0.7-1.6,1.6-1.6h10.3c0.9,0,1.6,0.7,1.6,1.6
				C258.2,320.3,257.5,321,256.6,321 M271.7,321h-4.8c-0.9,0-1.6-0.7-1.6-1.6c0-0.9,0.7-1.6,1.6-1.6h4.8c0.9,0,1.6,0.7,1.6,1.6
				C273.3,320.3,272.6,321,271.7,321"/>
			<path class="st5" d="M369.4,645.1c0,2.1,1.7,3.8,3.8,3.8c2.1,0,3.8-1.7,3.8-3.8s-1.7-3.8-3.8-3.8
				C371.2,641.3,369.4,643,369.4,645.1"/>
			<path class="st5" d="M492.3,673.3c0,3.4,2.8,6.2,6.2,6.2c3.4,0,6.2-2.8,6.2-6.2c0-3.4-2.8-6.2-6.2-6.2
				C495.1,667.1,492.3,669.8,492.3,673.3"/>
			<path class="st5" d="M787,360.8c0,0.8,0.5,1.5,1.3,1.7c0.1,0,0.3-0.1,0.5-0.1c0.2,0,0.3,0,0.5,0.1c0.7-0.2,1.3-0.9,1.3-1.7v-3.3
				H787V360.8z"/>
			<path class="st4" d="M777.2,346.2h0.5c1.6,0,2.9-1.3,2.9-2.9V271c0-1.6-1.3-2.9-2.9-2.9h-0.5c-1.6,0-2.9,1.3-2.9,2.9v72.2
				C774.3,344.9,775.6,346.2,777.2,346.2"/>
			<path class="st5" d="M282.1,321.1h3.3c1,0,1.7-0.8,1.7-1.7s-0.8-1.7-1.7-1.7h-3.3V321.1z"/>
			<path class="st5" d="M285.4,301.8h-3.3v3.5h3.3c1,0,1.7-0.8,1.7-1.7S286.4,301.8,285.4,301.8"/>
			<path class="st5" d="M306.1,473.5c-2.1,0-3.8,1.7-3.8,3.8c0,2.1,1.7,3.8,3.8,3.8s3.8-1.7,3.8-3.8
				C310,475.3,308.3,473.5,306.1,473.5"/>
			<path class="st5" d="M254.3,420.1c-2.1,0-3.8,1.7-3.8,3.8c0,2.1,1.7,3.8,3.8,3.8c2.1,0,3.8-1.7,3.8-3.8
				C258.2,421.8,256.4,420.1,254.3,420.1"/>
			<path class="st5" d="M415.7,586.2c-2.1,0-3.8,1.7-3.8,3.8c0,2.1,1.7,3.8,3.8,3.8c2.1,0,3.8-1.7,3.8-3.8
				C419.5,588,417.8,586.2,415.7,586.2"/>
			<path class="st5" d="M393.1,165.1c0-3.4-2.8-6.2-6.2-6.2c-3.4,0-6.2,2.8-6.2,6.2c0,3.4,2.8,6.2,6.2,6.2c0,0,0,0,0,0c0,0,0,0,0,0
				C390.3,171.3,393.1,168.5,393.1,165.1"/>
			<path class="st5" d="M511.7,204.6c0-3.4-2.8-6.2-6.2-6.2c-3.4,0-6.2,2.8-6.2,6.2c0,3.4,2.8,6.2,6.2,6.2
				C508.9,210.8,511.7,208,511.7,204.6"/>
			<path class="st5" d="M768,212.6c3.4,0,6.2-2.8,6.2-6.2c0-3.4-2.8-6.2-6.2-6.2c-3.4,0-6.2,2.8-6.2,6.2
				C761.8,209.9,764.6,212.6,768,212.6"/>
			<path class="st5" d="M373.5,333.2c-2.1,0-3.8,1.7-3.8,3.8c0,2.1,1.7,3.8,3.8,3.8c2.1,0,3.8-1.7,3.8-3.8
				C377.4,334.9,375.6,333.2,373.5,333.2"/>
			<path class="st5" d="M287.1,287.7c0-1-0.8-1.7-1.7-1.7h-3.3v3.5h3.3C286.4,289.5,287.1,288.7,287.1,287.7"/>
			<path class="st5" d="M821.4,340.1c0-1-0.8-1.7-1.7-1.7h-3.3v3.5h3.3C820.6,341.8,821.4,341,821.4,340.1"/>
			<path class="st5" d="M212.5,333.8c0,1,0.8,1.7,1.7,1.7c1,0,1.7-0.8,1.7-1.7v-3.3h-3.5V333.8z"/>
			<path class="st5" d="M821.4,306.4c0-1-0.8-1.7-1.7-1.7h-3.3v3.5h3.3C820.6,308.2,821.4,307.4,821.4,306.4"/>
			<path class="st5" d="M174.9,319.4c0,1,0.8,1.7,1.7,1.7h3.3v-3.5h-3.3C175.7,317.6,174.9,318.4,174.9,319.4"/>
			<path class="st5" d="M821.4,323.2c0-1-0.8-1.7-1.7-1.7h-3.3v3.5h3.3C820.6,325,821.4,324.2,821.4,323.2"/>
			<path class="st5" d="M821.4,289.6c0-1-0.8-1.7-1.7-1.7h-3.3v3.5h3.3C820.6,291.3,821.4,290.6,821.4,289.6"/>
			<path class="st5" d="M199.1,272.7c0-1-0.8-1.7-1.7-1.7c-1,0-1.7,0.8-1.7,1.7v3.3h3.5V272.7z"/>
			<path class="st5" d="M232.8,272.7c0-1-0.8-1.7-1.7-1.7c-1,0-1.7,0.8-1.7,1.7v3.3h3.5V272.7z"/>
			<path class="st5" d="M216,272.7c0-1-0.8-1.7-1.7-1.7c-1,0-1.7,0.8-1.7,1.7v3.3h3.5V272.7z"/>
			<path class="st5" d="M195.6,333.8c0,1,0.8,1.7,1.7,1.7c1,0,1.7-0.8,1.7-1.7v-3.3h-3.5V333.8z"/>
			<path class="st5" d="M249.6,272.7c0-1-0.8-1.7-1.7-1.7c-1,0-1.7,0.8-1.7,1.7v3.3h3.5V272.7z"/>
			<path class="st5" d="M323.9,376.8c2.1,0,3.8-1.7,3.8-3.8c0-2.1-1.7-3.8-3.8-3.8c-2.1,0-3.8,1.7-3.8,3.8
				C320.1,375,321.8,376.8,323.9,376.8"/>
			<path class="st5" d="M174.9,287.7c0,1,0.8,1.7,1.7,1.7h3.3V286h-3.3C175.7,286,174.9,286.8,174.9,287.7"/>
			<path class="st5" d="M174.9,303.6c0,1,0.8,1.7,1.7,1.7h3.3v-3.5h-3.3C175.7,301.8,174.9,302.6,174.9,303.6"/>
			<path class="st5" d="M266.4,272.7c0-1-0.8-1.7-1.7-1.7s-1.7,0.8-1.7,1.7v3.3h3.5V272.7z"/>
			<path class="st5" d="M756.8,323.2c0,1,0.8,1.7,1.7,1.7h3.3v-3.5h-3.3C757.5,321.5,756.8,322.3,756.8,323.2"/>
			<path class="st5" d="M769.6,532.4h-82.9v44.3h82.9V532.4z M763.2,572.9h-70.4c-0.9,0-1.6-0.7-1.6-1.6s0.7-1.6,1.6-1.6h70.4
				c0.9,0,1.6,0.7,1.6,1.6S764.1,572.9,763.2,572.9"/>
			<polygon class="st6" points="435.9,456 410.6,483.3 577.6,483.3 552.4,456 			"/>
			<path class="st5" d="M556.9,558.3c0,3.4,2.8,6.2,6.2,6.2c3.4,0,6.2-2.8,6.2-6.2c0-3.4-2.8-6.2-6.2-6.2
				C559.7,552.1,556.9,554.9,556.9,558.3"/>
			<polygon class="st4" points="433.6,327.4 408.6,300.3 408.6,480.8 433.6,453.8 			"/>
			<path class="st5" d="M667.8,286.4c0,3.4,2.8,6.2,6.2,6.2c3.4,0,6.2-2.8,6.2-6.2c0-3.4-2.8-6.2-6.2-6.2
				C670.6,280.2,667.8,283,667.8,286.4"/>
			<path class="st5" d="M516.1,520.7c0,2.1,1.7,3.8,3.8,3.8c2.1,0,3.8-1.7,3.8-3.8c0-2.1-1.7-3.8-3.8-3.8
				C517.8,516.9,516.1,518.6,516.1,520.7"/>
			<path class="st5" d="M756.8,289.6c0,1,0.8,1.7,1.7,1.7h3.3v-3.5h-3.3C757.5,287.8,756.8,288.6,756.8,289.6"/>
			<path class="st5" d="M764.1,444c0-2.1-1.7-3.8-3.8-3.8c-2.1,0-3.8,1.7-3.8,3.8c0,2.1,1.7,3.8,3.8,3.8
				C762.3,447.8,764.1,446.1,764.1,444"/>
			<path class="st5" d="M821.4,272.8c0-1-0.8-1.7-1.7-1.7h-3.3v3.5h3.3C820.6,274.5,821.4,273.7,821.4,272.8"/>
			<path class="st5" d="M717.8,326.4c0-3.4-2.8-6.2-6.2-6.2c-3.4,0-6.2,2.8-6.2,6.2c0,3.4,2.8,6.2,6.2,6.2
				C715,332.7,717.8,329.9,717.8,326.4"/>
			<path class="st5" d="M756.8,306.4c0,1,0.8,1.7,1.7,1.7h3.3v-3.5h-3.3C757.5,304.7,756.8,305.5,756.8,306.4"/>
			<path class="st5" d="M756.8,340.1c0,1,0.8,1.7,1.7,1.7h3.3v-3.5h-3.3C757.5,338.3,756.8,339.1,756.8,340.1"/>
			<path class="st6" d="M551.5,328.3H436.8v124.5h114.7V328.3z M539.7,443.3c-1.5,0-2.8-1.3-2.8-2.8c0-1.5,1.3-2.8,2.8-2.8
				c1.5,0,2.8,1.3,2.8,2.8C542.5,442.1,541.2,443.3,539.7,443.3 M539.7,337.8c1.5,0,2.8,1.3,2.8,2.8c0,1.5-1.3,2.8-2.8,2.8
				c-1.5,0-2.8-1.3-2.8-2.8C536.9,339.1,538.1,337.8,539.7,337.8 M457.4,371.3h73.4c3.4,0,6.1,2.8,6.1,6.1v26.2
				c0,3.4-2.8,6.1-6.1,6.1h-73.4c-3.4,0-6.1-2.8-6.1-6.1v-26.2C451.2,374.1,454,371.3,457.4,371.3 M448.6,337.8
				c1.5,0,2.8,1.3,2.8,2.8c0,1.5-1.3,2.8-2.8,2.8s-2.8-1.3-2.8-2.8C445.8,339.1,447,337.8,448.6,337.8 M448.6,437.7
				c1.5,0,2.8,1.3,2.8,2.8c0,1.5-1.3,2.8-2.8,2.8s-2.8-1.3-2.8-2.8C445.8,439,447,437.7,448.6,437.7"/>
			<path class="st5" d="M756.8,272.8c0,1,0.8,1.7,1.7,1.7h3.3V271h-3.3C757.5,271,756.8,271.8,756.8,272.8"/>
			<polygon class="st4" points="554.7,453.8 579.6,480.8 579.6,300.3 554.7,327.4 			"/>
			<polygon class="st6" points="657.7,190.5 657.7,235.8 703,190.5 			"/>
			<path class="st5" d="M540.5,268.9c0-3.4-2.8-6.2-6.2-6.2c-3.4,0-6.2,2.8-6.2,6.2c0,3.4,2.8,6.2,6.2,6.2
				C537.7,275.1,540.5,272.3,540.5,268.9"/>
			<path class="st4" d="M717,178.8h-71v71h71V178.8z M654.5,243.5v-56.2h56.2L654.5,243.5z"/>
			<path class="st6" d="M765,261.5v89.8c0,1.6,1.3,2.9,2.9,2.9h42.2c1.6,0,2.9-1.3,2.9-2.9v-89.8c0-1.6-1.3-2.9-2.9-2.9H768
				C766.4,258.6,765,259.9,765,261.5 M771.1,271c0-3.4,2.8-6.1,6.1-6.1h0.5c3.4,0,6.1,2.8,6.1,6.1v72.2c0,3.4-2.8,6.1-6.1,6.1h-0.5
				c-3.4,0-6.1-2.8-6.1-6.1V271z"/>
			<path class="st5" d="M771.1,255.4h3.2v-3.3c0-0.9-0.7-1.6-1.6-1.6c-0.9,0-1.6,0.7-1.6,1.6V255.4z"/>
			<path class="st5" d="M772.9,362.5c1,0,1.7-0.8,1.7-1.7v-3.3h-3.5v3.3C771.2,361.7,772,362.5,772.9,362.5"/>
			<path class="st5" d="M244.6,454.4c0-3.4-2.8-6.2-6.2-6.2c-3.4,0-6.2,2.8-6.2,6.2c0,3.4,2.8,6.2,6.2,6.2
				C241.8,460.6,244.6,457.8,244.6,454.4"/>
			<path class="st5" d="M294,397.2c2.1,0,3.8-1.7,3.8-3.8c0-2.1-1.7-3.8-3.8-3.8s-3.8,1.7-3.8,3.8
				C290.2,395.5,291.9,397.2,294,397.2"/>
			<path class="st5" d="M851.1,481.1c-2.1,0-3.8,1.7-3.8,3.8c0,2.1,1.7,3.8,3.8,3.8c2.1,0,3.8-1.7,3.8-3.8
				C854.9,482.8,853.2,481.1,851.1,481.1"/>
			<path class="st5" d="M457.4,406.6h73.4c1.6,0,2.9-1.3,2.9-2.9v-26.2c0-1.6-1.3-2.9-2.9-2.9h-73.4c-1.6,0-2.9,1.3-2.9,2.9v26.2
				C454.5,405.3,455.8,406.6,457.4,406.6"/>
			<polygon class="st6" points="552.4,325.1 577.6,297.8 410.6,297.8 435.9,325.1 			"/>
			<path class="st5" d="M459.3,97.3c0-3.4-2.8-6.2-6.2-6.2c-3.4,0-6.2,2.8-6.2,6.2c0,3.4,2.8,6.2,6.2,6.2
				C456.5,103.5,459.3,100.8,459.3,97.3"/>
			<path class="st4" d="M664.7,517.4l-8.6,7.4v59.4l8.6,7.4h127l8.6-7.4v-59.4l-8.6-7.4H664.7z M668.9,581.5c-1.8,0-3.2-1.4-3.2-3.2
				c0-1.8,1.4-3.2,3.2-3.2c1.8,0,3.2,1.4,3.2,3.2C672.1,580.1,670.7,581.5,668.9,581.5 M668.9,534c-1.8,0-3.2-1.4-3.2-3.2
				c0-1.8,1.4-3.2,3.2-3.2c1.8,0,3.2,1.4,3.2,3.2C672.1,532.5,670.7,534,668.9,534 M772.8,579.9h-89.3v-50.7h89.3V579.9z
				 M787.5,581.5c-1.8,0-3.2-1.4-3.2-3.2c0-1.8,1.4-3.2,3.2-3.2c1.8,0,3.2,1.4,3.2,3.2C790.7,580.1,789.2,581.5,787.5,581.5
				 M787.5,534c-1.8,0-3.2-1.4-3.2-3.2c0-1.8,1.4-3.2,3.2-3.2c1.8,0,3.2,1.4,3.2,3.2C790.7,532.5,789.2,534,787.5,534"/>
		</g>
		<polyline class="st7" points="410.6,301.8 410.6,480.8 408.6,482.4 408.6,297.8 		"/>
		<polyline class="st8" points="577.9,301.8 577.9,480.8 579.9,482.4 579.9,297.8 		"/>
		<polyline class="st7" points="413,300.3 575.3,300.3 576.9,300.3 579.8,297.5 409.6,297.5 		"/>
		<polyline class="st9" points="435.2,326.9 551.5,326.9 554.7,323.5 432.7,323.5 		"/>
		<polyline class="st1" points="431.6,324.4 431.6,457.2 434.3,454.5 434.3,326.9 		"/>
		<g class="st0">
			<defs>
				<rect id="SVGID_9_" x="4" y="27.6" width="1022" height="715.4"/>
			</defs>
			<clipPath id="SVGID_10_">
				<use xlink:href="#SVGID_9_"  style="overflow:visible;"/>
			</clipPath>
			<path class="st10" d="M524,382.6c0,1.6-1.3,2.9-2.9,2.9h-52.5c-1.6,0-2.9-1.3-2.9-2.9c0-1.6,1.3-2.9,2.9-2.9H521
				C522.6,379.6,524,380.9,524,382.6"/>
			<polyline class="st11" points="410.6,478.6 575.6,478.6 578.9,483.3 407.7,483.3 			"/>
			<polyline class="st12" points="556.7,325.2 556.7,457.9 553,454.2 553,326.9 			"/>
			<rect x="469.7" y="346.6" class="st11" width="39.1" height="5.5"/>
			<rect x="512.1" y="346.6" class="st11" width="5.5" height="5.5"/>
			<polyline class="st10" points="660.3,235.8 660.3,188.7 657.7,188.7 657.7,238.3 			"/>
			<polyline class="st10" points="648.3,177 648.3,247.8 718.2,247.8 718.2,251.7 644.5,251.7 644.5,177 			"/>
			<rect x="680.3" y="230.5" class="st13" width="25.4" height="2.9"/>
			<rect x="708.6" y="230.5" class="st13" width="3.1" height="2.9"/>
			<polyline class="st10" points="767.2,258.6 767.2,355.7 763.6,352.6 763.6,260.1 			"/>
			<polyline class="st11" points="806.3,258.6 806.3,355.7 811,355.7 814.5,351.4 814.5,261.6 812.1,257 			"/>
			<path class="st10" d="M799.5,333.7c0,0.7-0.5,1.2-1.2,1.2c-0.7,0-1.2-0.5-1.2-1.2V274c0-0.7,0.5-1.2,1.2-1.2
				c0.7,0,1.2,0.5,1.2,1.2V333.7z"/>
			<polyline class="st10" points="769.6,534 689.5,534 689.5,578.3 686,578.3 686,530.8 771.2,530.8 			"/>
			<path class="st10" d="M745,561.7c0,0.9-0.8,1.7-1.7,1.7h-25.8c-0.9,0-1.7-0.8-1.7-1.7c0-0.9,0.8-1.7,1.7-1.7h25.8
				C744.2,560,745,560.8,745,561.7"/>
			<path class="st10" d="M752.5,561.7c0,0.9-0.8,1.7-1.7,1.7c-0.9,0-1.7-0.8-1.7-1.7c0-0.9,0.8-1.7,1.7-1.7
				C751.7,560,752.5,560.8,752.5,561.7"/>
			<polyline class="st10" points="796.3,519.4 665.7,519.4 658.3,526 658.3,587.5 654.2,584.6 654.2,524 664.1,516 792.6,516 			"/>
			<path class="st13" d="M794.1,581.7c0,2.3-1.9,4.1-4.1,4.1h-1.6c-2.3,0-4.1-1.9-4.1-4.1v-53.8c0-2.3,1.9-4.1,4.1-4.1h1.6
				c2.3,0,4.1,1.9,4.1,4.1V581.7z"/>
			<path class="st13" d="M673.8,581.7c0,2.3-1.9,4.1-4.1,4.1h-1.6c-2.3,0-4.1-1.9-4.1-4.1v-53.8c0-2.3,1.9-4.1,4.1-4.1h1.6
				c2.3,0,4.1,1.9,4.1,4.1V581.7z"/>
			<polyline class="st10" points="220.6,542.8 220.6,626.8 216.2,622.5 216.2,545.2 			"/>
			<polyline class="st10" points="235.6,556.5 235.6,614 232,610.3 232,559 			"/>
			<rect x="252.9" y="572.3" class="st11" width="25.1" height="25.1"/>
			<polyline class="st13" points="311.6,542.8 311.6,626.8 316.2,622.3 316.2,546.9 			"/>
			<path class="st13" d="M271.4,626.6c0,0.7-0.6,1.3-1.3,1.3h-7.8c-0.7,0-1.3-0.6-1.3-1.3c0-0.7,0.6-1.3,1.3-1.3h7.8
				C270.8,625.2,271.4,625.8,271.4,626.6"/>
			<path class="st13" d="M248.5,542.5c0,0.8-0.7,1.5-1.5,1.5H243c-0.8,0-1.5-0.7-1.5-1.5s0.7-1.5,1.5-1.5h4.1
				C247.9,541,248.5,541.7,248.5,542.5"/>
			<rect x="192.4" y="289.5" class="st14" width="57.2" height="18.8"/>
			<rect x="256.2" y="289.5" class="st14" width="13.9" height="18.8"/>
			<path class="st10" d="M229.3,297c0,1-0.8,1.9-1.9,1.9h-28.2c-1,0-1.9-0.8-1.9-1.9c0-1,0.8-1.9,1.9-1.9h28.2
				C228.5,295.1,229.3,296,229.3,297"/>
			<path class="st10" d="M238.5,297.2c0,1.2-0.9,2.1-2.1,2.1c-1.2,0-2.1-0.9-2.1-2.1c0-1.2,0.9-2.1,2.1-2.1
				C237.6,295.1,238.5,296.1,238.5,297.2"/>
		</g>
		<g class="st0">
			<defs>
				<rect id="SVGID_11_" x="4" y="27.6" width="1022" height="715.4"/>
			</defs>
			<clipPath id="SVGID_12_">
				<use xlink:href="#SVGID_11_"  style="overflow:visible;"/>
			</clipPath>
			<path class="st15" d="M448.6,343.4c1.5,0,2.8-1.3,2.8-2.8c0-1.5-1.3-2.8-2.8-2.8s-2.8,1.3-2.8,2.8
				C445.8,342.2,447,343.4,448.6,343.4"/>
			<path class="st15" d="M242.7,559c-1.5,0-2.8,1.3-2.8,2.8c0,1.5,1.3,2.8,2.8,2.8c1.5,0,2.8-1.3,2.8-2.8
				C245.6,560.2,244.3,559,242.7,559"/>
			<path class="st15" d="M242.7,604.7c-1.5,0-2.8,1.3-2.8,2.8c0,1.5,1.3,2.8,2.8,2.8c1.5,0,2.8-1.3,2.8-2.8
				C245.6,605.9,244.3,604.7,242.7,604.7"/>
			<path class="st15" d="M287.1,561.8c0,1.5,1.3,2.8,2.8,2.8c1.5,0,2.8-1.3,2.8-2.8c0-1.5-1.3-2.8-2.8-2.8
				C288.4,559,287.1,560.2,287.1,561.8"/>
			<path class="st15" d="M384.1,506.2c1.8,0,3.2-1.4,3.2-3.2c0-1.8-1.4-3.2-3.2-3.2c-1.2,0-2.2,0.7-2.8,1.6H350
				c-0.9,0-1.6,0.7-1.6,1.6v46.9h-31.2V546c0-0.5-0.2-0.9-0.6-1.2l-12.2-10.5c-0.3-0.3-0.7-0.4-1-0.4h-7.6v-6.1
				c0-0.9-0.7-1.6-1.6-1.6c-0.9,0-1.6,0.7-1.6,1.6v6.1h-8v-6.1c0-0.9-0.7-1.6-1.6-1.6s-1.6,0.7-1.6,1.6v6.1h-6.7v-6.1
				c0-0.9-0.7-1.6-1.6-1.6c-0.9,0-1.6,0.7-1.6,1.6v6.1h-8v-6.1c0-0.9-0.7-1.6-1.6-1.6c-0.9,0-1.6,0.7-1.6,1.6v6.1h-7.5v-33.1
				l11.3-11.3c0.2,0,0.4,0.1,0.6,0.1c1.5,0,2.8-1.3,2.8-2.8c0-1.5-1.3-2.8-2.8-2.8c-1.5,0-2.8,1.3-2.8,2.8c0,0.1,0,0.2,0,0.4
				L250.1,499c-0.3,0.3-0.5,0.7-0.5,1.1v33.8H240v-70.2c4.4-0.8,7.8-4.6,7.8-9.3c0-5.2-4.2-9.4-9.4-9.4c-5.2,0-9.4,4.2-9.4,9.4
				c0,4.6,3.4,8.5,7.8,9.3v70.2h-8c-0.4,0-0.8,0.1-1,0.4l-12.2,10.5c-0.4,0.3-0.6,0.7-0.6,1.2v10.8H209c-0.9,0-1.6,0.7-1.6,1.6
				s0.7,1.6,1.6,1.6h6.1v8H209c-0.9,0-1.6,0.7-1.6,1.6s0.7,1.6,1.6,1.6h6.1v6.3H209c-0.9,0-1.6,0.7-1.6,1.6s0.7,1.6,1.6,1.6h6.1v8
				H209c-0.9,0-1.6,0.7-1.6,1.6c0,0.9,0.7,1.6,1.6,1.6h6.1v6.7H209c-0.9,0-1.6,0.7-1.6,1.6c0,0.9,0.7,1.6,1.6,1.6h6.1v8H209
				c-0.9,0-1.6,0.7-1.6,1.6s0.7,1.6,1.6,1.6h6.1v10.2c0,0.5,0.2,0.9,0.6,1.2l12.2,10.5c0.3,0.3,0.7,0.4,1,0.4h9.6v6.1
				c0,0.9,0.7,1.6,1.6,1.6c0.9,0,1.6-0.7,1.6-1.6v-6.1h8v6.1c0,0.9,0.7,1.6,1.6,1.6c0.9,0,1.6-0.7,1.6-1.6v-6.1h6.3v6.1
				c0,0.9,0.7,1.6,1.6,1.6c0.9,0,1.6-0.7,1.6-1.6v-6.1h8v6.1c0,0.9,0.7,1.6,1.6,1.6c0.9,0,1.6-0.7,1.6-1.6v-6.1h6.7v6.1
				c0,0.9,0.7,1.6,1.6,1.6c0.9,0,1.6-0.7,1.6-1.6v-6.1h8v6.1c0,0.9,0.7,1.6,1.6,1.6c0.9,0,1.6-0.7,1.6-1.6v-6.1h8.7
				c0.4,0,0.8-0.1,1-0.4l12.2-10.5c0.4-0.3,0.6-0.7,0.6-1.2v-9.7h6.1c0.9,0,1.6-0.7,1.6-1.6c0-0.9-0.7-1.6-1.6-1.6h-6.1v-8h6.1
				c0.9,0,1.6-0.7,1.6-1.6c0-0.9-0.7-1.6-1.6-1.6h-6.1v-6.7h6.1c0.9,0,1.6-0.7,1.6-1.6s-0.7-1.6-1.6-1.6h-6.1v-8h6.1
				c0.9,0,1.6-0.7,1.6-1.6c0-0.9-0.7-1.6-1.6-1.6h-6.1v-6.3h6.1c0.9,0,1.6-0.7,1.6-1.6c0-0.9-0.7-1.6-1.6-1.6h-6.1v-8h6.1
				c0.9,0,1.6-0.7,1.6-1.6s-0.7-1.6-1.6-1.6h-6.1v-4.3H350c0.9,0,1.6-0.7,1.6-1.6v-46.9h29.7C381.9,505.6,382.9,506.2,384.1,506.2
				 M232.2,454.4c0-3.4,2.8-6.2,6.2-6.2c3.4,0,6.2,2.8,6.2,6.2s-2.8,6.2-6.2,6.2C235,460.6,232.2,457.8,232.2,454.4 M314,622.5
				l-11.2,9.6h-73.4l-11.2-9.6v-75.8l11.2-9.6h73.4l11.2,9.6V622.5z"/>
			<path class="st15" d="M289.9,604.7c-1.5,0-2.8,1.3-2.8,2.8c0,1.5,1.3,2.8,2.8,2.8s2.8-1.3,2.8-2.8
				C292.7,605.9,291.5,604.7,289.9,604.7"/>
			<path class="st15" d="M539.7,343.4c1.5,0,2.8-1.3,2.8-2.8c0-1.5-1.3-2.8-2.8-2.8c-1.5,0-2.8,1.3-2.8,2.8
				C536.8,342.2,538.1,343.4,539.7,343.4"/>
			<path class="st15" d="M448.6,443.3c1.5,0,2.8-1.3,2.8-2.8c0-1.5-1.3-2.8-2.8-2.8s-2.8,1.3-2.8,2.8
				C445.8,442.1,447,443.3,448.6,443.3"/>
			<path class="st15" d="M539.7,437.7c-1.5,0-2.8,1.3-2.8,2.8c0,1.5,1.3,2.8,2.8,2.8c1.5,0,2.8-1.3,2.8-2.8
				C542.5,439,541.2,437.7,539.7,437.7"/>
			<path class="st15" d="M451.2,403.6c0,3.4,2.8,6.1,6.1,6.1h73.4c3.4,0,6.1-2.8,6.1-6.1v-26.2c0-3.4-2.8-6.1-6.1-6.1h-73.4
				c-3.4,0-6.1,2.8-6.1,6.1V403.6z M454.5,377.5c0-1.6,1.3-2.9,2.9-2.9h73.4c1.6,0,2.9,1.3,2.9,2.9v26.2c0,1.6-1.3,2.9-2.9,2.9
				h-73.4c-1.6,0-2.9-1.3-2.9-2.9V377.5z"/>
			<path class="st15" d="M654.5,243.5l56.2-56.2h-56.2V243.5z M657.7,190.5H703l-45.3,45.3V190.5z"/>
			<path class="st15" d="M777.2,349.4h0.5c3.4,0,6.1-2.8,6.1-6.1V271c0-3.4-2.8-6.1-6.1-6.1h-0.5c-3.4,0-6.1,2.8-6.1,6.1v72.2
				C771.1,346.7,773.8,349.4,777.2,349.4 M774.3,271c0-1.6,1.3-2.9,2.9-2.9h0.5c1.6,0,2.9,1.3,2.9,2.9v72.2c0,1.6-1.3,2.9-2.9,2.9
				h-0.5c-1.6,0-2.9-1.3-2.9-2.9V271z"/>
			<path class="st15" d="M851.1,477.9c-3.3,0-6.1,2.3-6.8,5.4h-17.8c-0.9,0-1.6,0.7-1.6,1.6v59.2h-21.4v-6.2h7.6
				c0.9,0,1.6-0.7,1.6-1.6s-0.7-1.6-1.6-1.6h-7.6v-5.5h7.6c0.9,0,1.6-0.7,1.6-1.6s-0.7-1.6-1.6-1.6h-7.6v-1.9c0-0.5-0.2-0.9-0.6-1.2
				l-9.6-8.3c-0.3-0.3-0.7-0.4-1-0.4h-1.6v-6.9c0-0.9-0.7-1.6-1.6-1.6c-0.9,0-1.6,0.7-1.6,1.6v6.9h-7.2v-6.9c0-0.9-0.7-1.6-1.6-1.6
				s-1.6,0.7-1.6,1.6v6.9h-7.5v-6.9c0-0.9-0.7-1.6-1.6-1.6c-0.9,0-1.6,0.7-1.6,1.6v6.9h-4.5v-63.4c3.1-0.7,5.4-3.5,5.4-6.8
				c0-3.9-3.1-7-7-7c-3.9,0-7,3.1-7,7c0,3.3,2.3,6.1,5.4,6.8v63.4h-5.1v-6.9c0-0.9-0.7-1.6-1.6-1.6s-1.6,0.7-1.6,1.6v6.9h-7.5v-6.9
				c0-0.9-0.7-1.6-1.6-1.6s-1.6,0.7-1.6,1.6v6.9h-5.1v-65.7c0-0.9-0.7-1.6-1.6-1.6h-37.9v-26.5c3.1-0.7,5.4-3.5,5.4-6.8
				c0-3.9-3.1-7-7-7c-3.9,0-7,3.1-7,7c0,3.3,2.3,6.1,5.4,6.8v28.1c0,0.9,0.7,1.6,1.6,1.6h37.9v64.1h-6.1v-6.9c0-0.9-0.7-1.6-1.6-1.6
				s-1.6,0.7-1.6,1.6v6.9h-7.2v-6.9c0-0.9-0.7-1.6-1.6-1.6s-1.6,0.7-1.6,1.6v6.9h-7.5v-6.9c0-0.9-0.7-1.6-1.6-1.6s-1.6,0.7-1.6,1.6
				v6.9h-5.9v-36.9c0-0.9-0.7-1.6-1.6-1.6h-39.8l-26.1-36.4h21.7c0.6,1,1.6,1.6,2.8,1.6c1.8,0,3.2-1.4,3.2-3.2s-1.4-3.2-3.2-3.2
				c-1.2,0-2.2,0.6-2.8,1.6h-24l-12.8-17.9c-0.3-0.4-0.8-0.7-1.3-0.7h-28.3v-24.8h19c0.8,4.4,4.6,7.8,9.3,7.8c5.2,0,9.4-4.2,9.4-9.4
				c0-5.2-4.2-9.4-9.4-9.4c-4.6,0-8.5,3.4-9.3,7.8h-19v-36.6h52.7l15.2,21c0.3,0.4,0.8,0.7,1.3,0.7h16.1l12.5,17
				c0.3,0.4,0.8,0.7,1.3,0.7h45.7c0.6,0.8,1.5,1.3,2.6,1.3c1.8,0,3.2-1.4,3.2-3.2s-1.4-3.2-3.2-3.2c-1.3,0-2.4,0.8-2.9,1.9h-44.6
				l-10.6-14.4h116.7c0.9,0,1.6-0.7,1.6-1.6v-7.8c1.8-0.7,3.1-2.4,3.1-4.4v-3.3h6.5v3.3c0,2.6,2.1,4.7,4.7,4.7
				c2.6,0,4.7-2.1,4.7-4.7v-3.3h0.9c3.4,0,6.1-2.8,6.1-6.1v-6.6h3.3c2.6,0,4.7-2.1,4.7-4.7s-2.1-4.7-4.7-4.7h-3.3v-7.5h3.3
				c2.6,0,4.7-2.1,4.7-4.7c0-2.6-2.1-4.7-4.7-4.7h-3.3v-7.5h3.3c2.6,0,4.7-2.1,4.7-4.7c0-2.6-2.1-4.7-4.7-4.7h-3.3v-7.5h3.3
				c2.6,0,4.7-2.1,4.7-4.7c0-2.6-2.1-4.7-4.7-4.7h-3.3v-7.5h3.3c2.6,0,4.7-2.1,4.7-4.7c0-2.6-2.1-4.7-4.7-4.7h-3.3v-6.6
				c0-3.4-2.8-6.1-6.1-6.1h-9.9v-3.3c0-2.6-2.2-4.8-4.8-4.8c-2.7,0-4.8,2.2-4.8,4.8v3.3h-13.2v-3.3c0-2.1-1.4-3.9-3.2-4.5
				c0-0.1,0-0.2,0-0.2v-18.2c0-0.9-0.7-1.6-1.6-1.6h-52.5v-7.8h10.7c0.9,0,1.6-0.7,1.6-1.6c0-0.9-0.7-1.6-1.6-1.6h-10.7V208h38.6
				c0.8,4.4,4.6,7.8,9.3,7.8c5.2,0,9.4-4.2,9.4-9.4c0-5.2-4.2-9.4-9.4-9.4c-4.6,0-8.5,3.4-9.3,7.8h-38.6V197h10.7
				c0.9,0,1.6-0.7,1.6-1.6c0-0.9-0.7-1.6-1.6-1.6h-10.7V186h10.7c0.9,0,1.6-0.7,1.6-1.6c0-0.9-0.7-1.6-1.6-1.6h-10.7v-5.6
				c0-0.9-0.7-1.6-1.6-1.6h-9.9v-10.7c0-0.9-0.7-1.6-1.6-1.6c-0.9,0-1.6,0.7-1.6,1.6v10.7h-7.8v-10.7c0-0.9-0.7-1.6-1.6-1.6
				s-1.6,0.7-1.6,1.6v10.7h-18.8v-10.7c0-0.9-0.7-1.6-1.6-1.6c-0.9,0-1.6,0.7-1.6,1.6v10.7h-7.8v-10.7c0-0.9-0.7-1.6-1.6-1.6
				c-0.9,0-1.6,0.7-1.6,1.6v10.7h-7.8v-10.7c0-0.9-0.7-1.6-1.6-1.6s-1.6,0.7-1.6,1.6v10.7h-6.1c-0.9,0-1.6,0.7-1.6,1.6v5.6H632
				c-0.9,0-1.6,0.7-1.6,1.6c0,0.9,0.7,1.6,1.6,1.6h10.7v7.8H632c-0.9,0-1.6,0.7-1.6,1.6c0,0.9,0.7,1.6,1.6,1.6h10.7v7.8H632
				c-0.9,0-1.6,0.7-1.6,1.6c0,0.9,0.7,1.6,1.6,1.6h10.7v8.1h-45.9c-0.9,0-1.6,0.7-1.6,1.6v45L557,286c-0.5,0.3-0.8,0.8-0.8,1.4v7.3
				h-20.3v-16.1c0-0.1,0-0.3,0-0.4c4.4-0.7,7.9-4.6,7.9-9.3c0-5.2-4.2-9.4-9.4-9.4c-5.2,0-9.4,4.2-9.4,9.4c0,4.7,3.4,8.5,7.9,9.3
				c0,0.1,0,0.2,0,0.4v16.1h-19.8v-10.1c0-0.9-0.7-1.6-1.6-1.6c-0.9,0-1.6,0.7-1.6,1.6v10.1h-23V282l19.8-18.8
				c0.3-0.3,0.5-0.7,0.5-1.2v-48.2c4.4-0.8,7.8-4.6,7.8-9.3c0-5.2-4.2-9.4-9.4-9.4c-5.2,0-9.4,4.2-9.4,9.4c0,4.6,3.4,8.5,7.8,9.3
				v47.5l-19.8,18.8c-0.3,0.3-0.5,0.7-0.5,1.2v13.3h-14.4V255l7.4-7.4c0.2,0,0.5,0.1,0.7,0.1c2.1,0,3.7-1.7,3.7-3.7
				c0-2.1-1.7-3.7-3.7-3.7s-3.7,1.7-3.7,3.7c0,0.6,0.2,1.2,0.4,1.7l-7.6,7.6c-0.3,0.3-0.5,0.7-0.5,1.1v40.3h-11.5v-188
				c4.6-0.7,8.1-4.6,8.1-9.3c0-5.2-4.2-9.4-9.4-9.4c-5.2,0-9.4,4.2-9.4,9.4c0,4.6,3.2,8.4,7.5,9.2v188.1h-19.5v-19.7
				c0-0.6-0.4-1.2-1-1.5l-15.9-6.7v-51c1.3-0.6,2.1-1.9,2.1-3.4c0-2.1-1.7-3.7-3.7-3.7c-2.1,0-3.7,1.7-3.7,3.7
				c0,1.5,0.9,2.8,2.1,3.4v49.6l-23.2-9.7v-81.3c4.4-0.8,7.8-4.6,7.8-9.3c0-5.2-4.2-9.4-9.4-9.4c-5.2,0-9.4,4.2-9.4,9.4
				c0,4.6,3.4,8.5,7.8,9.3v82.4c0,0.6,0.4,1.2,1,1.5l26.4,11.1c0,0,0,0,0,0l15.9,6.7v18.6H407c0,0-0.1,0-0.1,0c-0.1,0-0.1,0-0.2,0
				c-0.1,0-0.1,0-0.2,0c0,0-0.1,0-0.1,0c-0.1,0-0.1,0-0.1,0.1c0,0-0.1,0-0.1,0.1c-0.1,0-0.1,0.1-0.1,0.1c0,0-0.1,0-0.1,0.1
				c0,0,0,0,0,0c0,0-0.1,0.1-0.1,0.1c0,0-0.1,0.1-0.1,0.1c0,0-0.1,0.1-0.1,0.1c0,0,0,0.1-0.1,0.1c0,0,0,0.1-0.1,0.1c0,0,0,0.1,0,0.1
				c0,0,0,0.1,0,0.1c0,0.1,0,0.1,0,0.2c0,0,0,0,0,0v40h-24.9c-0.4-3.5-3.4-6.2-7-6.2c-3.9,0-7,3.1-7,7c0,3.9,3.1,7,7,7
				c3,0,5.6-1.9,6.6-4.6h25.3v55.3h-20.1l-4.9-4.7c-0.2-0.4-0.5-0.7-0.9-0.9L320,331.5v-19.3c0.1-0.2,0.1-0.4,0.1-0.7v-24.7
				c0.7-0.5,1.2-1.3,1.2-2.3c0-1.5-1.3-2.8-2.8-2.8c-1.5,0-2.8,1.3-2.8,2.8c0,1,0.5,1.8,1.2,2.3v14.9h-27.2
				c-0.7-1.7-2.4-2.9-4.3-2.9h-3.3v-6.5h3.3c2.6,0,4.7-2.1,4.7-4.7c0-2.6-2.1-4.7-4.7-4.7h-3.3v-0.9c0-3.4-2.8-6.1-6.1-6.1h-6.6
				v-3.3c0-2.6-2.1-4.7-4.7-4.7c-2.6,0-4.7,2.1-4.7,4.7v3.3h-7.5v-3.3c0-2.6-2.1-4.7-4.7-4.7c-2.6,0-4.7,2.1-4.7,4.7v3.3h-7.5v-3.3
				c0-2.6-2.1-4.7-4.7-4.7c-2.6,0-4.7,2.1-4.7,4.7v3.3h-7.5v-3.3c0-2.6-2.1-4.7-4.7-4.7c-2.6,0-4.7,2.1-4.7,4.7v3.3H202v-3.3
				c0-2.6-2.1-4.7-4.7-4.7c-2.6,0-4.7,2.1-4.7,4.7v3.3h-6.6c-3.4,0-6.1,2.8-6.1,6.1v0.9h-3.3c-2.6,0-4.7,2.1-4.7,4.7
				c0,2.6,2.1,4.7,4.7,4.7h3.3v6.5h-3.3c-2.6,0-4.7,2.1-4.7,4.7c0,2.6,2.1,4.7,4.7,4.7h3.3v6.5h-3.3c-2.6,0-4.7,2.1-4.7,4.7
				c0,2.6,2.1,4.7,4.7,4.7h3.3v0.3c0,3.4,2.8,6.1,6.1,6.1h6.6v3.3c0,2.6,2.1,4.7,4.7,4.7c2.6,0,4.7-2.1,4.7-4.7v-3.3h7.5v3.3
				c0,2.6,2.1,4.7,4.7,4.7c2.6,0,4.7-2.1,4.7-4.7v-3.3h7.5v3.3c0,2.6,2.1,4.7,4.7,4.7c2.6,0,4.7-2.1,4.7-4.7v-3.3h7.5v3.3
				c0,2.1,1.3,3.8,3.2,4.4v34.7c0,0.8,0.7,1.5,1.5,1.5h69.2c0.7,3.2,3.5,5.6,6.9,5.6c3.9,0,7-3.1,7-7c0-3.9-3.1-7-7-7
				c-3.4,0-6.2,2.4-6.9,5.6h-67.7v-33.2c1.9-0.6,3.2-2.4,3.2-4.4v-3.3h7.5v3.3c0,2.6,2.1,4.7,4.7,4.7c2.6,0,4.7-2.1,4.7-4.7v-3.3
				h6.6c3.4,0,6.1-2.8,6.1-6.1V324h3.3c2.6,0,4.7-2.1,4.7-4.7c0-2.6-2.1-4.7-4.7-4.7h-3.3v-6.5h3.3c2.2,0,4-1.5,4.5-3.5h27v6.8
				c0,0.2,0.1,0.5,0.1,0.7v19.9c0,0.4,0.2,0.8,0.4,1l57.7,55.8h-32c-0.5-0.7-1.3-1.2-2.3-1.2c-1.5,0-2.8,1.3-2.8,2.8
				c0,1.5,1.3,2.8,2.8,2.8c1,0,1.8-0.5,2.3-1.2h35.3l5.2,5.1c0.3,0.3,0.6,0.4,1,0.4h20.6v24.7H261.2c-0.7-3.1-3.5-5.4-6.8-5.4
				c-3.9,0-7,3.1-7,7s3.1,7,7,7c3.3,0,6.1-2.3,6.8-5.4h144.2v20.8h-47.9c-0.6,0-1.1,0.3-1.4,0.9l-15,28.5H313
				c-0.7-3.1-3.5-5.4-6.8-5.4c-3.9,0-7,3.1-7,7c0,3.9,3.1,7,7,7c3.3,0,6.1-2.3,6.8-5.4h29c0.6,0,1.1-0.3,1.4-0.9l15-28.5h46.9v35.3
				c0,0,0,0,0,0c0,0.1,0,0.1,0,0.2c0,0,0,0.1,0,0.1c0,0.1,0,0.1,0,0.1c0,0,0,0.1,0.1,0.1c0,0,0,0.1,0.1,0.1c0,0,0.1,0.1,0.1,0.1
				c0,0,0.1,0.1,0.1,0.1c0,0,0.1,0.1,0.1,0.1c0,0,0,0,0,0c0,0,0.1,0,0.1,0.1c0,0,0.1,0.1,0.1,0.1c0,0,0.1,0.1,0.1,0.1
				c0,0,0.1,0,0.1,0.1c0.1,0,0.1,0,0.2,0.1c0,0,0.1,0,0.1,0c0.1,0,0.2,0,0.3,0h0h17.5v38.8l-52.2,35.3c-0.4,0.3-0.7,0.8-0.7,1.3
				v76.3c-3.1,0.7-5.4,3.5-5.4,6.8c0,3.9,3.1,7,7,7s7-3.1,7-7c0-3.3-2.3-6.1-5.4-6.8v-75.4l52.2-35.3c0.4-0.3,0.7-0.8,0.7-1.3v-39.6
				h23.5v39.6v0v62.3h-28.8c-0.7-3.1-3.5-5.4-6.8-5.4c-3.9,0-7,3.1-7,7c0,3.9,3.1,7,7,7c3.3,0,6.1-2.3,6.8-5.4h30.4
				c0.9,0,1.6-0.7,1.6-1.6v-60l9.3,9.3V556c-0.7,0.5-1.2,1.3-1.2,2.3c0,1.5,1.3,2.8,2.8,2.8c1.5,0,2.8-1.3,2.8-2.8
				c0-1-0.5-1.8-1.2-2.3v-17.4c0-0.4-0.2-0.8-0.5-1.1l-12-12v-39h30.2v106.8c0,0.4,0.2,0.8,0.5,1.1l11.8,11.8V664
				c-4.4,0.8-7.8,4.6-7.8,9.3c0,5.2,4.2,9.4,9.4,9.4c5.2,0,9.4-4.2,9.4-9.4c0-4.6-3.4-8.5-7.8-9.3v-58.4c0-0.4-0.2-0.8-0.5-1.1
				l-11.8-11.8V486.5h30.4v27.4c-3.1,0.7-5.4,3.5-5.4,6.8c0,3.9,3.1,7,7,7c3.9,0,7-3.1,7-7c0-3.3-2.3-6.1-5.4-6.8v-27.4h40.1v24.7
				l-25.8,24c-0.3,0.3-0.5,0.7-0.5,1.2v62.2c-1,0.6-1.6,1.6-1.6,2.8c0,1.8,1.4,3.2,3.2,3.2c1.8,0,3.2-1.4,3.2-3.2
				c0-1.2-0.6-2.2-1.6-2.8V537l23.1-21.5v33.5c-4.4,0.8-7.8,4.6-7.8,9.3c0,5.2,4.2,9.4,9.4,9.4c5.2,0,9.4-4.2,9.4-9.4
				c0-4.6-3.4-8.5-7.8-9.3v-62.6h16.5h0c0.1,0,0.2,0,0.3,0c0,0,0.1,0,0.1,0c0.1,0,0.1,0,0.2-0.1c0,0,0.1,0,0.1-0.1
				c0,0,0.1,0,0.1-0.1c0,0,0.1-0.1,0.1-0.1c0,0,0.1,0,0.1-0.1c0,0,0,0,0,0c0,0,0.1-0.1,0.1-0.1c0,0,0.1-0.1,0.1-0.1
				c0,0,0.1-0.1,0.1-0.1c0,0,0.1-0.1,0.1-0.1c0,0,0-0.1,0-0.1c0-0.1,0-0.1,0-0.2c0,0,0-0.1,0-0.1c0-0.1,0-0.1,0-0.2c0,0,0,0,0,0V456
				h20.8v37.8c-3.1,0.7-5.4,3.5-5.4,6.8c0,3.9,3.1,7,7,7c3.9,0,7-3.1,7-7c0-3.3-2.3-6.1-5.4-6.8v-39.4c0-0.9-0.7-1.6-1.6-1.6h-22.4
				v-32.1h27.5l41.3,57.6c0.3,0.4,0.8,0.7,1.3,0.7h39v35.3h-6.7v-6.9c0-0.9-0.7-1.6-1.6-1.6s-1.6,0.7-1.6,1.6v6.9h-6.6v-6.9
				c0-0.9-0.7-1.6-1.6-1.6c-0.9,0-1.6,0.7-1.6,1.6v6.9h-8c-0.4,0-0.8,0.1-1,0.4l-9.6,8.3c-0.4,0.3-0.6,0.7-0.6,1.2v1.9h-6.4
				c-0.9,0-1.6,0.7-1.6,1.6s0.7,1.6,1.6,1.6h6.4v5.5h-22.4c-0.1,0-0.3,0-0.4,0.1c-0.5-1-1.6-1.7-2.8-1.7c-1.8,0-3.2,1.4-3.2,3.2
				s1.4,3.2,3.2,3.2c1.2,0,2.2-0.7,2.8-1.7c0.1,0,0.3,0.1,0.4,0.1h22.4v4.1h-6.4c-0.9,0-1.6,0.7-1.6,1.6c0,0.9,0.7,1.6,1.6,1.6h6.4
				v6.4h-6.4c-0.9,0-1.6,0.7-1.6,1.6s0.7,1.6,1.6,1.6h6.4v5.5h-6.4c-0.9,0-1.6,0.7-1.6,1.6s0.7,1.6,1.6,1.6h6.4v4.6H624
				c-0.5,0-1,0.3-1.3,0.7l-15.5,22.8h-31.6c-0.6-1-1.6-1.6-2.8-1.6c-1.8,0-3.2,1.4-3.2,3.2c0,1.8,1.4,3.2,3.2,3.2
				c1.2,0,2.2-0.6,2.8-1.6H608c0.5,0,1-0.3,1.3-0.7l15.5-22.8h28v5.5h-6.4c-0.9,0-1.6,0.7-1.6,1.6s0.7,1.6,1.6,1.6h6.4v4.8
				c0,0.5,0.2,0.9,0.6,1.2l9.6,8.3c0.3,0.3,0.7,0.4,1,0.4h8v6.4c0,0.9,0.7,1.6,1.6,1.6c0.9,0,1.6-0.7,1.6-1.6v-6.4h6.6v6.4
				c0,0.9,0.7,1.6,1.6,1.6s1.6-0.7,1.6-1.6v-6.4h6.7v44.2c-1,0.6-1.6,1.6-1.6,2.8c0,1.8,1.4,3.2,3.2,3.2c1.8,0,3.2-1.4,3.2-3.2
				c0-1.2-0.6-2.2-1.6-2.8v-44.2h5.9v6.4c0,0.9,0.7,1.6,1.6,1.6s1.6-0.7,1.6-1.6v-6.4h7.5v6.4c0,0.9,0.7,1.6,1.6,1.6
				s1.6-0.7,1.6-1.6v-6.4h7.2v6.4c0,0.9,0.7,1.6,1.6,1.6s1.6-0.7,1.6-1.6v-6.4h5.1v6.4c0,0.9,0.7,1.6,1.6,1.6s1.6-0.7,1.6-1.6v-6.4
				h6.1v70c0,0.1,0,0.3,0.1,0.4c-1,0.5-1.7,1.6-1.7,2.8c0,1.8,1.4,3.2,3.2,3.2c1.8,0,3.2-1.4,3.2-3.2c0-1.2-0.7-2.2-1.7-2.8
				c0-0.1,0.1-0.3,0.1-0.4v-70h7.5v6.4c0,0.9,0.7,1.6,1.6,1.6s1.6-0.7,1.6-1.6v-6.4h4.3v6.4c0,0.9,0.7,1.6,1.6,1.6
				c0.9,0,1.6-0.7,1.6-1.6v-6.4h5.3v6.4c0,0.9,0.7,1.6,1.6,1.6c0.9,0,1.6-0.7,1.6-1.6v-6.4h7.5v6.4c0,0.9,0.7,1.6,1.6,1.6
				s1.6-0.7,1.6-1.6v-6.4h7.2v6.4c0,0.9,0.7,1.6,1.6,1.6c0.9,0,1.6-0.7,1.6-1.6v-6.4h1.6c0.4,0,0.8-0.1,1-0.4l9.6-8.3
				c0.4-0.3,0.6-0.7,0.6-1.2v-4.8h7.6c0.9,0,1.6-0.7,1.6-1.6s-0.7-1.6-1.6-1.6h-7.6v-5.5h7.6c0.9,0,1.6-0.7,1.6-1.6
				s-0.7-1.6-1.6-1.6h-7.6v-4.6h7.6c0.9,0,1.6-0.7,1.6-1.6s-0.7-1.6-1.6-1.6h-7.6v-5.5h7.6c0.9,0,1.6-0.7,1.6-1.6s-0.7-1.6-1.6-1.6
				h-7.6v-4.3h23c0.9,0,1.6-0.7,1.6-1.6v-59.2h16.2c0.7,3.1,3.5,5.4,6.8,5.4c3.9,0,7-3.1,7-7C858.1,481,855,477.9,851.1,477.9
				 M689.7,413.6c0-2.1,1.7-3.8,3.8-3.8c2.1,0,3.8,1.7,3.8,3.8c0,2.1-1.7,3.8-3.8,3.8C691.4,417.4,689.7,415.7,689.7,413.6
				 M611.1,384.9c3.4,0,6.2,2.8,6.2,6.2c0,3.4-2.8,6.2-6.2,6.2c-3.4,0-6.2-2.8-6.2-6.2C604.9,387.7,607.7,384.9,611.1,384.9
				 M816.3,271h3.3c1,0,1.7,0.8,1.7,1.7c0,1-0.8,1.7-1.7,1.7h-3.3V271z M816.3,287.8h3.3c1,0,1.7,0.8,1.7,1.7c0,1-0.8,1.7-1.7,1.7
				h-3.3V287.8z M816.3,304.7h3.3c1,0,1.7,0.8,1.7,1.7c0,1-0.8,1.7-1.7,1.7h-3.3V304.7z M816.3,321.5h3.3c1,0,1.7,0.8,1.7,1.7
				c0,1-0.8,1.7-1.7,1.7h-3.3V321.5z M816.3,338.3h3.3c1,0,1.7,0.8,1.7,1.7s-0.8,1.7-1.7,1.7h-3.3V338.3z M768,200.2
				c3.4,0,6.2,2.8,6.2,6.2c0,3.4-2.8,6.2-6.2,6.2c-3.4,0-6.2-2.8-6.2-6.2C761.8,203,764.6,200.2,768,200.2 M499.3,204.6
				c0-3.4,2.8-6.2,6.2-6.2c3.4,0,6.2,2.8,6.2,6.2c0,3.4-2.8,6.2-6.2,6.2C502,210.8,499.3,208,499.3,204.6 M386.9,171.3
				C386.9,171.3,386.9,171.3,386.9,171.3c-3.4,0-6.2-2.8-6.2-6.2c0-3.4,2.8-6.2,6.2-6.2c3.4,0,6.2,2.8,6.2,6.2
				C393.1,168.5,390.3,171.3,386.9,171.3C386.9,171.3,386.9,171.3,386.9,171.3 M373.5,340.8c-2.1,0-3.8-1.7-3.8-3.8
				c0-2.1,1.7-3.8,3.8-3.8c2.1,0,3.8,1.7,3.8,3.8C377.4,339.1,375.6,340.8,373.5,340.8 M282.1,286h3.3c1,0,1.7,0.8,1.7,1.7
				s-0.8,1.7-1.7,1.7h-3.3V286z M180,321.1h-3.3c-1,0-1.7-0.8-1.7-1.7s0.8-1.7,1.7-1.7h3.3V321.1z M180,305.3h-3.3
				c-1,0-1.7-0.8-1.7-1.7c0-1,0.8-1.7,1.7-1.7h3.3V305.3z M180,289.5h-3.3c-1,0-1.7-0.8-1.7-1.7s0.8-1.7,1.7-1.7h3.3V289.5z
				 M323.9,369.1c2.1,0,3.8,1.7,3.8,3.8c0,2.1-1.7,3.8-3.8,3.8c-2.1,0-3.8-1.7-3.8-3.8C320.1,370.8,321.8,369.1,323.9,369.1
				 M262.9,272.7c0-1,0.8-1.7,1.7-1.7s1.7,0.8,1.7,1.7v3.3h-3.5V272.7z M246.1,272.7c0-1,0.8-1.7,1.7-1.7c1,0,1.7,0.8,1.7,1.7v3.3
				h-3.5V272.7z M229.3,272.7c0-1,0.8-1.7,1.7-1.7c1,0,1.7,0.8,1.7,1.7v3.3h-3.5V272.7z M212.5,272.7c0-1,0.8-1.7,1.7-1.7
				c1,0,1.7,0.8,1.7,1.7v3.3h-3.5V272.7z M195.6,272.7c0-1,0.8-1.7,1.7-1.7c1,0,1.7,0.8,1.7,1.7v3.3h-3.5V272.7z M199.1,333.8
				c0,1-0.8,1.7-1.7,1.7c-1,0-1.7-0.8-1.7-1.7v-3.3h3.5V333.8z M216,333.8c0,1-0.8,1.7-1.7,1.7c-1,0-1.7-0.8-1.7-1.7v-3.3h3.5V333.8
				z M232.8,333.8c0,1-0.8,1.7-1.7,1.7c-1,0-1.7-0.8-1.7-1.7v-3.3h3.5V333.8z M249.6,333.8c0,1-0.8,1.7-1.7,1.7
				c-1,0-1.7-0.8-1.7-1.7v-3.3h3.5V333.8z M266.4,333.8c0,1-0.8,1.7-1.7,1.7s-1.7-0.8-1.7-1.7v-3.3h3.5V333.8z M278.9,324.3
				c0,1.6-1.3,2.9-2.9,2.9h-89.8c-1.6,0-2.9-1.3-2.9-2.9v-42.2c0-1.6,1.3-2.9,2.9-2.9h89.8c1.6,0,2.9,1.3,2.9,2.9V324.3z
				 M285.4,317.6c1,0,1.7,0.8,1.7,1.7s-0.8,1.7-1.7,1.7h-3.3v-3.5H285.4z M285.4,305.3h-3.3v-3.5h3.3c1,0,1.7,0.8,1.7,1.7
				C287.1,304.5,286.4,305.3,285.4,305.3 M254.3,427.8c-2.1,0-3.8-1.7-3.8-3.8c0-2.1,1.7-3.8,3.8-3.8c2.1,0,3.8,1.7,3.8,3.8
				C258.2,426,256.4,427.8,254.3,427.8 M306.1,481.2c-2.1,0-3.8-1.7-3.8-3.8c0-2.1,1.7-3.8,3.8-3.8c2.1,0,3.8,1.7,3.8,3.8
				C310,479.5,308.3,481.2,306.1,481.2 M377.1,645.1c0,2.1-1.7,3.8-3.8,3.8s-3.8-1.7-3.8-3.8c0-2.1,1.7-3.8,3.8-3.8
				S377.1,643,377.1,645.1 M415.7,593.9c-2.1,0-3.8-1.7-3.8-3.8c0-2.1,1.7-3.8,3.8-3.8c2.1,0,3.8,1.7,3.8,3.8
				C419.5,592.2,417.8,593.9,415.7,593.9 M504.7,673.3c0,3.4-2.8,6.2-6.2,6.2c-3.4,0-6.2-2.8-6.2-6.2s2.8-6.2,6.2-6.2
				C501.9,667.1,504.7,669.8,504.7,673.3 M609,500.7c0,2.1-1.7,3.8-3.8,3.8c-2.1,0-3.8-1.7-3.8-3.8c0-2.1,1.7-3.8,3.8-3.8
				C607.3,496.9,609,498.6,609,500.7 M790.5,360.8c0,0.8-0.5,1.5-1.3,1.7c-0.1,0-0.3-0.1-0.5-0.1s-0.3,0-0.5,0.1
				c-0.7-0.2-1.3-0.9-1.3-1.7v-3.3h3.5V360.8z M806.3,360.8c0,1-0.8,1.7-1.7,1.7s-1.7-0.8-1.7-1.7v-3.3h3.5V360.8z M793.9,252.1
				c0-0.9,0.7-1.6,1.6-1.6c0.9,0,1.6,0.7,1.6,1.6v3.3h-3.2V252.1z M810.2,258.6c1.6,0,2.9,1.3,2.9,2.9v89.8c0,1.6-1.3,2.9-2.9,2.9
				H768c-1.6,0-2.9-1.3-2.9-2.9v-89.8c0-1.6,1.3-2.9,2.9-2.9H810.2z M774.7,357.4v3.3c0,1-0.8,1.7-1.7,1.7c-1,0-1.7-0.8-1.7-1.7
				v-3.3H774.7z M772.7,250.5c0.9,0,1.6,0.7,1.6,1.6v3.3h-3.2v-3.3C771.1,251.2,771.8,250.5,772.7,250.5 M645.9,178.8h71v71h-71
				V178.8z M528.1,268.9c0-3.4,2.8-6.2,6.2-6.2c3.4,0,6.2,2.8,6.2,6.2c0,3.4-2.8,6.2-6.2,6.2C530.9,275.1,528.1,272.3,528.1,268.9
				 M446.9,97.3c0-3.4,2.8-6.2,6.2-6.2c3.4,0,6.2,2.8,6.2,6.2s-2.8,6.2-6.2,6.2C449.7,103.5,446.9,100.8,446.9,97.3 M577.6,297.8
				l-25.2,27.3H435.9l-25.2-27.3H577.6z M551.5,452.8H436.8V328.3h114.7V452.8z M408.6,300.3l25,27v126.4l-25,27V300.3z
				 M523.7,520.7c0,2.1-1.7,3.8-3.8,3.8c-2.1,0-3.8-1.7-3.8-3.8c0-2.1,1.7-3.8,3.8-3.8C522,516.9,523.7,518.6,523.7,520.7
				 M569.3,558.3c0,3.4-2.8,6.2-6.2,6.2c-3.4,0-6.2-2.8-6.2-6.2c0-3.4,2.8-6.2,6.2-6.2C566.6,552.1,569.3,554.9,569.3,558.3
				 M410.6,483.3l25.2-27.3h116.5l25.2,27.3H410.6z M579.6,480.8l-25-27V327.4l25-27V480.8z M582.8,296.2c0-0.1,0-0.1,0-0.2
				c0,0,0-0.1,0-0.1c0,0,0-0.1,0-0.1c0-0.1,0-0.1-0.1-0.2c0,0,0-0.1-0.1-0.1c0,0-0.1-0.1-0.1-0.1c0,0-0.1-0.1-0.1-0.1
				c0,0-0.1-0.1-0.1-0.1c0,0,0,0,0,0c0,0-0.1,0-0.1-0.1c0,0-0.1-0.1-0.1-0.1c0,0-0.1-0.1-0.1-0.1c0,0-0.1,0-0.1-0.1
				c-0.1,0-0.1,0-0.2,0c0,0-0.1,0-0.1,0c-0.1,0-0.1,0-0.2,0c0,0-0.1,0-0.1,0h-21.8v-6.3l38.2-23.2c0.5-0.3,0.8-0.8,0.8-1.4v-44.3
				h44.3v8.1H632c-0.9,0-1.6,0.7-1.6,1.6c0,0.9,0.7,1.6,1.6,1.6h10.7v7.8H632c-0.9,0-1.6,0.7-1.6,1.6c0,0.9,0.7,1.6,1.6,1.6h10.7
				v9.7c0,0.9,0.7,1.6,1.6,1.6h6.1v10.9c0,0.9,0.7,1.6,1.6,1.6s1.6-0.7,1.6-1.6V253h7.8v10.9c0,0.9,0.7,1.6,1.6,1.6
				c0.9,0,1.6-0.7,1.6-1.6V253h7.8v24.1c-4.4,0.8-7.8,4.6-7.8,9.3c0,5.2,4.2,9.4,9.4,9.4c5.2,0,9.4-4.2,9.4-9.4
				c0-4.6-3.4-8.5-7.8-9.3V253h7.8v10.9c0,0.9,0.7,1.6,1.6,1.6s1.6-0.7,1.6-1.6V253h7.8v10.9c0,0.9,0.7,1.6,1.6,1.6s1.6-0.7,1.6-1.6
				V253h7.8v10.9c0,0.9,0.7,1.6,1.6,1.6c0.9,0,1.6-0.7,1.6-1.6V253h9.9c0.9,0,1.6-0.7,1.6-1.6v-9.7h10.7c0.9,0,1.6-0.7,1.6-1.6
				c0-0.9-0.7-1.6-1.6-1.6h-10.7v-7.8h50.9v16.6c0,0.1,0,0.2,0,0.2c-1.9,0.7-3.2,2.4-3.2,4.5v3.3c-3.3,0.1-6,2.8-6,6.1v6.6h-3.3
				c-2.6,0-4.7,2.1-4.7,4.7c0,2.6,2.1,4.7,4.7,4.7h3.3v7.5h-3.3c-2.1,0-3.8,1.3-4.4,3.2h-26.5c-0.5-1-1.6-1.7-2.8-1.7
				c-1.8,0-3.2,1.4-3.2,3.2c0,1.8,1.4,3.2,3.2,3.2c1.2,0,2.3-0.7,2.8-1.7h26.5c0.6,1.9,2.4,3.2,4.4,3.2h3.3v7.5h-3.3
				c-2.6,0-4.7,2.1-4.7,4.7c0,2.6,2.1,4.7,4.7,4.7h3.3v7.5h-3.3c-2.6,0-4.7,2.1-4.7,4.7c0,2.6,2.1,4.7,4.7,4.7h3.3v7.5h-3.3
				c-2.6,0-4.7,2.1-4.7,4.7s2.1,4.7,4.7,4.7h3.3v6.6c0,3.4,2.8,6.1,6.1,6.1h0.3v3.3c0,2.6,2.1,4.7,4.7,4.7c2.6,0,4.7-2.1,4.7-4.7
				v-3.3h6.5v3.3c0,2,1.3,3.7,3.1,4.4v6.2H652.8l-15.2-21c-0.3-0.4-0.8-0.7-1.3-0.7h-53.5v-21.6h15.9c0,0,0.1,0,0.1,0.1
				c0.3,0.2,0.5,0.2,0.8,0.2c0.3,0,0.6-0.1,0.9-0.3h101.8c0.8,4.4,4.6,7.8,9.3,7.8c5.2,0,9.4-4.2,9.4-9.4c0-5.2-4.2-9.4-9.4-9.4
				c-4.6,0-8.5,3.4-9.3,7.8h-99.7l9.5-16.1h24.5c0.6,1,1.6,1.6,2.8,1.6c1.8,0,3.2-1.4,3.2-3.2c0-1.8-1.4-3.2-3.2-3.2
				c-1.2,0-2.2,0.6-2.8,1.6h-25.4c-0.6,0-1.1,0.3-1.4,0.8l-10.9,18.5h-16L582.8,296.2C582.8,296.2,582.8,296.2,582.8,296.2
				 M674,280.2c3.4,0,6.2,2.8,6.2,6.2c0,3.4-2.8,6.2-6.2,6.2c-3.4,0-6.2-2.8-6.2-6.2C667.8,283,670.6,280.2,674,280.2 M761.8,271
				v3.5h-3.3c-1,0-1.7-0.8-1.7-1.7c0-1,0.8-1.7,1.7-1.7H761.8z M761.8,287.8v3.5h-3.3c-1,0-1.7-0.8-1.7-1.7c0-1,0.8-1.7,1.7-1.7
				H761.8z M761.8,304.7v3.5h-3.3c-1,0-1.7-0.8-1.7-1.7c0-1,0.8-1.7,1.7-1.7H761.8z M761.8,321.5v3.5h-3.3c-1,0-1.7-0.8-1.7-1.7
				c0-1,0.8-1.7,1.7-1.7H761.8z M761.8,338.3v3.5h-3.3c-1,0-1.7-0.8-1.7-1.7s0.8-1.7,1.7-1.7H761.8z M705.4,326.4
				c0-3.4,2.8-6.2,6.2-6.2c3.4,0,6.2,2.8,6.2,6.2c0,3.4-2.8,6.2-6.2,6.2C708.1,332.7,705.4,329.9,705.4,326.4 M756.4,444
				c0-2.1,1.7-3.8,3.8-3.8c2.1,0,3.8,1.7,3.8,3.8c0,2.1-1.7,3.8-3.8,3.8C758.1,447.8,756.4,446.1,756.4,444 M800.3,584.2l-8.6,7.4
				h-127l-8.6-7.4v-59.4l8.6-7.4h127l8.6,7.4V584.2z M851.1,488.7c-2.1,0-3.8-1.7-3.8-3.8c0-2.1,1.7-3.8,3.8-3.8
				c2.1,0,3.8,1.7,3.8,3.8C854.9,487,853.2,488.7,851.1,488.7"/>
			<path class="st15" d="M668.9,527.6c-1.8,0-3.2,1.4-3.2,3.2s1.4,3.2,3.2,3.2c1.8,0,3.2-1.4,3.2-3.2S670.7,527.6,668.9,527.6"/>
			<path class="st15" d="M668.9,575.1c-1.8,0-3.2,1.4-3.2,3.2c0,1.8,1.4,3.2,3.2,3.2c1.8,0,3.2-1.4,3.2-3.2
				C672.1,576.5,670.7,575.1,668.9,575.1"/>
			<path class="st15" d="M787.5,527.6c-1.8,0-3.2,1.4-3.2,3.2s1.4,3.2,3.2,3.2c1.8,0,3.2-1.4,3.2-3.2S789.2,527.6,787.5,527.6"/>
			<path class="st15" d="M787.5,575.1c-1.8,0-3.2,1.4-3.2,3.2c0,1.8,1.4,3.2,3.2,3.2c1.8,0,3.2-1.4,3.2-3.2
				C790.7,576.5,789.2,575.1,787.5,575.1"/>
			<path class="st15" d="M683.6,579.9h89.3v-50.7h-89.3V579.9z M686.8,532.4h82.9v44.3h-82.9V532.4z"/>
			<path class="st15" d="M763.2,569.7h-70.4c-0.9,0-1.6,0.7-1.6,1.6s0.7,1.6,1.6,1.6h70.4c0.9,0,1.6-0.7,1.6-1.6
				S764.1,569.7,763.2,569.7"/>
			<path class="st15" d="M194.8,317.8H190c-0.9,0-1.6,0.7-1.6,1.6c0,0.9,0.7,1.6,1.6,1.6h4.8c0.9,0,1.6-0.7,1.6-1.6
				C196.4,318.5,195.7,317.8,194.8,317.8"/>
			<path class="st15" d="M256.6,317.8h-10.3c-0.9,0-1.6,0.7-1.6,1.6c0,0.9,0.7,1.6,1.6,1.6h10.3c0.9,0,1.6-0.7,1.6-1.6
				C258.2,318.5,257.5,317.8,256.6,317.8"/>
			<path class="st15" d="M215.4,317.8h-10.3c-0.9,0-1.6,0.7-1.6,1.6c0,0.9,0.7,1.6,1.6,1.6h10.3c0.9,0,1.6-0.7,1.6-1.6
				C217,318.5,216.3,317.8,215.4,317.8"/>
			<path class="st15" d="M236,317.8h-10.3c-0.9,0-1.6,0.7-1.6,1.6c0,0.9,0.7,1.6,1.6,1.6H236c0.9,0,1.6-0.7,1.6-1.6
				C237.6,318.5,236.9,317.8,236,317.8"/>
			<path class="st15" d="M271.7,317.8h-4.8c-0.9,0-1.6,0.7-1.6,1.6c0,0.9,0.7,1.6,1.6,1.6h4.8c0.9,0,1.6-0.7,1.6-1.6
				C273.3,318.5,272.6,317.8,271.7,317.8"/>
			<path class="st15" d="M293.1,549.2c-0.3-0.3-0.7-0.4-1-0.4h-51.9c-0.4,0-0.8,0.1-1,0.4l-8.5,7.3c-0.4,0.3-0.6,0.7-0.6,1.2v53.8
				c0,0.5,0.2,0.9,0.6,1.2l8.5,7.3c0.3,0.3,0.7,0.4,1,0.4H292c0.4,0,0.8-0.1,1-0.4l8.5-7.3c0.4-0.3,0.6-0.7,0.6-1.2v-53.8
				c0-0.5-0.2-0.9-0.6-1.2L293.1,549.2z M298.9,610.8l-7.5,6.4h-50.7l-7.5-6.4v-52.3l7.5-6.4h50.7l7.5,6.4V610.8z"/>
			<path class="st15" d="M271.7,245.5h82.6v55.4c-0.7,0.5-1.2,1.3-1.2,2.3c0,1.5,1.3,2.8,2.8,2.8c1.5,0,2.8-1.3,2.8-2.8
				c0-1-0.5-1.8-1.2-2.3v-57c0-0.9-0.7-1.6-1.6-1.6h-84.2c-0.9,0-1.6,0.7-1.6,1.6C270.1,244.8,270.8,245.5,271.7,245.5"/>
			<path class="st15" d="M209.4,420.5l25.5-25.5h52.2c0,0,0,0,0.1,0c0.7,3.1,3.5,5.4,6.8,5.4c3.9,0,7-3.1,7-7c0-3.9-3.1-7-7-7
				c-3.3,0-6.1,2.3-6.8,5.4c0,0,0,0-0.1,0h-52.9c-0.4,0-0.8,0.2-1.1,0.5l-25.5,25.5h-30c-0.9,0-1.6,0.7-1.6,1.6
				c0,0.9,0.7,1.6,1.6,1.6h30.7C208.7,421,209.1,420.8,209.4,420.5 M294,389.6c2.1,0,3.8,1.7,3.8,3.8c0,2.1-1.7,3.8-3.8,3.8
				s-3.8-1.7-3.8-3.8C290.2,391.3,291.9,389.6,294,389.6"/>
		</g>
	</g>
</g>
</svg>
