<?xml version="1.0" encoding="utf-8"?>
<!-- Generator: Adobe Illustrator 19.0.0, SVG Export Plug-In . SVG Version: 6.00 Build 0)  -->
<svg version="1.1" id="Layer_1" xmlns="http://www.w3.org/2000/svg" xmlns:xlink="http://www.w3.org/1999/xlink" x="0px" y="0px"
	 viewBox="1 27.6 1025 715.4" style="enable-background:new 1 27.6 1025 715.4;" xml:space="preserve">
<style type="text/css">
	.st0{clip-path:url(#SVGID_2_);}
	.st1{clip-path:url(#SVGID_4_);fill:#BFB0AA;}
	.st2{clip-path:url(#SVGID_4_);}
	.st3{opacity:0.2;clip-path:url(#SVGID_6_);}
	.st4{clip-path:url(#SVGID_8_);fill:#99846D;}
	.st5{clip-path:url(#SVGID_6_);fill:#EDC68E;}
	.st6{clip-path:url(#SVGID_6_);fill:#DBB37D;}
	.st7{clip-path:url(#SVGID_6_);fill:#F2DABD;}
	.st8{clip-path:url(#SVGID_6_);fill:#C03C4F;}
	.st9{clip-path:url(#SVGID_6_);fill:#AB334B;}
	.st10{clip-path:url(#SVGID_6_);fill:#222426;}
	.st11{clip-path:url(#SVGID_10_);fill:#99846D;}
	.st12{clip-path:url(#SVGID_6_);fill:#BABEC1;}
	.st13{clip-path:url(#SVGID_6_);fill:#D1D3D4;}
	.st14{clip-path:url(#SVGID_6_);fill:#DCDBDB;}
	.st15{clip-path:url(#SVGID_12_);fill:url(#SVGID_13_);}
	.st16{clip-path:url(#SVGID_15_);fill:url(#SVGID_16_);}
	.st17{clip-path:url(#SVGID_18_);fill:url(#SVGID_19_);}
	.st18{clip-path:url(#SVGID_21_);fill:url(#SVGID_22_);}
	.st19{clip-path:url(#SVGID_24_);fill:url(#SVGID_25_);}
	.st20{clip-path:url(#SVGID_27_);fill:url(#SVGID_28_);}
	.st21{clip-path:url(#SVGID_30_);fill:url(#SVGID_31_);}
	.st22{clip-path:url(#SVGID_33_);fill:url(#SVGID_34_);}
	.st23{clip-path:url(#SVGID_36_);fill:url(#SVGID_37_);}
	.st24{clip-path:url(#SVGID_39_);fill:url(#SVGID_40_);}
	.st25{clip-path:url(#SVGID_42_);fill:url(#SVGID_43_);}
	.st26{clip-path:url(#SVGID_45_);fill:#F1F2F2;}
	.st27{clip-path:url(#SVGID_45_);fill:#D1D3D4;}
	.st28{clip-path:url(#SVGID_45_);fill:#58595B;}
	.st29{opacity:0.7;clip-path:url(#SVGID_45_);}
	.st30{clip-path:url(#SVGID_47_);fill:#BFB19D;}
	.st31{clip-path:url(#SVGID_49_);fill:#BFB19D;}
	.st32{clip-path:url(#SVGID_51_);fill:#BFB19D;}
	.st33{clip-path:url(#SVGID_45_);fill:#FFFFFF;}
	.st34{clip-path:url(#SVGID_53_);fill:#BFB19D;}
	.st35{clip-path:url(#SVGID_55_);fill:#BFB19D;}
	.st36{clip-path:url(#SVGID_45_);fill:#F15951;}
	.st37{opacity:0.2;clip-path:url(#SVGID_45_);}
	.st38{clip-path:url(#SVGID_57_);fill:#595A5A;}
	.st39{clip-path:url(#SVGID_45_);fill:#F2E74F;}
	.st40{clip-path:url(#SVGID_45_);fill:#E6A231;}
	.st41{clip-path:url(#SVGID_45_);fill:#F4F3B4;}
	.st42{clip-path:url(#SVGID_45_);fill:#939598;}
	.st43{clip-path:url(#SVGID_59_);fill:#939598;}
	.st44{clip-path:url(#SVGID_61_);fill:#939598;}
	.st45{clip-path:url(#SVGID_45_);fill:#D8B18B;}
	.st46{clip-path:url(#SVGID_45_);fill:#F4CB95;}
	.st47{clip-path:url(#SVGID_45_);fill:#F1B748;}
	.st48{clip-path:url(#SVGID_45_);fill:#D76729;}
	.st49{clip-path:url(#SVGID_63_);fill:url(#SVGID_64_);}
	.st50{clip-path:url(#SVGID_66_);fill:#F2874A;}
	.st51{clip-path:url(#SVGID_66_);fill:#1F1D1E;}
	.st52{clip-path:url(#SVGID_66_);fill:#D76729;}
	.st53{clip-path:url(#SVGID_66_);fill:#E19C34;}
	.st54{clip-path:url(#SVGID_66_);fill:#F4CB95;}
	.st55{clip-path:url(#SVGID_66_);fill:#E3E3E3;}
	.st56{clip-path:url(#SVGID_66_);fill:#2B3236;}
	.st57{clip-path:url(#SVGID_66_);fill:#F1F0F2;}
</style>
<g>
	<g>
		<defs>
			<rect id="SVGID_1_" x="1" y="27.6" width="1025" height="717.5"/>
		</defs>
		<clipPath id="SVGID_2_">
			<use xlink:href="#SVGID_1_"  style="overflow:visible;"/>
		</clipPath>
		<g class="st0">
			<defs>
				<rect id="SVGID_3_" x="1" y="27.6" width="1025" height="717.5"/>
			</defs>
			<clipPath id="SVGID_4_">
				<use xlink:href="#SVGID_3_"  style="overflow:visible;"/>
			</clipPath>
			<rect x="1" y="27.6" class="st1" width="1025" height="717.5"/>
			<g class="st2">
				<defs>
					<rect id="SVGID_5_" x="1" y="27.6" width="1025" height="717.5"/>
				</defs>
				<clipPath id="SVGID_6_">
					<use xlink:href="#SVGID_5_"  style="overflow:visible;"/>
				</clipPath>
				<g class="st3">
					<g>
						<defs>
							<rect id="SVGID_7_" x="68.9" y="96.4" width="672.6" height="574.1"/>
						</defs>
						<clipPath id="SVGID_8_">
							<use xlink:href="#SVGID_7_"  style="overflow:visible;"/>
						</clipPath>
						<path class="st4" d="M427.9,645.6l313.6-37.7l-53.9-448L595.4,171l-191.6-14.3l-1.3-3c1.1-1.9,1.3-4.4,0.4-6.5L382,100.7
							c-1.6-3.6-5.8-5.2-9.4-3.6L73.1,231.7c-3.6,1.6-5.2,5.8-3.6,9.4l20.7,46.6c1,2.3,3.2,3.8,5.6,4.1L265.4,669
							c0.6,1.3,2.2,1.9,3.5,1.3l135.9-61.1l18.9,1.4L427.9,645.6z"/>
					</g>
				</g>
				<path class="st5" d="M395.6,151.2l-85.7,83.1c-26.6,25.8-61.5,41.5-98.5,44.4l-119.8,9.2c-0.5,0-1,0-1.5-0.1l169.5,377.2
					c0.6,1.3,2.2,1.9,3.5,1.3l301.8-135.7c1.3-0.6,1.9-2.2,1.3-3.5L396.8,149.7C396.5,150.2,396.1,150.8,395.6,151.2"/>
				<path class="st6" d="M373.1,97c-1.3-0.2-2.8-0.1-4.1,0.5L69.5,232.2c-1.3,0.6-2.4,1.6-3.1,2.7l25.8,57.4c0.5,0.1,1,0.1,1.5,0.1
					l119.8-9.2c37-2.8,71.8-18.5,98.5-44.4l85.7-83.1c0.5-0.5,0.9-1,1.2-1.5L373.1,97z"/>
				<path class="st5" d="M397.1,143.2l-20.7-46.6c-1.6-3.6-5.8-5.2-9.4-3.6L67.5,227.6c-3.6,1.6-5.2,5.8-3.6,9.4l20.7,46.6
					c1.2,2.8,4.1,4.4,7.1,4.2l119.8-9.2c37-2.8,71.8-18.5,98.5-44.4l85.7-83.1C397.7,149.1,398.4,145.9,397.1,143.2"/>
				
					<rect x="259.1" y="220.6" transform="matrix(0.9107 -0.4131 0.4131 0.9107 -87.2993 131.1604)" class="st7" width="1.1" height="93.7"/>
				
					<rect x="267.6" y="216.7" transform="matrix(0.9107 -0.4131 0.4131 0.9107 -84.9343 134.3443)" class="st7" width="1.1" height="93.7"/>
				<path class="st8" d="M263.8,214.1c4.8,10.6,0.1,23.1-10.5,28c-10.6,4.8-23.1,0.1-28-10.5c-4.8-10.6-0.1-23.1,10.5-28
					C246.5,198.8,259,203.5,263.8,214.1"/>
				<path class="st9" d="M261.5,215.2c4.3,9.4,0.1,20.4-9.3,24.7c-9.4,4.3-20.4,0.1-24.7-9.3c-4.3-9.4-0.1-20.4,9.3-24.7
					C246.2,201.6,257.3,205.8,261.5,215.2"/>
				<path class="st7" d="M249.3,220.7c1.2,2.6,0,5.7-2.6,6.9c-2.6,1.2-5.7,0-6.9-2.6c-1.2-2.6,0-5.7,2.6-6.9
					C245,216.9,248.1,218.1,249.3,220.7"/>
				<path class="st10" d="M248.3,221.2c0.9,2.1,0,4.5-2.1,5.5c-2.1,0.9-4.5,0-5.5-2.1c-0.9-2.1,0-4.5,2.1-5.5
					C244.9,218.1,247.4,219.1,248.3,221.2"/>
				<g class="st3">
					<g>
						<defs>
							<rect id="SVGID_9_" x="793.8" y="195.3" width="195.4" height="195.4"/>
						</defs>
						<clipPath id="SVGID_10_">
							<use xlink:href="#SVGID_9_"  style="overflow:visible;"/>
						</clipPath>
						<path class="st11" d="M987.8,276.5c9.1,53.2-26.6,103.7-79.8,112.8s-103.7-26.6-112.8-79.8c-9.1-53.2,26.6-103.7,79.8-112.8
							C928.2,187.6,978.7,223.3,987.8,276.5"/>
					</g>
				</g>
				<path class="st12" d="M987.7,267.9c9.1,53.2-26.6,103.7-79.8,112.8c-53.2,9.1-103.7-26.6-112.8-79.8
					c-9.1-53.2,26.6-103.7,79.8-112.8C928.1,179,978.6,214.7,987.7,267.9"/>
				<path class="st13" d="M978.6,269.5c8.3,48.1-24.1,93.8-72.2,102.1c-48.1,8.3-93.8-24.1-102.1-72.2
					c-8.3-48.1,24.1-93.8,72.2-102.1C924.6,189,970.3,221.3,978.6,269.5"/>
				<path class="st14" d="M904.4,360.5c-44.1,7.6-86.1-21.2-95.4-64.6c0.1,1.1,0.3,2.3,0.5,3.4c7.8,45.3,50.8,75.7,96.1,67.9
					c45.3-7.8,75.7-50.8,67.9-96.1c-0.2-1.1-0.4-2.3-0.7-3.4C978.6,311.8,948.6,352.9,904.4,360.5"/>
			</g>
			<g class="st2">
				<defs>
					<path id="SVGID_11_" d="M906.7,229.7L906.7,229.7c30.9,6,51.2,35.8,45.7,66.7c0.1-0.3,0.1-0.7,0.2-1
						c6.2-31.7-13.9-62.4-45.2-69.6L906.7,229.7z"/>
				</defs>
				<clipPath id="SVGID_12_">
					<use xlink:href="#SVGID_11_"  style="overflow:visible;"/>
				</clipPath>
				
					<linearGradient id="SVGID_13_" gradientUnits="userSpaceOnUse" x1="-0.3286" y1="741.7782" x2="0.4035" y2="741.7782" gradientTransform="matrix(193.1854 37.7675 37.7675 -193.1854 -27122.5137 143554)">
					<stop  offset="0" style="stop-color:#A7A9AC"/>
					<stop  offset="2.965399e-002" style="stop-color:#ACAEB1"/>
					<stop  offset="0.1582" style="stop-color:#BCBEC0"/>
					<stop  offset="0.3016" style="stop-color:#C6C7C9"/>
					<stop  offset="0.4888" style="stop-color:#C9CACC"/>
					<stop  offset="0.8212" style="stop-color:#CCCDCF"/>
					<stop  offset="1" style="stop-color:#D1D3D4"/>
				</linearGradient>
				<polygon class="st15" points="908.6,216 972.1,228.4 956.9,306.2 893.4,293.8 				"/>
			</g>
			<g class="st2">
				<defs>
					<path id="SVGID_14_" d="M906.7,229.7L906.7,229.7c30.9,6,51.2,35.8,45.7,66.7c0.1-0.3,0.1-0.7,0.2-1
						c6.2-31.7-13.9-62.4-45.2-69.6L906.7,229.7z"/>
				</defs>
				<clipPath id="SVGID_15_">
					<use xlink:href="#SVGID_14_"  style="overflow:visible;"/>
				</clipPath>
				
					<linearGradient id="SVGID_16_" gradientUnits="userSpaceOnUse" x1="-0.4738" y1="741.657" x2="0.2584" y2="741.657" gradientTransform="matrix(175.7445 34.3578 34.3578 -175.7445 -24562.9629 130600.5078)">
					<stop  offset="0" style="stop-color:#C4C6C8"/>
					<stop  offset="5.618000e-003" style="stop-color:#C4C6C8"/>
					<stop  offset="0.3596" style="stop-color:#939598"/>
					<stop  offset="0.5867" style="stop-color:#A2A4A7"/>
					<stop  offset="0.6517" style="stop-color:#A7A9AC"/>
					<stop  offset="0.8652" style="stop-color:#A9ABAE"/>
					<stop  offset="1" style="stop-color:#A7A9AC"/>
					<stop  offset="1" style="stop-color:#D1D3D4"/>
				</linearGradient>
				<polygon class="st16" points="908.6,216 972.1,228.4 956.9,306.2 893.4,293.8 				"/>
			</g>
			<g class="st2">
				<defs>
					<path id="SVGID_17_" d="M906.7,229.7L906.7,229.7c30.9,6,51.2,35.8,45.7,66.7c0.1-0.3,0.1-0.7,0.2-1
						c6.2-31.7-13.9-62.4-45.2-69.6L906.7,229.7z"/>
				</defs>
				<clipPath id="SVGID_18_">
					<use xlink:href="#SVGID_17_"  style="overflow:visible;"/>
				</clipPath>
				
					<linearGradient id="SVGID_19_" gradientUnits="userSpaceOnUse" x1="-0.7354" y1="741.5247" x2="-3.248153e-003" y2="741.5247" gradientTransform="matrix(159.9813 31.2761 31.2761 -159.9813 -22188 118905.1484)">
					<stop  offset="0" style="stop-color:#6D5840"/>
					<stop  offset="0.5" style="stop-color:#483318"/>
					<stop  offset="1" style="stop-color:#282913"/>
				</linearGradient>
				<polygon class="st17" points="908.6,216 972.1,228.4 956.9,306.2 893.4,293.8 				"/>
			</g>
			<g class="st2">
				<defs>
					<path id="SVGID_20_" d="M835.5,272.5c-6.3,32.3,14.8,63.7,47.1,70c0.3,0.1,0.7,0.1,1,0.2c-30.7-6.5-50.6-36.5-44.6-67.5
						c6.1-31.3,36.4-51.6,67.7-45.5l0.8-3.9c-0.6-0.1-1.3-0.3-2-0.4c-3.9-0.8-7.7-1.1-11.5-1.1C866,224.3,841.1,244.1,835.5,272.5"
						/>
				</defs>
				<clipPath id="SVGID_21_">
					<use xlink:href="#SVGID_20_"  style="overflow:visible;"/>
				</clipPath>
				
					<linearGradient id="SVGID_22_" gradientUnits="userSpaceOnUse" x1="-1.6289" y1="740.6448" x2="-0.8967" y2="740.6448" gradientTransform="matrix(98.5311 20.033 20.033 -98.5311 -13842.082 73285.5313)">
					<stop  offset="0" style="stop-color:#A7A9AC"/>
					<stop  offset="2.965399e-002" style="stop-color:#ACAEB1"/>
					<stop  offset="0.1582" style="stop-color:#BCBEC0"/>
					<stop  offset="0.3016" style="stop-color:#C6C7C9"/>
					<stop  offset="0.4888" style="stop-color:#C9CACC"/>
					<stop  offset="0.8212" style="stop-color:#CCCDCF"/>
					<stop  offset="1" style="stop-color:#D1D3D4"/>
				</linearGradient>
				<polygon class="st18" points="832.3,208.4 930.7,228.4 904.4,358 805.9,338 				"/>
			</g>
			<g class="st2">
				<defs>
					<path id="SVGID_23_" d="M835.5,272.5c-6.3,32.3,14.8,63.7,47.1,70c0.3,0.1,0.7,0.1,1,0.2c-30.7-6.5-50.6-36.5-44.6-67.5
						c6.1-31.3,36.4-51.6,67.7-45.5l0.8-3.9c-0.6-0.1-1.3-0.3-2-0.4c-3.9-0.8-7.7-1.1-11.5-1.1C866,224.3,841.1,244.1,835.5,272.5"
						/>
				</defs>
				<clipPath id="SVGID_24_">
					<use xlink:href="#SVGID_23_"  style="overflow:visible;"/>
				</clipPath>
				
					<linearGradient id="SVGID_25_" gradientUnits="userSpaceOnUse" x1="-0.3286" y1="741.8089" x2="0.4035" y2="741.8089" gradientTransform="matrix(193.185 37.7674 37.7674 -193.185 -27130.1387 143593)">
					<stop  offset="0" style="stop-color:#A7A9AC"/>
					<stop  offset="2.965399e-002" style="stop-color:#ACAEB1"/>
					<stop  offset="0.1582" style="stop-color:#BCBEC0"/>
					<stop  offset="0.3016" style="stop-color:#C6C7C9"/>
					<stop  offset="0.4888" style="stop-color:#C9CACC"/>
					<stop  offset="0.8212" style="stop-color:#CCCDCF"/>
					<stop  offset="1" style="stop-color:#D1D3D4"/>
				</linearGradient>
				<polygon class="st19" points="832.1,208.9 929.9,228 904.6,357.5 806.8,338.4 				"/>
			</g>
			<g class="st2">
				<defs>
					<path id="SVGID_26_" d="M835.5,272.5c-6.3,32.3,14.8,63.7,47.1,70c0.3,0.1,0.7,0.1,1,0.2c-30.7-6.5-50.6-36.5-44.6-67.5
						c6.1-31.3,36.4-51.6,67.7-45.5l0.8-3.9c-0.6-0.1-1.3-0.3-2-0.4c-3.9-0.8-7.7-1.1-11.5-1.1C866,224.3,841.1,244.1,835.5,272.5"
						/>
				</defs>
				<clipPath id="SVGID_27_">
					<use xlink:href="#SVGID_26_"  style="overflow:visible;"/>
				</clipPath>
				
					<linearGradient id="SVGID_28_" gradientUnits="userSpaceOnUse" x1="1.3746" y1="745.8151" x2="2.1067" y2="745.8151" gradientTransform="matrix(-76.2769 -109.5796 -109.5796 76.2769 82713.5625 -56434.1406)">
					<stop  offset="0" style="stop-color:#6D5840"/>
					<stop  offset="0.5" style="stop-color:#483318"/>
					<stop  offset="1" style="stop-color:#282913"/>
				</linearGradient>
				<polygon class="st20" points="854.7,379.4 773.3,262.5 881.9,186.9 963.3,303.9 				"/>
			</g>
			<g class="st2">
				<defs>
					<path id="SVGID_29_" d="M884.6,342.9c31.3,5.1,61.2-15.3,67.8-46.5c5.5-30.9-14.8-60.6-45.7-66.7l0,0L884.6,342.9z"/>
				</defs>
				<clipPath id="SVGID_30_">
					<use xlink:href="#SVGID_29_"  style="overflow:visible;"/>
				</clipPath>
				
					<linearGradient id="SVGID_31_" gradientUnits="userSpaceOnUse" x1="-0.3287" y1="741.846" x2="0.4035" y2="741.846" gradientTransform="matrix(193.1846 37.7673 37.7673 -193.1846 -27130.5977 143595.3594)">
					<stop  offset="0" style="stop-color:#A7A9AC"/>
					<stop  offset="2.965399e-002" style="stop-color:#ACAEB1"/>
					<stop  offset="0.1582" style="stop-color:#BCBEC0"/>
					<stop  offset="0.3016" style="stop-color:#C6C7C9"/>
					<stop  offset="0.4888" style="stop-color:#C9CACC"/>
					<stop  offset="0.8212" style="stop-color:#CCCDCF"/>
					<stop  offset="1" style="stop-color:#D1D3D4"/>
				</linearGradient>
				<polygon class="st21" points="887.3,215.9 980.2,234.1 955.2,361.8 862.3,343.6 				"/>
			</g>
			<g class="st2">
				<defs>
					<path id="SVGID_32_" d="M884.6,342.9c31.3,5.1,61.2-15.3,67.8-46.5c5.5-30.9-14.8-60.6-45.7-66.7l0,0L884.6,342.9z"/>
				</defs>
				<clipPath id="SVGID_33_">
					<use xlink:href="#SVGID_32_"  style="overflow:visible;"/>
				</clipPath>
				
					<linearGradient id="SVGID_34_" gradientUnits="userSpaceOnUse" x1="-0.4738" y1="741.7314" x2="0.2583" y2="741.7314" gradientTransform="matrix(175.7437 34.3577 34.3577 -175.7437 -24571.0527 130641.9063)">
					<stop  offset="0" style="stop-color:#C4C6C8"/>
					<stop  offset="5.618000e-003" style="stop-color:#C4C6C8"/>
					<stop  offset="0.3596" style="stop-color:#939598"/>
					<stop  offset="0.5867" style="stop-color:#A2A4A7"/>
					<stop  offset="0.6517" style="stop-color:#A7A9AC"/>
					<stop  offset="0.8652" style="stop-color:#A9ABAE"/>
					<stop  offset="1" style="stop-color:#A7A9AC"/>
					<stop  offset="1" style="stop-color:#D1D3D4"/>
				</linearGradient>
				<polygon class="st22" points="887.3,215.9 980.2,234.1 955.2,361.8 862.3,343.6 				"/>
			</g>
			<g class="st2">
				<defs>
					<path id="SVGID_35_" d="M884.6,342.9c31.3,5.1,61.2-15.3,67.8-46.5c5.5-30.9-14.8-60.6-45.7-66.7l0,0L884.6,342.9z"/>
				</defs>
				<clipPath id="SVGID_36_">
					<use xlink:href="#SVGID_35_"  style="overflow:visible;"/>
				</clipPath>
				
					<linearGradient id="SVGID_37_" gradientUnits="userSpaceOnUse" x1="-0.6322" y1="741.6064" x2="9.992785e-002" y2="741.6064" gradientTransform="matrix(159.9802 31.2759 31.2759 -159.9802 -22257.6738 118934.25)">
					<stop  offset="0" style="stop-color:#9A8B7E"/>
					<stop  offset="1" style="stop-color:#3F3120"/>
				</linearGradient>
				<polygon class="st23" points="887.3,215.9 980.2,234.1 955.2,361.8 862.3,343.6 				"/>
			</g>
			<g class="st2">
				<defs>
					<path id="SVGID_38_" d="M835.5,272.5c-6.3,32.3,14.8,63.7,47.1,70c0.3,0.1,0.7,0.1,1,0.2c0.3,0.1,0.7,0.1,1,0.2
						c31.3,5.1,61.2-15.3,67.8-46.5c0.1-0.3,0.1-0.7,0.2-1c6.2-31.7-13.9-62.4-45.2-69.6c-0.6-0.1-1.3-0.3-2-0.4
						c-3.9-0.8-7.7-1.1-11.5-1.1C866,224.3,841.1,244.1,835.5,272.5"/>
				</defs>
				<clipPath id="SVGID_39_">
					<use xlink:href="#SVGID_38_"  style="overflow:visible;"/>
				</clipPath>
				
					<linearGradient id="SVGID_40_" gradientUnits="userSpaceOnUse" x1="1.7451" y1="743.8678" x2="2.4772" y2="743.8678" gradientTransform="matrix(-307.0852 -139.8625 -139.8625 307.0852 105530.1953 -227872.7656)">
					<stop  offset="0" style="stop-color:#6D5840"/>
					<stop  offset="0.5" style="stop-color:#483318"/>
					<stop  offset="1" style="stop-color:#282913"/>
				</linearGradient>
				<polygon class="st24" points="936.6,396.9 782.6,326.7 851.5,175.4 1005.5,245.6 				"/>
			</g>
			<g class="st2">
				<defs>
					<path id="SVGID_41_" d="M835.5,272.5c-6.3,32.3,14.8,63.7,47.1,70c0.3,0.1,0.7,0.1,1,0.2c0.3,0.1,0.7,0.1,1,0.2
						c31.3,5.1,61.2-15.3,67.8-46.5c0.1-0.3,0.1-0.7,0.2-1c6.2-31.7-13.9-62.4-45.2-69.6c-0.6-0.1-1.3-0.3-2-0.4
						c-3.9-0.8-7.7-1.1-11.5-1.1C866,224.3,841.1,244.1,835.5,272.5"/>
				</defs>
				<clipPath id="SVGID_42_">
					<use xlink:href="#SVGID_41_"  style="overflow:visible;"/>
				</clipPath>
				
					<linearGradient id="SVGID_43_" gradientUnits="userSpaceOnUse" x1="0.9961" y1="740.8978" x2="1.7283" y2="740.8978" gradientTransform="matrix(90.8794 150.2459 150.2459 -90.8794 -110545.8516 67415.1719)">
					<stop  offset="0" style="stop-color:#6D5840"/>
					<stop  offset="0.5" style="stop-color:#483318"/>
					<stop  offset="1" style="stop-color:#282913"/>
				</linearGradient>
				<polygon class="st25" points="924.1,166.9 1013.6,314.8 863.9,405.4 774.4,257.4 				"/>
			</g>
			<g class="st2">
				<defs>
					<rect id="SVGID_44_" x="1" y="27.6" width="1025" height="717.5"/>
				</defs>
				<clipPath id="SVGID_45_">
					<use xlink:href="#SVGID_44_"  style="overflow:visible;"/>
				</clipPath>
				<path class="st26" d="M987.3,291.7l-19.6-4.1c0.2-16.6-5.4-33-15.8-46.3c-1.5-1.9-3.1-3.7-4.8-5.5
					c-13.5-14.4-33.6-23.6-53.3-24.3c-2.4-0.1-4.8-0.1-7.3,0c-26.4,1.4-50.8,16.5-62.2,41.4c-14.8,32.4-2.5,70.6,27.3,90.6
					c6.4,4.4,13.6,7.9,21.5,10.1c35.3,10.5,73.3-5.2,88.3-38.3c0.9-1.9,1.6-3.8,2.3-5.8l19.3,4c6,1.2,11.9-2.8,13.1-8.8
					C997.3,298.8,993.4,292.8,987.3,291.7"/>
				<path class="st27" d="M954.3,312.1c10.2-22.4,6-47.7-8.6-66.4c-1.3-1.7-2.7-3.3-4.3-4.9c-12.1-12.9-30.1-21.1-47.8-21.8
					c-2.2-0.1-4.3-0.1-6.5,0c-23.7,1.2-45.6,14.8-55.7,37.1c-14.8,32.5,0.7,71.4,34.6,86.9C900,358.5,939.5,344.7,954.3,312.1"/>
				<path class="st28" d="M947.2,308.9c2.2-4.9,3.7-10,4.4-15.1c0.1-0.9,0.2-1.7,0.3-2.6c0.2-4,1.6-7,0-10.2
					c-0.1-0.8-0.2-1.7-0.3-2.5c-0.9-6.7-3.1-13.3-6.3-19.4c-1-1.9-2.1-3.7-3.3-5.5c-3.3-4.2-7.1-8.2-11.4-11.6
					c-0.7-0.6-1.4-1.1-2.2-1.7c-1.9-1.1-3.6-2.6-5.5-4c-0.6-0.5-1.3-0.9-1.9-1.3c-5.8-1.2-10.2-5.6-16-6.3c-0.8-0.2-1.6-0.4-2.4-0.6
					c-4-0.9-8.2-1.4-12.3-1.5c-2.2,0-4.4,0.2-6.5,0.4c-6.6,0.8-13,2.7-18.8,5.5c-0.7,0.3-1.3,0.6-1.9,1c-5.8,4.3-12.8,8.5-16.3,15.3
					c-0.5,0.6-1,1.3-1.5,2c-1,1.3-2,2.7-3.1,4c-0.4,0.6-0.8,1.2-1.2,1.8c-1.2,1.8-2.3,3.6-3.4,5.4c-0.3,0.9-0.7,1.7-1,2.6
					c-9.4,27.6,4.4,58.8,32.6,71.7c3.5,1.6,7.1,2.9,10.7,3.8c0.9,0.2,1.8,0.4,2.7,0.6c2,0.2,4.1,0.4,6.2,0.6
					c0.7,0.1,1.4,0.1,2.1,0.1c6.8,0.7,13.9-1,21-2c0.8-0.3,1.7-0.5,2.5-0.8c2.4-0.8,4.6-1.8,6.9-2.9c0.7-0.4,1.5-0.8,2.2-1.2
					c5.7-2.5,10.1-6.6,13.7-10.7c0.6-0.6,1.1-1.2,1.7-1.8C942.2,318,945,313.7,947.2,308.9"/>
				<g class="st29">
					<g>
						<defs>
							<rect id="SVGID_46_" x="833.6" y="226.5" width="119.1" height="114.9"/>
						</defs>
						<clipPath id="SVGID_47_">
							<use xlink:href="#SVGID_46_"  style="overflow:visible;"/>
						</clipPath>
						<path class="st30" d="M869.2,336.2c-28.2-12.9-42-44.1-32.6-71.7c0.3-0.9,0.6-1.7,0.9-2.6c1.1-1.7,2.2-3.5,3.4-5.4
							c0.4-0.6,0.8-1.2,1.2-1.8c1.1-1.3,2.1-2.7,3.1-4c0.5-0.7,1-1.3,1.5-2c3.5-6.8,10.5-11,16.3-15.3c0.6-0.3,1.3-0.7,1.9-1
							c5.9-2.9,12.2-4.7,18.8-5.5c2.1-0.3,4.3-0.4,6.5-0.4c4.2,0,8.3,0.5,12.3,1.5c0.8,0.2,1.6,0.4,2.4,0.6c5.8,0.7,10.7,4.1,16,6.3
							c0.7,0.4,1.3,0.9,1.9,1.3c1.9,1.4,3.6,2.9,5.5,4c0.7,0.6,1.4,1.1,2.2,1.7c4.2,3.5,8.1,7.4,11.4,11.6c1.2,1.8,2.3,3.6,3.3,5.5
							c3.2,6.1,5.4,12.6,6.3,19.4c0.1,0.8,0.2,1.7,0.3,2.5c1.6,3.2,0.2,6.3,0,10.2c-0.1,0.9-0.2,1.7-0.3,2.6
							c-0.7,5.1-2.2,10.2-4.4,15.1c-2.2,4.8-5,9.1-8.2,13c-0.5,0.6-1.1,1.3-1.7,1.8c-3.6,4-8,8.1-13.7,10.7
							c-0.7,0.4-1.5,0.8-2.2,1.2c-2.2,1.1-4.5,2.1-6.9,2.9c-0.8,0.3-1.7,0.6-2.5,0.8c-7.1,1.1-14.2,2.7-21,2c-0.7,0-1.4-0.1-2.1-0.1
							c-2.1-0.2-4.2-0.4-6.2-0.6c-0.9-0.2-1.8-0.4-2.7-0.6C876.3,339.1,872.7,337.8,869.2,336.2 M937.8,277.3
							c-0.1-0.6-0.2-1.1-0.3-1.7c-0.1-0.6-0.1-1.2-0.1-1.9c0.1-3.9,1.5-8.4,1.7-12.3c0.1-1.3,0-2.6-0.2-3.7c-1-3.9-3.7-6.3-6.3-6.3
							c-0.8-0.4-1.6-0.7-2.4-1.1c-3.2-0.5-6.2-1.6-9-3.3c-0.7-0.4-1.4-0.8-2.1-1.3c-7.7-3.9-10.7-11.4-18.3-14.9
							c-0.6-0.3-1.3-0.5-2-0.7c-3.3-1-6.9-1.4-10.7-1.1c-1.7,0.2-3.4,0.5-5.1,1c-4.4,1.2-8.7,3.4-13.5,6c-0.7,0.4-1.4,0.7-2.1,1.1
							c-2.9,1.7-5,4.2-7,6.8c-0.5,0.7-1,1.3-1.4,2c-3.5,6-10,9.2-14.9,13c-0.4,0.4-0.8,0.9-1.2,1.3c-1.2,1.3-2.3,2.7-3.3,4.2
							c-0.3,0.7-0.5,1.4-0.7,2.1c-3,10.2-1.9,23.4,0.5,33.9c3.4,14.5,16.1,28,29.5,34.1c2.6,1.2,5,1.7,7.2,1.7c0.8,0,1.5,0,2.3-0.1
							c1.8-0.5,3.4-1,5.1-1.4c0.8-0.2,1.6-0.4,2.4-0.5c8.8-3.3,18.5,3.6,27,1.5c0.7-0.3,1.3-0.6,2-0.9c0.6-0.3,1.2-0.7,1.7-1
							c0.6-0.4,1.1-0.8,1.7-1.2c5.6-6.7,8.2-15.3,17.2-18.3c0.6-0.5,1.3-1,2-1.5c2.6-2,5.2-3.8,6.3-6.1c1.1-2.4,1.5-4.8,1.3-7.2
							c0-0.8-0.1-1.6-0.3-2.4c-1.2-6.2-6.1-12.1-7-18.3C938.1,278.3,937.9,277.8,937.8,277.3"/>
					</g>
				</g>
				<path class="st28" d="M944.5,261.8c0.4-0.9,0-2-1-2.5c-1-0.4-2.1,0-2.5,0.9c-0.4,0.9,0,2,1,2.5
					C943,263.2,944.1,262.8,944.5,261.8"/>
				<path class="st28" d="M946.1,265.5c0.2-0.5,0-1.1-0.6-1.4c-0.5-0.2-1.2,0-1.4,0.5c-0.2,0.5,0,1.1,0.6,1.4
					C945.2,266.3,945.8,266.1,946.1,265.5"/>
				<path class="st28" d="M950.7,282c-1-0.8-1-0.8-0.9,0.3C950.1,282.5,950.6,282.3,950.7,282"/>
				<path class="st28" d="M946.7,268.9c0.2-0.3,0-0.7-0.4-0.9c-0.4-0.2-0.8,0-0.9,0.3c-0.2,0.3,0,0.7,0.4,0.9
					C946.1,269.4,946.5,269.3,946.7,268.9"/>
				<g class="st29">
					<g>
						<defs>
							<rect id="SVGID_48_" x="931.5" y="267.8" width="2.8" height="2.7"/>
						</defs>
						<clipPath id="SVGID_49_">
							<use xlink:href="#SVGID_48_"  style="overflow:visible;"/>
						</clipPath>
						<path class="st31" d="M934.2,269.8c0.3-0.7,0-1.5-0.7-1.8c-0.7-0.3-1.5,0-1.9,0.7c-0.3,0.7,0,1.5,0.7,1.8
							C933.1,270.7,933.9,270.5,934.2,269.8"/>
					</g>
				</g>
				<g class="st29">
					<g>
						<defs>
							<rect id="SVGID_50_" x="927.7" y="268.3" width="1.4" height="1.4"/>
						</defs>
						<clipPath id="SVGID_51_">
							<use xlink:href="#SVGID_50_"  style="overflow:visible;"/>
						</clipPath>
						<path class="st32" d="M929,269.3c0.2-0.3,0-0.7-0.4-0.9c-0.4-0.2-0.8,0-0.9,0.3c-0.2,0.3,0,0.7,0.4,0.9
							C928.5,269.8,928.9,269.7,929,269.3"/>
					</g>
				</g>
				<path class="st28" d="M924.5,246.4c-0.9-0.7-0.9-0.7-1.1,0.7C923.8,247.1,924.3,246.8,924.5,246.4"/>
				<path class="st28" d="M935.5,248.7c0.3-0.7,0-1.6-0.8-2c-0.8-0.3-1.7,0-2.1,0.7c-0.3,0.7,0,1.6,0.8,2
					C934.2,249.7,935.1,249.4,935.5,248.7"/>
				<path class="st28" d="M941.5,277.2c-1-0.9-1-0.9-1.2,0.4C940.7,277.8,941.3,277.6,941.5,277.2"/>
				<path class="st33" d="M944.1,260.7c0.1-0.3-0.1-0.8-0.6-1c-0.5-0.2-1-0.2-1.2,0.2c-0.1,0.3,0.1,0.8,0.6,1
					C943.4,261.1,943.9,261,944.1,260.7"/>
				<g class="st29">
					<g>
						<defs>
							<rect id="SVGID_52_" x="928.9" y="260.2" width="5.6" height="5.5"/>
						</defs>
						<clipPath id="SVGID_53_">
							<use xlink:href="#SVGID_52_"  style="overflow:visible;"/>
						</clipPath>
						<path class="st34" d="M934.3,264.1c0.6-1.4,0-3-1.5-3.7c-1.4-0.7-3.1-0.1-3.7,1.3c-0.6,1.4,0,3,1.5,3.7
							C932,266.1,933.7,265.5,934.3,264.1"/>
					</g>
				</g>
				<path class="st33" d="M933.6,262.5c0.2-0.5-0.2-1.1-0.9-1.5c-0.7-0.3-1.5-0.2-1.7,0.2c-0.2,0.5,0.2,1.1,0.9,1.5
					C932.7,263,933.4,262.9,933.6,262.5"/>
				<g class="st29">
					<g>
						<defs>
							<rect id="SVGID_54_" x="938.6" y="293" width="2.6" height="2.5"/>
						</defs>
						<clipPath id="SVGID_55_">
							<use xlink:href="#SVGID_54_"  style="overflow:visible;"/>
						</clipPath>
						<path class="st35" d="M941.1,294.8c0.3-0.6,0-1.4-0.7-1.7c-0.7-0.3-1.4,0-1.7,0.6c-0.3,0.6,0,1.4,0.7,1.7
							C940.1,295.7,940.8,295.4,941.1,294.8"/>
					</g>
				</g>
				<path class="st33" d="M940.8,294c0.1-0.2-0.1-0.5-0.4-0.7c-0.3-0.2-0.7-0.1-0.8,0.1c-0.1,0.2,0.1,0.5,0.4,0.7
					C940.4,294.3,940.7,294.3,940.8,294"/>
				<path class="st28" d="M948.8,272c0.3-0.7,0-1.5-0.7-1.8c-0.7-0.3-1.5,0-1.8,0.6c-0.3,0.7,0,1.5,0.7,1.8
					C947.7,272.9,948.5,272.7,948.8,272"/>
				<path class="st33" d="M948.5,271.2c0.1-0.2-0.1-0.5-0.5-0.7c-0.4-0.2-0.7-0.1-0.8,0.1c-0.1,0.2,0.1,0.5,0.5,0.7
					C948,271.5,948.4,271.4,948.5,271.2"/>
				<path class="st28" d="M950.2,285.4c0.2-0.5,0-1-0.5-1.2c-0.5-0.2-1,0-1.2,0.4c-0.2,0.5,0,1,0.5,1.2
					C949.5,286.1,950,285.9,950.2,285.4"/>
				<path class="st33" d="M950,284.9c0.1-0.2-0.1-0.4-0.3-0.5c-0.2-0.1-0.5-0.1-0.6,0.1c-0.1,0.2,0.1,0.4,0.3,0.5
					C949.7,285.1,949.9,285,950,284.9"/>
				
					<rect x="206.3" y="223.5" transform="matrix(-7.454506e-002 0.9972 -0.9972 -7.454506e-002 844.4622 -20.856)" class="st26" width="451.2" height="315.8"/>
				
					<rect x="307.7" y="178.8" transform="matrix(0.9972 7.454499e-002 -7.454499e-002 0.9972 14.8486 -32.7972)" class="st27" width="278.1" height="7.5"/>
				
					<rect x="306.2" y="199.7" transform="matrix(0.9972 7.454499e-002 -7.454499e-002 0.9972 16.405 -32.6222)" class="st27" width="278.1" height="7.5"/>
				
					<rect x="304.6" y="220.7" transform="matrix(0.9972 7.454499e-002 -7.454499e-002 0.9972 17.9614 -32.4473)" class="st27" width="278.1" height="7.5"/>
				
					<rect x="303" y="241.6" transform="matrix(0.9972 7.454499e-002 -7.454499e-002 0.9972 19.5178 -32.2724)" class="st27" width="278.1" height="7.5"/>
				
					<rect x="301.5" y="262.5" transform="matrix(0.9972 7.454499e-002 -7.454499e-002 0.9972 21.0743 -32.0975)" class="st27" width="278.1" height="7.5"/>
				
					<rect x="299.9" y="283.5" transform="matrix(0.9972 7.454499e-002 -7.454499e-002 0.9972 22.6307 -31.9225)" class="st27" width="278.1" height="7.5"/>
				
					<rect x="298.3" y="304.4" transform="matrix(0.9972 7.454499e-002 -7.454499e-002 0.9972 24.1871 -31.7476)" class="st27" width="278.1" height="7.5"/>
				
					<rect x="296.8" y="325.3" transform="matrix(0.9972 7.454499e-002 -7.454499e-002 0.9972 25.7435 -31.5727)" class="st27" width="278.1" height="7.5"/>
				
					<rect x="295.2" y="346.3" transform="matrix(0.9972 7.454499e-002 -7.454499e-002 0.9972 27.2999 -31.3978)" class="st27" width="278.1" height="7.5"/>
				
					<rect x="293.7" y="367.2" transform="matrix(0.9972 7.454499e-002 -7.454499e-002 0.9972 28.8563 -31.2228)" class="st27" width="278.1" height="7.5"/>
				
					<rect x="292.1" y="388.2" transform="matrix(0.9972 7.454499e-002 -7.454499e-002 0.9972 30.4127 -31.0479)" class="st27" width="278.1" height="7.5"/>
				
					<rect x="290.5" y="409.1" transform="matrix(0.9972 7.454499e-002 -7.454499e-002 0.9972 31.9691 -30.873)" class="st27" width="278.1" height="7.5"/>
				
					<rect x="289" y="430" transform="matrix(0.9972 7.454499e-002 -7.454499e-002 0.9972 33.5255 -30.6981)" class="st27" width="278.1" height="7.5"/>
				
					<rect x="287.4" y="451" transform="matrix(0.9972 7.454499e-002 -7.454499e-002 0.9972 35.082 -30.5231)" class="st27" width="278.1" height="7.5"/>
				
					<rect x="285.8" y="471.9" transform="matrix(0.9972 7.454499e-002 -7.454499e-002 0.9972 36.6384 -30.3482)" class="st27" width="278.1" height="7.5"/>
				
					<rect x="284.3" y="492.8" transform="matrix(0.9972 7.454499e-002 -7.454499e-002 0.9972 38.1948 -30.1733)" class="st27" width="278.1" height="7.5"/>
				
					<rect x="282.7" y="513.8" transform="matrix(0.9972 7.454499e-002 -7.454499e-002 0.9972 39.7512 -29.9984)" class="st27" width="278.1" height="7.5"/>
				
					<rect x="281.1" y="534.7" transform="matrix(0.9972 7.454499e-002 -7.454499e-002 0.9972 41.3076 -29.8234)" class="st27" width="278.1" height="7.5"/>
				
					<rect x="279.6" y="555.7" transform="matrix(0.9972 7.454499e-002 -7.454499e-002 0.9972 42.864 -29.6485)" class="st27" width="278.1" height="7.5"/>
				
					<rect x="278" y="576.6" transform="matrix(0.9972 7.454499e-002 -7.454499e-002 0.9972 44.4204 -29.4736)" class="st27" width="278.1" height="7.5"/>
				
					<rect x="326.5" y="240.8" transform="matrix(0.1194 0.9928 -0.9928 0.1194 882.0776 -197.0154)" class="st26" width="451.2" height="315.8"/>
				
					<rect x="392" y="200.3" transform="matrix(0.9928 -0.1194 0.1194 0.9928 -22.8589 64.987)" class="st27" width="278.1" height="45.9"/>
				
					<rect x="399.3" y="280.4" transform="matrix(0.9928 -0.1194 0.1194 0.9928 -30.0641 66.2944)" class="st27" width="278.1" height="7.5"/>
				
					<rect x="401.8" y="301.2" transform="matrix(0.9928 -0.1194 0.1194 0.9928 -32.5347 66.7427)" class="st27" width="278.1" height="7.5"/>
				
					<rect x="404.3" y="322" transform="matrix(0.9928 -0.1194 0.1194 0.9928 -35.0052 67.1909)" class="st27" width="278.1" height="7.5"/>
				
					<rect x="406.8" y="342.9" transform="matrix(0.9928 -0.1194 0.1194 0.9928 -37.4758 67.6392)" class="st27" width="278.1" height="7.5"/>
				
					<rect x="409.3" y="363.7" transform="matrix(0.9928 -0.1194 0.1194 0.9928 -39.9464 68.0875)" class="st27" width="278.1" height="7.5"/>
				
					<rect x="411.8" y="384.6" transform="matrix(0.9928 -0.1194 0.1194 0.9928 -42.4169 68.5358)" class="st27" width="278.1" height="7.5"/>
				
					<rect x="414.3" y="405.4" transform="matrix(0.9928 -0.1194 0.1194 0.9928 -44.8875 68.984)" class="st27" width="278.1" height="7.5"/>
				<path class="st26" d="M477.5,231.8l0.5,4.3l-2.8,0.3l-1.5-12.4l4.4-0.5c3.1-0.4,4.9,0.8,5.2,3.4c0.2,1.2-0.2,2.3-1,3.2
					c-0.8,0.9-2,1.4-3.5,1.6L477.5,231.8z M476.8,225.8l0.5,3.9l1.1-0.1c1.5-0.2,2.2-0.9,2-2.2c-0.2-1.3-1-1.8-2.5-1.6L476.8,225.8z
					"/>
				<path class="st26" d="M500.6,233.3l-3.1,0.4l-1.2-2.7l-4.4,0.5l-0.5,2.9l-3,0.4l3-13l3.3-0.4L500.6,233.3z M495.4,229l-1.8-4
					c-0.1-0.3-0.3-0.7-0.3-1.1l-0.1,0c0,0.4,0,0.7-0.1,1.1l-0.8,4.4L495.4,229z"/>
				<polygon class="st26" points="513.2,221.5 509.7,221.9 510.9,232.1 508.1,232.4 506.9,222.3 503.3,222.7 503.1,220.4 513,219.2 
									"/>
				<polygon class="st26" points="527.2,230.1 519.7,231 518.2,218.6 525.4,217.7 525.6,220 521.3,220.5 521.6,223.3 525.7,222.8 
					526,225.1 521.9,225.6 522.2,228.4 526.9,227.9 				"/>
				<path class="st26" d="M543.9,228.1l-2.8,0.3l-6.1-7.2c-0.4-0.4-0.6-0.7-0.7-1l0,0c0.1,0.4,0.2,1.1,0.3,2l0.8,6.8l-2.6,0.3
					l-1.5-12.4l3-0.4l5.8,7c0.3,0.3,0.5,0.6,0.7,0.9l0,0c-0.1-0.3-0.2-0.9-0.3-1.7l-0.8-6.9l2.6-0.3L543.9,228.1z"/>
				<polygon class="st26" points="557.8,216.1 554.3,216.6 555.5,226.7 552.7,227.1 551.5,216.9 547.9,217.3 547.7,215.1 
					557.5,213.9 				"/>
				<polygon class="st26" points="571.7,224.8 564.3,225.7 562.8,213.2 570,212.4 570.2,214.7 565.9,215.2 566.2,218 570.3,217.5 
					570.5,219.7 566.5,220.2 566.8,223.1 571.5,222.5 				"/>
				<path class="st26" d="M577.3,224.1l-1.5-12.4l4.4-0.5c4.4-0.5,6.9,1.2,7.4,5.3c0.2,1.9-0.2,3.6-1.3,4.9
					c-1.1,1.3-2.6,2.1-4.6,2.3L577.3,224.1z M578.9,213.6l0.9,7.9l1.4-0.2c1.2-0.1,2.1-0.6,2.7-1.4c0.6-0.8,0.8-1.8,0.7-3.1
					c-0.1-1.2-0.6-2.1-1.4-2.7c-0.8-0.6-1.8-0.8-3-0.7L578.9,213.6z"/>
				<polygon class="st36" points="661.6,304.4 650.2,300.9 640.4,307.5 634.3,266.4 655.5,263.3 				"/>
				<path class="st33" d="M637.5,268.8l5,33.9l7.3-4.9l8.4,2.6l-5-33.9L637.5,268.8z M657,299.1l-7.4-2.3l-6.4,4.3l-4.6-31.5l13.8-2
					L657,299.1z"/>
				<polygon class="st36" points="688.6,283.8 677.2,287.2 672.7,298.2 644.9,267.3 660.9,252.9 				"/>
				<path class="st33" d="M648.9,267.5l22.9,25.5l3.4-8.1l8.4-2.5l-22.9-25.5L648.9,267.5z M681.9,281.9l-7.4,2.2l-3,7.2l-21.3-23.7
					l10.4-9.4L681.9,281.9z"/>
				<g class="st37">
					<g>
						<defs>
							<rect id="SVGID_56_" x="634.3" y="252.9" width="40.7" height="35.8"/>
						</defs>
						<clipPath id="SVGID_57_">
							<use xlink:href="#SVGID_56_"  style="overflow:visible;"/>
						</clipPath>
						<path class="st38" d="M675,268.6l-14.1-15.7l-12.7,11.5l-13.8,2l2.9,19.5c1.5-0.6,3.3-0.1,4.3,1.3c1.3,2,4.2,2.1,5.7,0.2
							c1.2-1.5,3.4-1.8,4.9-0.6c1.9,1.5,4.7,0.7,5.5-1.6c0.2-0.6,0.6-1,1-1.4l-0.2-1.6l1,1.1c0.8-0.4,1.8-0.5,2.8-0.2
							c2.2,0.8,4.6-0.8,4.7-3.2c0.1-1.9,1.7-3.4,3.6-3.4c2.4,0.1,4.2-2.2,3.5-4.5C673.7,270.8,674.1,269.5,675,268.6"/>
					</g>
				</g>
				<path class="st39" d="M642.9,217.3L642.9,217.3c1.5-1.9,4.4-1.8,5.7,0.2c1.1,1.6,3.3,2,4.9,1c2-1.3,4.7-0.3,5.4,2
					c0.5,1.9,2.5,2.9,4.3,2.4c2.3-0.6,4.6,1.1,4.5,3.5c-0.1,1.9,1.4,3.6,3.4,3.6c2.4,0.1,4,2.5,3.2,4.7c-0.7,1.8,0.3,3.8,2.1,4.5
					c2.2,0.8,3,3.6,1.6,5.5c-1.2,1.5-0.9,3.7,0.6,4.9c1.9,1.5,1.8,4.4-0.2,5.7c-1.6,1.1-2,3.3-1,4.9c1.3,2,0.3,4.7-2,5.4
					c-1.9,0.5-2.9,2.5-2.4,4.3c0.6,2.3-1.1,4.6-3.5,4.5c-1.9-0.1-3.6,1.4-3.6,3.4c-0.1,2.4-2.5,4-4.7,3.2c-1.8-0.7-3.8,0.3-4.5,2.1
					c-0.8,2.2-3.6,3-5.5,1.6c-1.5-1.2-3.7-0.9-4.9,0.6c-1.5,1.9-4.4,1.8-5.7-0.2c-1.1-1.6-3.3-2-4.9-1c-2,1.3-4.7,0.3-5.4-2
					c-0.5-1.9-2.5-2.9-4.3-2.4c-2.3,0.6-4.6-1.1-4.5-3.5c0.1-1.9-1.4-3.6-3.4-3.6c-2.4-0.1-4-2.5-3.2-4.7c0.7-1.8-0.3-3.8-2.1-4.5
					c-2.2-0.8-3-3.6-1.6-5.5c1.2-1.5,0.9-3.7-0.6-4.9c-1.9-1.5-1.8-4.4,0.2-5.7c1.6-1.1,2-3.3,1-4.9c-1.3-2-0.3-4.7,2-5.4
					c1.9-0.5,2.9-2.5,2.4-4.3c-0.6-2.3,1.1-4.6,3.5-4.5c1.9,0.1,3.6-1.4,3.6-3.4c0.1-2.4,2.5-4,4.7-3.2c1.8,0.7,3.8-0.3,4.5-2.1
					c0.8-2.2,3.6-3,5.5-1.6C639.5,219.1,641.7,218.8,642.9,217.3"/>
				<path class="st40" d="M641.2,224.1c-15,1.8-25.7,15.4-23.9,30.5c1.8,15,15.4,25.7,30.5,23.9c15-1.8,25.7-15.4,23.9-30.5
					C669.9,233,656.3,222.3,641.2,224.1 M647.6,277.4c-14.4,1.7-27.5-8.5-29.2-22.9c-1.7-14.4,8.5-27.5,22.9-29.2
					c14.4-1.7,27.5,8.5,29.2,22.9C672.3,262.6,662,275.7,647.6,277.4"/>
				<path class="st33" d="M666.7,248.7c1.5,12.2-7.3,23.3-19.5,24.8c-12.2,1.5-23.3-7.3-24.8-19.5c-1.5-12.2,7.3-23.3,19.5-24.8
					C654.1,227.7,665.2,236.4,666.7,248.7"/>
				<path class="st41" d="M663.1,249.1c1.2,10.3-6.1,19.6-16.4,20.8c-10.3,1.2-19.6-6.1-20.8-16.4c-1.2-10.3,6.1-19.6,16.4-20.8
					C652.5,231.5,661.9,238.8,663.1,249.1"/>
				
					<rect x="454.8" y="562.2" transform="matrix(-0.9928 0.1194 -0.1194 -0.9928 1024.8197 1070.5398)" class="st27" width="51" height="7.5"/>
				
					<rect x="635.9" y="540.5" transform="matrix(-0.9928 0.1194 -0.1194 -0.9928 1383.1427 1005.5219)" class="st27" width="51" height="7.5"/>
				
					<rect x="456.1" y="574.3" transform="matrix(-0.9928 0.1194 -0.1194 -0.9928 1028.4788 1090.7031)" class="st27" width="51" height="3.7"/>
				
					<rect x="637.2" y="552.5" transform="matrix(-0.9928 0.1194 -0.1194 -0.9928 1386.8015 1025.6853)" class="st27" width="51" height="3.7"/>
				<path class="st42" d="M467.3,570.8c-0.5,0.1-1.1,0-1.6-0.1c-3.7-1-5.8-7-7.1-10.5c-0.1-0.4-0.3-0.7-0.4-1
					c-1.8-4.9-2.9-9.9-3.3-15.1c0-0.3,0.2-0.5,0.4-0.5c0.3,0,0.5,0.2,0.5,0.4c0.4,5,1.5,10,3.2,14.8c0.1,0.3,0.2,0.7,0.4,1
					c1.2,3.4,3.2,9.1,6.4,9.9c2.5,0.6,5.2-2,6.1-2.9c2.3-2.2,4-4.8,5.2-7.5c0.4-1,0.7-1.9,0.9-2.8c-0.2,0-0.3,0-0.5-0.1
					c-1.4-0.2-2.5-1-3-2.1c-0.3-0.7-0.3-1.5-0.3-2.2c0.1-1.4,0.3-2.8,0.7-4.1c0.2-0.6,0.7-1.1,1.3-1.1c0.6-0.1,1.2,0.2,1.6,0.7
					c0.8,1.3,1.3,2.9,1.5,4.6c0.1,1.1,0,2.2-0.2,3.4c1.1,0,2.3-0.3,3.5-0.6c2.3-0.5,4.6-1.1,7,0.1c0.4,0.2,0.9,0.5,1.3,0.8
					c0.7,0.5,1.3,0.9,2.1,1.1c1.3,0.4,2.9-0.1,4.2-1.2c1.4-1.3,2.3-3.2,3.1-4.8c0.1-0.2,0.4-0.3,0.6-0.2c0.2,0.1,0.3,0.4,0.2,0.6
					c-0.8,1.7-1.7,3.7-3.3,5.1c-1.5,1.3-3.4,1.9-5,1.5c-0.9-0.2-1.6-0.7-2.3-1.2c-0.4-0.3-0.8-0.5-1.2-0.7c-2.1-1.1-4.2-0.6-6.4-0.1
					c-1.3,0.3-2.6,0.6-3.9,0.6c-0.2,1-0.6,2-1,3.1c-1.2,2.9-3,5.5-5.4,7.8C471.4,568.9,469.4,570.6,467.3,570.8 M476.6,547.9
					C476.6,547.9,476.6,547.9,476.6,547.9c-0.3,0-0.5,0.2-0.6,0.5c-0.4,1.3-0.6,2.6-0.6,3.9c0,0.6,0,1.2,0.2,1.8
					c0.4,0.9,1.5,1.4,2.3,1.6c0.2,0,0.3,0.1,0.5,0.1c0.2-1.2,0.3-2.3,0.2-3.3c-0.1-1.5-0.6-3-1.3-4.2
					C477.2,548,476.9,547.9,476.6,547.9"/>
				<path class="st42" d="M636.3,516.1c-15.4,1.8-26.3,15.8-24.5,31.1c1.8,15.4,15.8,26.3,31.1,24.5c15.4-1.8,26.3-15.8,24.5-31.1
					C665.6,525.2,651.7,514.2,636.3,516.1 M642.6,567.7c-13.2,1.6-25.2-7.8-26.8-21c-1.6-13.2,7.8-25.2,21-26.8
					c13.2-1.6,25.2,7.8,26.8,21C665.2,554.2,655.8,566.2,642.6,567.7"/>
				<path class="st42" d="M637,521.5c-12.4,1.5-21.2,12.7-19.7,25.1c1.5,12.4,12.7,21.2,25.1,19.7c12.4-1.5,21.2-12.7,19.7-25.1
					C660.6,528.8,649.4,520,637,521.5 M642,563.1c-10.6,1.3-20.3-6.3-21.5-16.9c-1.3-10.6,6.3-20.3,16.9-21.5
					c10.6-1.3,20.3,6.3,21.5,16.9C660.2,552.2,652.6,561.8,642,563.1"/>
				<g class="st37">
					<g>
						<defs>
							<rect id="SVGID_58_" x="368.4" y="193.6" width="49.7" height="413"/>
						</defs>
						<clipPath id="SVGID_59_">
							<use xlink:href="#SVGID_58_"  style="overflow:visible;"/>
						</clipPath>
						<polygon class="st43" points="418,606.6 407.2,605.8 368.4,193.6 						"/>
					</g>
				</g>
				<g class="st37">
					<g>
						<defs>
							<rect id="SVGID_60_" x="257.6" y="594.6" width="141.5" height="16.3"/>
						</defs>
						<clipPath id="SVGID_61_">
							<use xlink:href="#SVGID_60_"  style="overflow:visible;"/>
						</clipPath>
						<polygon class="st44" points="257.6,594.6 399.2,605.2 386.4,610.9 						"/>
					</g>
				</g>
				<path class="st45" d="M656.2,460.9c-9.5-13-13-24.4-2.2-31.6c-12-8.8-14.8-23,2.2-30.7l6.2-5.3l69.2,18.4l25.2,29.9l-2.4,56.4
					l-43.1,20.3l-27-31.9L656.2,460.9z"/>
				<path class="st46" d="M690,474.2c0,0,4.6,22.1,14.6,27.2c10,5.1,26.1-1.3,32.5-12.4c6.4-11.1,2-53.5,2-53.5l-47.3-19.7
					l-16.1-16.4l-13.3-6.2c3.9-8.1,13.2-11.9,21.7-9l66.7,23.3c8.9,3.1,15.8,10.1,18.9,19.1c2.8,8.3,6.4,20.2,9.9,36
					c3.9,17.3,5.8,29.4,6.8,37.1c0.8,6.7-1.3,13.4-5.9,18.3l-36.3,48.7v7.1h-81.9l-0.6-23.3L690,474.2z"/>
				
					<rect x="751.3" y="408.3" transform="matrix(-0.6859 0.7277 -0.7277 -0.6859 1643.2446 283.8397)" class="st47" width="18.1" height="176.5"/>
				<path class="st48" d="M634.6,391.2l13.1-13.9c0.3-0.3,0.7-0.3,1,0l53.9,50.8c0.3,0.3,0.3,0.7,0,1L689.6,443
					c-0.3,0.3-0.7,0.3-1,0l-53.9-50.8C634.4,391.9,634.4,391.5,634.6,391.2"/>
			</g>
			<g class="st2">
				<defs>
					<polygon id="SVGID_62_" points="628.4,374.9 634.8,391 647.6,377.5 631.1,372 					"/>
				</defs>
				<clipPath id="SVGID_63_">
					<use xlink:href="#SVGID_62_"  style="overflow:visible;"/>
				</clipPath>
				
					<linearGradient id="SVGID_64_" gradientUnits="userSpaceOnUse" x1="4.2214" y1="753.5123" x2="4.9536" y2="753.5123" gradientTransform="matrix(-17.8918 -16.8639 -16.8639 17.8918 13425.2051 -13024.6475)">
					<stop  offset="0" style="stop-color:#CECFD2"/>
					<stop  offset="5.618000e-003" style="stop-color:#CECFD2"/>
					<stop  offset="0.1848" style="stop-color:#D7D8DB"/>
					<stop  offset="0.4827" style="stop-color:#F1F2F4"/>
					<stop  offset="0.5337" style="stop-color:#F6F7F9"/>
					<stop  offset="1" style="stop-color:#F8F8F9"/>
				</linearGradient>
				<polygon class="st49" points="638.6,400.6 618.9,382.1 637.4,362.5 657,381 				"/>
			</g>
			<g class="st2">
				<defs>
					<rect id="SVGID_65_" x="1" y="27.6" width="1025" height="717.5"/>
				</defs>
				<clipPath id="SVGID_66_">
					<use xlink:href="#SVGID_65_"  style="overflow:visible;"/>
				</clipPath>
				<polygon class="st50" points="628.4,374.9 634.8,391 647.6,377.5 631.1,372 				"/>
				<path class="st51" d="M627.1,373.2c-1.2-1.1,1-3.5,2.2-2.4l1.5,1.4l-2.2,2.4L627.1,373.2z"/>
				<path class="st52" d="M829.5,570.5l8.7-9.2c0.7-0.8,0.7-2-0.1-2.8l-7.9-7.4l-11.4,12.1l7.9,7.4
					C827.5,571.3,828.8,571.3,829.5,570.5"/>
				<path class="st50" d="M832.8,544.7l-55.1-51.9c-1.5-1.4-3.9-1.4-5.4,0.2l56.9,53.6l-14.6,15.5c-0.4,0.4-0.4,1.1,0,1.5l1.2,1.2
					c0.4,0.4,1.1,0.4,1.5,0l15.1-16l0.4-0.4C833.9,547.3,833.8,545.7,832.8,544.7"/>
				<path class="st53" d="M771.3,507c-2.1,2.3-3.8,4.8-5.2,7.4l3.5,3.3c1.2-2.7,2.8-5.3,5-7.6c2.2-2.3,4.7-4.1,7.5-5.5l-3.5-3.3
					C776,502.8,773.5,504.7,771.3,507"/>
				<path class="st53" d="M817.5,538c-1.2,2.8-2.8,5.4-5,7.8c-2.2,2.3-4.6,4.1-7.3,5.4l3.5,3.3c2.6-1.5,5-3.3,7.1-5.6
					c2.2-2.3,3.9-4.9,5.2-7.6L817.5,538z"/>
				<path class="st54" d="M698.6,540.6l-36.8,9.9c-4.2-42.7-6.2-85.7-6.2-129c-0.7-9.2,6.1-17.3,15.3-18c9.2-0.7,17.3,6.1,18,15.3
					L698.6,540.6z"/>
				<rect x="652.7" y="573.9" class="st55" width="101.1" height="19.9"/>
				<rect x="645.5" y="593.8" class="st56" width="115.7" height="151.3"/>
				<path class="st57" d="M666,624.5c0,3.7-3,6.6-6.6,6.6s-6.6-3-6.6-6.6s3-6.6,6.6-6.6S666,620.9,666,624.5"/>
			</g>
		</g>
	</g>
</g>
</svg>
